<?xml version="1.0" encoding="UTF-8" standalone="no"?>
<!DOCTYPE svg PUBLIC "-//W3C//DTD SVG 1.0//EN"
"http://www.w3.org/TR/2001/REC-SVG-20010904/DTD/svg10.dtd">
<!-- Created with Sodipodi ("http://www.sodipodi.com/") -->
<svg
   id="svg602"
   sodipodi:version="0.34"
   xmlns="http://www.w3.org/2000/svg"
   xmlns:sodipodi="http://sodipodi.sourceforge.net/DTD/sodipodi-0.dtd"
   xmlns:xlink="http://www.w3.org/1999/xlink"
   width="700pt"
   height="300pt"
   xml:space="preserve"
   sodipodi:docbase="/home/daniel"
   sodipodi:docname="/home/daniel/constant_fraction_1.svg"><defs
   id="defs604" /><sodipodi:namedview
   id="base"
   showgrid="true"
   snaptogrid="false"
   gridspacingy="10pt"
   gridspacingx="10pt"
   gridtolerance="3px" /><path
   style="font-size:12;fill:none;fill-rule:evenodd;stroke:#ff0000;stroke-width:2.5;stroke-opacity:1;stroke-dasharray:none;"
   d="M 75 312.5001 C 150 312.5001 175 212.5001 200 112.5001 C 225 12.50003 250 12.50003 275 112.5001 C 300 212.5001 325 312.5001 400 312.5001 "
   id="path605"
   sodipodi:nodetypes="cccc" /><path
   style="fill:none;fill-rule:evenodd;stroke:#00bf00;stroke-opacity:1;stroke-width:2.5;stroke-linejoin:miter;stroke-linecap:butt;fill-opacity:1;stroke-dasharray:none;"
   d="M 75 312.5001 C 150 312.5001 175 262.5001 200 212.5001 C 225 162.5001 250 162.5001 275 212.5001 C 300 262.5001 325 312.5001 400 312.5001 "
   id="path608"
   sodipodi:nodetypes="cccc" /><path
   style="font-size:12;fill:none;fill-rule:evenodd;stroke:#ff0000;stroke-width:2.5;stroke-opacity:1;stroke-dasharray:none;"
   d="M 475 312.5 C 550 312.5 575 212.5 600 112.5 C 625 12.49992 650 12.49992 675 112.5 C 700 212.5 725 312.5 800 312.5 "
   id="path609"
   sodipodi:nodetypes="cccc" /><path
   style="fill:none;fill-rule:evenodd;stroke:#00bf00;stroke-opacity:1;stroke-width:2.5;stroke-linejoin:miter;stroke-linecap:butt;fill-opacity:1;stroke-dasharray:none;"
   d="M 475 312.5 C 550 312.5 575 262.5 600 212.5 C 625 162.5 650 162.5 675 212.5 C 700 262.5 725 312.5 800 312.5 "
   id="path610"
   sodipodi:nodetypes="cccc" /><path
   style="fill:none;fill-rule:evenodd;stroke:#000000;stroke-opacity:0.5;stroke-width:1pt;stroke-linejoin:miter;stroke-linecap:butt;fill-opacity:1;"
   d="M 75 187.5001 C 75 187.5001 250 187.5001 250 187.5001 "
   id="path611"
   sodipodi:nodetypes="cc" /><path
   style="fill:none;fill-rule:evenodd;stroke:#0000ff;stroke-opacity:0.5;stroke-width:3.125;stroke-linejoin:miter;stroke-linecap:butt;fill-opacity:1;stroke-dasharray:none;"
   d="M 600 312.5 C 600 312.5 600 49.99996 600 49.99996 "
   id="path612"
   sodipodi:nodetypes="cc" /><path
   style="fill:none;fill-rule:evenodd;stroke:#00bf00;stroke-opacity:0.5;stroke-width:1pt;stroke-linejoin:miter;stroke-linecap:butt;fill-opacity:1;"
   d="M 675 312.5 C 675 312.5 675 175 675 175 "
   id="path613"
   sodipodi:nodetypes="cc" /><path
   style="fill:none;fill-rule:evenodd;stroke:#ff0000;stroke-opacity:0.67;stroke-width:1pt;stroke-linejoin:miter;stroke-linecap:butt;fill-opacity:1;"
   d="M 700 312.5 C 700 312.5 700 37.49996 700 37.49996 "
   id="path614"
   sodipodi:nodetypes="cc" /><path
   style="fill:none;fill-rule:evenodd;stroke:#0000ff;stroke-opacity:0.4964;stroke-width:3.125;stroke-linejoin:miter;stroke-linecap:butt;fill-opacity:1;stroke-dasharray:none;"
   d="M 215.819 312.5001 C 215.819 312.5001 215.819 49.99983 215.819 49.99983 "
   id="path615"
   sodipodi:nodetypes="cc" /><path
   style="fill:none;fill-rule:evenodd;stroke:#000000;stroke-opacity:0.5;stroke-width:1pt;stroke-linejoin:miter;stroke-linecap:butt;fill-opacity:1;"
   d="M 637.5 175 C 637.5 175 675 175 675 175 "
   id="path617"
   sodipodi:nodetypes="cc" /><path
   style="fill:none;fill-rule:evenodd;stroke:#ff0000;stroke-opacity:0.67;stroke-width:1pt;stroke-linejoin:miter;stroke-linecap:butt;fill-opacity:1;"
   d="M 637.5 37.49996 C 637.5 37.49996 700 37.49989 700 37.49989 "
   id="path618"
   sodipodi:nodetypes="cc" /><path
   style="fill:none;fill-rule:evenodd;stroke:#ff0000;stroke-opacity:0.67;stroke-width:1pt;stroke-linejoin:miter;stroke-linecap:butt;fill-opacity:1;"
   d="M 637.5 112.5001 C 637.5 112.5001 700 112.5 700 112.5 "
   id="path619"
   sodipodi:nodetypes="cc" /><path
   style="fill:none;fill-rule:evenodd;stroke:#00bf00;stroke-opacity:0.5;stroke-width:1pt;stroke-linejoin:miter;stroke-linecap:butt;fill-opacity:1;"
   d="M 637.5 175 C 637.5 175 675 175 675 175 "
   id="path620"
   sodipodi:nodetypes="cc" /><path
   style="fill:none;fill-rule:evenodd;stroke:#0000ff;stroke-opacity:0.4964;stroke-width:3.125;stroke-linejoin:miter;stroke-linecap:butt;fill-opacity:1;stroke-dasharray:none;"
   d="M 180.0829 312.5002 C 180.0829 312.5002 180.0829 50 180.0829 50 "
   id="path621"
   sodipodi:nodetypes="cc" /><path
   style="fill:none;fill-rule:evenodd;stroke:#00bf00;stroke-opacity:0.5;stroke-width:1pt;stroke-linejoin:miter;stroke-linecap:butt;fill-opacity:1;"
   d="M 637.5 212.5 C 637.5 212.5 675 212.5 675 212.5 "
   id="path622"
   sodipodi:nodetypes="cc" /><path
   style="fill:none;fill-rule:evenodd;stroke:black;stroke-opacity:1;stroke-width:1pt;stroke-linejoin:miter;stroke-linecap:butt;fill-opacity:1;"
   d="M 62.5 312.5 C 62.5 312.5 412.5 312.5 412.5 312.5 "
   id="path623"
   sodipodi:nodetypes="cc" /><path
   style="fill:none;fill-rule:evenodd;stroke:black;stroke-opacity:1;stroke-width:1pt;stroke-linejoin:miter;stroke-linecap:butt;fill-opacity:1;"
   d="M 387.6341 337.6836 L 387.6341 337.6836 "
   id="path624" /><path
   style="fill:none;fill-rule:evenodd;stroke:black;stroke-opacity:1;stroke-width:1pt;stroke-linejoin:miter;stroke-linecap:butt;fill-opacity:1;"
   d="M 462.5 312.5 C 462.5 312.5 812.5 312.5 812.5 312.5 "
   id="path626"
   sodipodi:nodetypes="cc" /><path
   sodipodi:type="arc"
   style="fill-rule:evenodd;stroke:#000000;fill:#ff0000;fill-opacity:0.4964;stroke-opacity:1;stroke-width:1pt;stroke-linejoin:miter;stroke-linecap:butt;"
   id="path627"
   d="M 375 256.25 A 6.25 6.25 0 1 0 362.5 256.25 A 6.25 6.25 0 1 0  375 256.25 z"
   sodipodi:cx="368.75"
   sodipodi:cy="256.25"
   sodipodi:rx="6.25"
   sodipodi:ry="6.25"
   transform="translate(-188.75,-69.06258)" /><path
   sodipodi:type="arc"
   style="fill-rule:evenodd;stroke:#000000;fill:#00bf00;fill-opacity:0.4964;stroke-opacity:1;stroke-width:1pt;stroke-linejoin:miter;stroke-linecap:butt;"
   id="path628"
   d="M 375 256.25 A 6.25 6.25 0 1 0 362.5 256.25 A 6.25 6.25 0 1 0  375 256.25 z"
   sodipodi:cx="368.75"
   sodipodi:cy="256.25"
   sodipodi:rx="6.25"
   sodipodi:ry="6.25"
   transform="translate(-153.125,-69.06258)" /><text
   style="fill:#ff0000;stroke:none;font-family:Arial;font-style:normal;font-weight:normal;font-size:26;fill-opacity:1;stroke-opacity:1;stroke-width:1pt;stroke-linejoin:miter;stroke-linecap:butt;text-anchor:start;writing-mode:lr;"
   x="176.875336"
   y="339.999939"
   id="text629"
   sodipodi:linespacing="100%"
   xml:space="preserve"><tspan
   x="176.875336"
   y="339.999939"
   sodipodi:role="line"
   id="tspan632"
   style="fill:#ff0000;fill-opacity:1;">t</tspan></text><text
   style="fill:#00bf00;stroke:none;font-family:Arial;font-style:normal;font-weight:normal;font-size:26;fill-opacity:1;stroke-opacity:1;stroke-width:1pt;stroke-linejoin:miter;stroke-linecap:butt;text-anchor:start;writing-mode:lr;"
   x="212.500334"
   y="339.999939"
   id="text634"
   sodipodi:linespacing="100%"
   xml:space="preserve"><tspan
   x="212.500336"
   y="339.999939"
   sodipodi:role="line"
   id="tspan635"
   style="fill:#00bf00;fill-opacity:1;">t</tspan></text><path
   sodipodi:type="arc"
   style="fill-rule:evenodd;stroke:#000000;fill:#ff0000;fill-opacity:0.4964;stroke-opacity:1;stroke-width:1pt;stroke-linejoin:miter;stroke-linecap:butt;"
   id="path637"
   d="M 375 256.25 A 6.25 6.25 0 1 0 362.5 256.25 A 6.25 6.25 0 1 0  375 256.25 z"
   sodipodi:cx="368.75"
   sodipodi:cy="256.25"
   sodipodi:rx="6.25"
   sodipodi:ry="6.25"
   transform="translate(231.2509,-144.0625)" /><path
   sodipodi:type="arc"
   style="fill-rule:evenodd;stroke:#000000;fill:#00bf00;fill-opacity:0.4964;stroke-opacity:1;stroke-width:1pt;stroke-linejoin:miter;stroke-linecap:butt;"
   id="path638"
   d="M 375 256.25 A 6.25 6.25 0 1 0 362.5 256.25 A 6.25 6.25 0 1 0  375 256.25 z"
   sodipodi:cx="368.75"
   sodipodi:cy="256.25"
   sodipodi:rx="6.25"
   sodipodi:ry="6.25"
   transform="translate(231.2508,-43.90625)" /><text
   style="fill:#000000;stroke:none;font-family:Arial;font-style:normal;font-weight:normal;font-size:26;fill-opacity:1;stroke-opacity:1;stroke-width:1pt;stroke-linejoin:miter;stroke-linecap:butt;text-anchor:start;writing-mode:lr;"
   x="596.719115"
   y="339.999939"
   id="text639"
   sodipodi:linespacing="100%"
   xml:space="preserve"><tspan
   x="596.719116"
   y="339.999939"
   sodipodi:role="line"
   id="tspan640"
   style="fill:#000000;fill-opacity:1;">t</tspan></text></svg>
