<?xml version="1.0" encoding="utf-8" standalone="no"?>
<!DOCTYPE svg PUBLIC "-//W3C//DTD SVG 1.1//EN"
  "http://www.w3.org/Graphics/SVG/1.1/DTD/svg11.dtd">
<svg xmlns:xlink="http://www.w3.org/1999/xlink" width="460.8pt" height="345.6pt" viewBox="0 0 460.8 345.6" xmlns="http://www.w3.org/2000/svg" version="1.1">
 <metadata>
  <rdf:RDF xmlns:dc="http://purl.org/dc/elements/1.1/" xmlns:cc="http://creativecommons.org/ns#" xmlns:rdf="http://www.w3.org/1999/02/22-rdf-syntax-ns#">
   <cc:Work>
    <dc:type rdf:resource="http://purl.org/dc/dcmitype/StillImage"/>
    <dc:date>2024-04-25T13:50:42.927165</dc:date>
    <dc:format>image/svg+xml</dc:format>
    <dc:creator>
     <cc:Agent>
      <dc:title>Matplotlib v3.8.2, https://matplotlib.org/</dc:title>
     </cc:Agent>
    </dc:creator>
   </cc:Work>
  </rdf:RDF>
 </metadata>
 <defs>
  <style type="text/css">*{stroke-linejoin: round; stroke-linecap: butt}</style>
 </defs>
 <g id="figure_1">
  <g id="patch_1">
   <path d="M 0 345.6 
L 460.8 345.6 
L 460.8 0 
L 0 0 
z
" style="fill: #ffffff"/>
  </g>
  <g id="axes_1">
   <g id="patch_2">
    <path d="M 57.6 307.584 
L 414.72 307.584 
L 414.72 41.472 
L 57.6 41.472 
z
" style="fill: #ffffff"/>
   </g>
   <g id="matplotlib.axis_1">
    <g id="xtick_1">
     <g id="line2d_1">
      <path d="M 120.211948 307.584 
L 120.211948 41.472 
" clip-path="url(#p5f5429942e)" style="fill: none; stroke: #cccccc; stroke-width: 0.8; stroke-linecap: round"/>
     </g>
     <g id="text_1">
      <!-- $\mathdefault{−20}$ -->
      <g style="fill: #262626" transform="translate(110.470676 323.494347) scale(0.11 -0.11)">
       <defs>
        <path id="CMSY10-0" d="M 4218 1472 
C 4326 1472 4442 1472 4442 1600 
C 4442 1728 4326 1728 4218 1728 
L 755 1728 
C 646 1728 531 1728 531 1600 
C 531 1472 646 1472 755 1472 
L 4218 1472 
z
" transform="scale(0.015625)"/>
        <path id="CMR17-32" d="M 2669 989 
L 2554 989 
C 2490 536 2438 459 2413 420 
C 2381 369 1920 369 1830 369 
L 602 369 
C 832 619 1280 1072 1824 1597 
C 2214 1967 2669 2402 2669 3035 
C 2669 3790 2067 4224 1395 4224 
C 691 4224 262 3604 262 3030 
C 262 2780 448 2748 525 2748 
C 589 2748 781 2787 781 3010 
C 781 3207 614 3264 525 3264 
C 486 3264 448 3258 422 3245 
C 544 3790 915 4058 1306 4058 
C 1862 4058 2227 3617 2227 3035 
C 2227 2479 1901 2000 1536 1584 
L 262 146 
L 262 0 
L 2515 0 
L 2669 989 
z
" transform="scale(0.015625)"/>
        <path id="CMR17-30" d="M 2688 2025 
C 2688 2416 2682 3080 2413 3591 
C 2176 4039 1798 4198 1466 4198 
C 1158 4198 768 4058 525 3597 
C 269 3118 243 2524 243 2025 
C 243 1661 250 1106 448 619 
C 723 -39 1216 -128 1466 -128 
C 1760 -128 2208 -7 2470 600 
C 2662 1042 2688 1559 2688 2025 
z
M 1466 -26 
C 1056 -26 813 325 723 812 
C 653 1188 653 1738 653 2096 
C 653 2588 653 2997 736 3387 
C 858 3929 1216 4096 1466 4096 
C 1728 4096 2067 3923 2189 3400 
C 2272 3036 2278 2607 2278 2096 
C 2278 1680 2278 1169 2202 792 
C 2067 95 1690 -26 1466 -26 
z
" transform="scale(0.015625)"/>
       </defs>
       <use xlink:href="#CMSY10-0" transform="scale(0.996264)"/>
       <use xlink:href="#CMR17-32" transform="translate(77.487468 0) scale(0.996264)"/>
       <use xlink:href="#CMR17-30" transform="translate(123.177945 0) scale(0.996264)"/>
      </g>
     </g>
    </g>
    <g id="xtick_2">
     <g id="line2d_2">
      <path d="M 197.510649 307.584 
L 197.510649 41.472 
" clip-path="url(#p5f5429942e)" style="fill: none; stroke: #cccccc; stroke-width: 0.8; stroke-linecap: round"/>
     </g>
     <g id="text_2">
      <!-- $\mathdefault{0}$ -->
      <g style="fill: #262626" transform="translate(194.770916 323.494347) scale(0.11 -0.11)">
       <use xlink:href="#CMR17-30" transform="scale(0.996264)"/>
      </g>
     </g>
    </g>
    <g id="xtick_3">
     <g id="line2d_3">
      <path d="M 274.809351 307.584 
L 274.809351 41.472 
" clip-path="url(#p5f5429942e)" style="fill: none; stroke: #cccccc; stroke-width: 0.8; stroke-linecap: round"/>
     </g>
     <g id="text_3">
      <!-- $\mathdefault{20}$ -->
      <g style="fill: #262626" transform="translate(269.329883 323.494347) scale(0.11 -0.11)">
       <use xlink:href="#CMR17-32" transform="scale(0.996264)"/>
       <use xlink:href="#CMR17-30" transform="translate(45.690477 0) scale(0.996264)"/>
      </g>
     </g>
    </g>
    <g id="xtick_4">
     <g id="line2d_4">
      <path d="M 352.108052 307.584 
L 352.108052 41.472 
" clip-path="url(#p5f5429942e)" style="fill: none; stroke: #cccccc; stroke-width: 0.8; stroke-linecap: round"/>
     </g>
     <g id="text_4">
      <!-- $\mathdefault{40}$ -->
      <g style="fill: #262626" transform="translate(346.628585 323.494347) scale(0.11 -0.11)">
       <defs>
        <path id="CMR17-34" d="M 2150 4122 
C 2150 4256 2144 4256 2029 4256 
L 128 1254 
L 128 1088 
L 1779 1088 
L 1779 457 
C 1779 224 1766 160 1318 160 
L 1197 160 
L 1197 0 
C 1402 0 1747 0 1965 0 
C 2182 0 2528 0 2733 0 
L 2733 160 
L 2611 160 
C 2163 160 2150 224 2150 457 
L 2150 1088 
L 2803 1088 
L 2803 1254 
L 2150 1254 
L 2150 4122 
z
M 1798 3703 
L 1798 1254 
L 256 1254 
L 1798 3703 
z
" transform="scale(0.015625)"/>
       </defs>
       <use xlink:href="#CMR17-34" transform="scale(0.996264)"/>
       <use xlink:href="#CMR17-30" transform="translate(45.690477 0) scale(0.996264)"/>
      </g>
     </g>
    </g>
    <g id="text_5">
     <!-- Position $x\ [\mathrm{mm}]$ -->
     <g style="fill: #262626" transform="translate(193.086099 339.338815) scale(0.13 -0.13)">
      <defs>
       <path id="CMSS17-50" d="M 2106 1856 
C 2874 1856 3501 2453 3501 3158 
C 3501 3850 2899 4453 2067 4453 
L 570 4453 
L 570 0 
L 1107 0 
L 1107 1856 
L 2106 1856 
z
M 1926 4096 
C 2669 4096 2995 3627 2995 3157 
C 2995 2720 2694 2226 1926 2226 
L 1094 2226 
L 1094 4096 
L 1926 4096 
z
" transform="scale(0.015625)"/>
       <path id="CMSS17-6f" d="M 2829 1356 
C 2829 2176 2221 2816 1504 2816 
C 768 2816 173 2157 173 1356 
C 173 544 787 -64 1498 -64 
C 2227 -64 2829 563 2829 1356 
z
M 1504 337 
C 1050 337 659 709 659 1408 
C 659 2151 1114 2427 1498 2427 
C 1914 2427 2342 2126 2342 1408 
C 2342 683 1926 337 1504 337 
z
" transform="scale(0.015625)"/>
       <path id="CMSS17-73" d="M 2061 2627 
C 1683 2807 1389 2807 1197 2807 
C 742 2807 198 2648 198 2003 
C 198 1359 902 1218 1094 1179 
C 1389 1122 1715 1058 1715 740 
C 1715 337 1254 337 1171 337 
C 915 337 563 407 243 638 
L 166 210 
C 531 0 883 -64 1178 -64 
C 1965 -64 2163 416 2163 781 
C 2163 1094 1984 1305 1862 1401 
C 1651 1568 1574 1587 1050 1696 
C 960 1709 646 1779 646 2066 
C 646 2432 1050 2432 1139 2432 
C 1555 2432 1811 2303 1984 2208 
L 2061 2627 
z
" transform="scale(0.015625)"/>
       <path id="CMSS17-69" d="M 979 4183 
L 442 4183 
L 442 3648 
L 979 3648 
L 979 4183 
z
M 947 2739 
L 474 2739 
L 474 0 
L 947 0 
L 947 2739 
z
" transform="scale(0.015625)"/>
       <path id="CMSS17-74" d="M 1069 2368 
L 1901 2368 
L 1901 2737 
L 1069 2737 
L 1069 3520 
L 614 3520 
L 614 2737 
L 109 2737 
L 109 2368 
L 602 2368 
L 602 749 
C 602 384 685 -64 1107 -64 
C 1427 -64 1722 25 2003 172 
L 1901 548 
C 1747 414 1562 337 1363 337 
C 1082 337 1069 696 1069 856 
L 1069 2368 
z
" transform="scale(0.015625)"/>
       <path id="CMSS17-6e" d="M 2618 1877 
C 2618 2283 2522 2816 1798 2816 
C 1389 2816 1120 2606 941 2389 
L 941 2758 
L 474 2758 
L 474 0 
L 960 0 
L 960 1559 
C 960 1964 1114 2428 1549 2428 
C 2112 2428 2131 2048 2131 1829 
L 2131 0 
L 2618 0 
L 2618 1877 
z
" transform="scale(0.015625)"/>
       <path id="CMMI12-78" d="M 3034 2606 
C 2829 2567 2752 2414 2752 2293 
C 2752 2139 2874 2088 2963 2088 
C 3155 2088 3290 2254 3290 2427 
C 3290 2695 2982 2816 2714 2816 
C 2323 2816 2106 2433 2048 2312 
C 1901 2816 1504 2816 1389 2816 
C 736 2816 390 1980 390 1839 
C 390 1814 416 1782 461 1782 
C 512 1782 525 1820 538 1846 
C 755 2555 1184 2689 1370 2689 
C 1658 2689 1715 2420 1715 2267 
C 1715 2127 1677 1980 1600 1673 
L 1382 798 
C 1286 415 1101 64 762 64 
C 730 64 570 64 435 147 
C 666 192 717 383 717 460 
C 717 588 621 664 499 664 
C 346 664 179 530 179 326 
C 179 57 480 -64 755 -64 
C 1062 -64 1280 179 1414 441 
C 1517 64 1837 -64 2074 -64 
C 2726 -64 3072 773 3072 913 
C 3072 945 3046 971 3008 971 
C 2950 971 2944 939 2925 888 
C 2752 326 2381 64 2093 64 
C 1869 64 1747 230 1747 492 
C 1747 632 1773 734 1875 1156 
L 2099 2024 
C 2195 2408 2413 2689 2707 2689 
C 2720 2689 2899 2689 3034 2606 
z
" transform="scale(0.015625)"/>
       <path id="CMR17-5b" d="M 1504 -1600 
L 1504 -1377 
L 902 -1377 
L 902 4544 
L 1504 4544 
L 1504 4767 
L 678 4767 
L 678 -1600 
L 1504 -1600 
z
" transform="scale(0.015625)"/>
       <path id="CMR17-6d" d="M 4326 1933 
C 4326 2252 4269 2790 3507 2790 
C 3072 2790 2771 2496 2656 2151 
L 2650 2151 
C 2573 2676 2195 2790 1837 2790 
C 1331 2790 1069 2400 973 2144 
L 966 2144 
L 966 2790 
L 211 2720 
L 211 2554 
C 589 2554 646 2515 646 2208 
L 646 428 
C 646 184 621 153 211 153 
L 211 -13 
C 365 0 646 0 813 0 
C 979 0 1267 0 1421 -13 
L 1421 153 
C 1011 153 986 178 986 428 
L 986 1658 
C 986 2247 1344 2688 1792 2688 
C 2266 2688 2317 2266 2317 1958 
L 2317 428 
C 2317 184 2291 153 1882 153 
L 1882 -13 
C 2035 0 2317 0 2483 0 
C 2650 0 2938 0 3091 -13 
L 3091 153 
C 2682 153 2656 178 2656 428 
L 2656 1658 
C 2656 2247 3014 2688 3462 2688 
C 3936 2688 3987 2266 3987 1958 
L 3987 428 
C 3987 184 3962 153 3552 153 
L 3552 -13 
C 3706 0 3987 0 4154 0 
C 4320 0 4608 0 4762 -13 
L 4762 153 
C 4352 153 4326 178 4326 428 
L 4326 1933 
z
" transform="scale(0.015625)"/>
       <path id="CMR17-5d" d="M 915 4767 
L 90 4767 
L 90 4544 
L 691 4544 
L 691 -1377 
L 90 -1377 
L 90 -1600 
L 915 -1600 
L 915 4767 
z
" transform="scale(0.015625)"/>
      </defs>
      <use xlink:href="#CMSS17-50" transform="scale(0.996264)"/>
      <use xlink:href="#CMSS17-6f" transform="translate(57.133132 0) scale(0.996264)"/>
      <use xlink:href="#CMSS17-73" transform="translate(103.976756 0) scale(0.996264)"/>
      <use xlink:href="#CMSS17-69" transform="translate(139.890298 0) scale(0.996264)"/>
      <use xlink:href="#CMSS17-74" transform="translate(162.071021 0) scale(0.996264)"/>
      <use xlink:href="#CMSS17-69" transform="translate(195.902588 0) scale(0.996264)"/>
      <use xlink:href="#CMSS17-6f" transform="translate(218.083311 0) scale(0.996264)"/>
      <use xlink:href="#CMSS17-6e" transform="translate(264.926934 0) scale(0.996264)"/>
      <use xlink:href="#CMMI12-78" transform="translate(344.36099 0) scale(0.996264)"/>
      <use xlink:href="#CMR17-5b" transform="translate(431.024162 0) scale(0.996264)"/>
      <use xlink:href="#CMR17-6d" transform="translate(455.895221 0) scale(0.996264)"/>
      <use xlink:href="#CMR17-6d" transform="translate(532.814811 0) scale(0.996264)"/>
      <use xlink:href="#CMR17-5d" transform="translate(609.734401 0) scale(0.996264)"/>
     </g>
    </g>
   </g>
   <g id="matplotlib.axis_2">
    <g id="ytick_1">
     <g id="line2d_5">
      <path d="M 57.6 295.488 
L 414.72 295.488 
" clip-path="url(#p5f5429942e)" style="fill: none; stroke: #cccccc; stroke-width: 0.8; stroke-linecap: round"/>
     </g>
     <g id="text_6">
      <!-- $\mathdefault{0}$ -->
      <g style="fill: #262626" transform="translate(43.820533 299.293173) scale(0.11 -0.11)">
       <use xlink:href="#CMR17-30" transform="scale(0.996264)"/>
      </g>
     </g>
    </g>
    <g id="ytick_2">
     <g id="line2d_6">
      <path d="M 57.6 247.511907 
L 414.72 247.511907 
" clip-path="url(#p5f5429942e)" style="fill: none; stroke: #cccccc; stroke-width: 0.8; stroke-linecap: round"/>
     </g>
     <g id="text_7">
      <!-- $\mathdefault{10}$ -->
      <g style="fill: #262626" transform="translate(38.341065 251.31708) scale(0.11 -0.11)">
       <defs>
        <path id="CMR17-31" d="M 1702 4058 
C 1702 4192 1696 4192 1606 4192 
C 1357 3916 979 3827 621 3827 
C 602 3827 570 3827 563 3808 
C 557 3795 557 3782 557 3648 
C 755 3648 1088 3686 1344 3839 
L 1344 461 
C 1344 236 1331 160 781 160 
L 589 160 
L 589 0 
C 896 0 1216 0 1523 0 
C 1830 0 2150 0 2458 0 
L 2458 160 
L 2266 160 
C 1715 160 1702 230 1702 458 
L 1702 4058 
z
" transform="scale(0.015625)"/>
       </defs>
       <use xlink:href="#CMR17-31" transform="scale(0.996264)"/>
       <use xlink:href="#CMR17-30" transform="translate(45.690477 0) scale(0.996264)"/>
      </g>
     </g>
    </g>
    <g id="ytick_3">
     <g id="line2d_7">
      <path d="M 57.6 199.535814 
L 414.72 199.535814 
" clip-path="url(#p5f5429942e)" style="fill: none; stroke: #cccccc; stroke-width: 0.8; stroke-linecap: round"/>
     </g>
     <g id="text_8">
      <!-- $\mathdefault{20}$ -->
      <g style="fill: #262626" transform="translate(38.341065 203.340987) scale(0.11 -0.11)">
       <use xlink:href="#CMR17-32" transform="scale(0.996264)"/>
       <use xlink:href="#CMR17-30" transform="translate(45.690477 0) scale(0.996264)"/>
      </g>
     </g>
    </g>
    <g id="ytick_4">
     <g id="line2d_8">
      <path d="M 57.6 151.55972 
L 414.72 151.55972 
" clip-path="url(#p5f5429942e)" style="fill: none; stroke: #cccccc; stroke-width: 0.8; stroke-linecap: round"/>
     </g>
     <g id="text_9">
      <!-- $\mathdefault{30}$ -->
      <g style="fill: #262626" transform="translate(38.341065 155.364894) scale(0.11 -0.11)">
       <defs>
        <path id="CMR17-33" d="M 1414 2157 
C 1984 2157 2234 1662 2234 1090 
C 2234 320 1824 25 1453 25 
C 1114 25 563 194 390 693 
C 422 680 454 680 486 680 
C 640 680 755 782 755 948 
C 755 1133 614 1216 486 1216 
C 378 1216 211 1165 211 926 
C 211 335 787 -128 1466 -128 
C 2176 -128 2720 430 2720 1085 
C 2720 1707 2208 2157 1600 2227 
C 2086 2328 2554 2756 2554 3329 
C 2554 3820 2048 4179 1472 4179 
C 890 4179 378 3829 378 3329 
C 378 3110 544 3072 627 3072 
C 762 3072 877 3155 877 3321 
C 877 3486 762 3569 627 3569 
C 602 3569 570 3569 544 3557 
C 730 3959 1235 4032 1459 4032 
C 1683 4032 2106 3925 2106 3320 
C 2106 3143 2080 2828 1862 2550 
C 1670 2304 1453 2304 1242 2284 
C 1210 2284 1062 2269 1037 2269 
C 992 2263 966 2257 966 2208 
C 966 2163 973 2157 1101 2157 
L 1414 2157 
z
" transform="scale(0.015625)"/>
       </defs>
       <use xlink:href="#CMR17-33" transform="scale(0.996264)"/>
       <use xlink:href="#CMR17-30" transform="translate(45.690477 0) scale(0.996264)"/>
      </g>
     </g>
    </g>
    <g id="ytick_5">
     <g id="line2d_9">
      <path d="M 57.6 103.583627 
L 414.72 103.583627 
" clip-path="url(#p5f5429942e)" style="fill: none; stroke: #cccccc; stroke-width: 0.8; stroke-linecap: round"/>
     </g>
     <g id="text_10">
      <!-- $\mathdefault{40}$ -->
      <g style="fill: #262626" transform="translate(38.341065 107.388801) scale(0.11 -0.11)">
       <use xlink:href="#CMR17-34" transform="scale(0.996264)"/>
       <use xlink:href="#CMR17-30" transform="translate(45.690477 0) scale(0.996264)"/>
      </g>
     </g>
    </g>
    <g id="ytick_6">
     <g id="line2d_10">
      <path d="M 57.6 55.607534 
L 414.72 55.607534 
" clip-path="url(#p5f5429942e)" style="fill: none; stroke: #cccccc; stroke-width: 0.8; stroke-linecap: round"/>
     </g>
     <g id="text_11">
      <!-- $\mathdefault{50}$ -->
      <g style="fill: #262626" transform="translate(38.341065 59.412707) scale(0.11 -0.11)">
       <defs>
        <path id="CMR17-35" d="M 730 3692 
C 794 3666 1056 3584 1325 3584 
C 1920 3584 2246 3911 2432 4100 
C 2432 4157 2432 4192 2394 4192 
C 2387 4192 2374 4192 2323 4163 
C 2099 4058 1837 3973 1517 3973 
C 1325 3973 1037 3999 723 4139 
C 653 4171 640 4171 634 4171 
C 602 4171 595 4164 595 4037 
L 595 2203 
C 595 2089 595 2057 659 2057 
C 691 2057 704 2070 736 2114 
C 941 2401 1222 2522 1542 2522 
C 1766 2522 2246 2382 2246 1289 
C 2246 1085 2246 715 2054 421 
C 1894 159 1645 25 1370 25 
C 947 25 518 320 403 814 
C 429 807 480 795 506 795 
C 589 795 749 840 749 1038 
C 749 1210 627 1280 506 1280 
C 358 1280 262 1190 262 1011 
C 262 454 704 -128 1382 -128 
C 2042 -128 2669 440 2669 1264 
C 2669 2030 2170 2624 1549 2624 
C 1222 2624 947 2503 730 2274 
L 730 3692 
z
" transform="scale(0.015625)"/>
       </defs>
       <use xlink:href="#CMR17-35" transform="scale(0.996264)"/>
       <use xlink:href="#CMR17-30" transform="translate(45.690477 0) scale(0.996264)"/>
      </g>
     </g>
    </g>
    <g id="text_12">
     <!-- Zählrate $r\ [\mathrm{Hz}]$ -->
     <g style="fill: #262626" transform="translate(31.103207 214.835511) rotate(-90) scale(0.13 -0.13)">
      <defs>
       <path id="CMSS17-5a" d="M 3341 4155 
L 3341 4416 
L 416 4416 
L 416 4015 
L 1613 4015 
C 1690 4015 1766 4015 1843 4015 
L 2662 4015 
L 333 274 
L 333 0 
L 3373 0 
L 3373 414 
L 2803 414 
C 2272 414 1734 414 1203 414 
L 1011 414 
L 3341 4155 
z
" transform="scale(0.015625)"/>
       <path id="CMSS17-7f" d="M 1178 4164 
L 659 4164 
L 659 3648 
L 1178 3648 
L 1178 4164 
z
M 2342 4164 
L 1824 4164 
L 1824 3648 
L 2342 3648 
L 2342 4164 
z
" transform="scale(0.015625)"/>
       <path id="CMSS17-61" d="M 2406 1791 
C 2406 2392 1978 2808 1402 2808 
C 1120 2808 813 2757 461 2553 
L 499 2135 
C 659 2248 934 2432 1395 2432 
C 1722 2432 1920 2180 1920 1782 
L 1920 1536 
C 896 1536 256 1238 256 726 
C 256 461 416 -64 947 -64 
C 1043 -64 1562 -64 1933 217 
L 1933 -19 
L 2406 -19 
L 2406 1791 
z
M 1920 816 
C 1920 701 1920 548 1728 434 
C 1562 325 1350 325 1261 325 
C 941 325 723 511 723 744 
C 723 1211 1722 1211 1920 1211 
L 1920 816 
z
" transform="scale(0.015625)"/>
       <path id="CMSS17-68" d="M 2618 1891 
C 2618 2292 2522 2820 1798 2820 
C 1395 2820 1133 2623 947 2407 
L 947 4448 
L 474 4448 
L 474 32 
L 960 32 
L 960 1573 
C 960 1973 1114 2432 1549 2432 
C 2112 2432 2131 2056 2131 1839 
L 2131 32 
L 2618 32 
L 2618 1891 
z
" transform="scale(0.015625)"/>
       <path id="CMSS17-6c" d="M 947 4416 
L 474 4416 
L 474 0 
L 947 0 
L 947 4416 
z
" transform="scale(0.015625)"/>
       <path id="CMSS17-72" d="M 954 1363 
C 954 1965 1395 2368 1958 2368 
L 1958 2789 
C 1549 2789 1165 2585 934 2253 
L 934 2758 
L 480 2758 
L 480 0 
L 954 0 
L 954 1363 
z
" transform="scale(0.015625)"/>
       <path id="CMSS17-65" d="M 2502 1377 
C 2502 1590 2490 2003 2285 2345 
C 2061 2713 1696 2816 1421 2816 
C 755 2816 192 2188 192 1375 
C 192 582 774 -64 1510 -64 
C 1798 -64 2150 19 2470 248 
C 2470 274 2458 414 2451 420 
C 2451 433 2432 630 2432 656 
C 2125 407 1773 325 1517 325 
C 1107 325 666 667 646 1377 
L 2502 1377 
z
M 698 1728 
C 781 2084 1062 2421 1421 2421 
C 1517 2421 1965 2421 2080 1728 
L 698 1728 
z
" transform="scale(0.015625)"/>
       <path id="CMMI12-72" d="M 2490 2612 
C 2291 2574 2189 2433 2189 2293 
C 2189 2139 2310 2088 2400 2088 
C 2579 2088 2726 2242 2726 2433 
C 2726 2638 2528 2816 2208 2816 
C 1952 2816 1658 2701 1389 2312 
C 1344 2650 1088 2816 832 2816 
C 582 2816 454 2625 378 2484 
C 269 2254 173 1871 173 1839 
C 173 1814 198 1782 243 1782 
C 294 1782 301 1788 339 1935 
C 435 2318 557 2689 813 2689 
C 966 2689 1011 2580 1011 2395 
C 1011 2254 947 2005 902 1807 
L 723 1118 
C 698 996 627 709 595 594 
C 550 428 480 128 480 96 
C 480 6 550 -64 646 -64 
C 717 -64 838 -19 877 109 
C 896 160 1133 1124 1171 1271 
C 1203 1411 1242 1546 1274 1686 
C 1299 1775 1325 1878 1344 1961 
C 1363 2018 1536 2331 1696 2472 
C 1773 2542 1939 2689 2202 2689 
C 2304 2689 2406 2670 2490 2612 
z
" transform="scale(0.015625)"/>
       <path id="CMR17-48" d="M 3590 3905 
C 3590 4192 3661 4192 4102 4192 
L 4102 4352 
C 3917 4352 3578 4352 3379 4352 
C 3181 4352 2842 4352 2656 4352 
L 2656 4192 
C 3098 4192 3168 4192 3168 3904 
L 3168 2341 
L 1261 2341 
L 1261 3904 
C 1261 4192 1331 4192 1773 4192 
L 1773 4352 
C 1587 4352 1248 4352 1050 4352 
C 851 4352 512 4352 326 4352 
L 326 4192 
C 768 4192 838 4192 838 3905 
L 838 447 
C 838 160 768 160 326 160 
L 326 0 
C 512 0 851 0 1050 0 
C 1248 0 1587 0 1773 0 
L 1773 160 
C 1331 160 1261 160 1261 446 
L 1261 2176 
L 3168 2176 
L 3168 446 
C 3168 160 3098 160 2656 160 
L 2656 0 
C 2842 0 3181 0 3379 0 
C 3578 0 3917 0 4102 0 
L 4102 160 
C 3661 160 3590 160 3590 447 
L 3590 3905 
z
" transform="scale(0.015625)"/>
       <path id="CMR17-7a" d="M 2310 2605 
C 2362 2670 2362 2682 2362 2695 
C 2362 2752 2336 2752 2221 2752 
L 275 2752 
L 211 1760 
L 326 1760 
C 371 2381 442 2650 1178 2650 
L 1958 2650 
L 128 96 
C 128 0 134 0 269 0 
L 2291 0 
L 2381 1152 
L 2266 1152 
C 2214 442 2131 115 1350 115 
L 531 115 
L 2310 2605 
z
" transform="scale(0.015625)"/>
      </defs>
      <use xlink:href="#CMSS17-5a" transform="scale(0.996264)"/>
      <use xlink:href="#CMSS17-7f" transform="translate(56.292474 0) scale(0.996264)"/>
      <use xlink:href="#CMSS17-61" transform="translate(57.253333 0) scale(0.996264)"/>
      <use xlink:href="#CMSS17-68" transform="translate(102.175253 0) scale(0.996264)"/>
      <use xlink:href="#CMSS17-6c" transform="translate(150.380197 0) scale(0.996264)"/>
      <use xlink:href="#CMSS17-72" transform="translate(172.56092 0) scale(0.996264)"/>
      <use xlink:href="#CMSS17-61" transform="translate(204.470692 0) scale(0.996264)"/>
      <use xlink:href="#CMSS17-74" transform="translate(249.392613 0) scale(0.996264)"/>
      <use xlink:href="#CMSS17-65" transform="translate(283.224179 0) scale(0.996264)"/>
      <use xlink:href="#CMMI12-72" transform="translate(356.092114 0) scale(0.996264)"/>
      <use xlink:href="#CMR17-5b" transform="translate(433.991839 0) scale(0.996264)"/>
      <use xlink:href="#CMR17-48" transform="translate(458.862898 0) scale(0.996264)"/>
      <use xlink:href="#CMR17-7a" transform="translate(527.935327 0) scale(0.996264)"/>
      <use xlink:href="#CMR17-5d" transform="translate(568.420988 0) scale(0.996264)"/>
     </g>
    </g>
   </g>
   <g id="PathCollection_1">
    <defs>
     <path id="mc4ce0b8ab1" d="M 0 2.4 
C 0.636487 2.4 1.246992 2.147121 1.697056 1.697056 
C 2.147121 1.246992 2.4 0.636487 2.4 0 
C 2.4 -0.636487 2.147121 -1.246992 1.697056 -1.697056 
C 1.246992 -2.147121 0.636487 -2.4 0 -2.4 
C -0.636487 -2.4 -1.246992 -2.147121 -1.697056 -1.697056 
C -2.147121 -1.246992 -2.4 -0.636487 -2.4 0 
C -2.4 0.636487 -2.147121 1.246992 -1.697056 1.697056 
C -1.246992 2.147121 -0.636487 2.4 0 2.4 
z
" style="stroke: #ffffff; stroke-width: 0.384"/>
    </defs>
    <g clip-path="url(#p5f5429942e)">
     <use xlink:href="#mc4ce0b8ab1" x="81.562597" y="286.532463" style="fill: #4c72b0; stroke: #ffffff; stroke-width: 0.384"/>
     <use xlink:href="#mc4ce0b8ab1" x="120.211948" y="282.774335" style="fill: #4c72b0; stroke: #ffffff; stroke-width: 0.384"/>
     <use xlink:href="#mc4ce0b8ab1" x="139.536623" y="277.177124" style="fill: #4c72b0; stroke: #ffffff; stroke-width: 0.384"/>
     <use xlink:href="#mc4ce0b8ab1" x="166.591169" y="263.104137" style="fill: #4c72b0; stroke: #ffffff; stroke-width: 0.384"/>
     <use xlink:href="#mc4ce0b8ab1" x="170.456104" y="262.384496" style="fill: #4c72b0; stroke: #ffffff; stroke-width: 0.384"/>
     <use xlink:href="#mc4ce0b8ab1" x="174.321039" y="254.628361" style="fill: #4c72b0; stroke: #ffffff; stroke-width: 0.384"/>
     <use xlink:href="#mc4ce0b8ab1" x="178.185974" y="256.627365" style="fill: #4c72b0; stroke: #ffffff; stroke-width: 0.384"/>
     <use xlink:href="#mc4ce0b8ab1" x="182.050909" y="257.347006" style="fill: #4c72b0; stroke: #ffffff; stroke-width: 0.384"/>
     <use xlink:href="#mc4ce0b8ab1" x="185.915844" y="256.067643" style="fill: #4c72b0; stroke: #ffffff; stroke-width: 0.384"/>
     <use xlink:href="#mc4ce0b8ab1" x="189.780779" y="220.485374" style="fill: #4c72b0; stroke: #ffffff; stroke-width: 0.384"/>
     <use xlink:href="#mc4ce0b8ab1" x="193.645714" y="163.553744" style="fill: #4c72b0; stroke: #ffffff; stroke-width: 0.384"/>
     <use xlink:href="#mc4ce0b8ab1" x="197.510649" y="57.926379" style="fill: #4c72b0; stroke: #ffffff; stroke-width: 0.384"/>
     <use xlink:href="#mc4ce0b8ab1" x="201.375584" y="119.415738" style="fill: #4c72b0; stroke: #ffffff; stroke-width: 0.384"/>
     <use xlink:href="#mc4ce0b8ab1" x="205.240519" y="166.272389" style="fill: #4c72b0; stroke: #ffffff; stroke-width: 0.384"/>
     <use xlink:href="#mc4ce0b8ab1" x="209.105455" y="240.635333" style="fill: #4c72b0; stroke: #ffffff; stroke-width: 0.384"/>
     <use xlink:href="#mc4ce0b8ab1" x="212.97039" y="254.5484" style="fill: #4c72b0; stroke: #ffffff; stroke-width: 0.384"/>
     <use xlink:href="#mc4ce0b8ab1" x="216.835325" y="252.469436" style="fill: #4c72b0; stroke: #ffffff; stroke-width: 0.384"/>
     <use xlink:href="#mc4ce0b8ab1" x="220.70026" y="255.667843" style="fill: #4c72b0; stroke: #ffffff; stroke-width: 0.384"/>
     <use xlink:href="#mc4ce0b8ab1" x="224.565195" y="258.146607" style="fill: #4c72b0; stroke: #ffffff; stroke-width: 0.384"/>
     <use xlink:href="#mc4ce0b8ab1" x="228.43013" y="256.547404" style="fill: #4c72b0; stroke: #ffffff; stroke-width: 0.384"/>
     <use xlink:href="#mc4ce0b8ab1" x="240.024935" y="268.701348" style="fill: #4c72b0; stroke: #ffffff; stroke-width: 0.384"/>
     <use xlink:href="#mc4ce0b8ab1" x="255.484675" y="275.577921" style="fill: #4c72b0; stroke: #ffffff; stroke-width: 0.384"/>
     <use xlink:href="#mc4ce0b8ab1" x="274.809351" y="281.894774" style="fill: #4c72b0; stroke: #ffffff; stroke-width: 0.384"/>
     <use xlink:href="#mc4ce0b8ab1" x="313.458701" y="287.891785" style="fill: #4c72b0; stroke: #ffffff; stroke-width: 0.384"/>
     <use xlink:href="#mc4ce0b8ab1" x="390.757403" y="289.251108" style="fill: #4c72b0; stroke: #ffffff; stroke-width: 0.384"/>
    </g>
   </g>
   <g id="LineCollection_1">
    <path d="M 73.832727 286.532463 
L 89.292468 286.532463 
" clip-path="url(#p5f5429942e)" style="fill: none; stroke: #4c72b0; stroke-width: 1.5"/>
    <path d="M 112.482078 282.774335 
L 127.941818 282.774335 
" clip-path="url(#p5f5429942e)" style="fill: none; stroke: #4c72b0; stroke-width: 1.5"/>
    <path d="M 131.806753 277.177124 
L 147.266494 277.177124 
" clip-path="url(#p5f5429942e)" style="fill: none; stroke: #4c72b0; stroke-width: 1.5"/>
    <path d="M 158.861299 263.104137 
L 174.321039 263.104137 
" clip-path="url(#p5f5429942e)" style="fill: none; stroke: #4c72b0; stroke-width: 1.5"/>
    <path d="M 162.726234 262.384496 
L 178.185974 262.384496 
" clip-path="url(#p5f5429942e)" style="fill: none; stroke: #4c72b0; stroke-width: 1.5"/>
    <path d="M 166.591169 254.628361 
L 182.050909 254.628361 
" clip-path="url(#p5f5429942e)" style="fill: none; stroke: #4c72b0; stroke-width: 1.5"/>
    <path d="M 170.456104 256.627365 
L 185.915844 256.627365 
" clip-path="url(#p5f5429942e)" style="fill: none; stroke: #4c72b0; stroke-width: 1.5"/>
    <path d="M 174.321039 257.347006 
L 189.780779 257.347006 
" clip-path="url(#p5f5429942e)" style="fill: none; stroke: #4c72b0; stroke-width: 1.5"/>
    <path d="M 178.185974 256.067643 
L 193.645714 256.067643 
" clip-path="url(#p5f5429942e)" style="fill: none; stroke: #4c72b0; stroke-width: 1.5"/>
    <path d="M 182.050909 220.485374 
L 197.510649 220.485374 
" clip-path="url(#p5f5429942e)" style="fill: none; stroke: #4c72b0; stroke-width: 1.5"/>
    <path d="M 185.915844 163.553744 
L 201.375584 163.553744 
" clip-path="url(#p5f5429942e)" style="fill: none; stroke: #4c72b0; stroke-width: 1.5"/>
    <path d="M 189.780779 57.926379 
L 205.240519 57.926379 
" clip-path="url(#p5f5429942e)" style="fill: none; stroke: #4c72b0; stroke-width: 1.5"/>
    <path d="M 193.645714 119.415738 
L 209.105455 119.415738 
" clip-path="url(#p5f5429942e)" style="fill: none; stroke: #4c72b0; stroke-width: 1.5"/>
    <path d="M 197.510649 166.272389 
L 212.97039 166.272389 
" clip-path="url(#p5f5429942e)" style="fill: none; stroke: #4c72b0; stroke-width: 1.5"/>
    <path d="M 201.375584 240.635333 
L 216.835325 240.635333 
" clip-path="url(#p5f5429942e)" style="fill: none; stroke: #4c72b0; stroke-width: 1.5"/>
    <path d="M 205.240519 254.5484 
L 220.70026 254.5484 
" clip-path="url(#p5f5429942e)" style="fill: none; stroke: #4c72b0; stroke-width: 1.5"/>
    <path d="M 209.105455 252.469436 
L 224.565195 252.469436 
" clip-path="url(#p5f5429942e)" style="fill: none; stroke: #4c72b0; stroke-width: 1.5"/>
    <path d="M 212.97039 255.667843 
L 228.43013 255.667843 
" clip-path="url(#p5f5429942e)" style="fill: none; stroke: #4c72b0; stroke-width: 1.5"/>
    <path d="M 216.835325 258.146607 
L 232.295065 258.146607 
" clip-path="url(#p5f5429942e)" style="fill: none; stroke: #4c72b0; stroke-width: 1.5"/>
    <path d="M 220.70026 256.547404 
L 236.16 256.547404 
" clip-path="url(#p5f5429942e)" style="fill: none; stroke: #4c72b0; stroke-width: 1.5"/>
    <path d="M 232.295065 268.701348 
L 247.754805 268.701348 
" clip-path="url(#p5f5429942e)" style="fill: none; stroke: #4c72b0; stroke-width: 1.5"/>
    <path d="M 247.754805 275.577921 
L 263.214545 275.577921 
" clip-path="url(#p5f5429942e)" style="fill: none; stroke: #4c72b0; stroke-width: 1.5"/>
    <path d="M 267.079481 281.894774 
L 282.539221 281.894774 
" clip-path="url(#p5f5429942e)" style="fill: none; stroke: #4c72b0; stroke-width: 1.5"/>
    <path d="M 305.728831 287.891785 
L 321.188571 287.891785 
" clip-path="url(#p5f5429942e)" style="fill: none; stroke: #4c72b0; stroke-width: 1.5"/>
    <path d="M 383.027532 289.251108 
L 398.487273 289.251108 
" clip-path="url(#p5f5429942e)" style="fill: none; stroke: #4c72b0; stroke-width: 1.5"/>
   </g>
   <g id="LineCollection_2">
    <path d="M 81.562597 287.378681 
L 81.562597 285.686244 
" clip-path="url(#p5f5429942e)" style="fill: none; stroke: #4c72b0; stroke-width: 1.5"/>
    <path d="M 120.211948 283.782595 
L 120.211948 281.766076 
" clip-path="url(#p5f5429942e)" style="fill: none; stroke: #4c72b0; stroke-width: 1.5"/>
    <path d="M 139.536623 278.387141 
L 139.536623 275.967108 
" clip-path="url(#p5f5429942e)" style="fill: none; stroke: #4c72b0; stroke-width: 1.5"/>
    <path d="M 166.591169 264.713304 
L 166.591169 261.49497 
" clip-path="url(#p5f5429942e)" style="fill: none; stroke: #4c72b0; stroke-width: 1.5"/>
    <path d="M 170.456104 264.011444 
L 170.456104 260.757547 
" clip-path="url(#p5f5429942e)" style="fill: none; stroke: #4c72b0; stroke-width: 1.5"/>
    <path d="M 174.321039 256.435885 
L 174.321039 252.820837 
" clip-path="url(#p5f5429942e)" style="fill: none; stroke: #4c72b0; stroke-width: 1.5"/>
    <path d="M 178.185974 258.390119 
L 178.185974 254.86461 
" clip-path="url(#p5f5429942e)" style="fill: none; stroke: #4c72b0; stroke-width: 1.5"/>
    <path d="M 182.050909 259.093362 
L 182.050909 255.60065 
" clip-path="url(#p5f5429942e)" style="fill: none; stroke: #4c72b0; stroke-width: 1.5"/>
    <path d="M 185.915844 257.843047 
L 185.915844 254.29224 
" clip-path="url(#p5f5429942e)" style="fill: none; stroke: #4c72b0; stroke-width: 1.5"/>
    <path d="M 189.780779 222.934297 
L 189.780779 218.036452 
" clip-path="url(#p5f5429942e)" style="fill: none; stroke: #4c72b0; stroke-width: 1.5"/>
    <path d="M 193.645714 166.801741 
L 193.645714 160.305747 
" clip-path="url(#p5f5429942e)" style="fill: none; stroke: #4c72b0; stroke-width: 1.5"/>
    <path d="M 197.510649 62.284757 
L 197.510649 53.568 
" clip-path="url(#p5f5429942e)" style="fill: none; stroke: #4c72b0; stroke-width: 1.5"/>
    <path d="M 201.375584 123.167906 
L 201.375584 115.66357 
" clip-path="url(#p5f5429942e)" style="fill: none; stroke: #4c72b0; stroke-width: 1.5"/>
    <path d="M 205.240519 169.486748 
L 205.240519 163.058031 
" clip-path="url(#p5f5429942e)" style="fill: none; stroke: #4c72b0; stroke-width: 1.5"/>
    <path d="M 209.105455 242.729618 
L 209.105455 238.541049 
" clip-path="url(#p5f5429942e)" style="fill: none; stroke: #4c72b0; stroke-width: 1.5"/>
    <path d="M 212.97039 256.357692 
L 212.97039 252.739109 
" clip-path="url(#p5f5429942e)" style="fill: none; stroke: #4c72b0; stroke-width: 1.5"/>
    <path d="M 216.835325 254.324098 
L 216.835325 250.614774 
" clip-path="url(#p5f5429942e)" style="fill: none; stroke: #4c72b0; stroke-width: 1.5"/>
    <path d="M 220.70026 257.452227 
L 220.70026 253.883459 
" clip-path="url(#p5f5429942e)" style="fill: none; stroke: #4c72b0; stroke-width: 1.5"/>
    <path d="M 224.565195 259.874561 
L 224.565195 256.418654 
" clip-path="url(#p5f5429942e)" style="fill: none; stroke: #4c72b0; stroke-width: 1.5"/>
    <path d="M 228.43013 258.311971 
L 228.43013 254.782838 
" clip-path="url(#p5f5429942e)" style="fill: none; stroke: #4c72b0; stroke-width: 1.5"/>
    <path d="M 240.024935 270.164859 
L 240.024935 267.237837 
" clip-path="url(#p5f5429942e)" style="fill: none; stroke: #4c72b0; stroke-width: 1.5"/>
    <path d="M 255.484675 276.839671 
L 255.484675 274.316171 
" clip-path="url(#p5f5429942e)" style="fill: none; stroke: #4c72b0; stroke-width: 1.5"/>
    <path d="M 274.809351 282.937326 
L 274.809351 280.852221 
" clip-path="url(#p5f5429942e)" style="fill: none; stroke: #4c72b0; stroke-width: 1.5"/>
    <path d="M 313.458701 288.67114 
L 313.458701 287.11243 
" clip-path="url(#p5f5429942e)" style="fill: none; stroke: #4c72b0; stroke-width: 1.5"/>
    <path d="M 390.757403 289.957297 
L 390.757403 288.544919 
" clip-path="url(#p5f5429942e)" style="fill: none; stroke: #4c72b0; stroke-width: 1.5"/>
   </g>
   <g id="line2d_11">
    <path d="M 81.562597 295.488 
L 170.125934 295.423674 
L 173.233419 295.154067 
L 174.787162 294.779053 
L 176.340905 294.052137 
L 177.894647 292.713673 
L 179.44839 290.37416 
L 181.002133 286.495473 
L 182.555875 280.402439 
L 184.109618 271.345275 
L 185.663361 258.627927 
L 187.217104 241.800748 
L 188.770846 220.889301 
L 190.324589 196.601634 
L 193.432075 144.625251 
L 194.985817 121.858926 
L 196.53956 104.850659 
L 198.093303 95.806154 
L 199.647046 95.955207 
L 201.200788 105.277244 
L 202.754531 122.505986 
L 204.308274 145.411768 
L 208.969502 221.609962 
L 210.523245 242.398739 
L 212.076988 259.092885 
L 213.63073 271.685389 
L 215.184473 280.637154 
L 216.738216 286.648598 
L 218.291958 290.468741 
L 219.845701 292.769048 
L 221.399444 294.082896 
L 222.953187 294.795276 
L 224.506929 295.162195 
L 227.614415 295.425427 
L 233.829386 295.486688 
L 390.757403 295.488 
L 390.757403 295.488 
" clip-path="url(#p5f5429942e)" style="fill: none; stroke: #c44e52; stroke-width: 1.2; stroke-linecap: round"/>
   </g>
   <g id="line2d_12">
    <path d="M 81.562597 286.532463 
L 120.211948 282.774335 
L 139.536623 277.177124 
L 166.591169 263.104137 
L 170.456104 262.384496 
L 174.321039 254.628361 
L 178.185974 256.627365 
L 182.050909 257.347006 
L 185.915844 256.067643 
L 189.780779 220.485374 
L 193.645714 163.553744 
L 197.510649 57.926379 
L 201.375584 119.415738 
L 205.240519 166.272389 
L 209.105455 240.635333 
L 212.97039 254.5484 
L 216.835325 252.469436 
L 220.70026 255.667843 
L 224.565195 258.146607 
L 228.43013 256.547404 
L 240.024935 268.701348 
L 255.484675 275.577921 
L 274.809351 281.894774 
L 313.458701 287.891785 
L 390.757403 289.251108 
" clip-path="url(#p5f5429942e)" style="fill: none"/>
   </g>
   <g id="patch_3">
    <path d="M 57.6 307.584 
L 57.6 41.472 
" style="fill: none; stroke: #cccccc; stroke-linejoin: miter; stroke-linecap: square"/>
   </g>
   <g id="patch_4">
    <path d="M 414.72 307.584 
L 414.72 41.472 
" style="fill: none; stroke: #cccccc; stroke-linejoin: miter; stroke-linecap: square"/>
   </g>
   <g id="patch_5">
    <path d="M 57.6 307.584 
L 414.72 307.584 
" style="fill: none; stroke: #cccccc; stroke-linejoin: miter; stroke-linecap: square"/>
   </g>
   <g id="patch_6">
    <path d="M 57.6 41.472 
L 414.72 41.472 
" style="fill: none; stroke: #cccccc; stroke-linejoin: miter; stroke-linecap: square"/>
   </g>
   <g id="text_13">
    <!-- Messung der Ortsauflösung -->
    <g style="fill: #262626" transform="translate(164.345587 35.472) scale(0.13 -0.13)">
     <defs>
      <path id="CMSS17-4d" d="M 3194 2371 
L 2886 1473 
C 2835 1307 2662 791 2624 587 
L 2618 587 
C 2598 715 2560 849 2458 1174 
C 2400 1365 2336 1562 2272 1741 
L 1325 4416 
L 576 4416 
L 576 0 
L 1075 0 
L 1075 3900 
L 1082 3900 
C 1082 3894 1139 3613 1530 2499 
L 2374 96 
L 2848 96 
L 3610 2231 
C 3661 2378 3821 2843 3891 3066 
C 3955 3257 4115 3728 4154 3913 
L 4160 3913 
L 4160 0 
L 4666 0 
L 4666 4416 
L 3923 4416 
L 3194 2371 
z
" transform="scale(0.015625)"/>
      <path id="CMSS17-75" d="M 2618 2739 
L 2131 2739 
L 2131 972 
C 2131 498 1786 306 1421 306 
C 998 306 960 447 960 709 
L 960 2739 
L 474 2739 
L 474 678 
C 474 179 646 -64 1088 -64 
C 1306 -64 1798 -13 2144 306 
L 2144 0 
L 2618 0 
L 2618 2739 
z
" transform="scale(0.015625)"/>
      <path id="CMSS17-67" d="M 2848 2808 
C 2483 2808 2170 2738 1914 2617 
C 1702 2777 1485 2808 1338 2808 
C 781 2808 358 2349 358 1814 
C 358 1468 550 1207 563 1195 
C 448 1035 384 863 384 672 
C 384 448 474 289 544 200 
C 211 -3 166 -314 166 -435 
C 166 -898 749 -1280 1498 -1280 
C 2253 -1280 2835 -898 2835 -428 
C 2835 448 1856 448 1587 448 
L 1069 448 
C 973 448 717 448 717 791 
C 717 921 774 1004 781 1010 
C 877 940 1075 832 1338 832 
C 1869 832 2310 1278 2310 1827 
C 2310 2132 2170 2355 2112 2432 
L 2131 2432 
C 2150 2432 2419 2432 2515 2432 
C 2720 2432 2739 2429 2918 2419 
L 2848 2808 
z
M 1338 1182 
C 1120 1182 813 1315 813 1823 
C 813 2375 1165 2464 1331 2464 
C 1549 2464 1856 2331 1856 1823 
C 1856 1271 1504 1182 1338 1182 
z
M 1581 -10 
C 1734 -10 2381 -10 2381 -442 
C 2381 -714 1984 -929 1504 -929 
C 1018 -929 621 -720 621 -435 
C 621 -403 621 -10 1062 -10 
L 1581 -10 
z
" transform="scale(0.015625)"/>
      <path id="CMSS17-64" d="M 2611 4416 
L 2138 4416 
L 2138 2438 
C 1939 2603 1613 2756 1254 2756 
C 672 2756 211 2131 211 1347 
C 211 562 666 -64 1235 -64 
C 1677 -64 1971 172 2125 306 
L 2125 -13 
L 2611 -13 
L 2611 4416 
z
M 2125 836 
C 2125 747 2125 653 1926 482 
C 1798 375 1645 325 1498 325 
C 1152 325 698 576 698 1340 
C 698 2134 1210 2368 1562 2368 
C 1798 2368 1990 2254 2125 2065 
L 2125 836 
z
" transform="scale(0.015625)"/>
      <path id="CMSS17-4f" d="M 4096 2178 
C 4096 3503 3219 4497 2214 4497 
C 1210 4497 333 3497 333 2178 
C 333 847 1222 -128 2214 -128 
C 3206 -128 4096 847 4096 2178 
z
M 2214 273 
C 1510 273 870 1057 870 2261 
C 870 3433 1549 4096 2214 4096 
C 2880 4096 3558 3433 3558 2261 
C 3558 1051 2912 273 2214 273 
z
" transform="scale(0.015625)"/>
      <path id="CMSS17-d" d="M 1075 2368 
L 1773 2368 
L 1773 2737 
L 1062 2737 
L 1062 3578 
C 1062 3919 1216 4092 1421 4092 
C 1594 4092 1754 4021 1773 4009 
L 1773 4429 
C 1722 4442 1574 4480 1421 4480 
C 941 4480 602 3993 602 3372 
L 602 2737 
L 160 2737 
L 160 2368 
L 602 2368 
L 602 0 
L 1075 0 
L 1075 2368 
z
M 2733 4429 
L 2259 4429 
L 2259 0 
L 2733 0 
L 2733 4429 
z
" transform="scale(0.015625)"/>
     </defs>
     <use xlink:href="#CMSS17-4d" transform="scale(0.996264)"/>
     <use xlink:href="#CMSS17-65" transform="translate(81.67603 0) scale(0.996264)"/>
     <use xlink:href="#CMSS17-73" transform="translate(123.314852 0) scale(0.996264)"/>
     <use xlink:href="#CMSS17-73" transform="translate(159.228394 0) scale(0.996264)"/>
     <use xlink:href="#CMSS17-75" transform="translate(195.141936 0) scale(0.996264)"/>
     <use xlink:href="#CMSS17-6e" transform="translate(243.346879 0) scale(0.996264)"/>
     <use xlink:href="#CMSS17-67" transform="translate(291.551822 0) scale(0.996264)"/>
     <use xlink:href="#CMSS17-64" transform="translate(369.624559 0) scale(0.996264)"/>
     <use xlink:href="#CMSS17-65" transform="translate(417.829502 0) scale(0.996264)"/>
     <use xlink:href="#CMSS17-72" transform="translate(459.468324 0) scale(0.996264)"/>
     <use xlink:href="#CMSS17-4f" transform="translate(522.607209 0) scale(0.996264)"/>
     <use xlink:href="#CMSS17-72" transform="translate(591.631464 0) scale(0.996264)"/>
     <use xlink:href="#CMSS17-74" transform="translate(623.541237 0) scale(0.996264)"/>
     <use xlink:href="#CMSS17-73" transform="translate(657.372804 0) scale(0.996264)"/>
     <use xlink:href="#CMSS17-61" transform="translate(693.286346 0) scale(0.996264)"/>
     <use xlink:href="#CMSS17-75" transform="translate(738.208266 0) scale(0.996264)"/>
     <use xlink:href="#CMSS17-d" transform="translate(786.413209 0) scale(0.996264)"/>
     <use xlink:href="#CMSS17-7f" transform="translate(836.539947 0) scale(0.996264)"/>
     <use xlink:href="#CMSS17-6f" transform="translate(836.539947 0) scale(0.996264)"/>
     <use xlink:href="#CMSS17-73" transform="translate(883.38357 0) scale(0.996264)"/>
     <use xlink:href="#CMSS17-75" transform="translate(919.297112 0) scale(0.996264)"/>
     <use xlink:href="#CMSS17-6e" transform="translate(967.502055 0) scale(0.996264)"/>
     <use xlink:href="#CMSS17-67" transform="translate(1015.706998 0) scale(0.996264)"/>
    </g>
   </g>
   <g id="legend_1">
    <g id="patch_7">
     <path d="M 244.356916 65.602895 
L 407.02 65.602895 
Q 409.22 65.602895 409.22 63.402895 
L 409.22 49.172 
Q 409.22 46.972 407.02 46.972 
L 244.356916 46.972 
Q 242.156916 46.972 242.156916 49.172 
L 242.156916 63.402895 
Q 242.156916 65.602895 244.356916 65.602895 
z
" style="fill: #ffffff; opacity: 0.8; stroke: #cccccc; stroke-width: 0.8; stroke-linejoin: miter"/>
    </g>
    <g id="line2d_13">
     <path d="M 246.556916 55.222 
L 257.556916 55.222 
L 268.556916 55.222 
" style="fill: none; stroke: #c44e52; stroke-width: 1.2; stroke-linecap: round"/>
    </g>
    <g id="text_14">
     <!-- $\mu=0.35$, $\sigma=1.85$, $\alpha\approx40$ -->
     <g style="fill: #262626" transform="translate(277.356916 59.072) scale(0.11 -0.11)">
      <defs>
       <path id="CMMI12-16" d="M 922 140 
C 1082 -6 1318 -64 1536 -64 
C 1946 -64 2227 208 2374 405 
C 2438 69 2707 -64 2931 -64 
C 3123 -64 3277 50 3392 277 
C 3494 493 3584 879 3584 903 
C 3584 935 3558 960 3520 960 
C 3462 960 3456 928 3430 834 
C 3334 461 3213 64 2950 64 
C 2765 64 2752 229 2752 358 
C 2752 504 2810 735 2854 926 
L 3034 1615 
C 3059 1737 3130 2023 3162 2139 
C 3200 2292 3270 2567 3270 2592 
C 3270 2688 3194 2752 3098 2752 
C 3040 2752 2906 2726 2854 2535 
L 2406 760 
C 2374 632 2374 619 2291 517 
C 2214 409 1965 64 1562 64 
C 1203 64 1088 326 1088 625 
C 1088 811 1146 1034 1171 1143 
L 1459 2293 
C 1491 2414 1542 2618 1542 2657 
C 1542 2759 1459 2816 1376 2816 
C 1318 2816 1178 2797 1126 2592 
L 198 -1107 
C 192 -1139 179 -1177 179 -1216 
C 179 -1312 256 -1376 352 -1376 
C 538 -1376 576 -1228 621 -1050 
L 922 140 
z
" transform="scale(0.015625)"/>
       <path id="CMR17-3d" d="M 4115 2017 
C 4211 2017 4307 2017 4307 2125 
C 4307 2240 4198 2240 4090 2240 
L 512 2240 
C 403 2240 294 2240 294 2125 
C 294 2017 390 2017 486 2017 
L 4115 2017 
z
M 4090 896 
C 4198 896 4307 896 4307 1011 
C 4307 1119 4211 1119 4115 1119 
L 486 1119 
C 390 1119 294 1119 294 1011 
C 294 896 403 896 512 896 
L 4090 896 
z
" transform="scale(0.015625)"/>
       <path id="CMMI12-3a" d="M 1178 307 
C 1178 492 1024 619 870 619 
C 685 619 557 466 557 313 
C 557 128 710 0 864 0 
C 1050 0 1178 153 1178 307 
z
" transform="scale(0.015625)"/>
       <path id="CMSS17-2c" d="M 1088 6 
L 1088 510 
L 576 510 
L 576 0 
L 736 0 
L 570 -800 
L 826 -800 
L 1088 6 
z
" transform="scale(0.015625)"/>
       <path id="CMMI12-1b" d="M 3251 2408 
C 3334 2408 3546 2408 3546 2612 
C 3546 2752 3424 2752 3309 2752 
L 1894 2752 
C 934 2752 243 1686 243 932 
C 243 390 595 -64 1171 -64 
C 1926 -64 2752 747 2752 1705 
C 2752 1954 2694 2196 2541 2408 
L 3251 2408 
z
M 1178 64 
C 851 64 614 313 614 754 
C 614 1137 845 2408 1786 2408 
C 2061 2408 2368 2274 2368 1781 
C 2368 1558 2266 1021 2042 652 
C 1811 275 1466 64 1178 64 
z
" transform="scale(0.015625)"/>
       <path id="CMR17-38" d="M 1741 2264 
C 2144 2467 2554 2773 2554 3263 
C 2554 3841 1990 4179 1472 4179 
C 890 4179 378 3759 378 3180 
C 378 3021 416 2747 666 2505 
C 730 2442 998 2251 1171 2130 
C 883 1983 211 1634 211 934 
C 211 279 838 -128 1459 -128 
C 2144 -128 2720 362 2720 1010 
C 2720 1590 2330 1857 2074 2029 
L 1741 2264 
z
M 902 2822 
C 851 2854 595 3051 595 3351 
C 595 3739 998 4032 1459 4032 
C 1965 4032 2336 3676 2336 3262 
C 2336 2669 1670 2331 1638 2331 
C 1632 2331 1626 2331 1574 2370 
L 902 2822 
z
M 2080 1519 
C 2176 1449 2483 1240 2483 851 
C 2483 381 2010 25 1472 25 
C 890 25 448 438 448 940 
C 448 1443 838 1862 1280 2060 
L 2080 1519 
z
" transform="scale(0.015625)"/>
       <path id="CMMI12-b" d="M 2963 1616 
C 2963 2235 2611 2815 1933 2815 
C 1094 2815 256 1902 256 996 
C 256 441 602 -64 1254 -64 
C 1651 -64 2125 89 2579 472 
C 2669 115 2867 -64 3142 -64 
C 3488 -64 3661 294 3661 377 
C 3661 434 3616 434 3597 434 
C 3546 434 3539 415 3520 364 
C 3462 204 3315 64 3162 64 
C 2963 64 2963 472 2963 862 
C 3616 1641 3770 2446 3770 2452 
C 3770 2510 3718 2510 3699 2510 
C 3642 2510 3635 2491 3610 2376 
C 3526 2095 3360 1597 2963 1073 
L 2963 1616 
z
M 2560 626 
C 1997 121 1491 64 1267 64 
C 813 64 685 466 685 766 
C 685 1040 826 1692 1024 2044 
C 1286 2491 1645 2688 1933 2688 
C 2554 2688 2554 1877 2554 1341 
C 2554 1182 2547 1016 2547 856 
C 2547 728 2554 696 2560 626 
z
" transform="scale(0.015625)"/>
       <path id="CMSY10-19" d="M 4622 2890 
C 4622 3023 4577 3081 4533 3081 
C 4507 3081 4449 3055 4443 2909 
C 4417 2469 3969 2208 3553 2208 
C 3182 2208 2862 2405 2529 2628 
C 2183 2858 1837 3087 1421 3087 
C 826 3087 352 2634 352 2047 
C 352 1907 403 1856 442 1856 
C 506 1856 531 1977 531 2002 
C 563 2538 1088 2729 1421 2729 
C 1792 2729 2113 2531 2445 2308 
C 2791 2079 3137 1850 3553 1850 
C 4149 1850 4622 2303 4622 2890 
z
M 4622 1391 
C 4622 1577 4545 1590 4533 1590 
C 4507 1590 4449 1558 4443 1417 
C 4417 975 3969 713 3553 713 
C 3182 713 2862 912 2529 1137 
C 2183 1369 1837 1600 1421 1600 
C 826 1600 352 1145 352 554 
C 352 412 403 361 442 361 
C 506 361 531 483 531 509 
C 563 1049 1088 1242 1421 1242 
C 1792 1242 2113 1042 2445 817 
C 2791 586 3137 354 3553 354 
C 4161 354 4622 828 4622 1391 
z
" transform="scale(0.015625)"/>
      </defs>
      <use xlink:href="#CMMI12-16" transform="scale(0.996264)"/>
      <use xlink:href="#CMR17-3d" transform="translate(86.36543 0) scale(0.996264)"/>
      <use xlink:href="#CMR17-30" transform="translate(185.754227 0) scale(0.996264)"/>
      <use xlink:href="#CMMI12-3a" transform="translate(231.444704 0) scale(0.996264)"/>
      <use xlink:href="#CMR17-33" transform="translate(258.541882 0) scale(0.996264)"/>
      <use xlink:href="#CMR17-35" transform="translate(304.232359 0) scale(0.996264)"/>
      <use xlink:href="#CMSS17-2c" transform="translate(349.922836 0) scale(0.996264)"/>
      <use xlink:href="#CMMI12-1b" transform="translate(407.176153 0) scale(0.996264)"/>
      <use xlink:href="#CMR17-3d" transform="translate(493.870216 0) scale(0.996264)"/>
      <use xlink:href="#CMR17-31" transform="translate(593.259013 0) scale(0.996264)"/>
      <use xlink:href="#CMMI12-3a" transform="translate(638.94949 0) scale(0.996264)"/>
      <use xlink:href="#CMR17-38" transform="translate(666.046667 0) scale(0.996264)"/>
      <use xlink:href="#CMR17-35" transform="translate(711.737144 0) scale(0.996264)"/>
      <use xlink:href="#CMSS17-2c" transform="translate(757.427621 0) scale(0.996264)"/>
      <use xlink:href="#CMMI12-b" transform="translate(814.680939 0) scale(0.996264)"/>
      <use xlink:href="#CMSY10-19" transform="translate(905.03597 0) scale(0.996264)"/>
      <use xlink:href="#CMR17-34" transform="translate(1010.197447 0) scale(0.996264)"/>
      <use xlink:href="#CMR17-30" transform="translate(1055.887924 0) scale(0.996264)"/>
     </g>
    </g>
   </g>
  </g>
 </g>
 <defs>
  <clipPath id="p5f5429942e">
   <rect x="57.6" y="41.472" width="357.12" height="266.112"/>
  </clipPath>
 </defs>
</svg>
