<?xml version="1.0" encoding="utf-8"?>
<svg xmlns="http://www.w3.org/2000/svg" xmlns:xlink="http://www.w3.org/1999/xlink" width="600" height="400" viewBox="0 0 2400 1600">
<defs>
  <clipPath id="clip900">
    <rect x="0" y="0" width="2400" height="1600"/>
  </clipPath>
</defs>
<path clip-path="url(#clip900)" d="M0 1600 L2400 1600 L2400 0 L0 0  Z" fill="#ffffff" fill-rule="evenodd" fill-opacity="1"/>
<defs>
  <clipPath id="clip901">
    <rect x="480" y="0" width="1681" height="1600"/>
  </clipPath>
</defs>
<path clip-path="url(#clip900)" d="M205.121 1418.61 L2352.76 1418.61 L2352.76 47.2441 L205.121 47.2441  Z" fill="#ffffff" fill-rule="evenodd" fill-opacity="1"/>
<defs>
  <clipPath id="clip902">
    <rect x="205" y="47" width="2149" height="1372"/>
  </clipPath>
</defs>
<polyline clip-path="url(#clip902)" style="stroke:#000000; stroke-linecap:round; stroke-linejoin:round; stroke-width:2; stroke-opacity:0.1; fill:none" points="497.98,1418.61 497.98,47.2441 "/>
<polyline clip-path="url(#clip902)" style="stroke:#000000; stroke-linecap:round; stroke-linejoin:round; stroke-width:2; stroke-opacity:0.1; fill:none" points="888.459,1418.61 888.459,47.2441 "/>
<polyline clip-path="url(#clip902)" style="stroke:#000000; stroke-linecap:round; stroke-linejoin:round; stroke-width:2; stroke-opacity:0.1; fill:none" points="1278.94,1418.61 1278.94,47.2441 "/>
<polyline clip-path="url(#clip902)" style="stroke:#000000; stroke-linecap:round; stroke-linejoin:round; stroke-width:2; stroke-opacity:0.1; fill:none" points="1669.42,1418.61 1669.42,47.2441 "/>
<polyline clip-path="url(#clip902)" style="stroke:#000000; stroke-linecap:round; stroke-linejoin:round; stroke-width:2; stroke-opacity:0.1; fill:none" points="2059.9,1418.61 2059.9,47.2441 "/>
<polyline clip-path="url(#clip900)" style="stroke:#000000; stroke-linecap:round; stroke-linejoin:round; stroke-width:4; stroke-opacity:1; fill:none" points="205.121,1418.61 2352.76,1418.61 "/>
<polyline clip-path="url(#clip900)" style="stroke:#000000; stroke-linecap:round; stroke-linejoin:round; stroke-width:4; stroke-opacity:1; fill:none" points="497.98,1418.61 497.98,1399.72 "/>
<polyline clip-path="url(#clip900)" style="stroke:#000000; stroke-linecap:round; stroke-linejoin:round; stroke-width:4; stroke-opacity:1; fill:none" points="888.459,1418.61 888.459,1399.72 "/>
<polyline clip-path="url(#clip900)" style="stroke:#000000; stroke-linecap:round; stroke-linejoin:round; stroke-width:4; stroke-opacity:1; fill:none" points="1278.94,1418.61 1278.94,1399.72 "/>
<polyline clip-path="url(#clip900)" style="stroke:#000000; stroke-linecap:round; stroke-linejoin:round; stroke-width:4; stroke-opacity:1; fill:none" points="1669.42,1418.61 1669.42,1399.72 "/>
<polyline clip-path="url(#clip900)" style="stroke:#000000; stroke-linecap:round; stroke-linejoin:round; stroke-width:4; stroke-opacity:1; fill:none" points="2059.9,1418.61 2059.9,1399.72 "/>
<path clip-path="url(#clip900)" d="M466.881 1464.18 L496.557 1464.18 L496.557 1468.12 L466.881 1468.12 L466.881 1464.18 Z" fill="#000000" fill-rule="nonzero" fill-opacity="1" /><path clip-path="url(#clip900)" d="M519.496 1450.53 L507.691 1468.98 L519.496 1468.98 L519.496 1450.53 M518.27 1446.45 L524.149 1446.45 L524.149 1468.98 L529.08 1468.98 L529.08 1472.87 L524.149 1472.87 L524.149 1481.01 L519.496 1481.01 L519.496 1472.87 L503.895 1472.87 L503.895 1468.35 L518.27 1446.45 Z" fill="#000000" fill-rule="nonzero" fill-opacity="1" /><path clip-path="url(#clip900)" d="M858.402 1464.18 L888.077 1464.18 L888.077 1468.12 L858.402 1468.12 L858.402 1464.18 Z" fill="#000000" fill-rule="nonzero" fill-opacity="1" /><path clip-path="url(#clip900)" d="M902.198 1477.08 L918.517 1477.08 L918.517 1481.01 L896.573 1481.01 L896.573 1477.08 Q899.235 1474.32 903.818 1469.69 Q908.425 1465.04 909.605 1463.7 Q911.85 1461.18 912.73 1459.44 Q913.633 1457.68 913.633 1455.99 Q913.633 1453.24 911.688 1451.5 Q909.767 1449.76 906.665 1449.76 Q904.466 1449.76 902.013 1450.53 Q899.582 1451.29 896.804 1452.84 L896.804 1448.12 Q899.628 1446.99 902.082 1446.41 Q904.536 1445.83 906.573 1445.83 Q911.943 1445.83 915.137 1448.51 Q918.332 1451.2 918.332 1455.69 Q918.332 1457.82 917.522 1459.74 Q916.735 1461.64 914.628 1464.23 Q914.05 1464.9 910.948 1468.12 Q907.846 1471.31 902.198 1477.08 Z" fill="#000000" fill-rule="nonzero" fill-opacity="1" /><path clip-path="url(#clip900)" d="M1278.94 1449.53 Q1275.33 1449.53 1273.5 1453.1 Q1271.69 1456.64 1271.69 1463.77 Q1271.69 1470.87 1273.5 1474.44 Q1275.33 1477.98 1278.94 1477.98 Q1282.57 1477.98 1284.38 1474.44 Q1286.21 1470.87 1286.21 1463.77 Q1286.21 1456.64 1284.38 1453.1 Q1282.57 1449.53 1278.94 1449.53 M1278.94 1445.83 Q1284.75 1445.83 1287.8 1450.44 Q1290.88 1455.02 1290.88 1463.77 Q1290.88 1472.5 1287.8 1477.1 Q1284.75 1481.68 1278.94 1481.68 Q1273.13 1481.68 1270.05 1477.1 Q1266.99 1472.5 1266.99 1463.77 Q1266.99 1455.02 1270.05 1450.44 Q1273.13 1445.83 1278.94 1445.83 Z" fill="#000000" fill-rule="nonzero" fill-opacity="1" /><path clip-path="url(#clip900)" d="M1664.07 1477.08 L1680.39 1477.08 L1680.39 1481.01 L1658.45 1481.01 L1658.45 1477.08 Q1661.11 1474.32 1665.69 1469.69 Q1670.3 1465.04 1671.48 1463.7 Q1673.72 1461.18 1674.6 1459.44 Q1675.51 1457.68 1675.51 1455.99 Q1675.51 1453.24 1673.56 1451.5 Q1671.64 1449.76 1668.54 1449.76 Q1666.34 1449.76 1663.89 1450.53 Q1661.45 1451.29 1658.68 1452.84 L1658.68 1448.12 Q1661.5 1446.99 1663.95 1446.41 Q1666.41 1445.83 1668.45 1445.83 Q1673.82 1445.83 1677.01 1448.51 Q1680.2 1451.2 1680.2 1455.69 Q1680.2 1457.82 1679.39 1459.74 Q1678.61 1461.64 1676.5 1464.23 Q1675.92 1464.9 1672.82 1468.12 Q1669.72 1471.31 1664.07 1477.08 Z" fill="#000000" fill-rule="nonzero" fill-opacity="1" /><path clip-path="url(#clip900)" d="M2062.91 1450.53 L2051.1 1468.98 L2062.91 1468.98 L2062.91 1450.53 M2061.68 1446.45 L2067.56 1446.45 L2067.56 1468.98 L2072.49 1468.98 L2072.49 1472.87 L2067.56 1472.87 L2067.56 1481.01 L2062.91 1481.01 L2062.91 1472.87 L2047.3 1472.87 L2047.3 1468.35 L2061.68 1446.45 Z" fill="#000000" fill-rule="nonzero" fill-opacity="1" /><path clip-path="url(#clip900)" d="M1121.83 1517.45 L1121.83 1515.39 Q1122.77 1515.39 1124.44 1515.45 Q1126.12 1515.51 1127.44 1515.55 Q1128.76 1515.58 1129.88 1515.58 Q1136.87 1515.58 1139.26 1515.39 L1139.26 1517.45 Q1133.72 1517.45 1133.72 1519.41 Q1133.72 1519.86 1133.85 1520.28 L1144.44 1552.71 L1153.62 1524.44 L1152.17 1519.8 Q1151.66 1518.16 1150.53 1517.8 Q1149.4 1517.45 1146.25 1517.45 L1146.25 1515.39 Q1147.18 1515.39 1148.85 1515.45 Q1150.53 1515.51 1151.85 1515.55 Q1153.17 1515.58 1154.26 1515.58 Q1161.25 1515.58 1163.64 1515.39 L1163.64 1517.45 Q1158.1 1517.45 1158.1 1519.41 Q1158.1 1519.6 1158.29 1520.41 L1168.85 1552.71 L1178.74 1522.25 Q1179.06 1521.25 1179.1 1520.93 Q1179.1 1519.73 1177.71 1518.64 Q1176.33 1517.51 1173.33 1517.45 L1173.33 1515.39 Q1178.48 1515.58 1181.19 1515.58 Q1184.22 1515.58 1187.18 1515.39 L1187.18 1517.45 Q1181.96 1517.45 1180.61 1521.86 L1167.98 1560.57 Q1167.86 1561.09 1167.76 1561.31 Q1167.66 1561.57 1167.4 1561.73 Q1167.15 1561.89 1166.7 1561.89 Q1165.83 1561.89 1165.44 1560.64 L1154.49 1527.08 L1143.6 1560.57 Q1143.48 1561.09 1143.35 1561.31 Q1143.25 1561.57 1142.99 1561.73 Q1142.73 1561.89 1142.28 1561.89 Q1141.41 1561.89 1141.03 1560.64 L1127.82 1520.22 Q1127.24 1518.32 1126.34 1517.9 Q1125.47 1517.45 1121.83 1517.45 Z" fill="#000000" fill-rule="nonzero" fill-opacity="1" /><path clip-path="url(#clip900)" d="M1194.2 1560.44 L1194.2 1558.41 Q1197.71 1558.41 1198.51 1557.99 Q1199.32 1557.54 1199.32 1555.42 L1199.32 1537.67 Q1199.32 1535.22 1198.48 1534.65 Q1197.68 1534.07 1194.45 1534.07 L1194.45 1532 L1203.67 1531.3 L1203.67 1555.48 Q1203.67 1557.45 1204.37 1557.93 Q1205.08 1558.41 1208.3 1558.41 L1208.3 1560.44 Q1201.57 1560.25 1201.44 1560.25 Q1200.54 1560.25 1194.2 1560.44 M1196.97 1519.8 Q1196.97 1518.48 1197.96 1517.41 Q1199 1516.32 1200.44 1516.32 Q1201.89 1516.32 1202.92 1517.32 Q1203.96 1518.28 1203.96 1519.83 Q1203.96 1521.34 1202.92 1522.34 Q1201.89 1523.31 1200.44 1523.31 Q1198.93 1523.31 1197.93 1522.25 Q1196.97 1521.18 1196.97 1519.8 Z" fill="#000000" fill-rule="nonzero" fill-opacity="1" /><path clip-path="url(#clip900)" d="M1212.81 1560.44 L1212.81 1558.41 Q1216.32 1558.41 1217.13 1557.99 Q1217.93 1557.54 1217.93 1555.42 L1217.93 1537.74 Q1217.93 1535.29 1217.06 1534.68 Q1216.23 1534.07 1212.81 1534.07 L1212.81 1532 L1222.09 1531.3 L1222.09 1538.22 Q1225.18 1531.3 1231.85 1531.3 Q1236.8 1531.3 1238.77 1533.74 Q1240.22 1535.39 1240.51 1537.22 Q1240.83 1539.06 1240.83 1543.82 L1240.83 1556.42 Q1240.89 1557.8 1241.96 1558.12 Q1243.02 1558.41 1245.98 1558.41 L1245.98 1560.44 Q1239.25 1560.25 1238.58 1560.25 Q1238.06 1560.25 1231.14 1560.44 L1231.14 1558.41 Q1234.65 1558.41 1235.45 1557.99 Q1236.29 1557.54 1236.29 1555.42 L1236.29 1540.06 Q1236.29 1536.71 1235.26 1534.74 Q1234.23 1532.74 1231.39 1532.74 Q1227.98 1532.74 1225.24 1535.61 Q1222.51 1538.48 1222.51 1543.31 L1222.51 1555.42 Q1222.51 1557.54 1223.31 1557.99 Q1224.15 1558.41 1227.63 1558.41 L1227.63 1560.44 Q1220.9 1560.25 1220.25 1560.25 Q1219.74 1560.25 1212.81 1560.44 Z" fill="#000000" fill-rule="nonzero" fill-opacity="1" /><path clip-path="url(#clip900)" d="M1250.63 1560.44 L1250.63 1558.41 Q1254.14 1558.41 1254.95 1557.99 Q1255.78 1557.54 1255.78 1555.42 L1255.78 1521.12 Q1255.78 1518.67 1254.92 1518.06 Q1254.08 1517.45 1250.63 1517.45 L1250.63 1515.39 L1260.13 1514.68 L1260.13 1546.34 L1269.44 1538.28 Q1270.89 1537.03 1270.89 1535.71 Q1270.89 1534.19 1268.99 1534.07 L1268.99 1532 Q1271.76 1532.2 1276.36 1532.2 Q1279.07 1532.2 1280.97 1532 L1280.97 1534.07 Q1276.82 1534.26 1272.66 1537.61 Q1271.73 1538.35 1269.5 1540.28 Q1267.31 1542.18 1267.31 1542.37 Q1267.31 1542.44 1267.38 1542.6 Q1267.48 1542.76 1267.6 1542.89 Q1267.73 1543.02 1267.73 1543.08 L1276.11 1554.9 Q1277.81 1557.29 1279.07 1557.87 Q1280.33 1558.41 1282.52 1558.41 L1282.52 1560.44 Q1279.68 1560.25 1276.75 1560.25 Q1275.17 1560.25 1269.63 1560.44 L1269.63 1558.41 Q1272.02 1558.41 1272.02 1556.87 Q1272.02 1555.8 1266.67 1548.43 Q1266.28 1547.91 1265.41 1546.79 Q1264.61 1545.6 1264.16 1545.02 L1259.94 1548.62 L1259.94 1555.42 Q1259.94 1557.54 1260.74 1557.99 Q1261.58 1558.41 1265.09 1558.41 L1265.09 1560.44 Q1261.13 1560.25 1257.85 1560.25 Q1257.17 1560.25 1250.63 1560.44 Z" fill="#000000" fill-rule="nonzero" fill-opacity="1" /><path clip-path="url(#clip900)" d="M1285.01 1545.92 Q1285.01 1539.7 1289 1535.29 Q1293 1530.88 1298.73 1530.88 Q1304.53 1530.88 1307.52 1534.65 Q1310.55 1538.41 1310.55 1543.82 Q1310.55 1544.82 1310.29 1545.02 Q1310.03 1545.21 1308.91 1545.21 L1290.48 1545.21 Q1290.48 1551.94 1292.48 1555.1 Q1295.25 1559.51 1299.92 1559.51 Q1300.56 1559.51 1301.34 1559.38 Q1302.11 1559.25 1303.69 1558.7 Q1305.27 1558.12 1306.65 1556.61 Q1308.04 1555.1 1308.84 1552.71 Q1309.04 1551.78 1309.68 1551.81 Q1310.55 1551.81 1310.55 1552.58 Q1310.55 1553.16 1309.9 1554.48 Q1309.29 1555.77 1308.1 1557.32 Q1306.91 1558.86 1304.59 1560.02 Q1302.3 1561.18 1299.53 1561.18 Q1293.74 1561.18 1289.36 1556.8 Q1285.01 1552.39 1285.01 1545.92 M1290.55 1543.82 L1306.2 1543.82 Q1306.2 1542.44 1305.94 1540.89 Q1305.72 1539.35 1305.01 1537.22 Q1304.33 1535.06 1302.72 1533.71 Q1301.11 1532.36 1298.73 1532.36 Q1297.67 1532.36 1296.51 1532.81 Q1295.38 1533.26 1293.99 1534.36 Q1292.61 1535.45 1291.64 1537.93 Q1290.68 1540.41 1290.55 1543.82 Z" fill="#000000" fill-rule="nonzero" fill-opacity="1" /><path clip-path="url(#clip900)" d="M1314.01 1560.44 L1314.01 1558.41 Q1317.52 1558.41 1318.32 1557.99 Q1319.13 1557.54 1319.13 1555.42 L1319.13 1521.12 Q1319.13 1518.67 1318.26 1518.06 Q1317.42 1517.45 1314.01 1517.45 L1314.01 1515.39 L1323.47 1514.68 L1323.47 1555.42 Q1323.47 1557.54 1324.31 1557.99 Q1325.15 1558.41 1328.63 1558.41 L1328.63 1560.44 Q1327.82 1560.44 1326.15 1560.38 Q1324.47 1560.31 1323.25 1560.28 Q1322.02 1560.25 1321.32 1560.25 Q1320.54 1560.25 1314.01 1560.44 Z" fill="#000000" fill-rule="nonzero" fill-opacity="1" /><path clip-path="url(#clip900)" d="M1349.52 1576.93 L1349.52 1510.97 L1359.47 1510.97 L1359.47 1512.49 L1353.93 1512.49 L1353.93 1575.42 L1359.47 1575.42 L1359.47 1576.93 L1349.52 1576.93 Z" fill="#000000" fill-rule="nonzero" fill-opacity="1" /><path clip-path="url(#clip900)" d="M1391.03 1500.49 Q1393.06 1502.5 1393.06 1505.39 Q1393.06 1508.27 1391.03 1510.3 Q1389.02 1512.31 1386.14 1512.31 Q1383.25 1512.31 1381.22 1510.3 Q1379.22 1508.27 1379.22 1505.39 Q1379.22 1502.5 1381.22 1500.49 Q1383.25 1498.46 1386.14 1498.46 Q1389.02 1498.46 1391.03 1500.49 M1389.72 1508.99 Q1391.21 1507.5 1391.21 1505.39 Q1391.21 1503.27 1389.72 1501.8 Q1388.26 1500.31 1386.14 1500.31 Q1384.02 1500.31 1382.53 1501.8 Q1381.07 1503.27 1381.07 1505.39 Q1381.07 1507.5 1382.53 1508.99 Q1384.02 1510.46 1386.14 1510.46 Q1388.26 1510.46 1389.72 1508.99 Z" fill="#000000" fill-rule="nonzero" fill-opacity="1" /><path clip-path="url(#clip900)" d="M1417.89 1575.42 L1423.43 1575.42 L1423.43 1512.49 L1417.89 1512.49 L1417.89 1510.97 L1427.84 1510.97 L1427.84 1576.93 L1417.89 1576.93 L1417.89 1575.42 Z" fill="#000000" fill-rule="nonzero" fill-opacity="1" /><polyline clip-path="url(#clip902)" style="stroke:#000000; stroke-linecap:round; stroke-linejoin:round; stroke-width:2; stroke-opacity:0.1; fill:none" points="205.121,1310.35 2352.76,1310.35 "/>
<polyline clip-path="url(#clip902)" style="stroke:#000000; stroke-linecap:round; stroke-linejoin:round; stroke-width:2; stroke-opacity:0.1; fill:none" points="205.121,949.461 2352.76,949.461 "/>
<polyline clip-path="url(#clip902)" style="stroke:#000000; stroke-linecap:round; stroke-linejoin:round; stroke-width:2; stroke-opacity:0.1; fill:none" points="205.121,588.574 2352.76,588.574 "/>
<polyline clip-path="url(#clip902)" style="stroke:#000000; stroke-linecap:round; stroke-linejoin:round; stroke-width:2; stroke-opacity:0.1; fill:none" points="205.121,227.687 2352.76,227.687 "/>
<polyline clip-path="url(#clip900)" style="stroke:#000000; stroke-linecap:round; stroke-linejoin:round; stroke-width:4; stroke-opacity:1; fill:none" points="205.121,1418.61 205.121,47.2441 "/>
<polyline clip-path="url(#clip900)" style="stroke:#000000; stroke-linecap:round; stroke-linejoin:round; stroke-width:4; stroke-opacity:1; fill:none" points="205.121,1310.35 224.019,1310.35 "/>
<polyline clip-path="url(#clip900)" style="stroke:#000000; stroke-linecap:round; stroke-linejoin:round; stroke-width:4; stroke-opacity:1; fill:none" points="205.121,949.461 224.019,949.461 "/>
<polyline clip-path="url(#clip900)" style="stroke:#000000; stroke-linecap:round; stroke-linejoin:round; stroke-width:4; stroke-opacity:1; fill:none" points="205.121,588.574 224.019,588.574 "/>
<polyline clip-path="url(#clip900)" style="stroke:#000000; stroke-linecap:round; stroke-linejoin:round; stroke-width:4; stroke-opacity:1; fill:none" points="205.121,227.687 224.019,227.687 "/>
<path clip-path="url(#clip900)" d="M117.825 1323.69 L125.464 1323.69 L125.464 1297.33 L117.154 1298.99 L117.154 1294.73 L125.418 1293.07 L130.093 1293.07 L130.093 1323.69 L137.732 1323.69 L137.732 1327.63 L117.825 1327.63 L117.825 1323.69 Z" fill="#000000" fill-rule="nonzero" fill-opacity="1" /><path clip-path="url(#clip900)" d="M157.177 1296.15 Q153.566 1296.15 151.737 1299.71 Q149.931 1303.25 149.931 1310.38 Q149.931 1317.49 151.737 1321.05 Q153.566 1324.6 157.177 1324.6 Q160.811 1324.6 162.616 1321.05 Q164.445 1317.49 164.445 1310.38 Q164.445 1303.25 162.616 1299.71 Q160.811 1296.15 157.177 1296.15 M157.177 1292.44 Q162.987 1292.44 166.042 1297.05 Q169.121 1301.63 169.121 1310.38 Q169.121 1319.11 166.042 1323.72 Q162.987 1328.3 157.177 1328.3 Q151.366 1328.3 148.288 1323.72 Q145.232 1319.11 145.232 1310.38 Q145.232 1301.63 148.288 1297.05 Q151.366 1292.44 157.177 1292.44 Z" fill="#000000" fill-rule="nonzero" fill-opacity="1" /><path clip-path="url(#clip900)" d="M121.043 962.806 L137.362 962.806 L137.362 966.741 L115.418 966.741 L115.418 962.806 Q118.08 960.051 122.663 955.421 Q127.269 950.769 128.45 949.426 Q130.695 946.903 131.575 945.167 Q132.478 943.408 132.478 941.718 Q132.478 938.963 130.533 937.227 Q128.612 935.491 125.51 935.491 Q123.311 935.491 120.857 936.255 Q118.427 937.019 115.649 938.57 L115.649 933.848 Q118.473 932.713 120.927 932.135 Q123.38 931.556 125.418 931.556 Q130.788 931.556 133.982 934.241 Q137.177 936.926 137.177 941.417 Q137.177 943.547 136.367 945.468 Q135.579 947.366 133.473 949.959 Q132.894 950.63 129.792 953.847 Q126.691 957.042 121.043 962.806 Z" fill="#000000" fill-rule="nonzero" fill-opacity="1" /><path clip-path="url(#clip900)" d="M157.177 935.26 Q153.566 935.26 151.737 938.824 Q149.931 942.366 149.931 949.496 Q149.931 956.602 151.737 960.167 Q153.566 963.708 157.177 963.708 Q160.811 963.708 162.616 960.167 Q164.445 956.602 164.445 949.496 Q164.445 942.366 162.616 938.824 Q160.811 935.26 157.177 935.26 M157.177 931.556 Q162.987 931.556 166.042 936.162 Q169.121 940.746 169.121 949.496 Q169.121 958.222 166.042 962.829 Q162.987 967.412 157.177 967.412 Q151.366 967.412 148.288 962.829 Q145.232 958.222 145.232 949.496 Q145.232 940.746 148.288 936.162 Q151.366 931.556 157.177 931.556 Z" fill="#000000" fill-rule="nonzero" fill-opacity="1" /><path clip-path="url(#clip900)" d="M131.181 587.22 Q134.538 587.938 136.413 590.206 Q138.311 592.475 138.311 595.808 Q138.311 600.924 134.792 603.725 Q131.274 606.525 124.793 606.525 Q122.617 606.525 120.302 606.086 Q118.01 605.669 115.556 604.812 L115.556 600.299 Q117.501 601.433 119.816 602.012 Q122.13 602.59 124.654 602.59 Q129.052 602.59 131.343 600.854 Q133.658 599.118 133.658 595.808 Q133.658 592.752 131.505 591.039 Q129.376 589.303 125.556 589.303 L121.529 589.303 L121.529 585.461 L125.742 585.461 Q129.191 585.461 131.019 584.095 Q132.848 582.706 132.848 580.114 Q132.848 577.452 130.95 576.04 Q129.075 574.604 125.556 574.604 Q123.635 574.604 121.436 575.021 Q119.237 575.438 116.598 576.317 L116.598 572.151 Q119.26 571.41 121.575 571.04 Q123.913 570.669 125.973 570.669 Q131.297 570.669 134.399 573.1 Q137.501 575.507 137.501 579.627 Q137.501 582.498 135.857 584.489 Q134.214 586.456 131.181 587.22 Z" fill="#000000" fill-rule="nonzero" fill-opacity="1" /><path clip-path="url(#clip900)" d="M157.177 574.373 Q153.566 574.373 151.737 577.938 Q149.931 581.479 149.931 588.609 Q149.931 595.715 151.737 599.28 Q153.566 602.822 157.177 602.822 Q160.811 602.822 162.616 599.28 Q164.445 595.715 164.445 588.609 Q164.445 581.479 162.616 577.938 Q160.811 574.373 157.177 574.373 M157.177 570.669 Q162.987 570.669 166.042 575.276 Q169.121 579.859 169.121 588.609 Q169.121 597.336 166.042 601.942 Q162.987 606.525 157.177 606.525 Q151.366 606.525 148.288 601.942 Q145.232 597.336 145.232 588.609 Q145.232 579.859 148.288 575.276 Q151.366 570.669 157.177 570.669 Z" fill="#000000" fill-rule="nonzero" fill-opacity="1" /><path clip-path="url(#clip900)" d="M129.862 214.482 L118.056 232.93 L129.862 232.93 L129.862 214.482 M128.635 210.407 L134.515 210.407 L134.515 232.93 L139.445 232.93 L139.445 236.819 L134.515 236.819 L134.515 244.967 L129.862 244.967 L129.862 236.819 L114.26 236.819 L114.26 232.305 L128.635 210.407 Z" fill="#000000" fill-rule="nonzero" fill-opacity="1" /><path clip-path="url(#clip900)" d="M157.177 213.486 Q153.566 213.486 151.737 217.051 Q149.931 220.593 149.931 227.722 Q149.931 234.829 151.737 238.393 Q153.566 241.935 157.177 241.935 Q160.811 241.935 162.616 238.393 Q164.445 234.829 164.445 227.722 Q164.445 220.593 162.616 217.051 Q160.811 213.486 157.177 213.486 M157.177 209.782 Q162.987 209.782 166.042 214.389 Q169.121 218.972 169.121 227.722 Q169.121 236.449 166.042 241.055 Q162.987 245.639 157.177 245.639 Q151.366 245.639 148.288 241.055 Q145.232 236.449 145.232 227.722 Q145.232 218.972 148.288 214.389 Q151.366 209.782 157.177 209.782 Z" fill="#000000" fill-rule="nonzero" fill-opacity="1" /><path clip-path="url(#clip900)" d="M64.9569 917.129 Q64.3772 917.129 63.6364 916.678 L23.0893 891.01 L23.0893 901.38 Q23.0893 905.341 23.991 907.95 Q24.8606 910.559 26.7607 911.943 Q28.6287 913.328 30.7221 913.876 Q32.7832 914.423 35.875 914.616 L35.875 916.291 L21.0281 915.55 L21.0281 886.018 Q21.0281 885.438 21.0281 885.213 Q21.0281 884.955 21.1569 884.697 Q21.2857 884.44 21.5112 884.375 Q21.7044 884.279 22.0909 884.279 Q22.6062 884.279 23.3469 884.762 L63.8297 910.333 L63.8297 899.512 Q63.8297 895.937 63.0889 893.457 Q62.316 890.945 61.1566 889.496 Q59.965 888.047 57.8072 887.209 Q55.6494 886.34 53.6526 886.05 Q51.6237 885.728 48.4675 885.535 L48.4675 883.892 L66.0841 885.019 L66.0841 915.422 Q66.0841 916.549 65.9231 916.839 Q65.762 917.129 64.9569 917.129 Z" fill="#000000" fill-rule="nonzero" fill-opacity="1" /><path clip-path="url(#clip900)" d="M59.804 877.224 Q54.2001 877.224 51.2372 870.621 Q49.337 866.66 48.854 858.48 L46.4385 858.48 Q42.3484 858.48 40.1906 860.638 Q38.0006 862.763 38.0006 865.468 Q38.0006 870.299 41.0279 872.618 Q41.0923 870.654 42.0907 869.945 Q43.0569 869.236 44.0553 869.236 Q45.3757 869.236 46.2453 870.074 Q47.0826 870.879 47.0826 872.264 Q47.0826 873.584 46.2775 874.454 Q45.4401 875.323 43.9909 875.323 Q40.7703 875.323 38.6447 872.425 Q36.5191 869.494 36.5191 865.34 Q36.5191 859.929 40.1584 856.322 Q41.2856 855.195 42.7348 854.647 Q44.1841 854.068 45.1503 854.003 Q46.0843 853.939 47.9522 853.939 L61.1244 853.939 Q61.5109 853.939 62.155 853.81 Q62.7991 853.681 63.6364 853.101 Q64.4416 852.489 64.4416 851.491 Q64.4416 849.108 60.2226 849.14 L56.519 849.14 L56.519 847.465 L60.2226 847.465 Q63.7331 847.465 65.1179 849.333 Q66.4706 851.169 66.4706 852.876 Q66.4706 855.066 64.8603 856.451 Q63.25 857.836 61.06 858.029 Q63.572 859.027 65.2145 861.314 Q66.8248 863.568 66.8248 866.66 Q66.8248 869.043 66.2129 871.298 Q65.6332 873.52 63.9907 875.388 Q62.316 877.224 59.804 877.224 M26.1166 873.391 Q24.6029 873.391 23.6046 872.393 Q22.6062 871.362 22.6062 869.977 Q22.6062 868.657 23.6368 867.562 Q24.6674 866.467 26.1166 866.467 Q27.5659 866.467 28.5643 867.562 Q29.5304 868.657 29.5304 869.977 Q29.5304 871.491 28.5321 872.457 Q27.5015 873.391 26.1166 873.391 M59.7395 872.135 Q62.1872 872.135 63.7653 870.396 Q65.3434 868.657 65.3434 866.209 Q65.3434 863.439 63.2178 860.96 Q61.06 858.48 56.841 858.48 L50.2388 858.48 Q50.4965 865.79 53.4272 868.979 Q56.3257 872.135 59.7395 872.135 M26.1166 860.605 Q24.6029 860.605 23.6046 859.543 Q22.6062 858.48 22.6062 857.095 Q22.6062 855.71 23.6046 854.712 Q24.6029 853.681 26.1166 853.681 Q27.5659 853.681 28.5643 854.744 Q29.5304 855.774 29.5304 857.095 Q29.5304 858.609 28.5321 859.607 Q27.5015 860.605 26.1166 860.605 Z" fill="#000000" fill-rule="nonzero" fill-opacity="1" /><path clip-path="url(#clip900)" d="M66.0841 844.559 L64.0551 844.559 Q64.0551 841.049 63.6364 840.244 Q63.1856 839.439 61.06 839.439 L26.7607 839.439 Q24.3131 839.439 23.7012 840.308 Q23.0893 841.146 23.0893 844.559 L21.0281 844.559 L20.3196 835.091 L43.2501 835.091 L43.2501 835.027 Q40.8669 833.964 38.9023 831.581 Q36.9378 829.197 36.9378 825.526 Q36.9378 820.566 39.3854 818.602 Q41.0279 817.152 42.8637 816.862 Q44.6994 816.54 49.4659 816.54 L62.0584 816.54 Q63.4432 816.476 63.7653 815.413 Q64.0551 814.35 64.0551 811.387 L66.0841 811.387 Q65.8909 818.118 65.8909 818.795 Q65.8909 819.31 66.0841 826.234 L64.0551 826.234 Q64.0551 822.724 63.6364 821.919 Q63.1856 821.081 61.06 821.081 L45.6978 821.081 Q42.3484 821.081 40.3838 822.112 Q38.3871 823.143 38.3871 825.977 Q38.3871 829.391 41.2534 832.128 Q44.1197 834.865 48.9506 834.865 L61.06 834.865 Q63.1856 834.865 63.6364 834.06 Q64.0551 833.223 64.0551 829.745 L66.0841 829.745 Q65.8909 836.476 65.8909 837.12 Q65.8909 837.635 66.0841 844.559 Z" fill="#000000" fill-rule="nonzero" fill-opacity="1" /><path clip-path="url(#clip900)" d="M66.0841 809.115 L64.0551 809.115 Q64.0551 805.604 63.6364 804.799 Q63.1856 803.994 61.06 803.994 L26.7607 803.994 Q24.3131 803.994 23.7012 804.864 Q23.0893 805.701 23.0893 809.115 L21.0281 809.115 L20.3196 799.646 L61.06 799.646 Q63.1856 799.646 63.6364 798.809 Q64.0551 797.972 64.0551 794.493 L66.0841 794.493 Q66.0841 795.298 66.0197 796.973 Q65.9553 798.648 65.9231 799.872 Q65.8909 801.096 65.8909 801.804 Q65.8909 802.577 66.0841 809.115 Z" fill="#000000" fill-rule="nonzero" fill-opacity="1" /><path clip-path="url(#clip900)" d="M66.0841 791.556 L64.0551 791.556 Q64.0551 788.046 63.6364 787.241 Q63.1856 786.403 61.06 786.403 L43.379 786.403 Q40.9313 786.403 40.3194 787.273 Q39.7075 788.11 39.7075 791.556 L37.6463 791.556 L36.9378 782.378 L44.1841 782.378 Q41.35 781.444 39.16 779.479 Q36.9378 777.482 36.9378 774.262 Q36.9378 772.136 38.1294 770.784 Q39.321 769.399 40.9635 769.399 Q42.4128 769.399 43.1535 770.3 Q43.8621 771.17 43.8621 772.233 Q43.8621 773.424 43.1213 774.262 Q42.3484 775.067 41.0279 775.067 Q40.2228 775.067 39.6109 774.713 Q38.9668 774.326 38.7413 774.036 Q38.5159 773.746 38.4515 773.553 Q38.3871 773.682 38.3871 774.262 Q38.3871 777.901 42.0263 779.994 Q45.6334 782.056 50.7863 782.056 L60.9312 782.056 Q62.8313 782.056 63.4432 781.283 Q64.0551 780.478 64.0551 777.031 L64.0551 775.647 L66.0841 775.647 Q65.8909 778.288 65.8909 784.02 Q65.8909 784.825 65.9231 786.081 Q65.9553 787.337 66.0197 788.98 Q66.0841 790.622 66.0841 791.556 Z" fill="#000000" fill-rule="nonzero" fill-opacity="1" /><path clip-path="url(#clip900)" d="M59.804 763.995 Q54.2001 763.995 51.2372 757.392 Q49.337 753.431 48.854 745.251 L46.4385 745.251 Q42.3484 745.251 40.1906 747.409 Q38.0006 749.534 38.0006 752.239 Q38.0006 757.07 41.0279 759.389 Q41.0923 757.425 42.0907 756.716 Q43.0569 756.007 44.0553 756.007 Q45.3757 756.007 46.2453 756.845 Q47.0826 757.65 47.0826 759.035 Q47.0826 760.355 46.2775 761.225 Q45.4401 762.094 43.9909 762.094 Q40.7703 762.094 38.6447 759.196 Q36.5191 756.265 36.5191 752.111 Q36.5191 746.7 40.1584 743.093 Q41.2856 741.966 42.7348 741.418 Q44.1841 740.839 45.1503 740.774 Q46.0843 740.71 47.9522 740.71 L61.1244 740.71 Q61.5109 740.71 62.155 740.581 Q62.7991 740.452 63.6364 739.872 Q64.4416 739.26 64.4416 738.262 Q64.4416 735.879 60.2226 735.911 L56.519 735.911 L56.519 734.236 L60.2226 734.236 Q63.7331 734.236 65.1179 736.104 Q66.4706 737.94 66.4706 739.647 Q66.4706 741.837 64.8603 743.222 Q63.25 744.607 61.06 744.8 Q63.572 745.798 65.2145 748.085 Q66.8248 750.339 66.8248 753.431 Q66.8248 755.814 66.2129 758.069 Q65.6332 760.291 63.9907 762.159 Q62.316 763.995 59.804 763.995 M59.7395 758.906 Q62.1872 758.906 63.7653 757.167 Q65.3434 755.428 65.3434 752.98 Q65.3434 750.21 63.2178 747.731 Q61.06 745.251 56.841 745.251 L50.2388 745.251 Q50.4965 752.561 53.4272 755.75 Q56.3257 758.906 59.7395 758.906 Z" fill="#000000" fill-rule="nonzero" fill-opacity="1" /><path clip-path="url(#clip900)" d="M39.7075 732.65 L38.2582 732.65 Q38.1294 729.623 36.0038 727.626 Q33.846 725.597 31.2051 724.921 Q28.5643 724.213 25.5047 724.148 L25.5047 722.506 L37.6463 722.506 L37.6463 713.069 L39.7075 713.069 L39.7075 722.506 L58.0326 722.506 Q65.1501 722.506 65.1501 718.061 Q65.1501 716.161 63.2178 714.905 Q61.2532 713.649 57.775 713.649 L54.1357 713.649 L54.1357 712.007 L57.9038 712.007 Q61.4787 712.007 64.1517 713.649 Q66.8248 715.292 66.8248 718.544 Q66.8248 719.736 66.5028 720.928 Q66.2129 722.087 65.44 723.633 Q64.6348 725.147 62.7025 726.113 Q60.7379 727.047 57.9038 727.047 L39.7075 727.047 L39.7075 732.65 Z" fill="#000000" fill-rule="nonzero" fill-opacity="1" /><path clip-path="url(#clip900)" d="M51.5593 708.92 Q45.3435 708.92 40.9313 704.927 Q36.5191 700.933 36.5191 695.2 Q36.5191 689.403 40.2872 686.408 Q44.0553 683.381 49.4659 683.381 Q50.4643 683.381 50.6575 683.638 Q50.8507 683.896 50.8507 685.023 L50.8507 703.445 Q57.5817 703.445 60.7379 701.448 Q65.1501 698.679 65.1501 694.009 Q65.1501 693.365 65.0213 692.592 Q64.8925 691.819 64.345 690.241 Q63.7653 688.663 62.2516 687.278 Q60.7379 685.893 58.3547 685.088 Q57.4207 684.894 57.4529 684.25 Q57.4529 683.381 58.2259 683.381 Q58.8056 683.381 60.126 684.025 Q61.4142 684.637 62.9601 685.828 Q64.506 687.02 65.6654 689.339 Q66.8248 691.626 66.8248 694.395 Q66.8248 700.192 62.4448 704.572 Q58.0326 708.92 51.5593 708.92 M49.4659 703.381 L49.4659 687.729 Q48.081 687.729 46.5351 687.986 Q44.9893 688.212 42.8637 688.92 Q40.7059 689.597 39.3532 691.207 Q38.0006 692.817 38.0006 695.2 Q38.0006 696.263 38.4515 697.423 Q38.9023 698.55 39.9973 699.935 Q41.0923 701.319 43.5722 702.286 Q46.052 703.252 49.4659 703.381 Z" fill="#000000" fill-rule="nonzero" fill-opacity="1" /><path clip-path="url(#clip900)" d="M82.5735 662.493 L16.6159 662.493 L16.6159 652.542 L18.1296 652.542 L18.1296 658.081 L81.0598 658.081 L81.0598 652.542 L82.5735 652.542 L82.5735 662.493 Z" fill="#000000" fill-rule="nonzero" fill-opacity="1" /><path clip-path="url(#clip900)" d="M66.0841 650.151 L64.0551 650.151 L64.0551 648.573 Q64.0551 644.998 63.4754 644.193 Q62.8635 643.356 60.9312 643.356 L26.181 643.356 Q24.2809 643.356 23.7012 644.193 Q23.0893 645.03 23.0893 648.573 L23.0893 650.151 L21.0281 650.151 Q21.2213 647.832 21.2213 640.393 Q21.2213 633.018 21.0281 630.699 L23.0893 630.699 L23.0893 632.277 Q23.0893 635.852 23.7012 636.689 Q24.2809 637.494 26.181 637.494 L41.6076 637.494 L41.6076 617.784 L26.181 617.784 Q24.2809 617.784 23.7012 618.622 Q23.0893 619.427 23.0893 623.002 L23.0893 624.58 L21.0281 624.58 Q21.2213 622.261 21.2213 614.821 Q21.2213 607.446 21.0281 605.127 L23.0893 605.127 L23.0893 606.706 Q23.0893 610.28 23.7012 611.118 Q24.2809 611.923 26.181 611.923 L60.9312 611.923 Q62.8313 611.923 63.4432 611.085 Q64.0551 610.248 64.0551 606.706 L64.0551 605.127 L66.0841 605.127 Q65.8909 607.446 65.8909 614.886 Q65.8909 622.261 66.0841 624.58 L64.0551 624.58 L64.0551 623.002 Q64.0551 619.427 63.4754 618.622 Q62.8635 617.784 60.9312 617.784 L43.6688 617.784 L43.6688 637.494 L60.9312 637.494 Q62.8313 637.494 63.4432 636.689 Q64.0551 635.852 64.0551 632.277 L64.0551 630.699 L66.0841 630.699 Q65.8909 633.018 65.8909 640.457 Q65.8909 647.832 66.0841 650.151 Z" fill="#000000" fill-rule="nonzero" fill-opacity="1" /><path clip-path="url(#clip900)" d="M65.1501 597.195 Q64.6992 597.195 63.9585 596.583 L39.0956 578.194 L39.0956 585.698 Q39.0956 590.915 41.0279 592.622 Q42.9281 594.297 48.2743 594.619 L48.2743 596.261 L37.6463 595.52 L37.6463 574.426 Q37.6463 573.685 37.6785 573.395 Q37.7107 573.105 37.9362 572.912 Q38.1294 572.719 38.5159 572.719 Q38.9023 572.719 39.6431 573.298 L64.4416 591.656 L64.4416 583.862 Q64.4416 578.387 62.155 576.551 Q59.8684 574.683 53.7493 574.232 L53.7493 572.59 L66.0841 573.717 L66.0841 595.456 Q66.0841 596.519 65.9553 596.873 Q65.7942 597.195 65.1501 597.195 Z" fill="#000000" fill-rule="nonzero" fill-opacity="1" /><path clip-path="url(#clip900)" d="M81.0598 566.879 L81.0598 561.34 L18.1296 561.34 L18.1296 566.879 L16.6159 566.879 L16.6159 556.928 L82.5735 556.928 L82.5735 566.879 L81.0598 566.879 Z" fill="#000000" fill-rule="nonzero" fill-opacity="1" /><polyline clip-path="url(#clip902)" style="stroke:#000000; stroke-linecap:round; stroke-linejoin:round; stroke-width:4; stroke-opacity:1; fill:none" points="205.121,1411.4 400.361,1411.4 "/>
<polyline clip-path="url(#clip902)" style="stroke:#000000; stroke-linecap:round; stroke-linejoin:round; stroke-width:4; stroke-opacity:1; fill:none" points="302.741,1384.93 497.98,1384.93 "/>
<polyline clip-path="url(#clip902)" style="stroke:#000000; stroke-linecap:round; stroke-linejoin:round; stroke-width:4; stroke-opacity:1; fill:none" points="400.361,1380.12 595.6,1380.12 "/>
<polyline clip-path="url(#clip902)" style="stroke:#000000; stroke-linecap:round; stroke-linejoin:round; stroke-width:4; stroke-opacity:1; fill:none" points="497.98,1319.37 693.22,1319.37 "/>
<polyline clip-path="url(#clip902)" style="stroke:#000000; stroke-linecap:round; stroke-linejoin:round; stroke-width:4; stroke-opacity:1; fill:none" points="595.6,1138.93 790.84,1138.93 "/>
<polyline clip-path="url(#clip902)" style="stroke:#000000; stroke-linecap:round; stroke-linejoin:round; stroke-width:4; stroke-opacity:1; fill:none" points="693.22,1245.99 888.459,1245.99 "/>
<polyline clip-path="url(#clip902)" style="stroke:#000000; stroke-linecap:round; stroke-linejoin:round; stroke-width:4; stroke-opacity:1; fill:none" points="790.84,1065.55 986.079,1065.55 "/>
<polyline clip-path="url(#clip902)" style="stroke:#000000; stroke-linecap:round; stroke-linejoin:round; stroke-width:4; stroke-opacity:1; fill:none" points="888.459,681.202 1083.7,681.202 "/>
<polyline clip-path="url(#clip902)" style="stroke:#000000; stroke-linecap:round; stroke-linejoin:round; stroke-width:4; stroke-opacity:1; fill:none" points="986.079,379.861 1181.32,379.861 "/>
<polyline clip-path="url(#clip902)" style="stroke:#000000; stroke-linecap:round; stroke-linejoin:round; stroke-width:4; stroke-opacity:1; fill:none" points="1083.7,132.052 1278.94,132.052 "/>
<polyline clip-path="url(#clip902)" style="stroke:#000000; stroke-linecap:round; stroke-linejoin:round; stroke-width:4; stroke-opacity:1; fill:none" points="1181.32,190.396 1376.56,190.396 "/>
<polyline clip-path="url(#clip902)" style="stroke:#000000; stroke-linecap:round; stroke-linejoin:round; stroke-width:4; stroke-opacity:1; fill:none" points="1278.94,500.758 1474.18,500.758 "/>
<polyline clip-path="url(#clip902)" style="stroke:#000000; stroke-linecap:round; stroke-linejoin:round; stroke-width:4; stroke-opacity:1; fill:none" points="1376.56,839.39 1571.8,839.39 "/>
<polyline clip-path="url(#clip902)" style="stroke:#000000; stroke-linecap:round; stroke-linejoin:round; stroke-width:4; stroke-opacity:1; fill:none" points="1474.18,1024.65 1669.42,1024.65 "/>
<polyline clip-path="url(#clip902)" style="stroke:#000000; stroke-linecap:round; stroke-linejoin:round; stroke-width:4; stroke-opacity:1; fill:none" points="1571.8,1288.09 1767.04,1288.09 "/>
<polyline clip-path="url(#clip902)" style="stroke:#000000; stroke-linecap:round; stroke-linejoin:round; stroke-width:4; stroke-opacity:1; fill:none" points="1669.42,1350.65 1864.66,1350.65 "/>
<polyline clip-path="url(#clip902)" style="stroke:#000000; stroke-linecap:round; stroke-linejoin:round; stroke-width:4; stroke-opacity:1; fill:none" points="1767.04,1404.18 1962.28,1404.18 "/>
<polyline clip-path="url(#clip902)" style="stroke:#000000; stroke-linecap:round; stroke-linejoin:round; stroke-width:4; stroke-opacity:1; fill:none" points="1864.66,1374.1 2059.9,1374.1 "/>
<polyline clip-path="url(#clip902)" style="stroke:#000000; stroke-linecap:round; stroke-linejoin:round; stroke-width:4; stroke-opacity:1; fill:none" points="1962.28,1368.69 2157.52,1368.69 "/>
<polyline clip-path="url(#clip902)" style="stroke:#000000; stroke-linecap:round; stroke-linejoin:round; stroke-width:4; stroke-opacity:1; fill:none" points="2059.9,1387.94 2255.14,1387.94 "/>
<polyline clip-path="url(#clip902)" style="stroke:#000000; stroke-linecap:round; stroke-linejoin:round; stroke-width:4; stroke-opacity:1; fill:none" points="2157.52,1396.96 2352.76,1396.96 "/>
<line clip-path="url(#clip902)" x1="205.121" y1="1427.4" x2="205.121" y2="1395.4" style="stroke:#000000; stroke-width:4; stroke-opacity:1"/>
<line clip-path="url(#clip902)" x1="400.361" y1="1427.4" x2="400.361" y2="1395.4" style="stroke:#000000; stroke-width:4; stroke-opacity:1"/>
<line clip-path="url(#clip902)" x1="302.741" y1="1400.93" x2="302.741" y2="1368.93" style="stroke:#000000; stroke-width:4; stroke-opacity:1"/>
<line clip-path="url(#clip902)" x1="497.98" y1="1400.93" x2="497.98" y2="1368.93" style="stroke:#000000; stroke-width:4; stroke-opacity:1"/>
<line clip-path="url(#clip902)" x1="400.361" y1="1396.12" x2="400.361" y2="1364.12" style="stroke:#000000; stroke-width:4; stroke-opacity:1"/>
<line clip-path="url(#clip902)" x1="595.6" y1="1396.12" x2="595.6" y2="1364.12" style="stroke:#000000; stroke-width:4; stroke-opacity:1"/>
<line clip-path="url(#clip902)" x1="497.98" y1="1335.37" x2="497.98" y2="1303.37" style="stroke:#000000; stroke-width:4; stroke-opacity:1"/>
<line clip-path="url(#clip902)" x1="693.22" y1="1335.37" x2="693.22" y2="1303.37" style="stroke:#000000; stroke-width:4; stroke-opacity:1"/>
<line clip-path="url(#clip902)" x1="595.6" y1="1154.93" x2="595.6" y2="1122.93" style="stroke:#000000; stroke-width:4; stroke-opacity:1"/>
<line clip-path="url(#clip902)" x1="790.84" y1="1154.93" x2="790.84" y2="1122.93" style="stroke:#000000; stroke-width:4; stroke-opacity:1"/>
<line clip-path="url(#clip902)" x1="693.22" y1="1261.99" x2="693.22" y2="1229.99" style="stroke:#000000; stroke-width:4; stroke-opacity:1"/>
<line clip-path="url(#clip902)" x1="888.459" y1="1261.99" x2="888.459" y2="1229.99" style="stroke:#000000; stroke-width:4; stroke-opacity:1"/>
<line clip-path="url(#clip902)" x1="790.84" y1="1081.55" x2="790.84" y2="1049.55" style="stroke:#000000; stroke-width:4; stroke-opacity:1"/>
<line clip-path="url(#clip902)" x1="986.079" y1="1081.55" x2="986.079" y2="1049.55" style="stroke:#000000; stroke-width:4; stroke-opacity:1"/>
<line clip-path="url(#clip902)" x1="888.459" y1="697.202" x2="888.459" y2="665.202" style="stroke:#000000; stroke-width:4; stroke-opacity:1"/>
<line clip-path="url(#clip902)" x1="1083.7" y1="697.202" x2="1083.7" y2="665.202" style="stroke:#000000; stroke-width:4; stroke-opacity:1"/>
<line clip-path="url(#clip902)" x1="986.079" y1="395.861" x2="986.079" y2="363.861" style="stroke:#000000; stroke-width:4; stroke-opacity:1"/>
<line clip-path="url(#clip902)" x1="1181.32" y1="395.861" x2="1181.32" y2="363.861" style="stroke:#000000; stroke-width:4; stroke-opacity:1"/>
<line clip-path="url(#clip902)" x1="1083.7" y1="148.052" x2="1083.7" y2="116.052" style="stroke:#000000; stroke-width:4; stroke-opacity:1"/>
<line clip-path="url(#clip902)" x1="1278.94" y1="148.052" x2="1278.94" y2="116.052" style="stroke:#000000; stroke-width:4; stroke-opacity:1"/>
<line clip-path="url(#clip902)" x1="1181.32" y1="206.396" x2="1181.32" y2="174.396" style="stroke:#000000; stroke-width:4; stroke-opacity:1"/>
<line clip-path="url(#clip902)" x1="1376.56" y1="206.396" x2="1376.56" y2="174.396" style="stroke:#000000; stroke-width:4; stroke-opacity:1"/>
<line clip-path="url(#clip902)" x1="1278.94" y1="516.758" x2="1278.94" y2="484.758" style="stroke:#000000; stroke-width:4; stroke-opacity:1"/>
<line clip-path="url(#clip902)" x1="1474.18" y1="516.758" x2="1474.18" y2="484.758" style="stroke:#000000; stroke-width:4; stroke-opacity:1"/>
<line clip-path="url(#clip902)" x1="1376.56" y1="855.39" x2="1376.56" y2="823.39" style="stroke:#000000; stroke-width:4; stroke-opacity:1"/>
<line clip-path="url(#clip902)" x1="1571.8" y1="855.39" x2="1571.8" y2="823.39" style="stroke:#000000; stroke-width:4; stroke-opacity:1"/>
<line clip-path="url(#clip902)" x1="1474.18" y1="1040.65" x2="1474.18" y2="1008.65" style="stroke:#000000; stroke-width:4; stroke-opacity:1"/>
<line clip-path="url(#clip902)" x1="1669.42" y1="1040.65" x2="1669.42" y2="1008.65" style="stroke:#000000; stroke-width:4; stroke-opacity:1"/>
<line clip-path="url(#clip902)" x1="1571.8" y1="1304.09" x2="1571.8" y2="1272.09" style="stroke:#000000; stroke-width:4; stroke-opacity:1"/>
<line clip-path="url(#clip902)" x1="1767.04" y1="1304.09" x2="1767.04" y2="1272.09" style="stroke:#000000; stroke-width:4; stroke-opacity:1"/>
<line clip-path="url(#clip902)" x1="1669.42" y1="1366.65" x2="1669.42" y2="1334.65" style="stroke:#000000; stroke-width:4; stroke-opacity:1"/>
<line clip-path="url(#clip902)" x1="1864.66" y1="1366.65" x2="1864.66" y2="1334.65" style="stroke:#000000; stroke-width:4; stroke-opacity:1"/>
<line clip-path="url(#clip902)" x1="1767.04" y1="1420.18" x2="1767.04" y2="1388.18" style="stroke:#000000; stroke-width:4; stroke-opacity:1"/>
<line clip-path="url(#clip902)" x1="1962.28" y1="1420.18" x2="1962.28" y2="1388.18" style="stroke:#000000; stroke-width:4; stroke-opacity:1"/>
<line clip-path="url(#clip902)" x1="1864.66" y1="1390.1" x2="1864.66" y2="1358.1" style="stroke:#000000; stroke-width:4; stroke-opacity:1"/>
<line clip-path="url(#clip902)" x1="2059.9" y1="1390.1" x2="2059.9" y2="1358.1" style="stroke:#000000; stroke-width:4; stroke-opacity:1"/>
<line clip-path="url(#clip902)" x1="1962.28" y1="1384.69" x2="1962.28" y2="1352.69" style="stroke:#000000; stroke-width:4; stroke-opacity:1"/>
<line clip-path="url(#clip902)" x1="2157.52" y1="1384.69" x2="2157.52" y2="1352.69" style="stroke:#000000; stroke-width:4; stroke-opacity:1"/>
<line clip-path="url(#clip902)" x1="2059.9" y1="1403.94" x2="2059.9" y2="1371.94" style="stroke:#000000; stroke-width:4; stroke-opacity:1"/>
<line clip-path="url(#clip902)" x1="2255.14" y1="1403.94" x2="2255.14" y2="1371.94" style="stroke:#000000; stroke-width:4; stroke-opacity:1"/>
<line clip-path="url(#clip902)" x1="2157.52" y1="1412.96" x2="2157.52" y2="1380.96" style="stroke:#000000; stroke-width:4; stroke-opacity:1"/>
<line clip-path="url(#clip902)" x1="2352.76" y1="1412.96" x2="2352.76" y2="1380.96" style="stroke:#000000; stroke-width:4; stroke-opacity:1"/>
<polyline clip-path="url(#clip902)" style="stroke:#000000; stroke-linecap:round; stroke-linejoin:round; stroke-width:4; stroke-opacity:1; fill:none" points="302.741,1423.9 302.741,1398.89 "/>
<polyline clip-path="url(#clip902)" style="stroke:#000000; stroke-linecap:round; stroke-linejoin:round; stroke-width:4; stroke-opacity:1; fill:none" points="400.361,1398.05 400.361,1371.81 "/>
<polyline clip-path="url(#clip902)" style="stroke:#000000; stroke-linecap:round; stroke-linejoin:round; stroke-width:4; stroke-opacity:1; fill:none" points="497.98,1393.35 497.98,1366.89 "/>
<polyline clip-path="url(#clip902)" style="stroke:#000000; stroke-linecap:round; stroke-linejoin:round; stroke-width:4; stroke-opacity:1; fill:none" points="595.6,1333.92 595.6,1304.82 "/>
<polyline clip-path="url(#clip902)" style="stroke:#000000; stroke-linecap:round; stroke-linejoin:round; stroke-width:4; stroke-opacity:1; fill:none" points="693.22,1156.82 693.22,1121.03 "/>
<polyline clip-path="url(#clip902)" style="stroke:#000000; stroke-linecap:round; stroke-linejoin:round; stroke-width:4; stroke-opacity:1; fill:none" points="790.84,1261.98 790.84,1230 "/>
<polyline clip-path="url(#clip902)" style="stroke:#000000; stroke-linecap:round; stroke-linejoin:round; stroke-width:4; stroke-opacity:1; fill:none" points="888.459,1084.63 888.459,1046.46 "/>
<polyline clip-path="url(#clip902)" style="stroke:#000000; stroke-linecap:round; stroke-linejoin:round; stroke-width:4; stroke-opacity:1; fill:none" points="986.079,705.604 986.079,656.799 "/>
<polyline clip-path="url(#clip902)" style="stroke:#000000; stroke-linecap:round; stroke-linejoin:round; stroke-width:4; stroke-opacity:1; fill:none" points="1083.7,407.731 1083.7,351.991 "/>
<polyline clip-path="url(#clip902)" style="stroke:#000000; stroke-linecap:round; stroke-linejoin:round; stroke-width:4; stroke-opacity:1; fill:none" points="1181.32,162.479 1181.32,101.626 "/>
<polyline clip-path="url(#clip902)" style="stroke:#000000; stroke-linecap:round; stroke-linejoin:round; stroke-width:4; stroke-opacity:1; fill:none" points="1278.94,220.24 1278.94,160.551 "/>
<polyline clip-path="url(#clip902)" style="stroke:#000000; stroke-linecap:round; stroke-linejoin:round; stroke-width:4; stroke-opacity:1; fill:none" points="1376.56,527.292 1376.56,474.225 "/>
<polyline clip-path="url(#clip902)" style="stroke:#000000; stroke-linecap:round; stroke-linejoin:round; stroke-width:4; stroke-opacity:1; fill:none" points="1474.18,861.759 1474.18,817.022 "/>
<polyline clip-path="url(#clip902)" style="stroke:#000000; stroke-linecap:round; stroke-linejoin:round; stroke-width:4; stroke-opacity:1; fill:none" points="1571.8,1044.37 1571.8,1004.92 "/>
<polyline clip-path="url(#clip902)" style="stroke:#000000; stroke-linecap:round; stroke-linejoin:round; stroke-width:4; stroke-opacity:1; fill:none" points="1669.42,1303.27 1669.42,1272.91 "/>
<polyline clip-path="url(#clip902)" style="stroke:#000000; stroke-linecap:round; stroke-linejoin:round; stroke-width:4; stroke-opacity:1; fill:none" points="1767.04,1364.53 1767.04,1336.76 "/>
<polyline clip-path="url(#clip902)" style="stroke:#000000; stroke-linecap:round; stroke-linejoin:round; stroke-width:4; stroke-opacity:1; fill:none" points="1864.66,1416.85 1864.66,1391.5 "/>
<polyline clip-path="url(#clip902)" style="stroke:#000000; stroke-linecap:round; stroke-linejoin:round; stroke-width:4; stroke-opacity:1; fill:none" points="1962.28,1387.47 1962.28,1360.74 "/>
<polyline clip-path="url(#clip902)" style="stroke:#000000; stroke-linecap:round; stroke-linejoin:round; stroke-width:4; stroke-opacity:1; fill:none" points="2059.9,1382.18 2059.9,1355.2 "/>
<polyline clip-path="url(#clip902)" style="stroke:#000000; stroke-linecap:round; stroke-linejoin:round; stroke-width:4; stroke-opacity:1; fill:none" points="2157.52,1400.99 2157.52,1374.88 "/>
<polyline clip-path="url(#clip902)" style="stroke:#000000; stroke-linecap:round; stroke-linejoin:round; stroke-width:4; stroke-opacity:1; fill:none" points="2255.14,1409.8 2255.14,1384.12 "/>
<line clip-path="url(#clip902)" x1="318.741" y1="1398.89" x2="286.741" y2="1398.89" style="stroke:#000000; stroke-width:4; stroke-opacity:1"/>
<line clip-path="url(#clip902)" x1="416.361" y1="1398.05" x2="384.361" y2="1398.05" style="stroke:#000000; stroke-width:4; stroke-opacity:1"/>
<line clip-path="url(#clip902)" x1="416.361" y1="1371.81" x2="384.361" y2="1371.81" style="stroke:#000000; stroke-width:4; stroke-opacity:1"/>
<line clip-path="url(#clip902)" x1="513.98" y1="1393.35" x2="481.98" y2="1393.35" style="stroke:#000000; stroke-width:4; stroke-opacity:1"/>
<line clip-path="url(#clip902)" x1="513.98" y1="1366.89" x2="481.98" y2="1366.89" style="stroke:#000000; stroke-width:4; stroke-opacity:1"/>
<line clip-path="url(#clip902)" x1="611.6" y1="1333.92" x2="579.6" y2="1333.92" style="stroke:#000000; stroke-width:4; stroke-opacity:1"/>
<line clip-path="url(#clip902)" x1="611.6" y1="1304.82" x2="579.6" y2="1304.82" style="stroke:#000000; stroke-width:4; stroke-opacity:1"/>
<line clip-path="url(#clip902)" x1="709.22" y1="1156.82" x2="677.22" y2="1156.82" style="stroke:#000000; stroke-width:4; stroke-opacity:1"/>
<line clip-path="url(#clip902)" x1="709.22" y1="1121.03" x2="677.22" y2="1121.03" style="stroke:#000000; stroke-width:4; stroke-opacity:1"/>
<line clip-path="url(#clip902)" x1="806.84" y1="1261.98" x2="774.84" y2="1261.98" style="stroke:#000000; stroke-width:4; stroke-opacity:1"/>
<line clip-path="url(#clip902)" x1="806.84" y1="1230" x2="774.84" y2="1230" style="stroke:#000000; stroke-width:4; stroke-opacity:1"/>
<line clip-path="url(#clip902)" x1="904.459" y1="1084.63" x2="872.459" y2="1084.63" style="stroke:#000000; stroke-width:4; stroke-opacity:1"/>
<line clip-path="url(#clip902)" x1="904.459" y1="1046.46" x2="872.459" y2="1046.46" style="stroke:#000000; stroke-width:4; stroke-opacity:1"/>
<line clip-path="url(#clip902)" x1="1002.08" y1="705.604" x2="970.079" y2="705.604" style="stroke:#000000; stroke-width:4; stroke-opacity:1"/>
<line clip-path="url(#clip902)" x1="1002.08" y1="656.799" x2="970.079" y2="656.799" style="stroke:#000000; stroke-width:4; stroke-opacity:1"/>
<line clip-path="url(#clip902)" x1="1099.7" y1="407.731" x2="1067.7" y2="407.731" style="stroke:#000000; stroke-width:4; stroke-opacity:1"/>
<line clip-path="url(#clip902)" x1="1099.7" y1="351.991" x2="1067.7" y2="351.991" style="stroke:#000000; stroke-width:4; stroke-opacity:1"/>
<line clip-path="url(#clip902)" x1="1197.32" y1="162.479" x2="1165.32" y2="162.479" style="stroke:#000000; stroke-width:4; stroke-opacity:1"/>
<line clip-path="url(#clip902)" x1="1197.32" y1="101.626" x2="1165.32" y2="101.626" style="stroke:#000000; stroke-width:4; stroke-opacity:1"/>
<line clip-path="url(#clip902)" x1="1294.94" y1="220.24" x2="1262.94" y2="220.24" style="stroke:#000000; stroke-width:4; stroke-opacity:1"/>
<line clip-path="url(#clip902)" x1="1294.94" y1="160.551" x2="1262.94" y2="160.551" style="stroke:#000000; stroke-width:4; stroke-opacity:1"/>
<line clip-path="url(#clip902)" x1="1392.56" y1="527.292" x2="1360.56" y2="527.292" style="stroke:#000000; stroke-width:4; stroke-opacity:1"/>
<line clip-path="url(#clip902)" x1="1392.56" y1="474.225" x2="1360.56" y2="474.225" style="stroke:#000000; stroke-width:4; stroke-opacity:1"/>
<line clip-path="url(#clip902)" x1="1490.18" y1="861.759" x2="1458.18" y2="861.759" style="stroke:#000000; stroke-width:4; stroke-opacity:1"/>
<line clip-path="url(#clip902)" x1="1490.18" y1="817.022" x2="1458.18" y2="817.022" style="stroke:#000000; stroke-width:4; stroke-opacity:1"/>
<line clip-path="url(#clip902)" x1="1587.8" y1="1044.37" x2="1555.8" y2="1044.37" style="stroke:#000000; stroke-width:4; stroke-opacity:1"/>
<line clip-path="url(#clip902)" x1="1587.8" y1="1004.92" x2="1555.8" y2="1004.92" style="stroke:#000000; stroke-width:4; stroke-opacity:1"/>
<line clip-path="url(#clip902)" x1="1685.42" y1="1303.27" x2="1653.42" y2="1303.27" style="stroke:#000000; stroke-width:4; stroke-opacity:1"/>
<line clip-path="url(#clip902)" x1="1685.42" y1="1272.91" x2="1653.42" y2="1272.91" style="stroke:#000000; stroke-width:4; stroke-opacity:1"/>
<line clip-path="url(#clip902)" x1="1783.04" y1="1364.53" x2="1751.04" y2="1364.53" style="stroke:#000000; stroke-width:4; stroke-opacity:1"/>
<line clip-path="url(#clip902)" x1="1783.04" y1="1336.76" x2="1751.04" y2="1336.76" style="stroke:#000000; stroke-width:4; stroke-opacity:1"/>
<line clip-path="url(#clip902)" x1="1880.66" y1="1416.85" x2="1848.66" y2="1416.85" style="stroke:#000000; stroke-width:4; stroke-opacity:1"/>
<line clip-path="url(#clip902)" x1="1880.66" y1="1391.5" x2="1848.66" y2="1391.5" style="stroke:#000000; stroke-width:4; stroke-opacity:1"/>
<line clip-path="url(#clip902)" x1="1978.28" y1="1387.47" x2="1946.28" y2="1387.47" style="stroke:#000000; stroke-width:4; stroke-opacity:1"/>
<line clip-path="url(#clip902)" x1="1978.28" y1="1360.74" x2="1946.28" y2="1360.74" style="stroke:#000000; stroke-width:4; stroke-opacity:1"/>
<line clip-path="url(#clip902)" x1="2075.9" y1="1382.18" x2="2043.9" y2="1382.18" style="stroke:#000000; stroke-width:4; stroke-opacity:1"/>
<line clip-path="url(#clip902)" x1="2075.9" y1="1355.2" x2="2043.9" y2="1355.2" style="stroke:#000000; stroke-width:4; stroke-opacity:1"/>
<line clip-path="url(#clip902)" x1="2173.52" y1="1400.99" x2="2141.52" y2="1400.99" style="stroke:#000000; stroke-width:4; stroke-opacity:1"/>
<line clip-path="url(#clip902)" x1="2173.52" y1="1374.88" x2="2141.52" y2="1374.88" style="stroke:#000000; stroke-width:4; stroke-opacity:1"/>
<line clip-path="url(#clip902)" x1="2271.14" y1="1409.8" x2="2239.14" y2="1409.8" style="stroke:#000000; stroke-width:4; stroke-opacity:1"/>
<line clip-path="url(#clip902)" x1="2271.14" y1="1384.12" x2="2239.14" y2="1384.12" style="stroke:#000000; stroke-width:4; stroke-opacity:1"/>
<circle clip-path="url(#clip902)" cx="302.741" cy="1411.4" r="14.4" fill="#009af9" fill-rule="evenodd" fill-opacity="1" stroke="#000000" stroke-opacity="1" stroke-width="3.2"/>
<circle clip-path="url(#clip902)" cx="400.361" cy="1384.93" r="14.4" fill="#009af9" fill-rule="evenodd" fill-opacity="1" stroke="#000000" stroke-opacity="1" stroke-width="3.2"/>
<circle clip-path="url(#clip902)" cx="497.98" cy="1380.12" r="14.4" fill="#009af9" fill-rule="evenodd" fill-opacity="1" stroke="#000000" stroke-opacity="1" stroke-width="3.2"/>
<circle clip-path="url(#clip902)" cx="595.6" cy="1319.37" r="14.4" fill="#009af9" fill-rule="evenodd" fill-opacity="1" stroke="#000000" stroke-opacity="1" stroke-width="3.2"/>
<circle clip-path="url(#clip902)" cx="693.22" cy="1138.93" r="14.4" fill="#009af9" fill-rule="evenodd" fill-opacity="1" stroke="#000000" stroke-opacity="1" stroke-width="3.2"/>
<circle clip-path="url(#clip902)" cx="790.84" cy="1245.99" r="14.4" fill="#009af9" fill-rule="evenodd" fill-opacity="1" stroke="#000000" stroke-opacity="1" stroke-width="3.2"/>
<circle clip-path="url(#clip902)" cx="888.459" cy="1065.55" r="14.4" fill="#009af9" fill-rule="evenodd" fill-opacity="1" stroke="#000000" stroke-opacity="1" stroke-width="3.2"/>
<circle clip-path="url(#clip902)" cx="986.079" cy="681.202" r="14.4" fill="#009af9" fill-rule="evenodd" fill-opacity="1" stroke="#000000" stroke-opacity="1" stroke-width="3.2"/>
<circle clip-path="url(#clip902)" cx="1083.7" cy="379.861" r="14.4" fill="#009af9" fill-rule="evenodd" fill-opacity="1" stroke="#000000" stroke-opacity="1" stroke-width="3.2"/>
<circle clip-path="url(#clip902)" cx="1181.32" cy="132.052" r="14.4" fill="#009af9" fill-rule="evenodd" fill-opacity="1" stroke="#000000" stroke-opacity="1" stroke-width="3.2"/>
<circle clip-path="url(#clip902)" cx="1278.94" cy="190.396" r="14.4" fill="#009af9" fill-rule="evenodd" fill-opacity="1" stroke="#000000" stroke-opacity="1" stroke-width="3.2"/>
<circle clip-path="url(#clip902)" cx="1376.56" cy="500.758" r="14.4" fill="#009af9" fill-rule="evenodd" fill-opacity="1" stroke="#000000" stroke-opacity="1" stroke-width="3.2"/>
<circle clip-path="url(#clip902)" cx="1474.18" cy="839.39" r="14.4" fill="#009af9" fill-rule="evenodd" fill-opacity="1" stroke="#000000" stroke-opacity="1" stroke-width="3.2"/>
<circle clip-path="url(#clip902)" cx="1571.8" cy="1024.65" r="14.4" fill="#009af9" fill-rule="evenodd" fill-opacity="1" stroke="#000000" stroke-opacity="1" stroke-width="3.2"/>
<circle clip-path="url(#clip902)" cx="1669.42" cy="1288.09" r="14.4" fill="#009af9" fill-rule="evenodd" fill-opacity="1" stroke="#000000" stroke-opacity="1" stroke-width="3.2"/>
<circle clip-path="url(#clip902)" cx="1767.04" cy="1350.65" r="14.4" fill="#009af9" fill-rule="evenodd" fill-opacity="1" stroke="#000000" stroke-opacity="1" stroke-width="3.2"/>
<circle clip-path="url(#clip902)" cx="1864.66" cy="1404.18" r="14.4" fill="#009af9" fill-rule="evenodd" fill-opacity="1" stroke="#000000" stroke-opacity="1" stroke-width="3.2"/>
<circle clip-path="url(#clip902)" cx="1962.28" cy="1374.1" r="14.4" fill="#009af9" fill-rule="evenodd" fill-opacity="1" stroke="#000000" stroke-opacity="1" stroke-width="3.2"/>
<circle clip-path="url(#clip902)" cx="2059.9" cy="1368.69" r="14.4" fill="#009af9" fill-rule="evenodd" fill-opacity="1" stroke="#000000" stroke-opacity="1" stroke-width="3.2"/>
<circle clip-path="url(#clip902)" cx="2157.52" cy="1387.94" r="14.4" fill="#009af9" fill-rule="evenodd" fill-opacity="1" stroke="#000000" stroke-opacity="1" stroke-width="3.2"/>
<circle clip-path="url(#clip902)" cx="2255.14" cy="1396.96" r="14.4" fill="#009af9" fill-rule="evenodd" fill-opacity="1" stroke="#000000" stroke-opacity="1" stroke-width="3.2"/>
<polyline clip-path="url(#clip902)" style="stroke:#800080; stroke-linecap:round; stroke-linejoin:round; stroke-width:4; stroke-opacity:1; fill:none" stroke-dasharray="16, 10" points="933.641,901.643 1491.47,901.643 "/>
<polyline clip-path="url(#clip902)" style="stroke:#ffa500; stroke-linecap:round; stroke-linejoin:round; stroke-width:4; stroke-opacity:1; fill:none" points="205.121,1393.35 219.103,1393.34 348.39,1393.2 426.085,1392.65 491.776,1391.03 527.455,1389.09 563.135,1385.76 596.028,1380.78 628.921,1373.06 646.553,1367.4 664.186,1360.42 681.818,1351.87 699.451,1341.5 709.665,1334.54 719.88,1326.82 730.094,1318.28 740.308,1308.86 750.523,1298.49 760.737,1287.12 770.952,1274.69 781.166,1261.13 790.244,1248.11 799.321,1234.11 808.399,1219.12 817.476,1203.1 826.553,1186.01 835.631,1167.85 844.708,1148.58 853.786,1128.19 861.746,1109.39 869.706,1089.73 877.666,1069.2 885.626,1047.81 893.586,1025.58 901.546,1002.52 909.506,978.654 917.466,954.004 934.823,897.702 952.181,838.256 969.538,776.207 986.895,712.217 1021.82,580.86 1056.74,452.417 1066.39,418.56 1076.04,385.764 1085.69,354.215 1095.35,324.098 1105,295.592 1114.65,268.869 1124.3,244.096 1133.96,221.428 1143.14,201.948 1152.32,184.619 1161.51,169.544 1170.69,156.813 1179.88,146.504 1189.06,138.678 1198.24,133.383 1207.43,130.651 1216.98,130.547 1226.53,133.233 1236.07,138.692 1245.62,146.887 1255.17,157.764 1264.72,171.252 1274.27,187.263 1283.82,205.694 1291.86,222.999 1299.9,241.858 1307.94,262.187 1315.97,283.898 1324.01,306.896 1332.05,331.083 1340.09,356.358 1348.13,382.617 1367.76,450.208 1387.38,521.463 1407.01,594.832 1426.64,668.829 1444.62,735.994 1462.6,801.591 1480.58,864.803 1498.56,924.95 1506.86,951.536 1515.17,977.31 1523.47,1002.24 1531.77,1026.28 1540.08,1049.42 1548.38,1071.65 1556.68,1092.94 1564.99,1113.29 1573.4,1132.94 1581.81,1151.63 1590.22,1169.36 1598.63,1186.15 1607.04,1202 1615.45,1216.95 1623.86,1231.01 1632.27,1244.2 1641.7,1258 1651.13,1270.78 1660.55,1282.59 1669.98,1293.48 1688.83,1312.68 1707.68,1328.75 1724.77,1340.91 1741.85,1351.09 1758.93,1359.53 1776.02,1366.48 1795.57,1372.88 1815.13,1377.9 1834.69,1381.79 1854.25,1384.79 1890.47,1388.55 1926.69,1390.75 1998.11,1392.64 2067.45,1393.17 2138.53,1393.31 2216.41,1393.35 2329.55,1393.35 2352.76,1393.35 "/>
<polyline clip-path="url(#clip902)" style="stroke:#008000; stroke-linecap:round; stroke-linejoin:round; stroke-width:4; stroke-opacity:0.5; fill:none" points="1491.47,1454.7 1491.47,901.643 "/>
<polyline clip-path="url(#clip902)" style="stroke:#008000; stroke-linecap:round; stroke-linejoin:round; stroke-width:4; stroke-opacity:0.5; fill:none" points="933.641,1454.7 933.641,901.643 "/>
<path clip-path="url(#clip900)" d="M1523.88 300.316 L2281.17 300.316 L2281.17 92.9564 L1523.88 92.9564  Z" fill="#ffffff" fill-rule="evenodd" fill-opacity="1"/>
<polyline clip-path="url(#clip900)" style="stroke:#000000; stroke-linecap:round; stroke-linejoin:round; stroke-width:4; stroke-opacity:1; fill:none" points="1523.88,300.316 2281.17,300.316 2281.17,92.9564 1523.88,92.9564 1523.88,300.316 "/>
<circle clip-path="url(#clip900)" cx="1619.33" cy="144.796" r="20.48" fill="#009af9" fill-rule="evenodd" fill-opacity="1" stroke="#000000" stroke-opacity="1" stroke-width="4.55111"/>
<path clip-path="url(#clip900)" d="M1714.79 127.516 L1721.75 127.516 L1730.57 151.035 L1739.44 127.516 L1746.41 127.516 L1746.41 162.076 L1741.85 162.076 L1741.85 131.729 L1732.93 155.433 L1728.23 155.433 L1719.32 131.729 L1719.32 162.076 L1714.79 162.076 L1714.79 127.516 Z" fill="#000000" fill-rule="nonzero" fill-opacity="1" /><path clip-path="url(#clip900)" d="M1777.68 148.049 L1777.68 150.132 L1758.1 150.132 Q1758.37 154.53 1760.73 156.845 Q1763.12 159.137 1767.35 159.137 Q1769.81 159.137 1772.1 158.535 Q1774.41 157.933 1776.68 156.729 L1776.68 160.757 Q1774.39 161.729 1771.98 162.238 Q1769.58 162.748 1767.1 162.748 Q1760.9 162.748 1757.26 159.137 Q1753.65 155.526 1753.65 149.368 Q1753.65 143.002 1757.08 139.276 Q1760.53 135.526 1766.36 135.526 Q1771.59 135.526 1774.62 138.905 Q1777.68 142.262 1777.68 148.049 M1773.42 146.799 Q1773.37 143.303 1771.45 141.22 Q1769.55 139.137 1766.41 139.137 Q1762.84 139.137 1760.69 141.151 Q1758.56 143.164 1758.23 146.822 L1773.42 146.799 Z" fill="#000000" fill-rule="nonzero" fill-opacity="1" /><path clip-path="url(#clip900)" d="M1801.2 136.915 L1801.2 140.942 Q1799.39 140.016 1797.45 139.553 Q1795.5 139.09 1793.42 139.09 Q1790.25 139.09 1788.65 140.063 Q1787.08 141.035 1787.08 142.979 Q1787.08 144.461 1788.21 145.317 Q1789.35 146.151 1792.77 146.914 L1794.23 147.239 Q1798.77 148.211 1800.66 149.993 Q1802.59 151.752 1802.59 154.924 Q1802.59 158.535 1799.72 160.641 Q1796.87 162.748 1791.87 162.748 Q1789.78 162.748 1787.52 162.331 Q1785.27 161.938 1782.77 161.127 L1782.77 156.729 Q1785.13 157.956 1787.42 158.581 Q1789.72 159.183 1791.96 159.183 Q1794.97 159.183 1796.59 158.164 Q1798.21 157.123 1798.21 155.248 Q1798.21 153.512 1797.03 152.586 Q1795.87 151.66 1791.91 150.803 L1790.43 150.456 Q1786.47 149.623 1784.72 147.91 Q1782.96 146.174 1782.96 143.164 Q1782.96 139.507 1785.55 137.516 Q1788.14 135.526 1792.91 135.526 Q1795.27 135.526 1797.35 135.873 Q1799.44 136.22 1801.2 136.915 Z" fill="#000000" fill-rule="nonzero" fill-opacity="1" /><path clip-path="url(#clip900)" d="M1825.9 136.915 L1825.9 140.942 Q1824.09 140.016 1822.15 139.553 Q1820.2 139.09 1818.12 139.09 Q1814.95 139.09 1813.35 140.063 Q1811.78 141.035 1811.78 142.979 Q1811.78 144.461 1812.91 145.317 Q1814.04 146.151 1817.47 146.914 L1818.93 147.239 Q1823.47 148.211 1825.36 149.993 Q1827.28 151.752 1827.28 154.924 Q1827.28 158.535 1824.41 160.641 Q1821.57 162.748 1816.57 162.748 Q1814.48 162.748 1812.22 162.331 Q1809.97 161.938 1807.47 161.127 L1807.47 156.729 Q1809.83 157.956 1812.12 158.581 Q1814.41 159.183 1816.66 159.183 Q1819.67 159.183 1821.29 158.164 Q1822.91 157.123 1822.91 155.248 Q1822.91 153.512 1821.73 152.586 Q1820.57 151.66 1816.61 150.803 L1815.13 150.456 Q1811.17 149.623 1809.41 147.91 Q1807.66 146.174 1807.66 143.164 Q1807.66 139.507 1810.25 137.516 Q1812.84 135.526 1817.61 135.526 Q1819.97 135.526 1822.05 135.873 Q1824.14 136.22 1825.9 136.915 Z" fill="#000000" fill-rule="nonzero" fill-opacity="1" /><path clip-path="url(#clip900)" d="M1838.19 158.188 L1838.19 171.937 L1833.9 171.937 L1833.9 136.151 L1838.19 136.151 L1838.19 140.086 Q1839.53 137.771 1841.57 136.66 Q1843.63 135.526 1846.47 135.526 Q1851.2 135.526 1854.14 139.276 Q1857.1 143.026 1857.1 149.137 Q1857.1 155.248 1854.14 158.998 Q1851.2 162.748 1846.47 162.748 Q1843.63 162.748 1841.57 161.637 Q1839.53 160.502 1838.19 158.188 M1852.68 149.137 Q1852.68 144.438 1850.73 141.776 Q1848.81 139.09 1845.43 139.09 Q1842.05 139.09 1840.11 141.776 Q1838.19 144.438 1838.19 149.137 Q1838.19 153.836 1840.11 156.521 Q1842.05 159.183 1845.43 159.183 Q1848.81 159.183 1850.73 156.521 Q1852.68 153.836 1852.68 149.137 Z" fill="#000000" fill-rule="nonzero" fill-opacity="1" /><path clip-path="url(#clip900)" d="M1863.72 151.845 L1863.72 136.151 L1867.98 136.151 L1867.98 151.683 Q1867.98 155.363 1869.41 157.215 Q1870.85 159.044 1873.72 159.044 Q1877.17 159.044 1879.16 156.845 Q1881.17 154.646 1881.17 150.85 L1881.17 136.151 L1885.43 136.151 L1885.43 162.076 L1881.17 162.076 L1881.17 158.095 Q1879.62 160.456 1877.56 161.613 Q1875.53 162.748 1872.82 162.748 Q1868.35 162.748 1866.03 159.97 Q1863.72 157.192 1863.72 151.845 M1874.44 135.526 L1874.44 135.526 Z" fill="#000000" fill-rule="nonzero" fill-opacity="1" /><path clip-path="url(#clip900)" d="M1915.76 146.428 L1915.76 162.076 L1911.5 162.076 L1911.5 146.567 Q1911.5 142.887 1910.06 141.058 Q1908.63 139.229 1905.76 139.229 Q1902.31 139.229 1900.32 141.428 Q1898.33 143.627 1898.33 147.424 L1898.33 162.076 L1894.04 162.076 L1894.04 136.151 L1898.33 136.151 L1898.33 140.178 Q1899.85 137.84 1901.91 136.683 Q1904 135.526 1906.71 135.526 Q1911.17 135.526 1913.46 138.303 Q1915.76 141.058 1915.76 146.428 Z" fill="#000000" fill-rule="nonzero" fill-opacity="1" /><path clip-path="url(#clip900)" d="M1924.09 126.058 L1928.37 126.058 L1928.37 147.331 L1941.08 136.151 L1946.52 136.151 L1932.77 148.28 L1947.1 162.076 L1941.54 162.076 L1928.37 149.414 L1928.37 162.076 L1924.09 162.076 L1924.09 126.058 Z" fill="#000000" fill-rule="nonzero" fill-opacity="1" /><path clip-path="url(#clip900)" d="M1955.92 128.79 L1955.92 136.151 L1964.69 136.151 L1964.69 139.461 L1955.92 139.461 L1955.92 153.535 Q1955.92 156.706 1956.77 157.609 Q1957.65 158.512 1960.32 158.512 L1964.69 158.512 L1964.69 162.076 L1960.32 162.076 Q1955.39 162.076 1953.51 160.248 Q1951.64 158.396 1951.64 153.535 L1951.64 139.461 L1948.51 139.461 L1948.51 136.151 L1951.64 136.151 L1951.64 128.79 L1955.92 128.79 Z" fill="#000000" fill-rule="nonzero" fill-opacity="1" /><path clip-path="url(#clip900)" d="M1992.47 148.049 L1992.47 150.132 L1972.89 150.132 Q1973.16 154.53 1975.52 156.845 Q1977.91 159.137 1982.14 159.137 Q1984.6 159.137 1986.89 158.535 Q1989.21 157.933 1991.47 156.729 L1991.47 160.757 Q1989.18 161.729 1986.77 162.238 Q1984.37 162.748 1981.89 162.748 Q1975.69 162.748 1972.05 159.137 Q1968.44 155.526 1968.44 149.368 Q1968.44 143.002 1971.87 139.276 Q1975.32 135.526 1981.15 135.526 Q1986.38 135.526 1989.41 138.905 Q1992.47 142.262 1992.47 148.049 M1988.21 146.799 Q1988.16 143.303 1986.24 141.22 Q1984.34 139.137 1981.2 139.137 Q1977.63 139.137 1975.48 141.151 Q1973.35 143.164 1973.02 146.822 L1988.21 146.799 Z" fill="#000000" fill-rule="nonzero" fill-opacity="1" /><polyline clip-path="url(#clip900)" style="stroke:#800080; stroke-linecap:round; stroke-linejoin:round; stroke-width:4; stroke-opacity:1; fill:none" stroke-dasharray="16, 10" points="1547.75,196.636 1690.92,196.636 "/>
<path clip-path="url(#clip900)" d="M1714.79 179.356 L1719.46 179.356 L1719.46 193.523 L1736.45 193.523 L1736.45 179.356 L1741.13 179.356 L1741.13 213.916 L1736.45 213.916 L1736.45 197.458 L1719.46 197.458 L1719.46 213.916 L1714.79 213.916 L1714.79 179.356 Z" fill="#000000" fill-rule="nonzero" fill-opacity="1" /><path clip-path="url(#clip900)" d="M1762.03 200.884 Q1756.87 200.884 1754.88 202.065 Q1752.89 203.245 1752.89 206.092 Q1752.89 208.361 1754.37 209.703 Q1755.87 211.023 1758.44 211.023 Q1761.98 211.023 1764.11 208.523 Q1766.27 206 1766.27 201.833 L1766.27 200.884 L1762.03 200.884 M1770.53 199.125 L1770.53 213.916 L1766.27 213.916 L1766.27 209.981 Q1764.81 212.342 1762.63 213.477 Q1760.46 214.588 1757.31 214.588 Q1753.33 214.588 1750.97 212.365 Q1748.63 210.12 1748.63 206.37 Q1748.63 201.995 1751.54 199.773 Q1754.48 197.551 1760.29 197.551 L1766.27 197.551 L1766.27 197.134 Q1766.27 194.194 1764.32 192.597 Q1762.4 190.977 1758.91 190.977 Q1756.68 190.977 1754.58 191.509 Q1752.47 192.042 1750.53 193.106 L1750.53 189.171 Q1752.86 188.268 1755.06 187.829 Q1757.26 187.366 1759.35 187.366 Q1764.97 187.366 1767.75 190.282 Q1770.53 193.199 1770.53 199.125 Z" fill="#000000" fill-rule="nonzero" fill-opacity="1" /><path clip-path="url(#clip900)" d="M1779.3 177.898 L1783.56 177.898 L1783.56 213.916 L1779.3 213.916 L1779.3 177.898 Z" fill="#000000" fill-rule="nonzero" fill-opacity="1" /><path clip-path="url(#clip900)" d="M1811.08 200.977 Q1811.08 196.278 1809.14 193.616 Q1807.22 190.93 1803.84 190.93 Q1800.46 190.93 1798.51 193.616 Q1796.59 196.278 1796.59 200.977 Q1796.59 205.676 1798.51 208.361 Q1800.46 211.023 1803.84 211.023 Q1807.22 211.023 1809.14 208.361 Q1811.08 205.676 1811.08 200.977 M1796.59 191.926 Q1797.93 189.611 1799.97 188.5 Q1802.03 187.366 1804.88 187.366 Q1809.6 187.366 1812.54 191.116 Q1815.5 194.866 1815.5 200.977 Q1815.5 207.088 1812.54 210.838 Q1809.6 214.588 1804.88 214.588 Q1802.03 214.588 1799.97 213.477 Q1797.93 212.342 1796.59 210.028 L1796.59 213.916 L1792.31 213.916 L1792.31 177.898 L1796.59 177.898 L1796.59 191.926 Z" fill="#000000" fill-rule="nonzero" fill-opacity="1" /><path clip-path="url(#clip900)" d="M1844.74 199.889 L1844.74 201.972 L1825.16 201.972 Q1825.43 206.37 1827.79 208.685 Q1830.18 210.977 1834.41 210.977 Q1836.87 210.977 1839.16 210.375 Q1841.47 209.773 1843.74 208.569 L1843.74 212.597 Q1841.45 213.569 1839.04 214.078 Q1836.64 214.588 1834.16 214.588 Q1827.96 214.588 1824.32 210.977 Q1820.71 207.366 1820.71 201.208 Q1820.71 194.842 1824.14 191.116 Q1827.59 187.366 1833.42 187.366 Q1838.65 187.366 1841.68 190.745 Q1844.74 194.102 1844.74 199.889 M1840.48 198.639 Q1840.43 195.143 1838.51 193.06 Q1836.61 190.977 1833.47 190.977 Q1829.9 190.977 1827.75 192.991 Q1825.62 195.004 1825.29 198.662 L1840.48 198.639 Z" fill="#000000" fill-rule="nonzero" fill-opacity="1" /><path clip-path="url(#clip900)" d="M1849.25 187.991 L1853.51 187.991 L1858.84 208.222 L1864.14 187.991 L1869.16 187.991 L1874.48 208.222 L1879.78 187.991 L1884.04 187.991 L1877.26 213.916 L1872.24 213.916 L1866.66 192.667 L1861.06 213.916 L1856.03 213.916 L1849.25 187.991 Z" fill="#000000" fill-rule="nonzero" fill-opacity="1" /><path clip-path="url(#clip900)" d="M1912.68 199.889 L1912.68 201.972 L1893.09 201.972 Q1893.37 206.37 1895.73 208.685 Q1898.12 210.977 1902.35 210.977 Q1904.81 210.977 1907.1 210.375 Q1909.41 209.773 1911.68 208.569 L1911.68 212.597 Q1909.39 213.569 1906.98 214.078 Q1904.58 214.588 1902.1 214.588 Q1895.9 214.588 1892.26 210.977 Q1888.65 207.366 1888.65 201.208 Q1888.65 194.842 1892.08 191.116 Q1895.52 187.366 1901.36 187.366 Q1906.59 187.366 1909.62 190.745 Q1912.68 194.102 1912.68 199.889 M1908.42 198.639 Q1908.37 195.143 1906.45 193.06 Q1904.55 190.977 1901.4 190.977 Q1897.84 190.977 1895.69 192.991 Q1893.56 195.004 1893.23 198.662 L1908.42 198.639 Z" fill="#000000" fill-rule="nonzero" fill-opacity="1" /><path clip-path="url(#clip900)" d="M1934.69 191.972 Q1933.97 191.555 1933.12 191.37 Q1932.28 191.162 1931.27 191.162 Q1927.65 191.162 1925.71 193.523 Q1923.79 195.861 1923.79 200.259 L1923.79 213.916 L1919.51 213.916 L1919.51 187.991 L1923.79 187.991 L1923.79 192.018 Q1925.13 189.657 1927.28 188.523 Q1929.44 187.366 1932.52 187.366 Q1932.96 187.366 1933.49 187.435 Q1934.02 187.481 1934.67 187.597 L1934.69 191.972 Z" fill="#000000" fill-rule="nonzero" fill-opacity="1" /><path clip-path="url(#clip900)" d="M1943.37 180.63 L1943.37 187.991 L1952.15 187.991 L1952.15 191.301 L1943.37 191.301 L1943.37 205.375 Q1943.37 208.546 1944.23 209.449 Q1945.11 210.352 1947.77 210.352 L1952.15 210.352 L1952.15 213.916 L1947.77 213.916 Q1942.84 213.916 1940.96 212.088 Q1939.09 210.236 1939.09 205.375 L1939.09 191.301 L1935.96 191.301 L1935.96 187.991 L1939.09 187.991 L1939.09 180.63 L1943.37 180.63 Z" fill="#000000" fill-rule="nonzero" fill-opacity="1" /><path clip-path="url(#clip900)" d="M1974.27 188.755 L1974.27 192.782 Q1972.47 191.856 1970.52 191.393 Q1968.58 190.93 1966.5 190.93 Q1963.33 190.93 1961.73 191.903 Q1960.15 192.875 1960.15 194.819 Q1960.15 196.301 1961.29 197.157 Q1962.42 197.991 1965.85 198.754 L1967.31 199.079 Q1971.84 200.051 1973.74 201.833 Q1975.66 203.592 1975.66 206.764 Q1975.66 210.375 1972.79 212.481 Q1969.95 214.588 1964.95 214.588 Q1962.86 214.588 1960.59 214.171 Q1958.35 213.778 1955.85 212.967 L1955.85 208.569 Q1958.21 209.796 1960.5 210.421 Q1962.79 211.023 1965.04 211.023 Q1968.05 211.023 1969.67 210.004 Q1971.29 208.963 1971.29 207.088 Q1971.29 205.352 1970.11 204.426 Q1968.95 203.5 1964.99 202.643 L1963.51 202.296 Q1959.55 201.463 1957.79 199.75 Q1956.03 198.014 1956.03 195.004 Q1956.03 191.347 1958.63 189.356 Q1961.22 187.366 1965.99 187.366 Q1968.35 187.366 1970.43 187.713 Q1972.52 188.06 1974.27 188.755 Z" fill="#000000" fill-rule="nonzero" fill-opacity="1" /><path clip-path="url(#clip900)" d="M2001.06 200.977 Q2001.06 196.278 1999.11 193.616 Q1997.19 190.93 1993.81 190.93 Q1990.43 190.93 1988.49 193.616 Q1986.57 196.278 1986.57 200.977 Q1986.57 205.676 1988.49 208.361 Q1990.43 211.023 1993.81 211.023 Q1997.19 211.023 1999.11 208.361 Q2001.06 205.676 2001.06 200.977 M1986.57 191.926 Q1987.91 189.611 1989.95 188.5 Q1992.01 187.366 1994.85 187.366 Q1999.58 187.366 2002.52 191.116 Q2005.48 194.866 2005.48 200.977 Q2005.48 207.088 2002.52 210.838 Q1999.58 214.588 1994.85 214.588 Q1992.01 214.588 1989.95 213.477 Q1987.91 212.342 1986.57 210.028 L1986.57 213.916 L1982.28 213.916 L1982.28 177.898 L1986.57 177.898 L1986.57 191.926 Z" fill="#000000" fill-rule="nonzero" fill-opacity="1" /><path clip-path="url(#clip900)" d="M2027.56 191.972 Q2026.84 191.555 2025.99 191.37 Q2025.15 191.162 2024.14 191.162 Q2020.52 191.162 2018.58 193.523 Q2016.66 195.861 2016.66 200.259 L2016.66 213.916 L2012.38 213.916 L2012.38 187.991 L2016.66 187.991 L2016.66 192.018 Q2018 189.657 2020.15 188.523 Q2022.31 187.366 2025.39 187.366 Q2025.83 187.366 2026.36 187.435 Q2026.89 187.481 2027.54 187.597 L2027.56 191.972 Z" fill="#000000" fill-rule="nonzero" fill-opacity="1" /><path clip-path="url(#clip900)" d="M2053.16 199.889 L2053.16 201.972 L2033.58 201.972 Q2033.86 206.37 2036.22 208.685 Q2038.6 210.977 2042.84 210.977 Q2045.29 210.977 2047.58 210.375 Q2049.9 209.773 2052.17 208.569 L2052.17 212.597 Q2049.88 213.569 2047.47 214.078 Q2045.06 214.588 2042.58 214.588 Q2036.38 214.588 2032.75 210.977 Q2029.14 207.366 2029.14 201.208 Q2029.14 194.842 2032.56 191.116 Q2036.01 187.366 2041.84 187.366 Q2047.08 187.366 2050.11 190.745 Q2053.16 194.102 2053.16 199.889 M2048.9 198.639 Q2048.86 195.143 2046.94 193.06 Q2045.04 190.977 2041.89 190.977 Q2038.33 190.977 2036.17 192.991 Q2034.04 195.004 2033.72 198.662 L2048.9 198.639 Z" fill="#000000" fill-rule="nonzero" fill-opacity="1" /><path clip-path="url(#clip900)" d="M2060.15 187.991 L2064.41 187.991 L2064.41 213.916 L2060.15 213.916 L2060.15 187.991 M2060.15 177.898 L2064.41 177.898 L2064.41 183.292 L2060.15 183.292 L2060.15 177.898 Z" fill="#000000" fill-rule="nonzero" fill-opacity="1" /><path clip-path="url(#clip900)" d="M2077.54 180.63 L2077.54 187.991 L2086.31 187.991 L2086.31 191.301 L2077.54 191.301 L2077.54 205.375 Q2077.54 208.546 2078.39 209.449 Q2079.27 210.352 2081.94 210.352 L2086.31 210.352 L2086.31 213.916 L2081.94 213.916 Q2077.01 213.916 2075.13 212.088 Q2073.26 210.236 2073.26 205.375 L2073.26 191.301 L2070.13 191.301 L2070.13 187.991 L2073.26 187.991 L2073.26 180.63 L2077.54 180.63 Z" fill="#000000" fill-rule="nonzero" fill-opacity="1" /><path clip-path="url(#clip900)" d="M2114.09 199.889 L2114.09 201.972 L2094.51 201.972 Q2094.78 206.37 2097.14 208.685 Q2099.53 210.977 2103.76 210.977 Q2106.22 210.977 2108.51 210.375 Q2110.82 209.773 2113.09 208.569 L2113.09 212.597 Q2110.8 213.569 2108.39 214.078 Q2105.99 214.588 2103.51 214.588 Q2097.31 214.588 2093.67 210.977 Q2090.06 207.366 2090.06 201.208 Q2090.06 194.842 2093.49 191.116 Q2096.94 187.366 2102.77 187.366 Q2108 187.366 2111.03 190.745 Q2114.09 194.102 2114.09 199.889 M2109.83 198.639 Q2109.78 195.143 2107.86 193.06 Q2105.96 190.977 2102.82 190.977 Q2099.25 190.977 2097.1 192.991 Q2094.97 195.004 2094.64 198.662 L2109.83 198.639 Z" fill="#000000" fill-rule="nonzero" fill-opacity="1" /><path clip-path="url(#clip900)" d="M2122.17 208.037 L2127.05 208.037 L2127.05 213.916 L2122.17 213.916 L2122.17 208.037 M2122.17 189.403 L2127.05 189.403 L2127.05 195.282 L2122.17 195.282 L2122.17 189.403 Z" fill="#000000" fill-rule="nonzero" fill-opacity="1" /><path clip-path="url(#clip900)" d="M2156.75 209.981 L2173.07 209.981 L2173.07 213.916 L2151.13 213.916 L2151.13 209.981 Q2153.79 207.227 2158.37 202.597 Q2162.98 197.944 2164.16 196.602 Q2166.4 194.079 2167.28 192.342 Q2168.19 190.583 2168.19 188.893 Q2168.19 186.139 2166.24 184.403 Q2164.32 182.667 2161.22 182.667 Q2159.02 182.667 2156.57 183.43 Q2154.13 184.194 2151.36 185.745 L2151.36 181.023 Q2154.18 179.889 2156.63 179.31 Q2159.09 178.731 2161.13 178.731 Q2166.5 178.731 2169.69 181.417 Q2172.88 184.102 2172.88 188.592 Q2172.88 190.722 2172.07 192.643 Q2171.29 194.542 2169.18 197.134 Q2168.6 197.805 2165.5 201.023 Q2162.4 204.217 2156.75 209.981 Z" fill="#000000" fill-rule="nonzero" fill-opacity="1" /><path clip-path="url(#clip900)" d="M2182.88 208.037 L2187.77 208.037 L2187.77 213.916 L2182.88 213.916 L2182.88 208.037 Z" fill="#000000" fill-rule="nonzero" fill-opacity="1" /><path clip-path="url(#clip900)" d="M2198.09 213.199 L2198.09 208.94 Q2199.85 209.773 2201.66 210.213 Q2203.46 210.653 2205.2 210.653 Q2209.83 210.653 2212.26 207.551 Q2214.71 204.426 2215.06 198.083 Q2213.72 200.074 2211.66 201.139 Q2209.6 202.204 2207.1 202.204 Q2201.91 202.204 2198.88 199.079 Q2195.87 195.93 2195.87 190.491 Q2195.87 185.167 2199.02 181.949 Q2202.17 178.731 2207.4 178.731 Q2213.39 178.731 2216.54 183.338 Q2219.71 187.921 2219.71 196.671 Q2219.71 204.842 2215.82 209.727 Q2211.96 214.588 2205.41 214.588 Q2203.65 214.588 2201.84 214.24 Q2200.04 213.893 2198.09 213.199 M2207.4 198.546 Q2210.55 198.546 2212.38 196.393 Q2214.23 194.241 2214.23 190.491 Q2214.23 186.764 2212.38 184.611 Q2210.55 182.435 2207.4 182.435 Q2204.25 182.435 2202.4 184.611 Q2200.57 186.764 2200.57 190.491 Q2200.57 194.241 2202.4 196.393 Q2204.25 198.546 2207.4 198.546 Z" fill="#000000" fill-rule="nonzero" fill-opacity="1" /><path clip-path="url(#clip900)" d="M2249.97 181.718 Q2248.12 181.718 2246.84 183.014 Q2245.57 184.287 2245.57 186.139 Q2245.57 187.967 2246.84 189.241 Q2248.12 190.491 2249.97 190.491 Q2251.82 190.491 2253.09 189.241 Q2254.37 187.967 2254.37 186.139 Q2254.37 184.31 2253.07 183.014 Q2251.8 181.718 2249.97 181.718 M2249.97 178.731 Q2251.45 178.731 2252.81 179.31 Q2254.18 179.866 2255.18 180.93 Q2256.24 181.972 2256.77 183.292 Q2257.31 184.611 2257.31 186.139 Q2257.31 189.194 2255.15 191.324 Q2253.02 193.43 2249.92 193.43 Q2246.8 193.43 2244.71 191.347 Q2242.63 189.264 2242.63 186.139 Q2242.63 183.037 2244.76 180.884 Q2246.89 178.731 2249.97 178.731 Z" fill="#000000" fill-rule="nonzero" fill-opacity="1" /><polyline clip-path="url(#clip900)" style="stroke:#ffa500; stroke-linecap:round; stroke-linejoin:round; stroke-width:4; stroke-opacity:1; fill:none" points="1547.75,248.476 1690.92,248.476 "/>
<path clip-path="url(#clip900)" d="M1740.34 260.826 L1740.34 251.544 L1732.7 251.544 L1732.7 247.701 L1744.97 247.701 L1744.97 262.539 Q1742.26 264.46 1739 265.455 Q1735.73 266.428 1732.03 266.428 Q1723.93 266.428 1719.35 261.706 Q1714.79 256.96 1714.79 248.511 Q1714.79 240.039 1719.35 235.317 Q1723.93 230.571 1732.03 230.571 Q1735.41 230.571 1738.44 231.405 Q1741.5 232.238 1744.07 233.858 L1744.07 238.835 Q1741.47 236.636 1738.56 235.525 Q1735.64 234.414 1732.42 234.414 Q1726.08 234.414 1722.89 237.956 Q1719.72 241.497 1719.72 248.511 Q1719.72 255.502 1722.89 259.043 Q1726.08 262.585 1732.42 262.585 Q1734.9 262.585 1736.85 262.168 Q1738.79 261.729 1740.34 260.826 Z" fill="#000000" fill-rule="nonzero" fill-opacity="1" /><path clip-path="url(#clip900)" d="M1765.11 252.724 Q1759.95 252.724 1757.96 253.905 Q1755.97 255.085 1755.97 257.932 Q1755.97 260.201 1757.45 261.543 Q1758.95 262.863 1761.52 262.863 Q1765.06 262.863 1767.19 260.363 Q1769.35 257.84 1769.35 253.673 L1769.35 252.724 L1765.11 252.724 M1773.6 250.965 L1773.6 265.756 L1769.35 265.756 L1769.35 261.821 Q1767.89 264.182 1765.71 265.317 Q1763.53 266.428 1760.39 266.428 Q1756.41 266.428 1754.04 264.205 Q1751.71 261.96 1751.71 258.21 Q1751.71 253.835 1754.62 251.613 Q1757.56 249.391 1763.37 249.391 L1769.35 249.391 L1769.35 248.974 Q1769.35 246.034 1767.4 244.437 Q1765.48 242.817 1761.98 242.817 Q1759.76 242.817 1757.66 243.349 Q1755.55 243.882 1753.6 244.946 L1753.6 241.011 Q1755.94 240.108 1758.14 239.669 Q1760.34 239.206 1762.42 239.206 Q1768.05 239.206 1770.83 242.122 Q1773.6 245.039 1773.6 250.965 Z" fill="#000000" fill-rule="nonzero" fill-opacity="1" /><path clip-path="url(#clip900)" d="M1781.94 255.525 L1781.94 239.831 L1786.2 239.831 L1786.2 255.363 Q1786.2 259.043 1787.63 260.895 Q1789.07 262.724 1791.94 262.724 Q1795.39 262.724 1797.38 260.525 Q1799.39 258.326 1799.39 254.53 L1799.39 239.831 L1803.65 239.831 L1803.65 265.756 L1799.39 265.756 L1799.39 261.775 Q1797.84 264.136 1795.78 265.293 Q1793.74 266.428 1791.03 266.428 Q1786.57 266.428 1784.25 263.65 Q1781.94 260.872 1781.94 255.525 M1792.66 239.206 L1792.66 239.206 Z" fill="#000000" fill-rule="nonzero" fill-opacity="1" /><path clip-path="url(#clip900)" d="M1812.26 239.437 Q1812.26 234.808 1815.02 232.284 Q1817.79 229.738 1822.84 229.738 Q1827.65 229.738 1830.18 232.423 Q1832.72 235.108 1832.79 240.294 Q1829.3 240.479 1827.35 241.821 Q1825.41 243.141 1825.41 245.363 Q1825.41 246.451 1826.08 247.4 Q1826.75 248.326 1828.26 249.298 L1829.58 250.155 Q1833.42 252.608 1834.53 254.252 Q1835.64 255.895 1835.64 258.21 Q1835.64 262.192 1833.03 264.321 Q1830.43 266.428 1825.55 266.428 Q1824.07 266.428 1822.49 266.127 Q1820.92 265.849 1819.23 265.293 L1819.23 261.497 Q1821.08 262.192 1822.7 262.539 Q1824.32 262.863 1825.83 262.863 Q1828.51 262.863 1829.9 261.775 Q1831.29 260.664 1831.29 258.557 Q1831.29 257.099 1830.59 256.127 Q1829.92 255.155 1827.59 253.719 L1825.46 252.446 Q1823.23 251.081 1822.22 249.53 Q1821.22 247.956 1821.22 245.849 Q1821.22 242.909 1823.14 240.919 Q1825.09 238.928 1828.58 238.257 Q1828.4 235.872 1826.87 234.576 Q1825.36 233.28 1822.75 233.28 Q1819.74 233.28 1818.16 234.9 Q1816.59 236.497 1816.59 239.53 L1816.59 265.756 L1812.26 265.756 L1812.26 239.437 Z" fill="#000000" fill-rule="nonzero" fill-opacity="1" /><path clip-path="url(#clip900)" d="M1841.01 250.872 L1853.49 250.872 L1853.49 254.669 L1841.01 254.669 L1841.01 250.872 Z" fill="#000000" fill-rule="nonzero" fill-opacity="1" /><path clip-path="url(#clip900)" d="M1860.46 231.196 L1880.32 231.196 L1880.32 235.132 L1865.13 235.132 L1865.13 245.317 L1878.84 245.317 L1878.84 249.252 L1865.13 249.252 L1865.13 265.756 L1860.46 265.756 L1860.46 231.196 Z" fill="#000000" fill-rule="nonzero" fill-opacity="1" /><path clip-path="url(#clip900)" d="M1884.09 239.831 L1888.35 239.831 L1888.35 265.756 L1884.09 265.756 L1884.09 239.831 M1884.09 229.738 L1888.35 229.738 L1888.35 235.132 L1884.09 235.132 L1884.09 229.738 Z" fill="#000000" fill-rule="nonzero" fill-opacity="1" /><path clip-path="url(#clip900)" d="M1901.47 232.47 L1901.47 239.831 L1910.25 239.831 L1910.25 243.141 L1901.47 243.141 L1901.47 257.215 Q1901.47 260.386 1902.33 261.289 Q1903.21 262.192 1905.87 262.192 L1910.25 262.192 L1910.25 265.756 L1905.87 265.756 Q1900.94 265.756 1899.07 263.928 Q1897.19 262.076 1897.19 257.215 L1897.19 243.141 L1894.07 243.141 L1894.07 239.831 L1897.19 239.831 L1897.19 232.47 L1901.47 232.47 Z" fill="#000000" fill-rule="nonzero" fill-opacity="1" /></svg>
