<?xml version="1.0" encoding="utf-8"?>
<svg xmlns="http://www.w3.org/2000/svg" xmlns:xlink="http://www.w3.org/1999/xlink" width="600" height="400" viewBox="0 0 2400 1600">
<defs>
  <clipPath id="clip040">
    <rect x="0" y="0" width="2400" height="1600"/>
  </clipPath>
</defs>
<path clip-path="url(#clip040)" d="M0 1600 L2400 1600 L2400 0 L0 0  Z" fill="#ffffff" fill-rule="evenodd" fill-opacity="1"/>
<defs>
  <clipPath id="clip041">
    <rect x="480" y="0" width="1681" height="1600"/>
  </clipPath>
</defs>
<path clip-path="url(#clip040)" d="M219.866 1418.61 L2352.76 1418.61 L2352.76 47.2441 L219.866 47.2441  Z" fill="#ffffff" fill-rule="evenodd" fill-opacity="1"/>
<defs>
  <clipPath id="clip042">
    <rect x="219" y="47" width="2134" height="1372"/>
  </clipPath>
</defs>
<polyline clip-path="url(#clip042)" style="stroke:#000000; stroke-linecap:round; stroke-linejoin:round; stroke-width:2; stroke-opacity:0.1; fill:none" points="447.911,1418.61 447.911,47.2441 "/>
<polyline clip-path="url(#clip042)" style="stroke:#000000; stroke-linecap:round; stroke-linejoin:round; stroke-width:2; stroke-opacity:0.1; fill:none" points="867.111,1418.61 867.111,47.2441 "/>
<polyline clip-path="url(#clip042)" style="stroke:#000000; stroke-linecap:round; stroke-linejoin:round; stroke-width:2; stroke-opacity:0.1; fill:none" points="1286.31,1418.61 1286.31,47.2441 "/>
<polyline clip-path="url(#clip042)" style="stroke:#000000; stroke-linecap:round; stroke-linejoin:round; stroke-width:2; stroke-opacity:0.1; fill:none" points="1705.51,1418.61 1705.51,47.2441 "/>
<polyline clip-path="url(#clip042)" style="stroke:#000000; stroke-linecap:round; stroke-linejoin:round; stroke-width:2; stroke-opacity:0.1; fill:none" points="2124.71,1418.61 2124.71,47.2441 "/>
<polyline clip-path="url(#clip040)" style="stroke:#000000; stroke-linecap:round; stroke-linejoin:round; stroke-width:4; stroke-opacity:1; fill:none" points="219.866,1418.61 2352.76,1418.61 "/>
<polyline clip-path="url(#clip040)" style="stroke:#000000; stroke-linecap:round; stroke-linejoin:round; stroke-width:4; stroke-opacity:1; fill:none" points="447.911,1418.61 447.911,1399.72 "/>
<polyline clip-path="url(#clip040)" style="stroke:#000000; stroke-linecap:round; stroke-linejoin:round; stroke-width:4; stroke-opacity:1; fill:none" points="867.111,1418.61 867.111,1399.72 "/>
<polyline clip-path="url(#clip040)" style="stroke:#000000; stroke-linecap:round; stroke-linejoin:round; stroke-width:4; stroke-opacity:1; fill:none" points="1286.31,1418.61 1286.31,1399.72 "/>
<polyline clip-path="url(#clip040)" style="stroke:#000000; stroke-linecap:round; stroke-linejoin:round; stroke-width:4; stroke-opacity:1; fill:none" points="1705.51,1418.61 1705.51,1399.72 "/>
<polyline clip-path="url(#clip040)" style="stroke:#000000; stroke-linecap:round; stroke-linejoin:round; stroke-width:4; stroke-opacity:1; fill:none" points="2124.71,1418.61 2124.71,1399.72 "/>
<path clip-path="url(#clip040)" d="M394.439 1464.18 L424.115 1464.18 L424.115 1468.12 L394.439 1468.12 L394.439 1464.18 Z" fill="#000000" fill-rule="nonzero" fill-opacity="1" /><path clip-path="url(#clip040)" d="M434.254 1446.45 L452.61 1446.45 L452.61 1450.39 L438.536 1450.39 L438.536 1458.86 Q439.555 1458.51 440.573 1458.35 Q441.592 1458.17 442.61 1458.17 Q448.397 1458.17 451.777 1461.34 Q455.156 1464.51 455.156 1469.93 Q455.156 1475.5 451.684 1478.61 Q448.212 1481.68 441.893 1481.68 Q439.717 1481.68 437.448 1481.31 Q435.203 1480.94 432.795 1480.2 L432.795 1475.5 Q434.879 1476.64 437.101 1477.19 Q439.323 1477.75 441.8 1477.75 Q445.805 1477.75 448.143 1475.64 Q450.481 1473.54 450.481 1469.93 Q450.481 1466.31 448.143 1464.21 Q445.805 1462.1 441.8 1462.1 Q439.925 1462.1 438.05 1462.52 Q436.198 1462.93 434.254 1463.81 L434.254 1446.45 Z" fill="#000000" fill-rule="nonzero" fill-opacity="1" /><path clip-path="url(#clip040)" d="M464.369 1475.13 L469.254 1475.13 L469.254 1481.01 L464.369 1481.01 L464.369 1475.13 Z" fill="#000000" fill-rule="nonzero" fill-opacity="1" /><path clip-path="url(#clip040)" d="M489.439 1449.53 Q485.828 1449.53 483.999 1453.1 Q482.193 1456.64 482.193 1463.77 Q482.193 1470.87 483.999 1474.44 Q485.828 1477.98 489.439 1477.98 Q493.073 1477.98 494.878 1474.44 Q496.707 1470.87 496.707 1463.77 Q496.707 1456.64 494.878 1453.1 Q493.073 1449.53 489.439 1449.53 M489.439 1445.83 Q495.249 1445.83 498.304 1450.44 Q501.383 1455.02 501.383 1463.77 Q501.383 1472.5 498.304 1477.1 Q495.249 1481.68 489.439 1481.68 Q483.628 1481.68 480.55 1477.1 Q477.494 1472.5 477.494 1463.77 Q477.494 1455.02 480.55 1450.44 Q483.628 1445.83 489.439 1445.83 Z" fill="#000000" fill-rule="nonzero" fill-opacity="1" /><path clip-path="url(#clip040)" d="M814.137 1464.18 L843.813 1464.18 L843.813 1468.12 L814.137 1468.12 L814.137 1464.18 Z" fill="#000000" fill-rule="nonzero" fill-opacity="1" /><path clip-path="url(#clip040)" d="M857.933 1477.08 L874.252 1477.08 L874.252 1481.01 L852.308 1481.01 L852.308 1477.08 Q854.97 1474.32 859.553 1469.69 Q864.16 1465.04 865.34 1463.7 Q867.586 1461.18 868.465 1459.44 Q869.368 1457.68 869.368 1455.99 Q869.368 1453.24 867.424 1451.5 Q865.502 1449.76 862.4 1449.76 Q860.201 1449.76 857.748 1450.53 Q855.317 1451.29 852.539 1452.84 L852.539 1448.12 Q855.363 1446.99 857.817 1446.41 Q860.271 1445.83 862.308 1445.83 Q867.678 1445.83 870.873 1448.51 Q874.067 1451.2 874.067 1455.69 Q874.067 1457.82 873.257 1459.74 Q872.47 1461.64 870.363 1464.23 Q869.785 1464.9 866.683 1468.12 Q863.581 1471.31 857.933 1477.08 Z" fill="#000000" fill-rule="nonzero" fill-opacity="1" /><path clip-path="url(#clip040)" d="M884.067 1475.13 L888.951 1475.13 L888.951 1481.01 L884.067 1481.01 L884.067 1475.13 Z" fill="#000000" fill-rule="nonzero" fill-opacity="1" /><path clip-path="url(#clip040)" d="M899.183 1446.45 L917.539 1446.45 L917.539 1450.39 L903.465 1450.39 L903.465 1458.86 Q904.484 1458.51 905.502 1458.35 Q906.521 1458.17 907.539 1458.17 Q913.326 1458.17 916.706 1461.34 Q920.085 1464.51 920.085 1469.93 Q920.085 1475.5 916.613 1478.61 Q913.141 1481.68 906.822 1481.68 Q904.646 1481.68 902.377 1481.31 Q900.132 1480.94 897.724 1480.2 L897.724 1475.5 Q899.808 1476.64 902.03 1477.19 Q904.252 1477.75 906.729 1477.75 Q910.734 1477.75 913.071 1475.64 Q915.409 1473.54 915.409 1469.93 Q915.409 1466.31 913.071 1464.21 Q910.734 1462.1 906.729 1462.1 Q904.854 1462.1 902.979 1462.52 Q901.127 1462.93 899.183 1463.81 L899.183 1446.45 Z" fill="#000000" fill-rule="nonzero" fill-opacity="1" /><path clip-path="url(#clip040)" d="M1263.7 1449.53 Q1260.08 1449.53 1258.26 1453.1 Q1256.45 1456.64 1256.45 1463.77 Q1256.45 1470.87 1258.26 1474.44 Q1260.08 1477.98 1263.7 1477.98 Q1267.33 1477.98 1269.14 1474.44 Q1270.96 1470.87 1270.96 1463.77 Q1270.96 1456.64 1269.14 1453.1 Q1267.33 1449.53 1263.7 1449.53 M1263.7 1445.83 Q1269.51 1445.83 1272.56 1450.44 Q1275.64 1455.02 1275.64 1463.77 Q1275.64 1472.5 1272.56 1477.1 Q1269.51 1481.68 1263.7 1481.68 Q1257.89 1481.68 1254.81 1477.1 Q1251.75 1472.5 1251.75 1463.77 Q1251.75 1455.02 1254.81 1450.44 Q1257.89 1445.83 1263.7 1445.83 Z" fill="#000000" fill-rule="nonzero" fill-opacity="1" /><path clip-path="url(#clip040)" d="M1283.86 1475.13 L1288.74 1475.13 L1288.74 1481.01 L1283.86 1481.01 L1283.86 1475.13 Z" fill="#000000" fill-rule="nonzero" fill-opacity="1" /><path clip-path="url(#clip040)" d="M1308.93 1449.53 Q1305.32 1449.53 1303.49 1453.1 Q1301.68 1456.64 1301.68 1463.77 Q1301.68 1470.87 1303.49 1474.44 Q1305.32 1477.98 1308.93 1477.98 Q1312.56 1477.98 1314.37 1474.44 Q1316.2 1470.87 1316.2 1463.77 Q1316.2 1456.64 1314.37 1453.1 Q1312.56 1449.53 1308.93 1449.53 M1308.93 1445.83 Q1314.74 1445.83 1317.79 1450.44 Q1320.87 1455.02 1320.87 1463.77 Q1320.87 1472.5 1317.79 1477.1 Q1314.74 1481.68 1308.93 1481.68 Q1303.12 1481.68 1300.04 1477.1 Q1296.98 1472.5 1296.98 1463.77 Q1296.98 1455.02 1300.04 1450.44 Q1303.12 1445.83 1308.93 1445.83 Z" fill="#000000" fill-rule="nonzero" fill-opacity="1" /><path clip-path="url(#clip040)" d="M1677.25 1477.08 L1693.57 1477.08 L1693.57 1481.01 L1671.62 1481.01 L1671.62 1477.08 Q1674.28 1474.32 1678.87 1469.69 Q1683.47 1465.04 1684.65 1463.7 Q1686.9 1461.18 1687.78 1459.44 Q1688.68 1457.68 1688.68 1455.99 Q1688.68 1453.24 1686.74 1451.5 Q1684.82 1449.76 1681.71 1449.76 Q1679.52 1449.76 1677.06 1450.53 Q1674.63 1451.29 1671.85 1452.84 L1671.85 1448.12 Q1674.68 1446.99 1677.13 1446.41 Q1679.59 1445.83 1681.62 1445.83 Q1686.99 1445.83 1690.19 1448.51 Q1693.38 1451.2 1693.38 1455.69 Q1693.38 1457.82 1692.57 1459.74 Q1691.78 1461.64 1689.68 1464.23 Q1689.1 1464.9 1686 1468.12 Q1682.9 1471.31 1677.25 1477.08 Z" fill="#000000" fill-rule="nonzero" fill-opacity="1" /><path clip-path="url(#clip040)" d="M1703.38 1475.13 L1708.27 1475.13 L1708.27 1481.01 L1703.38 1481.01 L1703.38 1475.13 Z" fill="#000000" fill-rule="nonzero" fill-opacity="1" /><path clip-path="url(#clip040)" d="M1718.5 1446.45 L1736.85 1446.45 L1736.85 1450.39 L1722.78 1450.39 L1722.78 1458.86 Q1723.8 1458.51 1724.82 1458.35 Q1725.84 1458.17 1726.85 1458.17 Q1732.64 1458.17 1736.02 1461.34 Q1739.4 1464.51 1739.4 1469.93 Q1739.4 1475.5 1735.93 1478.61 Q1732.46 1481.68 1726.14 1481.68 Q1723.96 1481.68 1721.69 1481.31 Q1719.45 1480.94 1717.04 1480.2 L1717.04 1475.5 Q1719.12 1476.64 1721.34 1477.19 Q1723.57 1477.75 1726.04 1477.75 Q1730.05 1477.75 1732.39 1475.64 Q1734.72 1473.54 1734.72 1469.93 Q1734.72 1466.31 1732.39 1464.21 Q1730.05 1462.1 1726.04 1462.1 Q1724.17 1462.1 1722.29 1462.52 Q1720.44 1462.93 1718.5 1463.81 L1718.5 1446.45 Z" fill="#000000" fill-rule="nonzero" fill-opacity="1" /><path clip-path="url(#clip040)" d="M2091.88 1446.45 L2110.23 1446.45 L2110.23 1450.39 L2096.16 1450.39 L2096.16 1458.86 Q2097.18 1458.51 2098.2 1458.35 Q2099.21 1458.17 2100.23 1458.17 Q2106.02 1458.17 2109.4 1461.34 Q2112.78 1464.51 2112.78 1469.93 Q2112.78 1475.5 2109.31 1478.61 Q2105.83 1481.68 2099.51 1481.68 Q2097.34 1481.68 2095.07 1481.31 Q2092.82 1480.94 2090.42 1480.2 L2090.42 1475.5 Q2092.5 1476.64 2094.72 1477.19 Q2096.95 1477.75 2099.42 1477.75 Q2103.43 1477.75 2105.76 1475.64 Q2108.1 1473.54 2108.1 1469.93 Q2108.1 1466.31 2105.76 1464.21 Q2103.43 1462.1 2099.42 1462.1 Q2097.55 1462.1 2095.67 1462.52 Q2093.82 1462.93 2091.88 1463.81 L2091.88 1446.45 Z" fill="#000000" fill-rule="nonzero" fill-opacity="1" /><path clip-path="url(#clip040)" d="M2121.99 1475.13 L2126.88 1475.13 L2126.88 1481.01 L2121.99 1481.01 L2121.99 1475.13 Z" fill="#000000" fill-rule="nonzero" fill-opacity="1" /><path clip-path="url(#clip040)" d="M2147.06 1449.53 Q2143.45 1449.53 2141.62 1453.1 Q2139.82 1456.64 2139.82 1463.77 Q2139.82 1470.87 2141.62 1474.44 Q2143.45 1477.98 2147.06 1477.98 Q2150.69 1477.98 2152.5 1474.44 Q2154.33 1470.87 2154.33 1463.77 Q2154.33 1456.64 2152.5 1453.1 Q2150.69 1449.53 2147.06 1449.53 M2147.06 1445.83 Q2152.87 1445.83 2155.93 1450.44 Q2159 1455.02 2159 1463.77 Q2159 1472.5 2155.93 1477.1 Q2152.87 1481.68 2147.06 1481.68 Q2141.25 1481.68 2138.17 1477.1 Q2135.12 1472.5 2135.12 1463.77 Q2135.12 1455.02 2138.17 1450.44 Q2141.25 1445.83 2147.06 1445.83 Z" fill="#000000" fill-rule="nonzero" fill-opacity="1" /><path clip-path="url(#clip040)" d="M1129.21 1517.45 L1129.21 1515.39 Q1130.14 1515.39 1131.81 1515.45 Q1133.49 1515.51 1134.81 1515.55 Q1136.13 1515.58 1137.26 1515.58 Q1144.25 1515.58 1146.63 1515.39 L1146.63 1517.45 Q1141.09 1517.45 1141.09 1519.41 Q1141.09 1519.86 1141.22 1520.28 L1151.81 1552.71 L1160.99 1524.44 L1159.54 1519.8 Q1159.03 1518.16 1157.9 1517.8 Q1156.77 1517.45 1153.62 1517.45 L1153.62 1515.39 Q1154.55 1515.39 1156.23 1515.45 Q1157.9 1515.51 1159.22 1515.55 Q1160.54 1515.58 1161.64 1515.58 Q1168.63 1515.58 1171.01 1515.39 L1171.01 1517.45 Q1165.47 1517.45 1165.47 1519.41 Q1165.47 1519.6 1165.66 1520.41 L1176.23 1552.71 L1186.11 1522.25 Q1186.44 1521.25 1186.47 1520.93 Q1186.47 1519.73 1185.08 1518.64 Q1183.7 1517.51 1180.7 1517.45 L1180.7 1515.39 Q1185.86 1515.58 1188.56 1515.58 Q1191.59 1515.58 1194.55 1515.39 L1194.55 1517.45 Q1189.33 1517.45 1187.98 1521.86 L1175.36 1560.57 Q1175.23 1561.09 1175.13 1561.31 Q1175.03 1561.57 1174.78 1561.73 Q1174.52 1561.89 1174.07 1561.89 Q1173.2 1561.89 1172.81 1560.64 L1161.86 1527.08 L1150.98 1560.57 Q1150.85 1561.09 1150.72 1561.31 Q1150.62 1561.57 1150.37 1561.73 Q1150.11 1561.89 1149.66 1561.89 Q1148.79 1561.89 1148.4 1560.64 L1135.2 1520.22 Q1134.62 1518.32 1133.71 1517.9 Q1132.85 1517.45 1129.21 1517.45 Z" fill="#000000" fill-rule="nonzero" fill-opacity="1" /><path clip-path="url(#clip040)" d="M1201.57 1560.44 L1201.57 1558.41 Q1205.08 1558.41 1205.89 1557.99 Q1206.69 1557.54 1206.69 1555.42 L1206.69 1537.67 Q1206.69 1535.22 1205.85 1534.65 Q1205.05 1534.07 1201.83 1534.07 L1201.83 1532 L1211.04 1531.3 L1211.04 1555.48 Q1211.04 1557.45 1211.75 1557.93 Q1212.46 1558.41 1215.68 1558.41 L1215.68 1560.44 Q1208.94 1560.25 1208.82 1560.25 Q1207.91 1560.25 1201.57 1560.44 M1204.34 1519.8 Q1204.34 1518.48 1205.34 1517.41 Q1206.37 1516.32 1207.82 1516.32 Q1209.27 1516.32 1210.3 1517.32 Q1211.33 1518.28 1211.33 1519.83 Q1211.33 1521.34 1210.3 1522.34 Q1209.27 1523.31 1207.82 1523.31 Q1206.3 1523.31 1205.31 1522.25 Q1204.34 1521.18 1204.34 1519.8 Z" fill="#000000" fill-rule="nonzero" fill-opacity="1" /><path clip-path="url(#clip040)" d="M1220.18 1560.44 L1220.18 1558.41 Q1223.69 1558.41 1224.5 1557.99 Q1225.3 1557.54 1225.3 1555.42 L1225.3 1537.74 Q1225.3 1535.29 1224.44 1534.68 Q1223.6 1534.07 1220.18 1534.07 L1220.18 1532 L1229.46 1531.3 L1229.46 1538.22 Q1232.55 1531.3 1239.22 1531.3 Q1244.18 1531.3 1246.14 1533.74 Q1247.59 1535.39 1247.88 1537.22 Q1248.2 1539.06 1248.2 1543.82 L1248.2 1556.42 Q1248.27 1557.8 1249.33 1558.12 Q1250.39 1558.41 1253.36 1558.41 L1253.36 1560.44 Q1246.63 1560.25 1245.95 1560.25 Q1245.43 1560.25 1238.51 1560.44 L1238.51 1558.41 Q1242.02 1558.41 1242.82 1557.99 Q1243.66 1557.54 1243.66 1555.42 L1243.66 1540.06 Q1243.66 1536.71 1242.63 1534.74 Q1241.6 1532.74 1238.77 1532.74 Q1235.35 1532.74 1232.62 1535.61 Q1229.88 1538.48 1229.88 1543.31 L1229.88 1555.42 Q1229.88 1557.54 1230.68 1557.99 Q1231.52 1558.41 1235 1558.41 L1235 1560.44 Q1228.27 1560.25 1227.62 1560.25 Q1227.11 1560.25 1220.18 1560.44 Z" fill="#000000" fill-rule="nonzero" fill-opacity="1" /><path clip-path="url(#clip040)" d="M1258 1560.44 L1258 1558.41 Q1261.52 1558.41 1262.32 1557.99 Q1263.16 1557.54 1263.16 1555.42 L1263.16 1521.12 Q1263.16 1518.67 1262.29 1518.06 Q1261.45 1517.45 1258 1517.45 L1258 1515.39 L1267.51 1514.68 L1267.51 1546.34 L1276.81 1538.28 Q1278.26 1537.03 1278.26 1535.71 Q1278.26 1534.19 1276.36 1534.07 L1276.36 1532 Q1279.13 1532.2 1283.74 1532.2 Q1286.44 1532.2 1288.34 1532 L1288.34 1534.07 Q1284.19 1534.26 1280.03 1537.61 Q1279.1 1538.35 1276.88 1540.28 Q1274.69 1542.18 1274.69 1542.37 Q1274.69 1542.44 1274.75 1542.6 Q1274.85 1542.76 1274.98 1542.89 Q1275.11 1543.02 1275.11 1543.08 L1283.48 1554.9 Q1285.19 1557.29 1286.44 1557.87 Q1287.7 1558.41 1289.89 1558.41 L1289.89 1560.44 Q1287.05 1560.25 1284.12 1560.25 Q1282.55 1560.25 1277.01 1560.44 L1277.01 1558.41 Q1279.39 1558.41 1279.39 1556.87 Q1279.39 1555.8 1274.04 1548.43 Q1273.66 1547.91 1272.79 1546.79 Q1271.98 1545.6 1271.53 1545.02 L1267.31 1548.62 L1267.31 1555.42 Q1267.31 1557.54 1268.12 1557.99 Q1268.95 1558.41 1272.47 1558.41 L1272.47 1560.44 Q1268.5 1560.25 1265.22 1560.25 Q1264.54 1560.25 1258 1560.44 Z" fill="#000000" fill-rule="nonzero" fill-opacity="1" /><path clip-path="url(#clip040)" d="M1292.38 1545.92 Q1292.38 1539.7 1296.38 1535.29 Q1300.37 1530.88 1306.1 1530.88 Q1311.9 1530.88 1314.89 1534.65 Q1317.92 1538.41 1317.92 1543.82 Q1317.92 1544.82 1317.66 1545.02 Q1317.41 1545.21 1316.28 1545.21 L1297.86 1545.21 Q1297.86 1551.94 1299.85 1555.1 Q1302.62 1559.51 1307.29 1559.51 Q1307.94 1559.51 1308.71 1559.38 Q1309.48 1559.25 1311.06 1558.7 Q1312.64 1558.12 1314.02 1556.61 Q1315.41 1555.1 1316.21 1552.71 Q1316.41 1551.78 1317.05 1551.81 Q1317.92 1551.81 1317.92 1552.58 Q1317.92 1553.16 1317.28 1554.48 Q1316.67 1555.77 1315.47 1557.32 Q1314.28 1558.86 1311.96 1560.02 Q1309.68 1561.18 1306.91 1561.18 Q1301.11 1561.18 1296.73 1556.8 Q1292.38 1552.39 1292.38 1545.92 M1297.92 1543.82 L1313.57 1543.82 Q1313.57 1542.44 1313.32 1540.89 Q1313.09 1539.35 1312.38 1537.22 Q1311.71 1535.06 1310.1 1533.71 Q1308.49 1532.36 1306.1 1532.36 Q1305.04 1532.36 1303.88 1532.81 Q1302.75 1533.26 1301.37 1534.36 Q1299.98 1535.45 1299.02 1537.93 Q1298.05 1540.41 1297.92 1543.82 Z" fill="#000000" fill-rule="nonzero" fill-opacity="1" /><path clip-path="url(#clip040)" d="M1321.38 1560.44 L1321.38 1558.41 Q1324.89 1558.41 1325.69 1557.99 Q1326.5 1557.54 1326.5 1555.42 L1326.5 1521.12 Q1326.5 1518.67 1325.63 1518.06 Q1324.79 1517.45 1321.38 1517.45 L1321.38 1515.39 L1330.85 1514.68 L1330.85 1555.42 Q1330.85 1557.54 1331.68 1557.99 Q1332.52 1558.41 1336 1558.41 L1336 1560.44 Q1335.19 1560.44 1333.52 1560.38 Q1331.84 1560.31 1330.62 1560.28 Q1329.4 1560.25 1328.69 1560.25 Q1327.92 1560.25 1321.38 1560.44 Z" fill="#000000" fill-rule="nonzero" fill-opacity="1" /><path clip-path="url(#clip040)" d="M1356.9 1576.93 L1356.9 1510.97 L1366.85 1510.97 L1366.85 1512.49 L1361.31 1512.49 L1361.31 1575.42 L1366.85 1575.42 L1366.85 1576.93 L1356.9 1576.93 Z" fill="#000000" fill-rule="nonzero" fill-opacity="1" /><path clip-path="url(#clip040)" d="M1398.4 1500.49 Q1400.43 1502.5 1400.43 1505.39 Q1400.43 1508.27 1398.4 1510.3 Q1396.4 1512.31 1393.51 1512.31 Q1390.63 1512.31 1388.6 1510.3 Q1386.59 1508.27 1386.59 1505.39 Q1386.59 1502.5 1388.6 1500.49 Q1390.63 1498.46 1393.51 1498.46 Q1396.4 1498.46 1398.4 1500.49 M1397.1 1508.99 Q1398.58 1507.5 1398.58 1505.39 Q1398.58 1503.27 1397.1 1501.8 Q1395.63 1500.31 1393.51 1500.31 Q1391.39 1500.31 1389.9 1501.8 Q1388.44 1503.27 1388.44 1505.39 Q1388.44 1507.5 1389.9 1508.99 Q1391.39 1510.46 1393.51 1510.46 Q1395.63 1510.46 1397.1 1508.99 Z" fill="#000000" fill-rule="nonzero" fill-opacity="1" /><path clip-path="url(#clip040)" d="M1425.27 1575.42 L1430.81 1575.42 L1430.81 1512.49 L1425.27 1512.49 L1425.27 1510.97 L1435.22 1510.97 L1435.22 1576.93 L1425.27 1576.93 L1425.27 1575.42 Z" fill="#000000" fill-rule="nonzero" fill-opacity="1" /><polyline clip-path="url(#clip042)" style="stroke:#000000; stroke-linecap:round; stroke-linejoin:round; stroke-width:2; stroke-opacity:0.1; fill:none" points="219.866,1416.06 2352.76,1416.06 "/>
<polyline clip-path="url(#clip042)" style="stroke:#000000; stroke-linecap:round; stroke-linejoin:round; stroke-width:2; stroke-opacity:0.1; fill:none" points="219.866,1167.96 2352.76,1167.96 "/>
<polyline clip-path="url(#clip042)" style="stroke:#000000; stroke-linecap:round; stroke-linejoin:round; stroke-width:2; stroke-opacity:0.1; fill:none" points="219.866,919.859 2352.76,919.859 "/>
<polyline clip-path="url(#clip042)" style="stroke:#000000; stroke-linecap:round; stroke-linejoin:round; stroke-width:2; stroke-opacity:0.1; fill:none" points="219.866,671.758 2352.76,671.758 "/>
<polyline clip-path="url(#clip042)" style="stroke:#000000; stroke-linecap:round; stroke-linejoin:round; stroke-width:2; stroke-opacity:0.1; fill:none" points="219.866,423.656 2352.76,423.656 "/>
<polyline clip-path="url(#clip042)" style="stroke:#000000; stroke-linecap:round; stroke-linejoin:round; stroke-width:2; stroke-opacity:0.1; fill:none" points="219.866,175.555 2352.76,175.555 "/>
<polyline clip-path="url(#clip040)" style="stroke:#000000; stroke-linecap:round; stroke-linejoin:round; stroke-width:4; stroke-opacity:1; fill:none" points="219.866,1418.61 219.866,47.2441 "/>
<polyline clip-path="url(#clip040)" style="stroke:#000000; stroke-linecap:round; stroke-linejoin:round; stroke-width:4; stroke-opacity:1; fill:none" points="219.866,1416.06 238.764,1416.06 "/>
<polyline clip-path="url(#clip040)" style="stroke:#000000; stroke-linecap:round; stroke-linejoin:round; stroke-width:4; stroke-opacity:1; fill:none" points="219.866,1167.96 238.764,1167.96 "/>
<polyline clip-path="url(#clip040)" style="stroke:#000000; stroke-linecap:round; stroke-linejoin:round; stroke-width:4; stroke-opacity:1; fill:none" points="219.866,919.859 238.764,919.859 "/>
<polyline clip-path="url(#clip040)" style="stroke:#000000; stroke-linecap:round; stroke-linejoin:round; stroke-width:4; stroke-opacity:1; fill:none" points="219.866,671.758 238.764,671.758 "/>
<polyline clip-path="url(#clip040)" style="stroke:#000000; stroke-linecap:round; stroke-linejoin:round; stroke-width:4; stroke-opacity:1; fill:none" points="219.866,423.656 238.764,423.656 "/>
<polyline clip-path="url(#clip040)" style="stroke:#000000; stroke-linecap:round; stroke-linejoin:round; stroke-width:4; stroke-opacity:1; fill:none" points="219.866,175.555 238.764,175.555 "/>
<path clip-path="url(#clip040)" d="M128.288 1401.86 Q124.677 1401.86 122.848 1405.42 Q121.043 1408.97 121.043 1416.1 Q121.043 1423.2 122.848 1426.77 Q124.677 1430.31 128.288 1430.31 Q131.922 1430.31 133.728 1426.77 Q135.556 1423.2 135.556 1416.1 Q135.556 1408.97 133.728 1405.42 Q131.922 1401.86 128.288 1401.86 M128.288 1398.16 Q134.098 1398.16 137.154 1402.76 Q140.232 1407.35 140.232 1416.1 Q140.232 1424.82 137.154 1429.43 Q134.098 1434.01 128.288 1434.01 Q122.478 1434.01 119.399 1429.43 Q116.343 1424.82 116.343 1416.1 Q116.343 1407.35 119.399 1402.76 Q122.478 1398.16 128.288 1398.16 Z" fill="#000000" fill-rule="nonzero" fill-opacity="1" /><path clip-path="url(#clip040)" d="M148.45 1427.46 L153.334 1427.46 L153.334 1433.34 L148.45 1433.34 L148.45 1427.46 Z" fill="#000000" fill-rule="nonzero" fill-opacity="1" /><path clip-path="url(#clip040)" d="M167.547 1429.41 L183.866 1429.41 L183.866 1433.34 L161.922 1433.34 L161.922 1429.41 Q164.584 1426.65 169.167 1422.02 Q173.774 1417.37 174.954 1416.03 Q177.2 1413.5 178.079 1411.77 Q178.982 1410.01 178.982 1408.32 Q178.982 1405.56 177.038 1403.83 Q175.116 1402.09 172.014 1402.09 Q169.815 1402.09 167.362 1402.86 Q164.931 1403.62 162.153 1405.17 L162.153 1400.45 Q164.977 1399.31 167.431 1398.73 Q169.885 1398.16 171.922 1398.16 Q177.292 1398.16 180.487 1400.84 Q183.681 1403.53 183.681 1408.02 Q183.681 1410.15 182.871 1412.07 Q182.084 1413.97 179.977 1416.56 Q179.399 1417.23 176.297 1420.45 Q173.195 1423.64 167.547 1429.41 Z" fill="#000000" fill-rule="nonzero" fill-opacity="1" /><path clip-path="url(#clip040)" d="M127.339 1153.76 Q123.728 1153.76 121.899 1157.32 Q120.093 1160.86 120.093 1167.99 Q120.093 1175.1 121.899 1178.67 Q123.728 1182.21 127.339 1182.21 Q130.973 1182.21 132.779 1178.67 Q134.607 1175.1 134.607 1167.99 Q134.607 1160.86 132.779 1157.32 Q130.973 1153.76 127.339 1153.76 M127.339 1150.05 Q133.149 1150.05 136.204 1154.66 Q139.283 1159.24 139.283 1167.99 Q139.283 1176.72 136.204 1181.33 Q133.149 1185.91 127.339 1185.91 Q121.529 1185.91 118.45 1181.33 Q115.394 1176.72 115.394 1167.99 Q115.394 1159.24 118.45 1154.66 Q121.529 1150.05 127.339 1150.05 Z" fill="#000000" fill-rule="nonzero" fill-opacity="1" /><path clip-path="url(#clip040)" d="M147.501 1179.36 L152.385 1179.36 L152.385 1185.24 L147.501 1185.24 L147.501 1179.36 Z" fill="#000000" fill-rule="nonzero" fill-opacity="1" /><path clip-path="url(#clip040)" d="M176.737 1166.61 Q180.093 1167.32 181.968 1169.59 Q183.866 1171.86 183.866 1175.19 Q183.866 1180.31 180.348 1183.11 Q176.829 1185.91 170.348 1185.91 Q168.172 1185.91 165.857 1185.47 Q163.565 1185.05 161.112 1184.2 L161.112 1179.68 Q163.056 1180.82 165.371 1181.4 Q167.686 1181.98 170.209 1181.98 Q174.607 1181.98 176.899 1180.24 Q179.214 1178.5 179.214 1175.19 Q179.214 1172.14 177.061 1170.43 Q174.931 1168.69 171.112 1168.69 L167.084 1168.69 L167.084 1164.85 L171.297 1164.85 Q174.746 1164.85 176.575 1163.48 Q178.403 1162.09 178.403 1159.5 Q178.403 1156.84 176.505 1155.43 Q174.63 1153.99 171.112 1153.99 Q169.19 1153.99 166.991 1154.41 Q164.792 1154.82 162.153 1155.7 L162.153 1151.54 Q164.815 1150.8 167.13 1150.43 Q169.468 1150.05 171.528 1150.05 Q176.852 1150.05 179.954 1152.49 Q183.056 1154.89 183.056 1159.01 Q183.056 1161.88 181.413 1163.87 Q179.769 1165.84 176.737 1166.61 Z" fill="#000000" fill-rule="nonzero" fill-opacity="1" /><path clip-path="url(#clip040)" d="M126.205 905.657 Q122.593 905.657 120.765 909.222 Q118.959 912.764 118.959 919.893 Q118.959 927 120.765 930.565 Q122.593 934.106 126.205 934.106 Q129.839 934.106 131.644 930.565 Q133.473 927 133.473 919.893 Q133.473 912.764 131.644 909.222 Q129.839 905.657 126.205 905.657 M126.205 901.954 Q132.015 901.954 135.07 906.56 Q138.149 911.144 138.149 919.893 Q138.149 928.62 135.07 933.227 Q132.015 937.81 126.205 937.81 Q120.394 937.81 117.316 933.227 Q114.26 928.62 114.26 919.893 Q114.26 911.144 117.316 906.56 Q120.394 901.954 126.205 901.954 Z" fill="#000000" fill-rule="nonzero" fill-opacity="1" /><path clip-path="url(#clip040)" d="M146.366 931.259 L151.251 931.259 L151.251 937.139 L146.366 937.139 L146.366 931.259 Z" fill="#000000" fill-rule="nonzero" fill-opacity="1" /><path clip-path="url(#clip040)" d="M174.283 906.653 L162.477 925.102 L174.283 925.102 L174.283 906.653 M173.056 902.579 L178.936 902.579 L178.936 925.102 L183.866 925.102 L183.866 928.991 L178.936 928.991 L178.936 937.139 L174.283 937.139 L174.283 928.991 L158.681 928.991 L158.681 924.477 L173.056 902.579 Z" fill="#000000" fill-rule="nonzero" fill-opacity="1" /><path clip-path="url(#clip040)" d="M127.686 657.556 Q124.075 657.556 122.246 661.121 Q120.441 664.663 120.441 671.792 Q120.441 678.899 122.246 682.464 Q124.075 686.005 127.686 686.005 Q131.32 686.005 133.126 682.464 Q134.954 678.899 134.954 671.792 Q134.954 664.663 133.126 661.121 Q131.32 657.556 127.686 657.556 M127.686 653.853 Q133.496 653.853 136.552 658.459 Q139.63 663.042 139.63 671.792 Q139.63 680.519 136.552 685.126 Q133.496 689.709 127.686 689.709 Q121.876 689.709 118.797 685.126 Q115.742 680.519 115.742 671.792 Q115.742 663.042 118.797 658.459 Q121.876 653.853 127.686 653.853 Z" fill="#000000" fill-rule="nonzero" fill-opacity="1" /><path clip-path="url(#clip040)" d="M147.848 683.158 L152.732 683.158 L152.732 689.038 L147.848 689.038 L147.848 683.158 Z" fill="#000000" fill-rule="nonzero" fill-opacity="1" /><path clip-path="url(#clip040)" d="M162.964 654.478 L181.32 654.478 L181.32 658.413 L167.246 658.413 L167.246 666.885 Q168.264 666.538 169.283 666.376 Q170.302 666.191 171.32 666.191 Q177.107 666.191 180.487 669.362 Q183.866 672.533 183.866 677.95 Q183.866 683.528 180.394 686.63 Q176.922 689.709 170.602 689.709 Q168.427 689.709 166.158 689.339 Q163.913 688.968 161.505 688.227 L161.505 683.528 Q163.589 684.663 165.811 685.218 Q168.033 685.774 170.51 685.774 Q174.514 685.774 176.852 683.667 Q179.19 681.561 179.19 677.95 Q179.19 674.339 176.852 672.232 Q174.514 670.126 170.51 670.126 Q168.635 670.126 166.76 670.542 Q164.908 670.959 162.964 671.839 L162.964 654.478 Z" fill="#000000" fill-rule="nonzero" fill-opacity="1" /><path clip-path="url(#clip040)" d="M126.529 409.455 Q122.918 409.455 121.089 413.02 Q119.283 416.562 119.283 423.691 Q119.283 430.798 121.089 434.362 Q122.918 437.904 126.529 437.904 Q130.163 437.904 131.968 434.362 Q133.797 430.798 133.797 423.691 Q133.797 416.562 131.968 413.02 Q130.163 409.455 126.529 409.455 M126.529 405.751 Q132.339 405.751 135.394 410.358 Q138.473 414.941 138.473 423.691 Q138.473 432.418 135.394 437.024 Q132.339 441.608 126.529 441.608 Q120.718 441.608 117.64 437.024 Q114.584 432.418 114.584 423.691 Q114.584 414.941 117.64 410.358 Q120.718 405.751 126.529 405.751 Z" fill="#000000" fill-rule="nonzero" fill-opacity="1" /><path clip-path="url(#clip040)" d="M146.691 435.057 L151.575 435.057 L151.575 440.936 L146.691 440.936 L146.691 435.057 Z" fill="#000000" fill-rule="nonzero" fill-opacity="1" /><path clip-path="url(#clip040)" d="M172.339 421.793 Q169.19 421.793 167.339 423.946 Q165.51 426.099 165.51 429.849 Q165.51 433.575 167.339 435.751 Q169.19 437.904 172.339 437.904 Q175.487 437.904 177.315 435.751 Q179.167 433.575 179.167 429.849 Q179.167 426.099 177.315 423.946 Q175.487 421.793 172.339 421.793 M181.621 407.14 L181.621 411.4 Q179.862 410.566 178.056 410.126 Q176.274 409.687 174.514 409.687 Q169.885 409.687 167.431 412.812 Q165.001 415.937 164.653 422.256 Q166.019 420.242 168.079 419.177 Q170.139 418.089 172.616 418.089 Q177.825 418.089 180.834 421.261 Q183.866 424.409 183.866 429.849 Q183.866 435.173 180.718 438.39 Q177.57 441.608 172.339 441.608 Q166.343 441.608 163.172 437.024 Q160.001 432.418 160.001 423.691 Q160.001 415.497 163.89 410.636 Q167.778 405.751 174.329 405.751 Q176.089 405.751 177.871 406.099 Q179.676 406.446 181.621 407.14 Z" fill="#000000" fill-rule="nonzero" fill-opacity="1" /><path clip-path="url(#clip040)" d="M127.593 161.354 Q123.982 161.354 122.154 164.919 Q120.348 168.46 120.348 175.59 Q120.348 182.697 122.154 186.261 Q123.982 189.803 127.593 189.803 Q131.228 189.803 133.033 186.261 Q134.862 182.697 134.862 175.59 Q134.862 168.46 133.033 164.919 Q131.228 161.354 127.593 161.354 M127.593 157.65 Q133.404 157.65 136.459 162.257 Q139.538 166.84 139.538 175.59 Q139.538 184.317 136.459 188.923 Q133.404 193.507 127.593 193.507 Q121.783 193.507 118.705 188.923 Q115.649 184.317 115.649 175.59 Q115.649 166.84 118.705 162.257 Q121.783 157.65 127.593 157.65 Z" fill="#000000" fill-rule="nonzero" fill-opacity="1" /><path clip-path="url(#clip040)" d="M147.755 186.956 L152.64 186.956 L152.64 192.835 L147.755 192.835 L147.755 186.956 Z" fill="#000000" fill-rule="nonzero" fill-opacity="1" /><path clip-path="url(#clip040)" d="M161.644 158.275 L183.866 158.275 L183.866 160.266 L171.32 192.835 L166.436 192.835 L178.241 162.211 L161.644 162.211 L161.644 158.275 Z" fill="#000000" fill-rule="nonzero" fill-opacity="1" /><path clip-path="url(#clip040)" d="M64.9569 917.129 Q64.3772 917.129 63.6364 916.678 L23.0893 891.01 L23.0893 901.38 Q23.0893 905.341 23.991 907.95 Q24.8606 910.559 26.7607 911.943 Q28.6287 913.328 30.7221 913.876 Q32.7832 914.423 35.875 914.616 L35.875 916.291 L21.0281 915.55 L21.0281 886.018 Q21.0281 885.438 21.0281 885.213 Q21.0281 884.955 21.1569 884.697 Q21.2857 884.44 21.5112 884.375 Q21.7044 884.279 22.0909 884.279 Q22.6062 884.279 23.3469 884.762 L63.8297 910.333 L63.8297 899.512 Q63.8297 895.937 63.0889 893.457 Q62.316 890.945 61.1566 889.496 Q59.965 888.047 57.8072 887.209 Q55.6494 886.34 53.6526 886.05 Q51.6237 885.728 48.4675 885.535 L48.4675 883.892 L66.0841 885.019 L66.0841 915.422 Q66.0841 916.549 65.9231 916.839 Q65.762 917.129 64.9569 917.129 Z" fill="#000000" fill-rule="nonzero" fill-opacity="1" /><path clip-path="url(#clip040)" d="M59.804 877.224 Q54.2001 877.224 51.2372 870.621 Q49.337 866.66 48.854 858.48 L46.4385 858.48 Q42.3484 858.48 40.1906 860.638 Q38.0006 862.763 38.0006 865.468 Q38.0006 870.299 41.0279 872.618 Q41.0923 870.654 42.0907 869.945 Q43.0569 869.236 44.0553 869.236 Q45.3757 869.236 46.2453 870.074 Q47.0826 870.879 47.0826 872.264 Q47.0826 873.584 46.2775 874.454 Q45.4401 875.323 43.9909 875.323 Q40.7703 875.323 38.6447 872.425 Q36.5191 869.494 36.5191 865.34 Q36.5191 859.929 40.1584 856.322 Q41.2856 855.195 42.7348 854.647 Q44.1841 854.068 45.1503 854.003 Q46.0843 853.939 47.9522 853.939 L61.1244 853.939 Q61.5109 853.939 62.155 853.81 Q62.7991 853.681 63.6364 853.101 Q64.4416 852.489 64.4416 851.491 Q64.4416 849.108 60.2226 849.14 L56.519 849.14 L56.519 847.465 L60.2226 847.465 Q63.7331 847.465 65.1179 849.333 Q66.4706 851.169 66.4706 852.876 Q66.4706 855.066 64.8603 856.451 Q63.25 857.836 61.06 858.029 Q63.572 859.027 65.2145 861.314 Q66.8248 863.568 66.8248 866.66 Q66.8248 869.043 66.2129 871.298 Q65.6332 873.52 63.9907 875.388 Q62.316 877.224 59.804 877.224 M26.1166 873.391 Q24.6029 873.391 23.6046 872.393 Q22.6062 871.362 22.6062 869.977 Q22.6062 868.657 23.6368 867.562 Q24.6674 866.467 26.1166 866.467 Q27.5659 866.467 28.5643 867.562 Q29.5304 868.657 29.5304 869.977 Q29.5304 871.491 28.5321 872.457 Q27.5015 873.391 26.1166 873.391 M59.7395 872.135 Q62.1872 872.135 63.7653 870.396 Q65.3434 868.657 65.3434 866.209 Q65.3434 863.439 63.2178 860.96 Q61.06 858.48 56.841 858.48 L50.2388 858.48 Q50.4965 865.79 53.4272 868.979 Q56.3257 872.135 59.7395 872.135 M26.1166 860.605 Q24.6029 860.605 23.6046 859.543 Q22.6062 858.48 22.6062 857.095 Q22.6062 855.71 23.6046 854.712 Q24.6029 853.681 26.1166 853.681 Q27.5659 853.681 28.5643 854.744 Q29.5304 855.774 29.5304 857.095 Q29.5304 858.609 28.5321 859.607 Q27.5015 860.605 26.1166 860.605 Z" fill="#000000" fill-rule="nonzero" fill-opacity="1" /><path clip-path="url(#clip040)" d="M66.0841 844.559 L64.0551 844.559 Q64.0551 841.049 63.6364 840.244 Q63.1856 839.439 61.06 839.439 L26.7607 839.439 Q24.3131 839.439 23.7012 840.308 Q23.0893 841.146 23.0893 844.559 L21.0281 844.559 L20.3196 835.091 L43.2501 835.091 L43.2501 835.027 Q40.8669 833.964 38.9023 831.581 Q36.9378 829.197 36.9378 825.526 Q36.9378 820.566 39.3854 818.602 Q41.0279 817.152 42.8637 816.862 Q44.6994 816.54 49.4659 816.54 L62.0584 816.54 Q63.4432 816.476 63.7653 815.413 Q64.0551 814.35 64.0551 811.387 L66.0841 811.387 Q65.8909 818.118 65.8909 818.795 Q65.8909 819.31 66.0841 826.234 L64.0551 826.234 Q64.0551 822.724 63.6364 821.919 Q63.1856 821.081 61.06 821.081 L45.6978 821.081 Q42.3484 821.081 40.3838 822.112 Q38.3871 823.143 38.3871 825.977 Q38.3871 829.391 41.2534 832.128 Q44.1197 834.865 48.9506 834.865 L61.06 834.865 Q63.1856 834.865 63.6364 834.06 Q64.0551 833.223 64.0551 829.745 L66.0841 829.745 Q65.8909 836.476 65.8909 837.12 Q65.8909 837.635 66.0841 844.559 Z" fill="#000000" fill-rule="nonzero" fill-opacity="1" /><path clip-path="url(#clip040)" d="M66.0841 809.115 L64.0551 809.115 Q64.0551 805.604 63.6364 804.799 Q63.1856 803.994 61.06 803.994 L26.7607 803.994 Q24.3131 803.994 23.7012 804.864 Q23.0893 805.701 23.0893 809.115 L21.0281 809.115 L20.3196 799.646 L61.06 799.646 Q63.1856 799.646 63.6364 798.809 Q64.0551 797.972 64.0551 794.493 L66.0841 794.493 Q66.0841 795.298 66.0197 796.973 Q65.9553 798.648 65.9231 799.872 Q65.8909 801.096 65.8909 801.804 Q65.8909 802.577 66.0841 809.115 Z" fill="#000000" fill-rule="nonzero" fill-opacity="1" /><path clip-path="url(#clip040)" d="M66.0841 791.556 L64.0551 791.556 Q64.0551 788.046 63.6364 787.241 Q63.1856 786.403 61.06 786.403 L43.379 786.403 Q40.9313 786.403 40.3194 787.273 Q39.7075 788.11 39.7075 791.556 L37.6463 791.556 L36.9378 782.378 L44.1841 782.378 Q41.35 781.444 39.16 779.479 Q36.9378 777.482 36.9378 774.262 Q36.9378 772.136 38.1294 770.784 Q39.321 769.399 40.9635 769.399 Q42.4128 769.399 43.1535 770.3 Q43.8621 771.17 43.8621 772.233 Q43.8621 773.424 43.1213 774.262 Q42.3484 775.067 41.0279 775.067 Q40.2228 775.067 39.6109 774.713 Q38.9668 774.326 38.7413 774.036 Q38.5159 773.746 38.4515 773.553 Q38.3871 773.682 38.3871 774.262 Q38.3871 777.901 42.0263 779.994 Q45.6334 782.056 50.7863 782.056 L60.9312 782.056 Q62.8313 782.056 63.4432 781.283 Q64.0551 780.478 64.0551 777.031 L64.0551 775.647 L66.0841 775.647 Q65.8909 778.288 65.8909 784.02 Q65.8909 784.825 65.9231 786.081 Q65.9553 787.337 66.0197 788.98 Q66.0841 790.622 66.0841 791.556 Z" fill="#000000" fill-rule="nonzero" fill-opacity="1" /><path clip-path="url(#clip040)" d="M59.804 763.995 Q54.2001 763.995 51.2372 757.392 Q49.337 753.431 48.854 745.251 L46.4385 745.251 Q42.3484 745.251 40.1906 747.409 Q38.0006 749.534 38.0006 752.239 Q38.0006 757.07 41.0279 759.389 Q41.0923 757.425 42.0907 756.716 Q43.0569 756.007 44.0553 756.007 Q45.3757 756.007 46.2453 756.845 Q47.0826 757.65 47.0826 759.035 Q47.0826 760.355 46.2775 761.225 Q45.4401 762.094 43.9909 762.094 Q40.7703 762.094 38.6447 759.196 Q36.5191 756.265 36.5191 752.111 Q36.5191 746.7 40.1584 743.093 Q41.2856 741.966 42.7348 741.418 Q44.1841 740.839 45.1503 740.774 Q46.0843 740.71 47.9522 740.71 L61.1244 740.71 Q61.5109 740.71 62.155 740.581 Q62.7991 740.452 63.6364 739.872 Q64.4416 739.26 64.4416 738.262 Q64.4416 735.879 60.2226 735.911 L56.519 735.911 L56.519 734.236 L60.2226 734.236 Q63.7331 734.236 65.1179 736.104 Q66.4706 737.94 66.4706 739.647 Q66.4706 741.837 64.8603 743.222 Q63.25 744.607 61.06 744.8 Q63.572 745.798 65.2145 748.085 Q66.8248 750.339 66.8248 753.431 Q66.8248 755.814 66.2129 758.069 Q65.6332 760.291 63.9907 762.159 Q62.316 763.995 59.804 763.995 M59.7395 758.906 Q62.1872 758.906 63.7653 757.167 Q65.3434 755.428 65.3434 752.98 Q65.3434 750.21 63.2178 747.731 Q61.06 745.251 56.841 745.251 L50.2388 745.251 Q50.4965 752.561 53.4272 755.75 Q56.3257 758.906 59.7395 758.906 Z" fill="#000000" fill-rule="nonzero" fill-opacity="1" /><path clip-path="url(#clip040)" d="M39.7075 732.65 L38.2582 732.65 Q38.1294 729.623 36.0038 727.626 Q33.846 725.597 31.2051 724.921 Q28.5643 724.213 25.5047 724.148 L25.5047 722.506 L37.6463 722.506 L37.6463 713.069 L39.7075 713.069 L39.7075 722.506 L58.0326 722.506 Q65.1501 722.506 65.1501 718.061 Q65.1501 716.161 63.2178 714.905 Q61.2532 713.649 57.775 713.649 L54.1357 713.649 L54.1357 712.007 L57.9038 712.007 Q61.4787 712.007 64.1517 713.649 Q66.8248 715.292 66.8248 718.544 Q66.8248 719.736 66.5028 720.928 Q66.2129 722.087 65.44 723.633 Q64.6348 725.147 62.7025 726.113 Q60.7379 727.047 57.9038 727.047 L39.7075 727.047 L39.7075 732.65 Z" fill="#000000" fill-rule="nonzero" fill-opacity="1" /><path clip-path="url(#clip040)" d="M51.5593 708.92 Q45.3435 708.92 40.9313 704.927 Q36.5191 700.933 36.5191 695.2 Q36.5191 689.403 40.2872 686.408 Q44.0553 683.381 49.4659 683.381 Q50.4643 683.381 50.6575 683.638 Q50.8507 683.896 50.8507 685.023 L50.8507 703.445 Q57.5817 703.445 60.7379 701.448 Q65.1501 698.679 65.1501 694.009 Q65.1501 693.365 65.0213 692.592 Q64.8925 691.819 64.345 690.241 Q63.7653 688.663 62.2516 687.278 Q60.7379 685.893 58.3547 685.088 Q57.4207 684.894 57.4529 684.25 Q57.4529 683.381 58.2259 683.381 Q58.8056 683.381 60.126 684.025 Q61.4142 684.637 62.9601 685.828 Q64.506 687.02 65.6654 689.339 Q66.8248 691.626 66.8248 694.395 Q66.8248 700.192 62.4448 704.572 Q58.0326 708.92 51.5593 708.92 M49.4659 703.381 L49.4659 687.729 Q48.081 687.729 46.5351 687.986 Q44.9893 688.212 42.8637 688.92 Q40.7059 689.597 39.3532 691.207 Q38.0006 692.817 38.0006 695.2 Q38.0006 696.263 38.4515 697.423 Q38.9023 698.55 39.9973 699.935 Q41.0923 701.319 43.5722 702.286 Q46.052 703.252 49.4659 703.381 Z" fill="#000000" fill-rule="nonzero" fill-opacity="1" /><path clip-path="url(#clip040)" d="M82.5735 662.493 L16.6159 662.493 L16.6159 652.542 L18.1296 652.542 L18.1296 658.081 L81.0598 658.081 L81.0598 652.542 L82.5735 652.542 L82.5735 662.493 Z" fill="#000000" fill-rule="nonzero" fill-opacity="1" /><path clip-path="url(#clip040)" d="M66.0841 650.151 L64.0551 650.151 L64.0551 648.573 Q64.0551 644.998 63.4754 644.193 Q62.8635 643.356 60.9312 643.356 L26.181 643.356 Q24.2809 643.356 23.7012 644.193 Q23.0893 645.03 23.0893 648.573 L23.0893 650.151 L21.0281 650.151 Q21.2213 647.832 21.2213 640.393 Q21.2213 633.018 21.0281 630.699 L23.0893 630.699 L23.0893 632.277 Q23.0893 635.852 23.7012 636.689 Q24.2809 637.494 26.181 637.494 L41.6076 637.494 L41.6076 617.784 L26.181 617.784 Q24.2809 617.784 23.7012 618.622 Q23.0893 619.427 23.0893 623.002 L23.0893 624.58 L21.0281 624.58 Q21.2213 622.261 21.2213 614.821 Q21.2213 607.446 21.0281 605.127 L23.0893 605.127 L23.0893 606.706 Q23.0893 610.28 23.7012 611.118 Q24.2809 611.923 26.181 611.923 L60.9312 611.923 Q62.8313 611.923 63.4432 611.085 Q64.0551 610.248 64.0551 606.706 L64.0551 605.127 L66.0841 605.127 Q65.8909 607.446 65.8909 614.886 Q65.8909 622.261 66.0841 624.58 L64.0551 624.58 L64.0551 623.002 Q64.0551 619.427 63.4754 618.622 Q62.8635 617.784 60.9312 617.784 L43.6688 617.784 L43.6688 637.494 L60.9312 637.494 Q62.8313 637.494 63.4432 636.689 Q64.0551 635.852 64.0551 632.277 L64.0551 630.699 L66.0841 630.699 Q65.8909 633.018 65.8909 640.457 Q65.8909 647.832 66.0841 650.151 Z" fill="#000000" fill-rule="nonzero" fill-opacity="1" /><path clip-path="url(#clip040)" d="M65.1501 597.195 Q64.6992 597.195 63.9585 596.583 L39.0956 578.194 L39.0956 585.698 Q39.0956 590.915 41.0279 592.622 Q42.9281 594.297 48.2743 594.619 L48.2743 596.261 L37.6463 595.52 L37.6463 574.426 Q37.6463 573.685 37.6785 573.395 Q37.7107 573.105 37.9362 572.912 Q38.1294 572.719 38.5159 572.719 Q38.9023 572.719 39.6431 573.298 L64.4416 591.656 L64.4416 583.862 Q64.4416 578.387 62.155 576.551 Q59.8684 574.683 53.7493 574.232 L53.7493 572.59 L66.0841 573.717 L66.0841 595.456 Q66.0841 596.519 65.9553 596.873 Q65.7942 597.195 65.1501 597.195 Z" fill="#000000" fill-rule="nonzero" fill-opacity="1" /><path clip-path="url(#clip040)" d="M81.0598 566.879 L81.0598 561.34 L18.1296 561.34 L18.1296 566.879 L16.6159 566.879 L16.6159 556.928 L82.5735 556.928 L82.5735 566.879 L81.0598 566.879 Z" fill="#000000" fill-rule="nonzero" fill-opacity="1" /><polyline clip-path="url(#clip042)" style="stroke:#000000; stroke-linecap:round; stroke-linejoin:round; stroke-width:4; stroke-opacity:1; fill:none" points="364.071,1002.56 531.751,1002.56 "/>
<polyline clip-path="url(#clip042)" style="stroke:#000000; stroke-linecap:round; stroke-linejoin:round; stroke-width:4; stroke-opacity:1; fill:none" points="447.911,630.407 615.591,630.407 "/>
<polyline clip-path="url(#clip042)" style="stroke:#000000; stroke-linecap:round; stroke-linejoin:round; stroke-width:4; stroke-opacity:1; fill:none" points="531.751,754.458 699.431,754.458 "/>
<polyline clip-path="url(#clip042)" style="stroke:#000000; stroke-linecap:round; stroke-linejoin:round; stroke-width:4; stroke-opacity:1; fill:none" points="615.591,878.509 783.271,878.509 "/>
<polyline clip-path="url(#clip042)" style="stroke:#000000; stroke-linecap:round; stroke-linejoin:round; stroke-width:4; stroke-opacity:1; fill:none" points="699.431,589.057 867.111,589.057 "/>
<polyline clip-path="url(#clip042)" style="stroke:#000000; stroke-linecap:round; stroke-linejoin:round; stroke-width:4; stroke-opacity:1; fill:none" points="783.271,919.859 950.951,919.859 "/>
<polyline clip-path="url(#clip042)" style="stroke:#000000; stroke-linecap:round; stroke-linejoin:round; stroke-width:4; stroke-opacity:1; fill:none" points="867.111,1209.31 1034.79,1209.31 "/>
<polyline clip-path="url(#clip042)" style="stroke:#000000; stroke-linecap:round; stroke-linejoin:round; stroke-width:4; stroke-opacity:1; fill:none" points="950.951,671.758 1118.63,671.758 "/>
<polyline clip-path="url(#clip042)" style="stroke:#000000; stroke-linecap:round; stroke-linejoin:round; stroke-width:4; stroke-opacity:1; fill:none" points="1034.79,795.808 1202.47,795.808 "/>
<polyline clip-path="url(#clip042)" style="stroke:#000000; stroke-linecap:round; stroke-linejoin:round; stroke-width:4; stroke-opacity:1; fill:none" points="1118.63,423.656 1286.31,423.656 "/>
<polyline clip-path="url(#clip042)" style="stroke:#000000; stroke-linecap:round; stroke-linejoin:round; stroke-width:4; stroke-opacity:1; fill:none" points="1202.47,1002.56 1370.15,1002.56 "/>
<polyline clip-path="url(#clip042)" style="stroke:#000000; stroke-linecap:round; stroke-linejoin:round; stroke-width:4; stroke-opacity:1; fill:none" points="1286.31,423.656 1453.99,423.656 "/>
<polyline clip-path="url(#clip042)" style="stroke:#000000; stroke-linecap:round; stroke-linejoin:round; stroke-width:4; stroke-opacity:1; fill:none" points="1370.15,795.808 1537.83,795.808 "/>
<polyline clip-path="url(#clip042)" style="stroke:#000000; stroke-linecap:round; stroke-linejoin:round; stroke-width:4; stroke-opacity:1; fill:none" points="1453.99,961.209 1621.67,961.209 "/>
<polyline clip-path="url(#clip042)" style="stroke:#000000; stroke-linecap:round; stroke-linejoin:round; stroke-width:4; stroke-opacity:1; fill:none" points="1537.83,837.158 1705.51,837.158 "/>
<polyline clip-path="url(#clip042)" style="stroke:#000000; stroke-linecap:round; stroke-linejoin:round; stroke-width:4; stroke-opacity:1; fill:none" points="1621.67,340.956 1789.35,340.956 "/>
<polyline clip-path="url(#clip042)" style="stroke:#000000; stroke-linecap:round; stroke-linejoin:round; stroke-width:4; stroke-opacity:1; fill:none" points="1705.51,1167.96 1873.19,1167.96 "/>
<polyline clip-path="url(#clip042)" style="stroke:#000000; stroke-linecap:round; stroke-linejoin:round; stroke-width:4; stroke-opacity:1; fill:none" points="1789.35,1209.31 1957.03,1209.31 "/>
<polyline clip-path="url(#clip042)" style="stroke:#000000; stroke-linecap:round; stroke-linejoin:round; stroke-width:4; stroke-opacity:1; fill:none" points="1873.19,961.209 2040.87,961.209 "/>
<polyline clip-path="url(#clip042)" style="stroke:#000000; stroke-linecap:round; stroke-linejoin:round; stroke-width:4; stroke-opacity:1; fill:none" points="1957.03,506.357 2124.71,506.357 "/>
<polyline clip-path="url(#clip042)" style="stroke:#000000; stroke-linecap:round; stroke-linejoin:round; stroke-width:4; stroke-opacity:1; fill:none" points="2040.87,713.108 2208.55,713.108 "/>
<line clip-path="url(#clip042)" x1="364.071" y1="1018.56" x2="364.071" y2="986.559" style="stroke:#000000; stroke-width:4; stroke-opacity:1"/>
<line clip-path="url(#clip042)" x1="531.751" y1="1018.56" x2="531.751" y2="986.559" style="stroke:#000000; stroke-width:4; stroke-opacity:1"/>
<line clip-path="url(#clip042)" x1="447.911" y1="646.407" x2="447.911" y2="614.407" style="stroke:#000000; stroke-width:4; stroke-opacity:1"/>
<line clip-path="url(#clip042)" x1="615.591" y1="646.407" x2="615.591" y2="614.407" style="stroke:#000000; stroke-width:4; stroke-opacity:1"/>
<line clip-path="url(#clip042)" x1="531.751" y1="770.458" x2="531.751" y2="738.458" style="stroke:#000000; stroke-width:4; stroke-opacity:1"/>
<line clip-path="url(#clip042)" x1="699.431" y1="770.458" x2="699.431" y2="738.458" style="stroke:#000000; stroke-width:4; stroke-opacity:1"/>
<line clip-path="url(#clip042)" x1="615.591" y1="894.509" x2="615.591" y2="862.509" style="stroke:#000000; stroke-width:4; stroke-opacity:1"/>
<line clip-path="url(#clip042)" x1="783.271" y1="894.509" x2="783.271" y2="862.509" style="stroke:#000000; stroke-width:4; stroke-opacity:1"/>
<line clip-path="url(#clip042)" x1="699.431" y1="605.057" x2="699.431" y2="573.057" style="stroke:#000000; stroke-width:4; stroke-opacity:1"/>
<line clip-path="url(#clip042)" x1="867.111" y1="605.057" x2="867.111" y2="573.057" style="stroke:#000000; stroke-width:4; stroke-opacity:1"/>
<line clip-path="url(#clip042)" x1="783.271" y1="935.859" x2="783.271" y2="903.859" style="stroke:#000000; stroke-width:4; stroke-opacity:1"/>
<line clip-path="url(#clip042)" x1="950.951" y1="935.859" x2="950.951" y2="903.859" style="stroke:#000000; stroke-width:4; stroke-opacity:1"/>
<line clip-path="url(#clip042)" x1="867.111" y1="1225.31" x2="867.111" y2="1193.31" style="stroke:#000000; stroke-width:4; stroke-opacity:1"/>
<line clip-path="url(#clip042)" x1="1034.79" y1="1225.31" x2="1034.79" y2="1193.31" style="stroke:#000000; stroke-width:4; stroke-opacity:1"/>
<line clip-path="url(#clip042)" x1="950.951" y1="687.758" x2="950.951" y2="655.758" style="stroke:#000000; stroke-width:4; stroke-opacity:1"/>
<line clip-path="url(#clip042)" x1="1118.63" y1="687.758" x2="1118.63" y2="655.758" style="stroke:#000000; stroke-width:4; stroke-opacity:1"/>
<line clip-path="url(#clip042)" x1="1034.79" y1="811.808" x2="1034.79" y2="779.808" style="stroke:#000000; stroke-width:4; stroke-opacity:1"/>
<line clip-path="url(#clip042)" x1="1202.47" y1="811.808" x2="1202.47" y2="779.808" style="stroke:#000000; stroke-width:4; stroke-opacity:1"/>
<line clip-path="url(#clip042)" x1="1118.63" y1="439.656" x2="1118.63" y2="407.656" style="stroke:#000000; stroke-width:4; stroke-opacity:1"/>
<line clip-path="url(#clip042)" x1="1286.31" y1="439.656" x2="1286.31" y2="407.656" style="stroke:#000000; stroke-width:4; stroke-opacity:1"/>
<line clip-path="url(#clip042)" x1="1202.47" y1="1018.56" x2="1202.47" y2="986.559" style="stroke:#000000; stroke-width:4; stroke-opacity:1"/>
<line clip-path="url(#clip042)" x1="1370.15" y1="1018.56" x2="1370.15" y2="986.559" style="stroke:#000000; stroke-width:4; stroke-opacity:1"/>
<line clip-path="url(#clip042)" x1="1286.31" y1="439.656" x2="1286.31" y2="407.656" style="stroke:#000000; stroke-width:4; stroke-opacity:1"/>
<line clip-path="url(#clip042)" x1="1453.99" y1="439.656" x2="1453.99" y2="407.656" style="stroke:#000000; stroke-width:4; stroke-opacity:1"/>
<line clip-path="url(#clip042)" x1="1370.15" y1="811.808" x2="1370.15" y2="779.808" style="stroke:#000000; stroke-width:4; stroke-opacity:1"/>
<line clip-path="url(#clip042)" x1="1537.83" y1="811.808" x2="1537.83" y2="779.808" style="stroke:#000000; stroke-width:4; stroke-opacity:1"/>
<line clip-path="url(#clip042)" x1="1453.99" y1="977.209" x2="1453.99" y2="945.209" style="stroke:#000000; stroke-width:4; stroke-opacity:1"/>
<line clip-path="url(#clip042)" x1="1621.67" y1="977.209" x2="1621.67" y2="945.209" style="stroke:#000000; stroke-width:4; stroke-opacity:1"/>
<line clip-path="url(#clip042)" x1="1537.83" y1="853.158" x2="1537.83" y2="821.158" style="stroke:#000000; stroke-width:4; stroke-opacity:1"/>
<line clip-path="url(#clip042)" x1="1705.51" y1="853.158" x2="1705.51" y2="821.158" style="stroke:#000000; stroke-width:4; stroke-opacity:1"/>
<line clip-path="url(#clip042)" x1="1621.67" y1="356.956" x2="1621.67" y2="324.956" style="stroke:#000000; stroke-width:4; stroke-opacity:1"/>
<line clip-path="url(#clip042)" x1="1789.35" y1="356.956" x2="1789.35" y2="324.956" style="stroke:#000000; stroke-width:4; stroke-opacity:1"/>
<line clip-path="url(#clip042)" x1="1705.51" y1="1183.96" x2="1705.51" y2="1151.96" style="stroke:#000000; stroke-width:4; stroke-opacity:1"/>
<line clip-path="url(#clip042)" x1="1873.19" y1="1183.96" x2="1873.19" y2="1151.96" style="stroke:#000000; stroke-width:4; stroke-opacity:1"/>
<line clip-path="url(#clip042)" x1="1789.35" y1="1225.31" x2="1789.35" y2="1193.31" style="stroke:#000000; stroke-width:4; stroke-opacity:1"/>
<line clip-path="url(#clip042)" x1="1957.03" y1="1225.31" x2="1957.03" y2="1193.31" style="stroke:#000000; stroke-width:4; stroke-opacity:1"/>
<line clip-path="url(#clip042)" x1="1873.19" y1="977.209" x2="1873.19" y2="945.209" style="stroke:#000000; stroke-width:4; stroke-opacity:1"/>
<line clip-path="url(#clip042)" x1="2040.87" y1="977.209" x2="2040.87" y2="945.209" style="stroke:#000000; stroke-width:4; stroke-opacity:1"/>
<line clip-path="url(#clip042)" x1="1957.03" y1="522.357" x2="1957.03" y2="490.357" style="stroke:#000000; stroke-width:4; stroke-opacity:1"/>
<line clip-path="url(#clip042)" x1="2124.71" y1="522.357" x2="2124.71" y2="490.357" style="stroke:#000000; stroke-width:4; stroke-opacity:1"/>
<line clip-path="url(#clip042)" x1="2040.87" y1="729.108" x2="2040.87" y2="697.108" style="stroke:#000000; stroke-width:4; stroke-opacity:1"/>
<line clip-path="url(#clip042)" x1="2208.55" y1="729.108" x2="2208.55" y2="697.108" style="stroke:#000000; stroke-width:4; stroke-opacity:1"/>
<polyline clip-path="url(#clip042)" style="stroke:#000000; stroke-linecap:round; stroke-linejoin:round; stroke-width:4; stroke-opacity:1; fill:none" points="447.911,1196.51 447.911,808.61 "/>
<polyline clip-path="url(#clip042)" style="stroke:#000000; stroke-linecap:round; stroke-linejoin:round; stroke-width:4; stroke-opacity:1; fill:none" points="531.751,860.636 531.751,400.179 "/>
<polyline clip-path="url(#clip042)" style="stroke:#000000; stroke-linecap:round; stroke-linejoin:round; stroke-width:4; stroke-opacity:1; fill:none" points="615.591,973.263 615.591,535.653 "/>
<polyline clip-path="url(#clip042)" style="stroke:#000000; stroke-linecap:round; stroke-linejoin:round; stroke-width:4; stroke-opacity:1; fill:none" points="699.431,1085.26 699.431,671.758 "/>
<polyline clip-path="url(#clip042)" style="stroke:#000000; stroke-linecap:round; stroke-linejoin:round; stroke-width:4; stroke-opacity:1; fill:none" points="783.271,822.969 783.271,355.145 "/>
<polyline clip-path="url(#clip042)" style="stroke:#000000; stroke-linecap:round; stroke-linejoin:round; stroke-width:4; stroke-opacity:1; fill:none" points="867.111,1122.43 867.111,717.285 "/>
<polyline clip-path="url(#clip042)" style="stroke:#000000; stroke-linecap:round; stroke-linejoin:round; stroke-width:4; stroke-opacity:1; fill:none" points="950.951,1379.8 950.951,1038.82 "/>
<polyline clip-path="url(#clip042)" style="stroke:#000000; stroke-linecap:round; stroke-linejoin:round; stroke-width:4; stroke-opacity:1; fill:none" points="1034.79,898.242 1034.79,445.273 "/>
<polyline clip-path="url(#clip042)" style="stroke:#000000; stroke-linecap:round; stroke-linejoin:round; stroke-width:4; stroke-opacity:1; fill:none" points="1118.63,1010.67 1118.63,580.946 "/>
<polyline clip-path="url(#clip042)" style="stroke:#000000; stroke-linecap:round; stroke-linejoin:round; stroke-width:4; stroke-opacity:1; fill:none" points="1202.47,671.758 1202.47,175.555 "/>
<polyline clip-path="url(#clip042)" style="stroke:#000000; stroke-linecap:round; stroke-linejoin:round; stroke-width:4; stroke-opacity:1; fill:none" points="1286.31,1196.51 1286.31,808.61 "/>
<polyline clip-path="url(#clip042)" style="stroke:#000000; stroke-linecap:round; stroke-linejoin:round; stroke-width:4; stroke-opacity:1; fill:none" points="1370.15,671.758 1370.15,175.555 "/>
<polyline clip-path="url(#clip042)" style="stroke:#000000; stroke-linecap:round; stroke-linejoin:round; stroke-width:4; stroke-opacity:1; fill:none" points="1453.99,1010.67 1453.99,580.946 "/>
<polyline clip-path="url(#clip042)" style="stroke:#000000; stroke-linecap:round; stroke-linejoin:round; stroke-width:4; stroke-opacity:1; fill:none" points="1537.83,1159.52 1537.83,762.9 "/>
<polyline clip-path="url(#clip042)" style="stroke:#000000; stroke-linecap:round; stroke-linejoin:round; stroke-width:4; stroke-opacity:1; fill:none" points="1621.67,1048 1621.67,626.313 "/>
<polyline clip-path="url(#clip042)" style="stroke:#000000; stroke-linecap:round; stroke-linejoin:round; stroke-width:4; stroke-opacity:1; fill:none" points="1705.51,595.856 1705.51,86.0564 "/>
<polyline clip-path="url(#clip042)" style="stroke:#000000; stroke-linecap:round; stroke-linejoin:round; stroke-width:4; stroke-opacity:1; fill:none" points="1789.35,1343.39 1789.35,992.526 "/>
<polyline clip-path="url(#clip042)" style="stroke:#000000; stroke-linecap:round; stroke-linejoin:round; stroke-width:4; stroke-opacity:1; fill:none" points="1873.19,1379.8 1873.19,1038.82 "/>
<polyline clip-path="url(#clip042)" style="stroke:#000000; stroke-linecap:round; stroke-linejoin:round; stroke-width:4; stroke-opacity:1; fill:none" points="1957.03,1159.52 1957.03,762.9 "/>
<polyline clip-path="url(#clip042)" style="stroke:#000000; stroke-linecap:round; stroke-linejoin:round; stroke-width:4; stroke-opacity:1; fill:none" points="2040.87,747.468 2040.87,265.246 "/>
<polyline clip-path="url(#clip042)" style="stroke:#000000; stroke-linecap:round; stroke-linejoin:round; stroke-width:4; stroke-opacity:1; fill:none" points="2124.71,935.785 2124.71,490.43 "/>
<line clip-path="url(#clip042)" x1="463.911" y1="1196.51" x2="431.911" y2="1196.51" style="stroke:#000000; stroke-width:4; stroke-opacity:1"/>
<line clip-path="url(#clip042)" x1="463.911" y1="808.61" x2="431.911" y2="808.61" style="stroke:#000000; stroke-width:4; stroke-opacity:1"/>
<line clip-path="url(#clip042)" x1="547.751" y1="860.636" x2="515.751" y2="860.636" style="stroke:#000000; stroke-width:4; stroke-opacity:1"/>
<line clip-path="url(#clip042)" x1="547.751" y1="400.179" x2="515.751" y2="400.179" style="stroke:#000000; stroke-width:4; stroke-opacity:1"/>
<line clip-path="url(#clip042)" x1="631.591" y1="973.263" x2="599.591" y2="973.263" style="stroke:#000000; stroke-width:4; stroke-opacity:1"/>
<line clip-path="url(#clip042)" x1="631.591" y1="535.653" x2="599.591" y2="535.653" style="stroke:#000000; stroke-width:4; stroke-opacity:1"/>
<line clip-path="url(#clip042)" x1="715.431" y1="1085.26" x2="683.431" y2="1085.26" style="stroke:#000000; stroke-width:4; stroke-opacity:1"/>
<line clip-path="url(#clip042)" x1="715.431" y1="671.758" x2="683.431" y2="671.758" style="stroke:#000000; stroke-width:4; stroke-opacity:1"/>
<line clip-path="url(#clip042)" x1="799.271" y1="822.969" x2="767.271" y2="822.969" style="stroke:#000000; stroke-width:4; stroke-opacity:1"/>
<line clip-path="url(#clip042)" x1="799.271" y1="355.145" x2="767.271" y2="355.145" style="stroke:#000000; stroke-width:4; stroke-opacity:1"/>
<line clip-path="url(#clip042)" x1="883.111" y1="1122.43" x2="851.111" y2="1122.43" style="stroke:#000000; stroke-width:4; stroke-opacity:1"/>
<line clip-path="url(#clip042)" x1="883.111" y1="717.285" x2="851.111" y2="717.285" style="stroke:#000000; stroke-width:4; stroke-opacity:1"/>
<line clip-path="url(#clip042)" x1="966.951" y1="1379.8" x2="934.951" y2="1379.8" style="stroke:#000000; stroke-width:4; stroke-opacity:1"/>
<line clip-path="url(#clip042)" x1="966.951" y1="1038.82" x2="934.951" y2="1038.82" style="stroke:#000000; stroke-width:4; stroke-opacity:1"/>
<line clip-path="url(#clip042)" x1="1050.79" y1="898.242" x2="1018.79" y2="898.242" style="stroke:#000000; stroke-width:4; stroke-opacity:1"/>
<line clip-path="url(#clip042)" x1="1050.79" y1="445.273" x2="1018.79" y2="445.273" style="stroke:#000000; stroke-width:4; stroke-opacity:1"/>
<line clip-path="url(#clip042)" x1="1134.63" y1="1010.67" x2="1102.63" y2="1010.67" style="stroke:#000000; stroke-width:4; stroke-opacity:1"/>
<line clip-path="url(#clip042)" x1="1134.63" y1="580.946" x2="1102.63" y2="580.946" style="stroke:#000000; stroke-width:4; stroke-opacity:1"/>
<line clip-path="url(#clip042)" x1="1218.47" y1="671.758" x2="1186.47" y2="671.758" style="stroke:#000000; stroke-width:4; stroke-opacity:1"/>
<line clip-path="url(#clip042)" x1="1218.47" y1="175.555" x2="1186.47" y2="175.555" style="stroke:#000000; stroke-width:4; stroke-opacity:1"/>
<line clip-path="url(#clip042)" x1="1302.31" y1="1196.51" x2="1270.31" y2="1196.51" style="stroke:#000000; stroke-width:4; stroke-opacity:1"/>
<line clip-path="url(#clip042)" x1="1302.31" y1="808.61" x2="1270.31" y2="808.61" style="stroke:#000000; stroke-width:4; stroke-opacity:1"/>
<line clip-path="url(#clip042)" x1="1386.15" y1="671.758" x2="1354.15" y2="671.758" style="stroke:#000000; stroke-width:4; stroke-opacity:1"/>
<line clip-path="url(#clip042)" x1="1386.15" y1="175.555" x2="1354.15" y2="175.555" style="stroke:#000000; stroke-width:4; stroke-opacity:1"/>
<line clip-path="url(#clip042)" x1="1469.99" y1="1010.67" x2="1437.99" y2="1010.67" style="stroke:#000000; stroke-width:4; stroke-opacity:1"/>
<line clip-path="url(#clip042)" x1="1469.99" y1="580.946" x2="1437.99" y2="580.946" style="stroke:#000000; stroke-width:4; stroke-opacity:1"/>
<line clip-path="url(#clip042)" x1="1553.83" y1="1159.52" x2="1521.83" y2="1159.52" style="stroke:#000000; stroke-width:4; stroke-opacity:1"/>
<line clip-path="url(#clip042)" x1="1553.83" y1="762.9" x2="1521.83" y2="762.9" style="stroke:#000000; stroke-width:4; stroke-opacity:1"/>
<line clip-path="url(#clip042)" x1="1637.67" y1="1048" x2="1605.67" y2="1048" style="stroke:#000000; stroke-width:4; stroke-opacity:1"/>
<line clip-path="url(#clip042)" x1="1637.67" y1="626.313" x2="1605.67" y2="626.313" style="stroke:#000000; stroke-width:4; stroke-opacity:1"/>
<line clip-path="url(#clip042)" x1="1721.51" y1="595.856" x2="1689.51" y2="595.856" style="stroke:#000000; stroke-width:4; stroke-opacity:1"/>
<line clip-path="url(#clip042)" x1="1721.51" y1="86.0564" x2="1689.51" y2="86.0564" style="stroke:#000000; stroke-width:4; stroke-opacity:1"/>
<line clip-path="url(#clip042)" x1="1805.35" y1="1343.39" x2="1773.35" y2="1343.39" style="stroke:#000000; stroke-width:4; stroke-opacity:1"/>
<line clip-path="url(#clip042)" x1="1805.35" y1="992.526" x2="1773.35" y2="992.526" style="stroke:#000000; stroke-width:4; stroke-opacity:1"/>
<line clip-path="url(#clip042)" x1="1889.19" y1="1379.8" x2="1857.19" y2="1379.8" style="stroke:#000000; stroke-width:4; stroke-opacity:1"/>
<line clip-path="url(#clip042)" x1="1889.19" y1="1038.82" x2="1857.19" y2="1038.82" style="stroke:#000000; stroke-width:4; stroke-opacity:1"/>
<line clip-path="url(#clip042)" x1="1973.03" y1="1159.52" x2="1941.03" y2="1159.52" style="stroke:#000000; stroke-width:4; stroke-opacity:1"/>
<line clip-path="url(#clip042)" x1="1973.03" y1="762.9" x2="1941.03" y2="762.9" style="stroke:#000000; stroke-width:4; stroke-opacity:1"/>
<line clip-path="url(#clip042)" x1="2056.87" y1="747.468" x2="2024.87" y2="747.468" style="stroke:#000000; stroke-width:4; stroke-opacity:1"/>
<line clip-path="url(#clip042)" x1="2056.87" y1="265.246" x2="2024.87" y2="265.246" style="stroke:#000000; stroke-width:4; stroke-opacity:1"/>
<line clip-path="url(#clip042)" x1="2140.71" y1="935.785" x2="2108.71" y2="935.785" style="stroke:#000000; stroke-width:4; stroke-opacity:1"/>
<line clip-path="url(#clip042)" x1="2140.71" y1="490.43" x2="2108.71" y2="490.43" style="stroke:#000000; stroke-width:4; stroke-opacity:1"/>
<circle clip-path="url(#clip042)" cx="447.911" cy="1002.56" r="14.4" fill="#009af9" fill-rule="evenodd" fill-opacity="1" stroke="#000000" stroke-opacity="1" stroke-width="3.2"/>
<circle clip-path="url(#clip042)" cx="531.751" cy="630.407" r="14.4" fill="#009af9" fill-rule="evenodd" fill-opacity="1" stroke="#000000" stroke-opacity="1" stroke-width="3.2"/>
<circle clip-path="url(#clip042)" cx="615.591" cy="754.458" r="14.4" fill="#009af9" fill-rule="evenodd" fill-opacity="1" stroke="#000000" stroke-opacity="1" stroke-width="3.2"/>
<circle clip-path="url(#clip042)" cx="699.431" cy="878.509" r="14.4" fill="#009af9" fill-rule="evenodd" fill-opacity="1" stroke="#000000" stroke-opacity="1" stroke-width="3.2"/>
<circle clip-path="url(#clip042)" cx="783.271" cy="589.057" r="14.4" fill="#009af9" fill-rule="evenodd" fill-opacity="1" stroke="#000000" stroke-opacity="1" stroke-width="3.2"/>
<circle clip-path="url(#clip042)" cx="867.111" cy="919.859" r="14.4" fill="#009af9" fill-rule="evenodd" fill-opacity="1" stroke="#000000" stroke-opacity="1" stroke-width="3.2"/>
<circle clip-path="url(#clip042)" cx="950.951" cy="1209.31" r="14.4" fill="#009af9" fill-rule="evenodd" fill-opacity="1" stroke="#000000" stroke-opacity="1" stroke-width="3.2"/>
<circle clip-path="url(#clip042)" cx="1034.79" cy="671.758" r="14.4" fill="#009af9" fill-rule="evenodd" fill-opacity="1" stroke="#000000" stroke-opacity="1" stroke-width="3.2"/>
<circle clip-path="url(#clip042)" cx="1118.63" cy="795.808" r="14.4" fill="#009af9" fill-rule="evenodd" fill-opacity="1" stroke="#000000" stroke-opacity="1" stroke-width="3.2"/>
<circle clip-path="url(#clip042)" cx="1202.47" cy="423.656" r="14.4" fill="#009af9" fill-rule="evenodd" fill-opacity="1" stroke="#000000" stroke-opacity="1" stroke-width="3.2"/>
<circle clip-path="url(#clip042)" cx="1286.31" cy="1002.56" r="14.4" fill="#009af9" fill-rule="evenodd" fill-opacity="1" stroke="#000000" stroke-opacity="1" stroke-width="3.2"/>
<circle clip-path="url(#clip042)" cx="1370.15" cy="423.656" r="14.4" fill="#009af9" fill-rule="evenodd" fill-opacity="1" stroke="#000000" stroke-opacity="1" stroke-width="3.2"/>
<circle clip-path="url(#clip042)" cx="1453.99" cy="795.808" r="14.4" fill="#009af9" fill-rule="evenodd" fill-opacity="1" stroke="#000000" stroke-opacity="1" stroke-width="3.2"/>
<circle clip-path="url(#clip042)" cx="1537.83" cy="961.209" r="14.4" fill="#009af9" fill-rule="evenodd" fill-opacity="1" stroke="#000000" stroke-opacity="1" stroke-width="3.2"/>
<circle clip-path="url(#clip042)" cx="1621.67" cy="837.158" r="14.4" fill="#009af9" fill-rule="evenodd" fill-opacity="1" stroke="#000000" stroke-opacity="1" stroke-width="3.2"/>
<circle clip-path="url(#clip042)" cx="1705.51" cy="340.956" r="14.4" fill="#009af9" fill-rule="evenodd" fill-opacity="1" stroke="#000000" stroke-opacity="1" stroke-width="3.2"/>
<circle clip-path="url(#clip042)" cx="1789.35" cy="1167.96" r="14.4" fill="#009af9" fill-rule="evenodd" fill-opacity="1" stroke="#000000" stroke-opacity="1" stroke-width="3.2"/>
<circle clip-path="url(#clip042)" cx="1873.19" cy="1209.31" r="14.4" fill="#009af9" fill-rule="evenodd" fill-opacity="1" stroke="#000000" stroke-opacity="1" stroke-width="3.2"/>
<circle clip-path="url(#clip042)" cx="1957.03" cy="961.209" r="14.4" fill="#009af9" fill-rule="evenodd" fill-opacity="1" stroke="#000000" stroke-opacity="1" stroke-width="3.2"/>
<circle clip-path="url(#clip042)" cx="2040.87" cy="506.357" r="14.4" fill="#009af9" fill-rule="evenodd" fill-opacity="1" stroke="#000000" stroke-opacity="1" stroke-width="3.2"/>
<circle clip-path="url(#clip042)" cx="2124.71" cy="713.108" r="14.4" fill="#009af9" fill-rule="evenodd" fill-opacity="1" stroke="#000000" stroke-opacity="1" stroke-width="3.2"/>
<polyline clip-path="url(#clip042)" style="stroke:#0000ff; stroke-linecap:round; stroke-linejoin:round; stroke-width:4; stroke-opacity:0.5; fill:none" points="280.231,799.746 2292.39,799.746 "/>
<path clip-path="url(#clip040)" d="M290.963 248.476 L781.935 248.476 L781.935 92.9564 L290.963 92.9564  Z" fill="#ffffff" fill-rule="evenodd" fill-opacity="1"/>
<polyline clip-path="url(#clip040)" style="stroke:#000000; stroke-linecap:round; stroke-linejoin:round; stroke-width:4; stroke-opacity:1; fill:none" points="290.963,248.476 781.935,248.476 781.935,92.9564 290.963,92.9564 290.963,248.476 "/>
<circle clip-path="url(#clip040)" cx="385.758" cy="144.796" r="20.48" fill="#009af9" fill-rule="evenodd" fill-opacity="1" stroke="#000000" stroke-opacity="1" stroke-width="4.55111"/>
<path clip-path="url(#clip040)" d="M480.553 127.516 L487.52 127.516 L496.34 151.035 L505.205 127.516 L512.173 127.516 L512.173 162.076 L507.613 162.076 L507.613 131.729 L498.701 155.433 L494.002 155.433 L485.09 131.729 L485.09 162.076 L480.553 162.076 L480.553 127.516 Z" fill="#000000" fill-rule="nonzero" fill-opacity="1" /><path clip-path="url(#clip040)" d="M543.446 148.049 L543.446 150.132 L523.863 150.132 Q524.141 154.53 526.502 156.845 Q528.886 159.137 533.122 159.137 Q535.576 159.137 537.867 158.535 Q540.182 157.933 542.451 156.729 L542.451 160.757 Q540.159 161.729 537.752 162.238 Q535.344 162.748 532.867 162.748 Q526.664 162.748 523.029 159.137 Q519.418 155.526 519.418 149.368 Q519.418 143.002 522.844 139.276 Q526.293 135.526 532.127 135.526 Q537.358 135.526 540.39 138.905 Q543.446 142.262 543.446 148.049 M539.187 146.799 Q539.14 143.303 537.219 141.22 Q535.321 139.137 532.173 139.137 Q528.608 139.137 526.455 141.151 Q524.326 143.164 524.002 146.822 L539.187 146.799 Z" fill="#000000" fill-rule="nonzero" fill-opacity="1" /><path clip-path="url(#clip040)" d="M566.964 136.915 L566.964 140.942 Q565.159 140.016 563.214 139.553 Q561.27 139.09 559.187 139.09 Q556.015 139.09 554.418 140.063 Q552.844 141.035 552.844 142.979 Q552.844 144.461 553.978 145.317 Q555.113 146.151 558.538 146.914 L559.997 147.239 Q564.534 148.211 566.432 149.993 Q568.353 151.752 568.353 154.924 Q568.353 158.535 565.483 160.641 Q562.636 162.748 557.636 162.748 Q555.552 162.748 553.284 162.331 Q551.039 161.938 548.539 161.127 L548.539 156.729 Q550.9 157.956 553.191 158.581 Q555.483 159.183 557.728 159.183 Q560.738 159.183 562.358 158.164 Q563.978 157.123 563.978 155.248 Q563.978 153.512 562.798 152.586 Q561.64 151.66 557.682 150.803 L556.201 150.456 Q552.242 149.623 550.483 147.91 Q548.724 146.174 548.724 143.164 Q548.724 139.507 551.316 137.516 Q553.909 135.526 558.677 135.526 Q561.038 135.526 563.122 135.873 Q565.205 136.22 566.964 136.915 Z" fill="#000000" fill-rule="nonzero" fill-opacity="1" /><path clip-path="url(#clip040)" d="M591.663 136.915 L591.663 140.942 Q589.858 140.016 587.913 139.553 Q585.969 139.09 583.886 139.09 Q580.714 139.09 579.117 140.063 Q577.543 141.035 577.543 142.979 Q577.543 144.461 578.677 145.317 Q579.812 146.151 583.237 146.914 L584.696 147.239 Q589.233 148.211 591.131 149.993 Q593.052 151.752 593.052 154.924 Q593.052 158.535 590.182 160.641 Q587.335 162.748 582.335 162.748 Q580.251 162.748 577.983 162.331 Q575.737 161.938 573.237 161.127 L573.237 156.729 Q575.599 157.956 577.89 158.581 Q580.182 159.183 582.427 159.183 Q585.436 159.183 587.057 158.164 Q588.677 157.123 588.677 155.248 Q588.677 153.512 587.497 152.586 Q586.339 151.66 582.381 150.803 L580.899 150.456 Q576.941 149.623 575.182 147.91 Q573.423 146.174 573.423 143.164 Q573.423 139.507 576.015 137.516 Q578.608 135.526 583.376 135.526 Q585.737 135.526 587.821 135.873 Q589.904 136.22 591.663 136.915 Z" fill="#000000" fill-rule="nonzero" fill-opacity="1" /><path clip-path="url(#clip040)" d="M603.955 158.188 L603.955 171.937 L599.673 171.937 L599.673 136.151 L603.955 136.151 L603.955 140.086 Q605.297 137.771 607.335 136.66 Q609.395 135.526 612.242 135.526 Q616.964 135.526 619.904 139.276 Q622.867 143.026 622.867 149.137 Q622.867 155.248 619.904 158.998 Q616.964 162.748 612.242 162.748 Q609.395 162.748 607.335 161.637 Q605.297 160.502 603.955 158.188 M618.446 149.137 Q618.446 144.438 616.501 141.776 Q614.58 139.09 611.2 139.09 Q607.821 139.09 605.876 141.776 Q603.955 144.438 603.955 149.137 Q603.955 153.836 605.876 156.521 Q607.821 159.183 611.2 159.183 Q614.58 159.183 616.501 156.521 Q618.446 153.836 618.446 149.137 Z" fill="#000000" fill-rule="nonzero" fill-opacity="1" /><path clip-path="url(#clip040)" d="M629.487 151.845 L629.487 136.151 L633.746 136.151 L633.746 151.683 Q633.746 155.363 635.182 157.215 Q636.617 159.044 639.487 159.044 Q642.936 159.044 644.927 156.845 Q646.941 154.646 646.941 150.85 L646.941 136.151 L651.2 136.151 L651.2 162.076 L646.941 162.076 L646.941 158.095 Q645.39 160.456 643.33 161.613 Q641.293 162.748 638.584 162.748 Q634.117 162.748 631.802 159.97 Q629.487 157.192 629.487 151.845 M640.205 135.526 L640.205 135.526 Z" fill="#000000" fill-rule="nonzero" fill-opacity="1" /><path clip-path="url(#clip040)" d="M681.524 146.428 L681.524 162.076 L677.265 162.076 L677.265 146.567 Q677.265 142.887 675.83 141.058 Q674.394 139.229 671.524 139.229 Q668.075 139.229 666.084 141.428 Q664.093 143.627 664.093 147.424 L664.093 162.076 L659.811 162.076 L659.811 136.151 L664.093 136.151 L664.093 140.178 Q665.621 137.84 667.681 136.683 Q669.765 135.526 672.473 135.526 Q676.941 135.526 679.232 138.303 Q681.524 141.058 681.524 146.428 Z" fill="#000000" fill-rule="nonzero" fill-opacity="1" /><path clip-path="url(#clip040)" d="M689.857 126.058 L694.14 126.058 L694.14 147.331 L706.848 136.151 L712.288 136.151 L698.538 148.28 L712.866 162.076 L707.311 162.076 L694.14 149.414 L694.14 162.076 L689.857 162.076 L689.857 126.058 Z" fill="#000000" fill-rule="nonzero" fill-opacity="1" /><path clip-path="url(#clip040)" d="M721.686 128.79 L721.686 136.151 L730.459 136.151 L730.459 139.461 L721.686 139.461 L721.686 153.535 Q721.686 156.706 722.542 157.609 Q723.422 158.512 726.084 158.512 L730.459 158.512 L730.459 162.076 L726.084 162.076 Q721.153 162.076 719.278 160.248 Q717.403 158.396 717.403 153.535 L717.403 139.461 L714.278 139.461 L714.278 136.151 L717.403 136.151 L717.403 128.79 L721.686 128.79 Z" fill="#000000" fill-rule="nonzero" fill-opacity="1" /><path clip-path="url(#clip040)" d="M758.236 148.049 L758.236 150.132 L738.653 150.132 Q738.931 154.53 741.292 156.845 Q743.676 159.137 747.912 159.137 Q750.366 159.137 752.658 158.535 Q754.973 157.933 757.241 156.729 L757.241 160.757 Q754.949 161.729 752.542 162.238 Q750.135 162.748 747.658 162.748 Q741.454 162.748 737.82 159.137 Q734.209 155.526 734.209 149.368 Q734.209 143.002 737.635 139.276 Q741.084 135.526 746.917 135.526 Q752.149 135.526 755.181 138.905 Q758.236 142.262 758.236 148.049 M753.977 146.799 Q753.931 143.303 752.01 141.22 Q750.112 139.137 746.963 139.137 Q743.399 139.137 741.246 141.151 Q739.116 143.164 738.792 146.822 L753.977 146.799 Z" fill="#000000" fill-rule="nonzero" fill-opacity="1" /><polyline clip-path="url(#clip040)" style="stroke:#0000ff; stroke-linecap:round; stroke-linejoin:round; stroke-width:4; stroke-opacity:0.5; fill:none" points="314.661,196.636 456.854,196.636 "/>
<path clip-path="url(#clip040)" d="M480.553 179.356 L487.52 179.356 L496.34 202.875 L505.205 179.356 L512.173 179.356 L512.173 213.916 L507.613 213.916 L507.613 183.569 L498.701 207.273 L494.002 207.273 L485.09 183.569 L485.09 213.916 L480.553 213.916 L480.553 179.356 Z" fill="#000000" fill-rule="nonzero" fill-opacity="1" /><path clip-path="url(#clip040)" d="M521.27 187.991 L525.529 187.991 L525.529 213.916 L521.27 213.916 L521.27 187.991 M521.27 177.898 L525.529 177.898 L525.529 183.292 L521.27 183.292 L521.27 177.898 Z" fill="#000000" fill-rule="nonzero" fill-opacity="1" /><path clip-path="url(#clip040)" d="M538.654 180.63 L538.654 187.991 L547.427 187.991 L547.427 191.301 L538.654 191.301 L538.654 205.375 Q538.654 208.546 539.511 209.449 Q540.39 210.352 543.052 210.352 L547.427 210.352 L547.427 213.916 L543.052 213.916 Q538.122 213.916 536.247 212.088 Q534.372 210.236 534.372 205.375 L534.372 191.301 L531.247 191.301 L531.247 187.991 L534.372 187.991 L534.372 180.63 L538.654 180.63 Z" fill="#000000" fill-rule="nonzero" fill-opacity="1" /><path clip-path="url(#clip040)" d="M557.242 180.63 L557.242 187.991 L566.015 187.991 L566.015 191.301 L557.242 191.301 L557.242 205.375 Q557.242 208.546 558.099 209.449 Q558.978 210.352 561.64 210.352 L566.015 210.352 L566.015 213.916 L561.64 213.916 Q556.71 213.916 554.835 212.088 Q552.96 210.236 552.96 205.375 L552.96 191.301 L549.835 191.301 L549.835 187.991 L552.96 187.991 L552.96 180.63 L557.242 180.63 Z" fill="#000000" fill-rule="nonzero" fill-opacity="1" /><path clip-path="url(#clip040)" d="M593.793 199.889 L593.793 201.972 L574.21 201.972 Q574.487 206.37 576.849 208.685 Q579.233 210.977 583.469 210.977 Q585.923 210.977 588.214 210.375 Q590.529 209.773 592.798 208.569 L592.798 212.597 Q590.506 213.569 588.098 214.078 Q585.691 214.588 583.214 214.588 Q577.011 214.588 573.376 210.977 Q569.765 207.366 569.765 201.208 Q569.765 194.842 573.191 191.116 Q576.64 187.366 582.474 187.366 Q587.705 187.366 590.737 190.745 Q593.793 194.102 593.793 199.889 M589.534 198.639 Q589.487 195.143 587.566 193.06 Q585.668 190.977 582.52 190.977 Q578.955 190.977 576.802 192.991 Q574.673 195.004 574.349 198.662 L589.534 198.639 Z" fill="#000000" fill-rule="nonzero" fill-opacity="1" /><path clip-path="url(#clip040)" d="M600.784 177.898 L605.043 177.898 L605.043 213.916 L600.784 213.916 L600.784 177.898 Z" fill="#000000" fill-rule="nonzero" fill-opacity="1" /><path clip-path="url(#clip040)" d="M611.478 187.991 L615.737 187.991 L621.061 208.222 L626.362 187.991 L631.385 187.991 L636.709 208.222 L642.01 187.991 L646.269 187.991 L639.487 213.916 L634.464 213.916 L628.885 192.667 L623.283 213.916 L618.26 213.916 L611.478 187.991 Z" fill="#000000" fill-rule="nonzero" fill-opacity="1" /><path clip-path="url(#clip040)" d="M674.904 199.889 L674.904 201.972 L655.32 201.972 Q655.598 206.37 657.959 208.685 Q660.343 210.977 664.58 210.977 Q667.033 210.977 669.325 210.375 Q671.64 209.773 673.908 208.569 L673.908 212.597 Q671.617 213.569 669.209 214.078 Q666.802 214.588 664.325 214.588 Q658.121 214.588 654.487 210.977 Q650.876 207.366 650.876 201.208 Q650.876 194.842 654.302 191.116 Q657.751 187.366 663.584 187.366 Q668.816 187.366 671.848 190.745 Q674.904 194.102 674.904 199.889 M670.644 198.639 Q670.598 195.143 668.677 193.06 Q666.779 190.977 663.631 190.977 Q660.066 190.977 657.913 192.991 Q655.783 195.004 655.459 198.662 L670.644 198.639 Z" fill="#000000" fill-rule="nonzero" fill-opacity="1" /><path clip-path="url(#clip040)" d="M696.917 191.972 Q696.2 191.555 695.343 191.37 Q694.51 191.162 693.491 191.162 Q689.88 191.162 687.936 193.523 Q686.015 195.861 686.015 200.259 L686.015 213.916 L681.732 213.916 L681.732 187.991 L686.015 187.991 L686.015 192.018 Q687.357 189.657 689.51 188.523 Q691.663 187.366 694.741 187.366 Q695.181 187.366 695.714 187.435 Q696.246 187.481 696.894 187.597 L696.917 191.972 Z" fill="#000000" fill-rule="nonzero" fill-opacity="1" /><path clip-path="url(#clip040)" d="M705.598 180.63 L705.598 187.991 L714.371 187.991 L714.371 191.301 L705.598 191.301 L705.598 205.375 Q705.598 208.546 706.454 209.449 Q707.334 210.352 709.996 210.352 L714.371 210.352 L714.371 213.916 L709.996 213.916 Q705.065 213.916 703.19 212.088 Q701.315 210.236 701.315 205.375 L701.315 191.301 L698.191 191.301 L698.191 187.991 L701.315 187.991 L701.315 180.63 L705.598 180.63 Z" fill="#000000" fill-rule="nonzero" fill-opacity="1" /></svg>
