<?xml version="1.0" encoding="utf-8" standalone="no"?>
<!DOCTYPE svg PUBLIC "-//W3C//DTD SVG 1.1//EN"
  "http://www.w3.org/Graphics/SVG/1.1/DTD/svg11.dtd">
<svg xmlns:xlink="http://www.w3.org/1999/xlink" width="426.512187pt" height="321.935647pt" viewBox="0 0 426.512187 321.935647" xmlns="http://www.w3.org/2000/svg" version="1.1">
 <metadata>
  <rdf:RDF xmlns:dc="http://purl.org/dc/elements/1.1/" xmlns:cc="http://creativecommons.org/ns#" xmlns:rdf="http://www.w3.org/1999/02/22-rdf-syntax-ns#">
   <cc:Work>
    <dc:type rdf:resource="http://purl.org/dc/dcmitype/StillImage"/>
    <dc:date>2024-02-01T11:32:49.523373</dc:date>
    <dc:format>image/svg+xml</dc:format>
    <dc:creator>
     <cc:Agent>
      <dc:title>Matplotlib v3.8.2, https://matplotlib.org/</dc:title>
     </cc:Agent>
    </dc:creator>
   </cc:Work>
  </rdf:RDF>
 </metadata>
 <defs>
  <style type="text/css">*{stroke-linejoin: round; stroke-linecap: butt}</style>
 </defs>
 <g id="figure_1">
  <g id="patch_1">
   <path d="M 0 321.935647 
L 426.512187 321.935647 
L 426.512187 0 
L 0 0 
z
" style="fill: #ffffff"/>
  </g>
  <g id="axes_1">
   <g id="patch_2">
    <path d="M 62.192188 275.92971 
L 419.312188 275.92971 
L 419.312188 9.81771 
L 62.192188 9.81771 
z
" style="fill: #ffffff"/>
   </g>
   <g id="matplotlib.axis_1">
    <g id="xtick_1">
     <g id="line2d_1">
      <path d="M 86.8575 275.92971 
L 86.8575 9.81771 
" clip-path="url(#pe12940b4f3)" style="fill: none; stroke: #cccccc; stroke-width: 0.8; stroke-linecap: round"/>
     </g>
     <g id="text_1">
      <!-- 0 -->
      <g style="fill: #262626" transform="translate(83.358125 292.587991) scale(0.11 -0.11)">
       <defs>
        <path id="DejaVuSans-30" d="M 2034 4250 
Q 1547 4250 1301 3770 
Q 1056 3291 1056 2328 
Q 1056 1369 1301 889 
Q 1547 409 2034 409 
Q 2525 409 2770 889 
Q 3016 1369 3016 2328 
Q 3016 3291 2770 3770 
Q 2525 4250 2034 4250 
z
M 2034 4750 
Q 2819 4750 3233 4129 
Q 3647 3509 3647 2328 
Q 3647 1150 3233 529 
Q 2819 -91 2034 -91 
Q 1250 -91 836 529 
Q 422 1150 422 2328 
Q 422 3509 836 4129 
Q 1250 4750 2034 4750 
z
" transform="scale(0.015625)"/>
       </defs>
       <use xlink:href="#DejaVuSans-30"/>
      </g>
     </g>
    </g>
    <g id="xtick_2">
     <g id="line2d_2">
      <path d="M 145.295182 275.92971 
L 145.295182 9.81771 
" clip-path="url(#pe12940b4f3)" style="fill: none; stroke: #cccccc; stroke-width: 0.8; stroke-linecap: round"/>
     </g>
     <g id="text_2">
      <!-- 100 -->
      <g style="fill: #262626" transform="translate(134.797057 292.587991) scale(0.11 -0.11)">
       <defs>
        <path id="DejaVuSans-31" d="M 794 531 
L 1825 531 
L 1825 4091 
L 703 3866 
L 703 4441 
L 1819 4666 
L 2450 4666 
L 2450 531 
L 3481 531 
L 3481 0 
L 794 0 
L 794 531 
z
" transform="scale(0.015625)"/>
       </defs>
       <use xlink:href="#DejaVuSans-31"/>
       <use xlink:href="#DejaVuSans-30" x="63.623047"/>
       <use xlink:href="#DejaVuSans-30" x="127.246094"/>
      </g>
     </g>
    </g>
    <g id="xtick_3">
     <g id="line2d_3">
      <path d="M 203.732863 275.92971 
L 203.732863 9.81771 
" clip-path="url(#pe12940b4f3)" style="fill: none; stroke: #cccccc; stroke-width: 0.8; stroke-linecap: round"/>
     </g>
     <g id="text_3">
      <!-- 200 -->
      <g style="fill: #262626" transform="translate(193.234738 292.587991) scale(0.11 -0.11)">
       <defs>
        <path id="DejaVuSans-32" d="M 1228 531 
L 3431 531 
L 3431 0 
L 469 0 
L 469 531 
Q 828 903 1448 1529 
Q 2069 2156 2228 2338 
Q 2531 2678 2651 2914 
Q 2772 3150 2772 3378 
Q 2772 3750 2511 3984 
Q 2250 4219 1831 4219 
Q 1534 4219 1204 4116 
Q 875 4013 500 3803 
L 500 4441 
Q 881 4594 1212 4672 
Q 1544 4750 1819 4750 
Q 2544 4750 2975 4387 
Q 3406 4025 3406 3419 
Q 3406 3131 3298 2873 
Q 3191 2616 2906 2266 
Q 2828 2175 2409 1742 
Q 1991 1309 1228 531 
z
" transform="scale(0.015625)"/>
       </defs>
       <use xlink:href="#DejaVuSans-32"/>
       <use xlink:href="#DejaVuSans-30" x="63.623047"/>
       <use xlink:href="#DejaVuSans-30" x="127.246094"/>
      </g>
     </g>
    </g>
    <g id="xtick_4">
     <g id="line2d_4">
      <path d="M 262.170545 275.92971 
L 262.170545 9.81771 
" clip-path="url(#pe12940b4f3)" style="fill: none; stroke: #cccccc; stroke-width: 0.8; stroke-linecap: round"/>
     </g>
     <g id="text_4">
      <!-- 300 -->
      <g style="fill: #262626" transform="translate(251.67242 292.587991) scale(0.11 -0.11)">
       <defs>
        <path id="DejaVuSans-33" d="M 2597 2516 
Q 3050 2419 3304 2112 
Q 3559 1806 3559 1356 
Q 3559 666 3084 287 
Q 2609 -91 1734 -91 
Q 1441 -91 1130 -33 
Q 819 25 488 141 
L 488 750 
Q 750 597 1062 519 
Q 1375 441 1716 441 
Q 2309 441 2620 675 
Q 2931 909 2931 1356 
Q 2931 1769 2642 2001 
Q 2353 2234 1838 2234 
L 1294 2234 
L 1294 2753 
L 1863 2753 
Q 2328 2753 2575 2939 
Q 2822 3125 2822 3475 
Q 2822 3834 2567 4026 
Q 2313 4219 1838 4219 
Q 1578 4219 1281 4162 
Q 984 4106 628 3988 
L 628 4550 
Q 988 4650 1302 4700 
Q 1616 4750 1894 4750 
Q 2613 4750 3031 4423 
Q 3450 4097 3450 3541 
Q 3450 3153 3228 2886 
Q 3006 2619 2597 2516 
z
" transform="scale(0.015625)"/>
       </defs>
       <use xlink:href="#DejaVuSans-33"/>
       <use xlink:href="#DejaVuSans-30" x="63.623047"/>
       <use xlink:href="#DejaVuSans-30" x="127.246094"/>
      </g>
     </g>
    </g>
    <g id="xtick_5">
     <g id="line2d_5">
      <path d="M 320.608226 275.92971 
L 320.608226 9.81771 
" clip-path="url(#pe12940b4f3)" style="fill: none; stroke: #cccccc; stroke-width: 0.8; stroke-linecap: round"/>
     </g>
     <g id="text_5">
      <!-- 400 -->
      <g style="fill: #262626" transform="translate(310.110101 292.587991) scale(0.11 -0.11)">
       <defs>
        <path id="DejaVuSans-34" d="M 2419 4116 
L 825 1625 
L 2419 1625 
L 2419 4116 
z
M 2253 4666 
L 3047 4666 
L 3047 1625 
L 3713 1625 
L 3713 1100 
L 3047 1100 
L 3047 0 
L 2419 0 
L 2419 1100 
L 313 1100 
L 313 1709 
L 2253 4666 
z
" transform="scale(0.015625)"/>
       </defs>
       <use xlink:href="#DejaVuSans-34"/>
       <use xlink:href="#DejaVuSans-30" x="63.623047"/>
       <use xlink:href="#DejaVuSans-30" x="127.246094"/>
      </g>
     </g>
    </g>
    <g id="xtick_6">
     <g id="line2d_6">
      <path d="M 379.045908 275.92971 
L 379.045908 9.81771 
" clip-path="url(#pe12940b4f3)" style="fill: none; stroke: #cccccc; stroke-width: 0.8; stroke-linecap: round"/>
     </g>
     <g id="text_6">
      <!-- 500 -->
      <g style="fill: #262626" transform="translate(368.547783 292.587991) scale(0.11 -0.11)">
       <defs>
        <path id="DejaVuSans-35" d="M 691 4666 
L 3169 4666 
L 3169 4134 
L 1269 4134 
L 1269 2991 
Q 1406 3038 1543 3061 
Q 1681 3084 1819 3084 
Q 2600 3084 3056 2656 
Q 3513 2228 3513 1497 
Q 3513 744 3044 326 
Q 2575 -91 1722 -91 
Q 1428 -91 1123 -41 
Q 819 9 494 109 
L 494 744 
Q 775 591 1075 516 
Q 1375 441 1709 441 
Q 2250 441 2565 725 
Q 2881 1009 2881 1497 
Q 2881 1984 2565 2268 
Q 2250 2553 1709 2553 
Q 1456 2553 1204 2497 
Q 953 2441 691 2322 
L 691 4666 
z
" transform="scale(0.015625)"/>
       </defs>
       <use xlink:href="#DejaVuSans-35"/>
       <use xlink:href="#DejaVuSans-30" x="63.623047"/>
       <use xlink:href="#DejaVuSans-30" x="127.246094"/>
      </g>
     </g>
    </g>
    <g id="text_7">
     <!-- $H$ in $\frac{A}{m}$ -->
     <g style="fill: #262626" transform="translate(220.537188 311.225647) scale(0.13 -0.13)">
      <defs>
       <path id="DejaVuSans-Oblique-48" d="M 1081 4666 
L 1716 4666 
L 1344 2753 
L 3634 2753 
L 4006 4666 
L 4641 4666 
L 3731 0 
L 3097 0 
L 3531 2222 
L 1241 2222 
L 806 0 
L 172 0 
L 1081 4666 
z
" transform="scale(0.015625)"/>
       <path id="DejaVuSans-20" transform="scale(0.015625)"/>
       <path id="DejaVuSans-69" d="M 603 3500 
L 1178 3500 
L 1178 0 
L 603 0 
L 603 3500 
z
M 603 4863 
L 1178 4863 
L 1178 4134 
L 603 4134 
L 603 4863 
z
" transform="scale(0.015625)"/>
       <path id="DejaVuSans-6e" d="M 3513 2113 
L 3513 0 
L 2938 0 
L 2938 2094 
Q 2938 2591 2744 2837 
Q 2550 3084 2163 3084 
Q 1697 3084 1428 2787 
Q 1159 2491 1159 1978 
L 1159 0 
L 581 0 
L 581 3500 
L 1159 3500 
L 1159 2956 
Q 1366 3272 1645 3428 
Q 1925 3584 2291 3584 
Q 2894 3584 3203 3211 
Q 3513 2838 3513 2113 
z
" transform="scale(0.015625)"/>
       <path id="DejaVuSans-Oblique-41" d="M 2356 4666 
L 3072 4666 
L 3938 0 
L 3278 0 
L 3084 1197 
L 984 1197 
L 325 0 
L -341 0 
L 2356 4666 
z
M 2584 4044 
L 1275 1722 
L 2988 1722 
L 2584 4044 
z
" transform="scale(0.015625)"/>
       <path id="DejaVuSans-Oblique-6d" d="M 5747 2113 
L 5338 0 
L 4763 0 
L 5166 2094 
Q 5191 2228 5203 2325 
Q 5216 2422 5216 2491 
Q 5216 2772 5059 2928 
Q 4903 3084 4622 3084 
Q 4203 3084 3875 2770 
Q 3547 2456 3450 1953 
L 3066 0 
L 2491 0 
L 2900 2094 
Q 2925 2209 2937 2307 
Q 2950 2406 2950 2484 
Q 2950 2769 2794 2926 
Q 2638 3084 2363 3084 
Q 1938 3084 1609 2770 
Q 1281 2456 1184 1953 
L 800 0 
L 225 0 
L 909 3500 
L 1484 3500 
L 1375 2956 
Q 1609 3263 1923 3423 
Q 2238 3584 2597 3584 
Q 2978 3584 3223 3384 
Q 3469 3184 3519 2828 
Q 3781 3197 4126 3390 
Q 4472 3584 4856 3584 
Q 5306 3584 5551 3325 
Q 5797 3066 5797 2591 
Q 5797 2488 5784 2364 
Q 5772 2241 5747 2113 
z
" transform="scale(0.015625)"/>
      </defs>
      <use xlink:href="#DejaVuSans-Oblique-48" transform="translate(0 0.16875)"/>
      <use xlink:href="#DejaVuSans-20" transform="translate(75.195312 0.16875)"/>
      <use xlink:href="#DejaVuSans-69" transform="translate(106.982422 0.16875)"/>
      <use xlink:href="#DejaVuSans-6e" transform="translate(134.765625 0.16875)"/>
      <use xlink:href="#DejaVuSans-20" transform="translate(198.144531 0.16875)"/>
      <use xlink:href="#DejaVuSans-Oblique-41" transform="translate(239.931641 43.965625) scale(0.7)"/>
      <use xlink:href="#DejaVuSans-Oblique-6d" transform="translate(229.931641 -26.484375) scale(0.7)"/>
      <path d="M 229.931641 18.965625 
L 229.931641 25.215625 
L 298.120117 25.215625 
L 298.120117 18.965625 
L 229.931641 18.965625 
z
"/>
     </g>
    </g>
   </g>
   <g id="matplotlib.axis_2">
    <g id="ytick_1">
     <g id="line2d_7">
      <path d="M 62.192188 263.583924 
L 419.312188 263.583924 
" clip-path="url(#pe12940b4f3)" style="fill: none; stroke: #cccccc; stroke-width: 0.8; stroke-linecap: round"/>
     </g>
     <g id="text_8">
      <!-- 0.00 -->
      <g style="fill: #262626" transform="translate(29.4 267.763065) scale(0.11 -0.11)">
       <defs>
        <path id="DejaVuSans-2e" d="M 684 794 
L 1344 794 
L 1344 0 
L 684 0 
L 684 794 
z
" transform="scale(0.015625)"/>
       </defs>
       <use xlink:href="#DejaVuSans-30"/>
       <use xlink:href="#DejaVuSans-2e" x="63.623047"/>
       <use xlink:href="#DejaVuSans-30" x="95.410156"/>
       <use xlink:href="#DejaVuSans-30" x="159.033203"/>
      </g>
     </g>
    </g>
    <g id="ytick_2">
     <g id="line2d_8">
      <path d="M 62.192188 221.549794 
L 419.312188 221.549794 
" clip-path="url(#pe12940b4f3)" style="fill: none; stroke: #cccccc; stroke-width: 0.8; stroke-linecap: round"/>
     </g>
     <g id="text_9">
      <!-- 0.01 -->
      <g style="fill: #262626" transform="translate(29.4 225.728934) scale(0.11 -0.11)">
       <use xlink:href="#DejaVuSans-30"/>
       <use xlink:href="#DejaVuSans-2e" x="63.623047"/>
       <use xlink:href="#DejaVuSans-30" x="95.410156"/>
       <use xlink:href="#DejaVuSans-31" x="159.033203"/>
      </g>
     </g>
    </g>
    <g id="ytick_3">
     <g id="line2d_9">
      <path d="M 62.192188 179.515663 
L 419.312188 179.515663 
" clip-path="url(#pe12940b4f3)" style="fill: none; stroke: #cccccc; stroke-width: 0.8; stroke-linecap: round"/>
     </g>
     <g id="text_10">
      <!-- 0.02 -->
      <g style="fill: #262626" transform="translate(29.4 183.694804) scale(0.11 -0.11)">
       <use xlink:href="#DejaVuSans-30"/>
       <use xlink:href="#DejaVuSans-2e" x="63.623047"/>
       <use xlink:href="#DejaVuSans-30" x="95.410156"/>
       <use xlink:href="#DejaVuSans-32" x="159.033203"/>
      </g>
     </g>
    </g>
    <g id="ytick_4">
     <g id="line2d_10">
      <path d="M 62.192188 137.481532 
L 419.312188 137.481532 
" clip-path="url(#pe12940b4f3)" style="fill: none; stroke: #cccccc; stroke-width: 0.8; stroke-linecap: round"/>
     </g>
     <g id="text_11">
      <!-- 0.03 -->
      <g style="fill: #262626" transform="translate(29.4 141.660673) scale(0.11 -0.11)">
       <use xlink:href="#DejaVuSans-30"/>
       <use xlink:href="#DejaVuSans-2e" x="63.623047"/>
       <use xlink:href="#DejaVuSans-30" x="95.410156"/>
       <use xlink:href="#DejaVuSans-33" x="159.033203"/>
      </g>
     </g>
    </g>
    <g id="ytick_5">
     <g id="line2d_11">
      <path d="M 62.192188 95.447402 
L 419.312188 95.447402 
" clip-path="url(#pe12940b4f3)" style="fill: none; stroke: #cccccc; stroke-width: 0.8; stroke-linecap: round"/>
     </g>
     <g id="text_12">
      <!-- 0.04 -->
      <g style="fill: #262626" transform="translate(29.4 99.626542) scale(0.11 -0.11)">
       <use xlink:href="#DejaVuSans-30"/>
       <use xlink:href="#DejaVuSans-2e" x="63.623047"/>
       <use xlink:href="#DejaVuSans-30" x="95.410156"/>
       <use xlink:href="#DejaVuSans-34" x="159.033203"/>
      </g>
     </g>
    </g>
    <g id="ytick_6">
     <g id="line2d_12">
      <path d="M 62.192188 53.413271 
L 419.312188 53.413271 
" clip-path="url(#pe12940b4f3)" style="fill: none; stroke: #cccccc; stroke-width: 0.8; stroke-linecap: round"/>
     </g>
     <g id="text_13">
      <!-- 0.05 -->
      <g style="fill: #262626" transform="translate(29.4 57.592412) scale(0.11 -0.11)">
       <use xlink:href="#DejaVuSans-30"/>
       <use xlink:href="#DejaVuSans-2e" x="63.623047"/>
       <use xlink:href="#DejaVuSans-30" x="95.410156"/>
       <use xlink:href="#DejaVuSans-35" x="159.033203"/>
      </g>
     </g>
    </g>
    <g id="ytick_7">
     <g id="line2d_13">
      <path d="M 62.192188 11.379141 
L 419.312188 11.379141 
" clip-path="url(#pe12940b4f3)" style="fill: none; stroke: #cccccc; stroke-width: 0.8; stroke-linecap: round"/>
     </g>
     <g id="text_14">
      <!-- 0.06 -->
      <g style="fill: #262626" transform="translate(29.4 15.558281) scale(0.11 -0.11)">
       <defs>
        <path id="DejaVuSans-36" d="M 2113 2584 
Q 1688 2584 1439 2293 
Q 1191 2003 1191 1497 
Q 1191 994 1439 701 
Q 1688 409 2113 409 
Q 2538 409 2786 701 
Q 3034 994 3034 1497 
Q 3034 2003 2786 2293 
Q 2538 2584 2113 2584 
z
M 3366 4563 
L 3366 3988 
Q 3128 4100 2886 4159 
Q 2644 4219 2406 4219 
Q 1781 4219 1451 3797 
Q 1122 3375 1075 2522 
Q 1259 2794 1537 2939 
Q 1816 3084 2150 3084 
Q 2853 3084 3261 2657 
Q 3669 2231 3669 1497 
Q 3669 778 3244 343 
Q 2819 -91 2113 -91 
Q 1303 -91 875 529 
Q 447 1150 447 2328 
Q 447 3434 972 4092 
Q 1497 4750 2381 4750 
Q 2619 4750 2861 4703 
Q 3103 4656 3366 4563 
z
" transform="scale(0.015625)"/>
       </defs>
       <use xlink:href="#DejaVuSans-30"/>
       <use xlink:href="#DejaVuSans-2e" x="63.623047"/>
       <use xlink:href="#DejaVuSans-30" x="95.410156"/>
       <use xlink:href="#DejaVuSans-36" x="159.033203"/>
      </g>
     </g>
    </g>
    <g id="text_15">
     <!-- $\frac{d\,M}{d\,H}$ in $10^6\ \frac{A}{m}$ -->
     <g style="fill: #262626" transform="translate(19.94 180.11871) rotate(-90) scale(0.13 -0.13)">
      <defs>
       <path id="DejaVuSans-Oblique-64" d="M 2675 525 
Q 2444 222 2128 65 
Q 1813 -91 1428 -91 
Q 903 -91 598 267 
Q 294 625 294 1247 
Q 294 1766 478 2236 
Q 663 2706 1013 3078 
Q 1244 3325 1534 3454 
Q 1825 3584 2144 3584 
Q 2481 3584 2739 3421 
Q 2997 3259 3138 2956 
L 3513 4863 
L 4091 4863 
L 3144 0 
L 2566 0 
L 2675 525 
z
M 891 1350 
Q 891 897 1095 644 
Q 1300 391 1663 391 
Q 1931 391 2161 520 
Q 2391 650 2566 903 
Q 2750 1166 2856 1509 
Q 2963 1853 2963 2188 
Q 2963 2622 2758 2865 
Q 2553 3109 2194 3109 
Q 1922 3109 1687 2981 
Q 1453 2853 1288 2613 
Q 1106 2353 998 2009 
Q 891 1666 891 1350 
z
" transform="scale(0.015625)"/>
       <path id="DejaVuSans-Oblique-4d" d="M 1081 4666 
L 2028 4666 
L 2572 1522 
L 4378 4666 
L 5350 4666 
L 4441 0 
L 3828 0 
L 4622 4091 
L 2791 897 
L 2175 897 
L 1581 4103 
L 788 0 
L 172 0 
L 1081 4666 
z
" transform="scale(0.015625)"/>
      </defs>
      <use xlink:href="#DejaVuSans-Oblique-64" transform="translate(0 44.810938) scale(0.7)"/>
      <use xlink:href="#DejaVuSans-Oblique-4d" transform="translate(55.798567 44.810938) scale(0.7)"/>
      <use xlink:href="#DejaVuSans-Oblique-64" transform="translate(4 -40.623437) scale(0.7)"/>
      <use xlink:href="#DejaVuSans-Oblique-48" transform="translate(59.798567 -40.623437) scale(0.7)"/>
      <use xlink:href="#DejaVuSans-20" transform="translate(128.694075 0.01875)"/>
      <use xlink:href="#DejaVuSans-69" transform="translate(160.481184 0.01875)"/>
      <use xlink:href="#DejaVuSans-6e" transform="translate(188.264387 0.01875)"/>
      <use xlink:href="#DejaVuSans-20" transform="translate(251.643294 0.01875)"/>
      <use xlink:href="#DejaVuSans-31" transform="translate(283.430403 0.01875)"/>
      <use xlink:href="#DejaVuSans-30" transform="translate(347.05345 0.01875)"/>
      <use xlink:href="#DejaVuSans-36" transform="translate(411.633528 38.3) scale(0.7)"/>
      <use xlink:href="#DejaVuSans-Oblique-41" transform="translate(501.374414 43.815625) scale(0.7)"/>
      <use xlink:href="#DejaVuSans-Oblique-6d" transform="translate(491.374414 -26.634375) scale(0.7)"/>
      <path d="M 0 18.815625 
L 0 25.065625 
L 116.194075 25.065625 
L 116.194075 18.815625 
L 0 18.815625 
z
"/>
      <path d="M 491.374414 18.815625 
L 491.374414 25.065625 
L 559.562891 25.065625 
L 559.562891 18.815625 
L 491.374414 18.815625 
z
"/>
     </g>
    </g>
   </g>
   <g id="line2d_14">
    <path d="M 88.003447 37.517116 
L 91.186033 21.91371 
L 94.368619 54.8332 
L 97.551205 130.367134 
L 100.733791 173.799602 
L 103.916377 198.068542 
L 107.098963 213.071587 
L 110.281549 224.369001 
L 113.464135 230.762224 
L 116.646721 236.484579 
L 119.829307 241.423609 
L 123.011893 244.024761 
L 126.194479 247.888153 
L 129.377065 250.660106 
L 132.559651 251.327682 
L 135.742237 252.316115 
L 138.924823 252.678663 
L 142.107409 252.678663 
L 145.289995 254.691657 
L 148.472581 256.802206 
L 151.655167 256.375307 
L 154.837753 256.312547 
L 158.020339 256.967996 
L 161.202925 257.582053 
L 164.385511 258.285409 
L 167.568097 258.568463 
L 170.750683 258.574438 
L 173.933269 258.776548 
L 177.115855 258.850935 
L 180.298441 257.768181 
L 183.481027 257.555287 
L 186.663613 259.11576 
L 189.846199 259.923731 
L 193.028785 259.909631 
L 196.211371 260.246606 
L 199.393957 260.745678 
L 202.576543 261.591231 
L 205.759129 262.115304 
L 208.941715 261.001743 
L 212.124301 260.41329 
L 215.306887 260.988552 
L 218.489473 261.314116 
L 221.672059 261.497296 
L 224.854645 261.606344 
L 228.037231 261.69698 
L 231.219817 261.760353 
L 234.402403 262.059234 
L 237.584989 262.353191 
L 240.767575 262.257904 
L 243.950161 262.121212 
L 247.132747 262.011513 
L 250.315333 262.248158 
L 253.497919 262.029194 
L 256.680505 260.770959 
L 259.863091 261.647442 
L 263.045677 262.276417 
L 266.228263 261.506909 
L 269.410849 262.034564 
L 272.593435 263.013849 
L 275.776021 263.498365 
L 278.958607 262.675101 
L 282.141193 261.850189 
L 285.323779 262.094881 
L 288.506365 262.495388 
L 291.688951 262.453157 
L 294.871537 262.520345 
L 298.054123 262.83737 
L 301.236709 262.970775 
L 304.419295 262.605242 
L 307.601881 261.932389 
L 310.784467 261.892409 
L 313.967053 262.358301 
L 317.149639 263.311157 
L 320.332225 263.83371 
L 323.51481 263.160291 
L 326.697396 262.604161 
L 329.879982 262.422892 
L 333.062568 262.865216 
L 336.245154 263.402856 
L 339.42774 263.271867 
L 342.610326 261.964165 
L 345.792912 261.998516 
L 348.975498 263.105975 
L 352.158084 263.294512 
L 355.34067 263.117447 
L 358.523256 261.380182 
L 361.705842 262.257663 
L 364.888428 263.787041 
L 368.071014 262.246508 
L 371.2536 263.161523 
L 374.436186 263.799057 
L 377.618772 263.329962 
L 380.801358 263.785177 
L 383.983944 263.748351 
L 387.16653 263.393284 
L 390.349116 262.473371 
L 393.531702 262.828273 
L 396.714288 263.016468 
L 399.896874 261.837204 
L 403.07946 261.276769 
" clip-path="url(#pe12940b4f3)" style="fill: none; stroke: #4c72b0; stroke-width: 1.2; stroke-linecap: round"/>
   </g>
   <g id="line2d_15">
    <path d="M 78.424915 260.591954 
L 78.509569 260.186843 
L 78.594223 259.714042 
L 78.678877 259.64635 
L 78.763531 259.733453 
L 78.848186 259.829889 
L 78.93284 259.664586 
L 79.017494 259.525678 
L 79.102148 259.57538 
L 79.186802 259.589354 
L 79.271456 259.464552 
L 79.35611 259.321232 
L 79.440765 259.346297 
L 79.525419 259.297347 
L 79.610073 259.074151 
L 79.694727 259.040831 
L 79.779381 259.292126 
L 79.864035 259.429705 
L 79.948689 259.301802 
L 80.033344 259.042746 
L 80.117998 258.860421 
L 80.202652 258.84446 
L 80.287306 258.876078 
L 80.37196 258.723834 
L 80.456614 258.512773 
L 80.541269 258.507836 
L 80.625923 258.388327 
L 80.710577 258.101553 
L 80.795231 257.954026 
L 80.879885 258.027951 
L 80.964539 258.297781 
L 81.049193 258.635332 
L 81.133848 258.472604 
L 81.218502 258.084637 
L 81.303156 257.997634 
L 81.38781 257.767318 
L 81.472464 257.537488 
L 81.557118 257.405025 
L 81.641772 257.232742 
L 81.726427 257.391648 
L 81.811081 257.490475 
L 81.895735 257.214842 
L 81.980389 257.400755 
L 82.065043 257.575181 
L 82.149697 257.175175 
L 82.234352 256.951299 
L 82.319006 256.982044 
L 82.40366 257.009507 
L 82.488314 256.888435 
L 82.572968 256.6337 
L 82.657622 256.450358 
L 82.742276 256.453804 
L 82.826931 256.870114 
L 82.911585 256.594465 
L 82.996239 255.907405 
L 83.080893 255.988793 
L 83.165547 256.533371 
L 83.250201 256.528487 
L 83.334855 256.374776 
L 83.41951 256.156479 
L 83.504164 256.161971 
L 83.588818 256.474565 
L 83.673472 255.838679 
L 83.758126 255.356875 
L 83.84278 255.653183 
L 83.927434 255.962832 
L 84.012089 255.856671 
L 84.096743 255.774219 
L 84.181397 255.865752 
L 84.266051 255.997186 
L 84.350705 256.090563 
L 84.435359 256.165159 
L 84.520014 256.161288 
L 84.604668 256.056861 
L 84.689322 255.996234 
L 84.773976 256.235149 
L 84.85863 256.493738 
L 84.943284 256.661389 
L 85.027938 256.889926 
L 85.112593 256.859086 
L 85.197247 256.752585 
L 85.281901 256.545114 
L 85.366555 256.422803 
L 85.451209 256.601491 
L 85.535863 256.721802 
L 85.620517 257.035753 
L 85.705172 257.323749 
L 85.789826 257.493775 
L 85.87448 257.665142 
L 85.959134 257.761899 
L 86.043788 257.828041 
L 86.128442 257.987484 
L 86.213097 258.175373 
L 86.297751 258.20649 
L 86.382405 258.405992 
L 86.467059 258.574378 
L 86.551713 258.705948 
L 86.636367 258.812165 
L 86.721021 258.728442 
L 86.805676 258.670071 
" clip-path="url(#pe12940b4f3)" style="fill: none; stroke: #dd8452; stroke-width: 1.2; stroke-linecap: round"/>
   </g>
   <g id="patch_3">
    <path d="M 62.192188 275.92971 
L 62.192188 9.81771 
" style="fill: none; stroke: #cccccc; stroke-linejoin: miter; stroke-linecap: square"/>
   </g>
   <g id="patch_4">
    <path d="M 419.312188 275.92971 
L 419.312188 9.81771 
" style="fill: none; stroke: #cccccc; stroke-linejoin: miter; stroke-linecap: square"/>
   </g>
   <g id="patch_5">
    <path d="M 62.192188 275.92971 
L 419.312188 275.92971 
" style="fill: none; stroke: #cccccc; stroke-linejoin: miter; stroke-linecap: square"/>
   </g>
   <g id="patch_6">
    <path d="M 62.192188 9.81771 
L 419.312188 9.81771 
" style="fill: none; stroke: #cccccc; stroke-linejoin: miter; stroke-linecap: square"/>
   </g>
   <g id="legend_1">
    <g id="patch_7">
     <path d="M 303.262188 50.909585 
L 411.612188 50.909585 
Q 413.812188 50.909585 413.812188 48.709585 
L 413.812188 17.51771 
Q 413.812188 15.31771 411.612188 15.31771 
L 303.262188 15.31771 
Q 301.062188 15.31771 301.062188 17.51771 
L 301.062188 48.709585 
Q 301.062188 50.909585 303.262188 50.909585 
z
" style="fill: #ffffff; opacity: 0.8; stroke: #cccccc; stroke-width: 0.8; stroke-linejoin: miter"/>
    </g>
    <g id="line2d_16">
     <path d="M 305.462188 24.225991 
L 316.462188 24.225991 
L 327.462188 24.225991 
" style="fill: none; stroke: #4c72b0; stroke-width: 1.2; stroke-linecap: round"/>
    </g>
    <g id="text_16">
     <!-- $I_\mathrm{max} = 3$A -->
     <g style="fill: #262626" transform="translate(336.262188 28.075991) scale(0.11 -0.11)">
      <defs>
       <path id="DejaVuSans-Oblique-49" d="M 1081 4666 
L 1716 4666 
L 806 0 
L 172 0 
L 1081 4666 
z
" transform="scale(0.015625)"/>
       <path id="DejaVuSans-6d" d="M 3328 2828 
Q 3544 3216 3844 3400 
Q 4144 3584 4550 3584 
Q 5097 3584 5394 3201 
Q 5691 2819 5691 2113 
L 5691 0 
L 5113 0 
L 5113 2094 
Q 5113 2597 4934 2840 
Q 4756 3084 4391 3084 
Q 3944 3084 3684 2787 
Q 3425 2491 3425 1978 
L 3425 0 
L 2847 0 
L 2847 2094 
Q 2847 2600 2669 2842 
Q 2491 3084 2119 3084 
Q 1678 3084 1418 2786 
Q 1159 2488 1159 1978 
L 1159 0 
L 581 0 
L 581 3500 
L 1159 3500 
L 1159 2956 
Q 1356 3278 1631 3431 
Q 1906 3584 2284 3584 
Q 2666 3584 2933 3390 
Q 3200 3197 3328 2828 
z
" transform="scale(0.015625)"/>
       <path id="DejaVuSans-61" d="M 2194 1759 
Q 1497 1759 1228 1600 
Q 959 1441 959 1056 
Q 959 750 1161 570 
Q 1363 391 1709 391 
Q 2188 391 2477 730 
Q 2766 1069 2766 1631 
L 2766 1759 
L 2194 1759 
z
M 3341 1997 
L 3341 0 
L 2766 0 
L 2766 531 
Q 2569 213 2275 61 
Q 1981 -91 1556 -91 
Q 1019 -91 701 211 
Q 384 513 384 1019 
Q 384 1609 779 1909 
Q 1175 2209 1959 2209 
L 2766 2209 
L 2766 2266 
Q 2766 2663 2505 2880 
Q 2244 3097 1772 3097 
Q 1472 3097 1187 3025 
Q 903 2953 641 2809 
L 641 3341 
Q 956 3463 1253 3523 
Q 1550 3584 1831 3584 
Q 2591 3584 2966 3190 
Q 3341 2797 3341 1997 
z
" transform="scale(0.015625)"/>
       <path id="DejaVuSans-78" d="M 3513 3500 
L 2247 1797 
L 3578 0 
L 2900 0 
L 1881 1375 
L 863 0 
L 184 0 
L 1544 1831 
L 300 3500 
L 978 3500 
L 1906 2253 
L 2834 3500 
L 3513 3500 
z
" transform="scale(0.015625)"/>
       <path id="DejaVuSans-3d" d="M 678 2906 
L 4684 2906 
L 4684 2381 
L 678 2381 
L 678 2906 
z
M 678 1631 
L 4684 1631 
L 4684 1100 
L 678 1100 
L 678 1631 
z
" transform="scale(0.015625)"/>
       <path id="DejaVuSans-41" d="M 2188 4044 
L 1331 1722 
L 3047 1722 
L 2188 4044 
z
M 1831 4666 
L 2547 4666 
L 4325 0 
L 3669 0 
L 3244 1197 
L 1141 1197 
L 716 0 
L 50 0 
L 1831 4666 
z
" transform="scale(0.015625)"/>
      </defs>
      <use xlink:href="#DejaVuSans-Oblique-49" transform="translate(0 0.78125)"/>
      <use xlink:href="#DejaVuSans-6d" transform="translate(29.492188 -15.625) scale(0.7)"/>
      <use xlink:href="#DejaVuSans-61" transform="translate(97.680664 -15.625) scale(0.7)"/>
      <use xlink:href="#DejaVuSans-78" transform="translate(140.576172 -15.625) scale(0.7)"/>
      <use xlink:href="#DejaVuSans-3d" transform="translate(204.21875 0.78125)"/>
      <use xlink:href="#DejaVuSans-33" transform="translate(307.490234 0.78125)"/>
      <use xlink:href="#DejaVuSans-41" transform="translate(371.113281 0.78125)"/>
     </g>
    </g>
    <g id="line2d_17">
     <path d="M 305.462188 40.371928 
L 316.462188 40.371928 
L 327.462188 40.371928 
" style="fill: none; stroke: #dd8452; stroke-width: 1.2; stroke-linecap: round"/>
    </g>
    <g id="text_17">
     <!-- $I_\mathrm{max} = 100$mA -->
     <g style="fill: #262626" transform="translate(336.262188 44.221928) scale(0.11 -0.11)">
      <use xlink:href="#DejaVuSans-Oblique-49" transform="translate(0 0.78125)"/>
      <use xlink:href="#DejaVuSans-6d" transform="translate(29.492188 -15.625) scale(0.7)"/>
      <use xlink:href="#DejaVuSans-61" transform="translate(97.680664 -15.625) scale(0.7)"/>
      <use xlink:href="#DejaVuSans-78" transform="translate(140.576172 -15.625) scale(0.7)"/>
      <use xlink:href="#DejaVuSans-3d" transform="translate(204.21875 0.78125)"/>
      <use xlink:href="#DejaVuSans-31" transform="translate(307.490234 0.78125)"/>
      <use xlink:href="#DejaVuSans-30" transform="translate(371.113281 0.78125)"/>
      <use xlink:href="#DejaVuSans-30" transform="translate(434.736328 0.78125)"/>
      <use xlink:href="#DejaVuSans-6d" transform="translate(498.359375 0.78125)"/>
      <use xlink:href="#DejaVuSans-41" transform="translate(595.771484 0.78125)"/>
     </g>
    </g>
   </g>
  </g>
 </g>
 <defs>
  <clipPath id="pe12940b4f3">
   <rect x="62.192188" y="9.81771" width="357.12" height="266.112"/>
  </clipPath>
 </defs>
</svg>
