<?xml version="1.0" encoding="utf-8" standalone="no"?>
<!DOCTYPE svg PUBLIC "-//W3C//DTD SVG 1.1//EN"
  "http://www.w3.org/Graphics/SVG/1.1/DTD/svg11.dtd">
<svg xmlns:xlink="http://www.w3.org/1999/xlink" width="416.85375pt" height="313.04075pt" viewBox="0 0 416.85375 313.04075" xmlns="http://www.w3.org/2000/svg" version="1.1">
 <metadata>
  <rdf:RDF xmlns:dc="http://purl.org/dc/elements/1.1/" xmlns:cc="http://creativecommons.org/ns#" xmlns:rdf="http://www.w3.org/1999/02/22-rdf-syntax-ns#">
   <cc:Work>
    <dc:type rdf:resource="http://purl.org/dc/dcmitype/StillImage"/>
    <dc:date>2023-11-26T18:58:01.132461</dc:date>
    <dc:format>image/svg+xml</dc:format>
    <dc:creator>
     <cc:Agent>
      <dc:title>Matplotlib v3.8.2, https://matplotlib.org/</dc:title>
     </cc:Agent>
    </dc:creator>
   </cc:Work>
  </rdf:RDF>
 </metadata>
 <defs>
  <style type="text/css">*{stroke-linejoin: round; stroke-linecap: butt}</style>
 </defs>
 <g id="figure_1">
  <g id="patch_1">
   <path d="M 0 313.04075 
L 416.85375 313.04075 
L 416.85375 0 
L 0 0 
z
" style="fill: #ffffff"/>
  </g>
  <g id="axes_1">
   <g id="patch_2">
    <path d="M 52.53375 273.312 
L 409.65375 273.312 
L 409.65375 7.2 
L 52.53375 7.2 
z
" style="fill: #ffffff"/>
   </g>
   <g id="matplotlib.axis_1">
    <g id="xtick_1">
     <g id="line2d_1">
      <path d="M 77.194713 273.312 
L 77.194713 7.2 
" clip-path="url(#pb9bf4687aa)" style="fill: none; stroke: #cccccc; stroke-width: 0.8; stroke-linecap: round"/>
     </g>
     <g id="text_1">
      <!-- 0.0 -->
      <g style="fill: #262626" transform="translate(70.197338 288.298625) scale(0.088 -0.088)">
       <defs>
        <path id="DejaVuSans-30" d="M 2034 4250 
Q 1547 4250 1301 3770 
Q 1056 3291 1056 2328 
Q 1056 1369 1301 889 
Q 1547 409 2034 409 
Q 2525 409 2770 889 
Q 3016 1369 3016 2328 
Q 3016 3291 2770 3770 
Q 2525 4250 2034 4250 
z
M 2034 4750 
Q 2819 4750 3233 4129 
Q 3647 3509 3647 2328 
Q 3647 1150 3233 529 
Q 2819 -91 2034 -91 
Q 1250 -91 836 529 
Q 422 1150 422 2328 
Q 422 3509 836 4129 
Q 1250 4750 2034 4750 
z
" transform="scale(0.015625)"/>
        <path id="DejaVuSans-2e" d="M 684 794 
L 1344 794 
L 1344 0 
L 684 0 
L 684 794 
z
" transform="scale(0.015625)"/>
       </defs>
       <use xlink:href="#DejaVuSans-30"/>
       <use xlink:href="#DejaVuSans-2e" x="63.623047"/>
       <use xlink:href="#DejaVuSans-30" x="95.410156"/>
      </g>
     </g>
    </g>
    <g id="xtick_2">
     <g id="line2d_2">
      <path d="M 135.744998 273.312 
L 135.744998 7.2 
" clip-path="url(#pb9bf4687aa)" style="fill: none; stroke: #cccccc; stroke-width: 0.8; stroke-linecap: round"/>
     </g>
     <g id="text_2">
      <!-- 0.1 -->
      <g style="fill: #262626" transform="translate(128.747623 288.298625) scale(0.088 -0.088)">
       <defs>
        <path id="DejaVuSans-31" d="M 794 531 
L 1825 531 
L 1825 4091 
L 703 3866 
L 703 4441 
L 1819 4666 
L 2450 4666 
L 2450 531 
L 3481 531 
L 3481 0 
L 794 0 
L 794 531 
z
" transform="scale(0.015625)"/>
       </defs>
       <use xlink:href="#DejaVuSans-30"/>
       <use xlink:href="#DejaVuSans-2e" x="63.623047"/>
       <use xlink:href="#DejaVuSans-31" x="95.410156"/>
      </g>
     </g>
    </g>
    <g id="xtick_3">
     <g id="line2d_3">
      <path d="M 194.295283 273.312 
L 194.295283 7.2 
" clip-path="url(#pb9bf4687aa)" style="fill: none; stroke: #cccccc; stroke-width: 0.8; stroke-linecap: round"/>
     </g>
     <g id="text_3">
      <!-- 0.2 -->
      <g style="fill: #262626" transform="translate(187.297908 288.298625) scale(0.088 -0.088)">
       <defs>
        <path id="DejaVuSans-32" d="M 1228 531 
L 3431 531 
L 3431 0 
L 469 0 
L 469 531 
Q 828 903 1448 1529 
Q 2069 2156 2228 2338 
Q 2531 2678 2651 2914 
Q 2772 3150 2772 3378 
Q 2772 3750 2511 3984 
Q 2250 4219 1831 4219 
Q 1534 4219 1204 4116 
Q 875 4013 500 3803 
L 500 4441 
Q 881 4594 1212 4672 
Q 1544 4750 1819 4750 
Q 2544 4750 2975 4387 
Q 3406 4025 3406 3419 
Q 3406 3131 3298 2873 
Q 3191 2616 2906 2266 
Q 2828 2175 2409 1742 
Q 1991 1309 1228 531 
z
" transform="scale(0.015625)"/>
       </defs>
       <use xlink:href="#DejaVuSans-30"/>
       <use xlink:href="#DejaVuSans-2e" x="63.623047"/>
       <use xlink:href="#DejaVuSans-32" x="95.410156"/>
      </g>
     </g>
    </g>
    <g id="xtick_4">
     <g id="line2d_4">
      <path d="M 252.845568 273.312 
L 252.845568 7.2 
" clip-path="url(#pb9bf4687aa)" style="fill: none; stroke: #cccccc; stroke-width: 0.8; stroke-linecap: round"/>
     </g>
     <g id="text_4">
      <!-- 0.3 -->
      <g style="fill: #262626" transform="translate(245.848193 288.298625) scale(0.088 -0.088)">
       <defs>
        <path id="DejaVuSans-33" d="M 2597 2516 
Q 3050 2419 3304 2112 
Q 3559 1806 3559 1356 
Q 3559 666 3084 287 
Q 2609 -91 1734 -91 
Q 1441 -91 1130 -33 
Q 819 25 488 141 
L 488 750 
Q 750 597 1062 519 
Q 1375 441 1716 441 
Q 2309 441 2620 675 
Q 2931 909 2931 1356 
Q 2931 1769 2642 2001 
Q 2353 2234 1838 2234 
L 1294 2234 
L 1294 2753 
L 1863 2753 
Q 2328 2753 2575 2939 
Q 2822 3125 2822 3475 
Q 2822 3834 2567 4026 
Q 2313 4219 1838 4219 
Q 1578 4219 1281 4162 
Q 984 4106 628 3988 
L 628 4550 
Q 988 4650 1302 4700 
Q 1616 4750 1894 4750 
Q 2613 4750 3031 4423 
Q 3450 4097 3450 3541 
Q 3450 3153 3228 2886 
Q 3006 2619 2597 2516 
z
" transform="scale(0.015625)"/>
       </defs>
       <use xlink:href="#DejaVuSans-30"/>
       <use xlink:href="#DejaVuSans-2e" x="63.623047"/>
       <use xlink:href="#DejaVuSans-33" x="95.410156"/>
      </g>
     </g>
    </g>
    <g id="xtick_5">
     <g id="line2d_5">
      <path d="M 311.395853 273.312 
L 311.395853 7.2 
" clip-path="url(#pb9bf4687aa)" style="fill: none; stroke: #cccccc; stroke-width: 0.8; stroke-linecap: round"/>
     </g>
     <g id="text_5">
      <!-- 0.4 -->
      <g style="fill: #262626" transform="translate(304.398478 288.298625) scale(0.088 -0.088)">
       <defs>
        <path id="DejaVuSans-34" d="M 2419 4116 
L 825 1625 
L 2419 1625 
L 2419 4116 
z
M 2253 4666 
L 3047 4666 
L 3047 1625 
L 3713 1625 
L 3713 1100 
L 3047 1100 
L 3047 0 
L 2419 0 
L 2419 1100 
L 313 1100 
L 313 1709 
L 2253 4666 
z
" transform="scale(0.015625)"/>
       </defs>
       <use xlink:href="#DejaVuSans-30"/>
       <use xlink:href="#DejaVuSans-2e" x="63.623047"/>
       <use xlink:href="#DejaVuSans-34" x="95.410156"/>
      </g>
     </g>
    </g>
    <g id="xtick_6">
     <g id="line2d_6">
      <path d="M 369.946137 273.312 
L 369.946137 7.2 
" clip-path="url(#pb9bf4687aa)" style="fill: none; stroke: #cccccc; stroke-width: 0.8; stroke-linecap: round"/>
     </g>
     <g id="text_6">
      <!-- 0.5 -->
      <g style="fill: #262626" transform="translate(362.948762 288.298625) scale(0.088 -0.088)">
       <defs>
        <path id="DejaVuSans-35" d="M 691 4666 
L 3169 4666 
L 3169 4134 
L 1269 4134 
L 1269 2991 
Q 1406 3038 1543 3061 
Q 1681 3084 1819 3084 
Q 2600 3084 3056 2656 
Q 3513 2228 3513 1497 
Q 3513 744 3044 326 
Q 2575 -91 1722 -91 
Q 1428 -91 1123 -41 
Q 819 9 494 109 
L 494 744 
Q 775 591 1075 516 
Q 1375 441 1709 441 
Q 2250 441 2565 725 
Q 2881 1009 2881 1497 
Q 2881 1984 2565 2268 
Q 2250 2553 1709 2553 
Q 1456 2553 1204 2497 
Q 953 2441 691 2322 
L 691 4666 
z
" transform="scale(0.015625)"/>
       </defs>
       <use xlink:href="#DejaVuSans-30"/>
       <use xlink:href="#DejaVuSans-2e" x="63.623047"/>
       <use xlink:href="#DejaVuSans-35" x="95.410156"/>
      </g>
     </g>
    </g>
    <g id="text_7">
     <!-- $H$ in $10^3 \frac{A}{m}$ -->
     <g style="fill: #262626" transform="translate(207.71775 303.24875) scale(0.096 -0.096)">
      <defs>
       <path id="DejaVuSans-Oblique-48" d="M 1081 4666 
L 1716 4666 
L 1344 2753 
L 3634 2753 
L 4006 4666 
L 4641 4666 
L 3731 0 
L 3097 0 
L 3531 2222 
L 1241 2222 
L 806 0 
L 172 0 
L 1081 4666 
z
" transform="scale(0.015625)"/>
       <path id="DejaVuSans-20" transform="scale(0.015625)"/>
       <path id="DejaVuSans-69" d="M 603 3500 
L 1178 3500 
L 1178 0 
L 603 0 
L 603 3500 
z
M 603 4863 
L 1178 4863 
L 1178 4134 
L 603 4134 
L 603 4863 
z
" transform="scale(0.015625)"/>
       <path id="DejaVuSans-6e" d="M 3513 2113 
L 3513 0 
L 2938 0 
L 2938 2094 
Q 2938 2591 2744 2837 
Q 2550 3084 2163 3084 
Q 1697 3084 1428 2787 
Q 1159 2491 1159 1978 
L 1159 0 
L 581 0 
L 581 3500 
L 1159 3500 
L 1159 2956 
Q 1366 3272 1645 3428 
Q 1925 3584 2291 3584 
Q 2894 3584 3203 3211 
Q 3513 2838 3513 2113 
z
" transform="scale(0.015625)"/>
       <path id="DejaVuSans-Oblique-41" d="M 2356 4666 
L 3072 4666 
L 3938 0 
L 3278 0 
L 3084 1197 
L 984 1197 
L 325 0 
L -341 0 
L 2356 4666 
z
M 2584 4044 
L 1275 1722 
L 2988 1722 
L 2584 4044 
z
" transform="scale(0.015625)"/>
       <path id="DejaVuSans-Oblique-6d" d="M 5747 2113 
L 5338 0 
L 4763 0 
L 5166 2094 
Q 5191 2228 5203 2325 
Q 5216 2422 5216 2491 
Q 5216 2772 5059 2928 
Q 4903 3084 4622 3084 
Q 4203 3084 3875 2770 
Q 3547 2456 3450 1953 
L 3066 0 
L 2491 0 
L 2900 2094 
Q 2925 2209 2937 2307 
Q 2950 2406 2950 2484 
Q 2950 2769 2794 2926 
Q 2638 3084 2363 3084 
Q 1938 3084 1609 2770 
Q 1281 2456 1184 1953 
L 800 0 
L 225 0 
L 909 3500 
L 1484 3500 
L 1375 2956 
Q 1609 3263 1923 3423 
Q 2238 3584 2597 3584 
Q 2978 3584 3223 3384 
Q 3469 3184 3519 2828 
Q 3781 3197 4126 3390 
Q 4472 3584 4856 3584 
Q 5306 3584 5551 3325 
Q 5797 3066 5797 2591 
Q 5797 2488 5784 2364 
Q 5772 2241 5747 2113 
z
" transform="scale(0.015625)"/>
      </defs>
      <use xlink:href="#DejaVuSans-Oblique-48" transform="translate(0 0.16875)"/>
      <use xlink:href="#DejaVuSans-20" transform="translate(75.195312 0.16875)"/>
      <use xlink:href="#DejaVuSans-69" transform="translate(106.982422 0.16875)"/>
      <use xlink:href="#DejaVuSans-6e" transform="translate(134.765625 0.16875)"/>
      <use xlink:href="#DejaVuSans-20" transform="translate(198.144531 0.16875)"/>
      <use xlink:href="#DejaVuSans-31" transform="translate(229.931641 0.16875)"/>
      <use xlink:href="#DejaVuSans-30" transform="translate(293.554688 0.16875)"/>
      <use xlink:href="#DejaVuSans-33" transform="translate(358.134766 38.45) scale(0.7)"/>
      <use xlink:href="#DejaVuSans-Oblique-41" transform="translate(415.405273 43.965625) scale(0.7)"/>
      <use xlink:href="#DejaVuSans-Oblique-6d" transform="translate(405.405273 -26.484375) scale(0.7)"/>
      <path d="M 405.405273 18.965625 
L 405.405273 25.215625 
L 473.59375 25.215625 
L 473.59375 18.965625 
L 405.405273 18.965625 
z
"/>
     </g>
    </g>
   </g>
   <g id="matplotlib.axis_2">
    <g id="ytick_1">
     <g id="line2d_7">
      <path d="M 52.53375 259.842852 
L 409.65375 259.842852 
" clip-path="url(#pb9bf4687aa)" style="fill: none; stroke: #cccccc; stroke-width: 0.8; stroke-linecap: round"/>
     </g>
     <g id="text_8">
      <!-- 0.00 -->
      <g style="fill: #262626" transform="translate(24.64 263.186165) scale(0.088 -0.088)">
       <use xlink:href="#DejaVuSans-30"/>
       <use xlink:href="#DejaVuSans-2e" x="63.623047"/>
       <use xlink:href="#DejaVuSans-30" x="95.410156"/>
       <use xlink:href="#DejaVuSans-30" x="159.033203"/>
      </g>
     </g>
    </g>
    <g id="ytick_2">
     <g id="line2d_8">
      <path d="M 52.53375 207.544425 
L 409.65375 207.544425 
" clip-path="url(#pb9bf4687aa)" style="fill: none; stroke: #cccccc; stroke-width: 0.8; stroke-linecap: round"/>
     </g>
     <g id="text_9">
      <!-- 0.05 -->
      <g style="fill: #262626" transform="translate(24.64 210.887737) scale(0.088 -0.088)">
       <use xlink:href="#DejaVuSans-30"/>
       <use xlink:href="#DejaVuSans-2e" x="63.623047"/>
       <use xlink:href="#DejaVuSans-30" x="95.410156"/>
       <use xlink:href="#DejaVuSans-35" x="159.033203"/>
      </g>
     </g>
    </g>
    <g id="ytick_3">
     <g id="line2d_9">
      <path d="M 52.53375 155.245997 
L 409.65375 155.245997 
" clip-path="url(#pb9bf4687aa)" style="fill: none; stroke: #cccccc; stroke-width: 0.8; stroke-linecap: round"/>
     </g>
     <g id="text_10">
      <!-- 0.10 -->
      <g style="fill: #262626" transform="translate(24.64 158.589309) scale(0.088 -0.088)">
       <use xlink:href="#DejaVuSans-30"/>
       <use xlink:href="#DejaVuSans-2e" x="63.623047"/>
       <use xlink:href="#DejaVuSans-31" x="95.410156"/>
       <use xlink:href="#DejaVuSans-30" x="159.033203"/>
      </g>
     </g>
    </g>
    <g id="ytick_4">
     <g id="line2d_10">
      <path d="M 52.53375 102.947569 
L 409.65375 102.947569 
" clip-path="url(#pb9bf4687aa)" style="fill: none; stroke: #cccccc; stroke-width: 0.8; stroke-linecap: round"/>
     </g>
     <g id="text_11">
      <!-- 0.15 -->
      <g style="fill: #262626" transform="translate(24.64 106.290882) scale(0.088 -0.088)">
       <use xlink:href="#DejaVuSans-30"/>
       <use xlink:href="#DejaVuSans-2e" x="63.623047"/>
       <use xlink:href="#DejaVuSans-31" x="95.410156"/>
       <use xlink:href="#DejaVuSans-35" x="159.033203"/>
      </g>
     </g>
    </g>
    <g id="ytick_5">
     <g id="line2d_11">
      <path d="M 52.53375 50.649141 
L 409.65375 50.649141 
" clip-path="url(#pb9bf4687aa)" style="fill: none; stroke: #cccccc; stroke-width: 0.8; stroke-linecap: round"/>
     </g>
     <g id="text_12">
      <!-- 0.20 -->
      <g style="fill: #262626" transform="translate(24.64 53.992454) scale(0.088 -0.088)">
       <use xlink:href="#DejaVuSans-30"/>
       <use xlink:href="#DejaVuSans-2e" x="63.623047"/>
       <use xlink:href="#DejaVuSans-32" x="95.410156"/>
       <use xlink:href="#DejaVuSans-30" x="159.033203"/>
      </g>
     </g>
    </g>
    <g id="text_13">
     <!-- $\frac{d\,M}{d\,H}$ in $10^3\ \frac{A}{m}$ -->
     <g style="fill: #262626" transform="translate(16.608 167.76) rotate(-90) scale(0.096 -0.096)">
      <defs>
       <path id="DejaVuSans-Oblique-64" d="M 2675 525 
Q 2444 222 2128 65 
Q 1813 -91 1428 -91 
Q 903 -91 598 267 
Q 294 625 294 1247 
Q 294 1766 478 2236 
Q 663 2706 1013 3078 
Q 1244 3325 1534 3454 
Q 1825 3584 2144 3584 
Q 2481 3584 2739 3421 
Q 2997 3259 3138 2956 
L 3513 4863 
L 4091 4863 
L 3144 0 
L 2566 0 
L 2675 525 
z
M 891 1350 
Q 891 897 1095 644 
Q 1300 391 1663 391 
Q 1931 391 2161 520 
Q 2391 650 2566 903 
Q 2750 1166 2856 1509 
Q 2963 1853 2963 2188 
Q 2963 2622 2758 2865 
Q 2553 3109 2194 3109 
Q 1922 3109 1687 2981 
Q 1453 2853 1288 2613 
Q 1106 2353 998 2009 
Q 891 1666 891 1350 
z
" transform="scale(0.015625)"/>
       <path id="DejaVuSans-Oblique-4d" d="M 1081 4666 
L 2028 4666 
L 2572 1522 
L 4378 4666 
L 5350 4666 
L 4441 0 
L 3828 0 
L 4622 4091 
L 2791 897 
L 2175 897 
L 1581 4103 
L 788 0 
L 172 0 
L 1081 4666 
z
" transform="scale(0.015625)"/>
      </defs>
      <use xlink:href="#DejaVuSans-Oblique-64" transform="translate(0 44.810938) scale(0.7)"/>
      <use xlink:href="#DejaVuSans-Oblique-4d" transform="translate(55.798567 44.810938) scale(0.7)"/>
      <use xlink:href="#DejaVuSans-Oblique-64" transform="translate(4 -40.623437) scale(0.7)"/>
      <use xlink:href="#DejaVuSans-Oblique-48" transform="translate(59.798567 -40.623437) scale(0.7)"/>
      <use xlink:href="#DejaVuSans-20" transform="translate(128.694075 0.01875)"/>
      <use xlink:href="#DejaVuSans-69" transform="translate(160.481184 0.01875)"/>
      <use xlink:href="#DejaVuSans-6e" transform="translate(188.264387 0.01875)"/>
      <use xlink:href="#DejaVuSans-20" transform="translate(251.643294 0.01875)"/>
      <use xlink:href="#DejaVuSans-31" transform="translate(283.430403 0.01875)"/>
      <use xlink:href="#DejaVuSans-30" transform="translate(347.05345 0.01875)"/>
      <use xlink:href="#DejaVuSans-33" transform="translate(411.633528 38.3) scale(0.7)"/>
      <use xlink:href="#DejaVuSans-Oblique-41" transform="translate(501.374414 43.815625) scale(0.7)"/>
      <use xlink:href="#DejaVuSans-Oblique-6d" transform="translate(491.374414 -26.634375) scale(0.7)"/>
      <path d="M 0 18.815625 
L 0 25.065625 
L 116.194075 25.065625 
L 116.194075 18.815625 
L 0 18.815625 
z
"/>
      <path d="M 491.374414 18.815625 
L 491.374414 25.065625 
L 559.562891 25.065625 
L 559.562891 18.815625 
L 491.374414 18.815625 
z
"/>
     </g>
    </g>
   </g>
   <g id="line2d_12">
    <path d="M 78.340676 34.826877 
L 81.523306 19.296 
L 84.705936 52.062469 
L 87.888565 127.245298 
L 91.071195 170.475877 
L 94.253825 194.632007 
L 97.436455 209.565313 
L 100.619084 220.810213 
L 103.801714 227.173719 
L 106.984344 232.869473 
L 110.166974 237.785545 
L 113.349603 240.374606 
L 116.532233 244.22004 
L 119.714863 246.979109 
L 122.897493 247.643582 
L 126.080122 248.627419 
L 129.262752 248.988283 
L 132.445382 248.988283 
L 135.628012 250.991919 
L 138.810642 253.092657 
L 141.993271 252.667743 
L 145.175901 252.605275 
L 148.358531 253.257677 
L 151.541161 253.86888 
L 154.72379 254.568966 
L 157.90642 254.850705 
L 161.08905 254.856651 
L 164.27168 255.057823 
L 167.454309 255.131864 
L 170.636939 254.054143 
L 173.819569 253.842238 
L 177.002199 255.395458 
L 180.184828 256.199673 
L 183.367458 256.185639 
L 186.550088 256.521047 
L 189.732718 257.017799 
L 192.915348 257.859422 
L 196.097977 258.381059 
L 199.280607 257.272674 
L 202.463237 256.686956 
L 205.645867 257.259544 
L 208.828496 257.583595 
L 212.011126 257.765923 
L 215.193756 257.874465 
L 218.376386 257.964679 
L 221.559015 258.027757 
L 224.741645 258.325249 
L 227.924275 258.61784 
L 231.106905 258.522996 
L 234.289534 258.38694 
L 237.472164 258.27775 
L 240.654794 258.513295 
L 243.837424 258.295349 
L 247.020054 257.042962 
L 250.202683 257.915372 
L 253.385313 258.541422 
L 256.567943 257.775492 
L 259.750573 258.300694 
L 262.933202 259.275427 
L 266.115832 259.757691 
L 269.298462 258.938253 
L 272.481092 258.117176 
L 275.663721 258.36073 
L 278.846351 258.759376 
L 282.028981 258.717341 
L 285.211611 258.784217 
L 288.39424 259.099769 
L 291.57687 259.232554 
L 294.7595 258.86872 
L 297.94213 258.198994 
L 301.12476 258.1592 
L 304.307389 258.622927 
L 307.490019 259.571353 
L 310.672649 260.091477 
L 313.855279 259.421188 
L 317.037908 258.867643 
L 320.220538 258.687217 
L 323.403168 259.127485 
L 326.585798 259.662626 
L 329.768427 259.532246 
L 332.951057 258.230622 
L 336.133687 258.264813 
L 339.316317 259.367125 
L 342.498946 259.554786 
L 345.681576 259.378543 
L 348.864206 257.649354 
L 352.046836 258.522756 
L 355.229466 260.045025 
L 358.412095 258.511653 
L 361.594725 259.422414 
L 364.777355 260.056986 
L 367.959985 259.590071 
L 371.142614 260.04317 
L 374.325244 260.006515 
L 377.507874 259.653099 
L 380.690504 258.737462 
L 383.873133 259.090713 
L 387.055763 259.278034 
L 390.238393 258.104251 
L 393.421023 257.546422 
" clip-path="url(#pb9bf4687aa)" style="fill: none; stroke: #4c72b0; stroke-width: 1.2; stroke-linecap: round"/>
   </g>
   <g id="line2d_13">
    <path d="M 68.766477 256.448612 
L 68.861792 255.96574 
L 68.957106 255.455313 
L 69.052421 255.446338 
L 69.147735 255.601687 
L 69.24305 255.532784 
L 69.338364 255.319651 
L 69.433679 255.338022 
L 69.528993 255.351082 
L 69.624307 255.205331 
L 69.719622 255.049572 
L 69.814936 255.119739 
L 69.910251 254.926172 
L 70.005565 254.679301 
L 70.10088 254.961072 
L 70.196194 255.185358 
L 70.291509 255.020071 
L 70.386823 254.717705 
L 70.482138 254.53514 
L 70.577452 254.542935 
L 70.672767 254.493466 
L 70.768081 254.240745 
L 70.863395 254.135091 
L 70.95871 254.031342 
L 71.054024 253.693787 
L 71.149339 253.549891 
L 71.244653 253.648784 
L 71.339968 254.075852 
L 71.435282 254.249086 
L 71.530597 253.849517 
L 71.625911 253.598107 
L 71.721226 253.337969 
L 71.81654 253.072324 
L 71.911855 252.87541 
L 72.007169 252.777292 
L 72.102483 252.996254 
L 72.197798 252.81874 
L 72.293112 252.828611 
L 72.388427 253.06287 
L 72.483741 252.674802 
L 72.579056 252.412245 
L 72.67437 252.447494 
L 72.769685 252.421941 
L 72.864999 252.248042 
L 72.960314 251.916741 
L 73.055628 251.814721 
L 73.150943 252.25037 
L 73.246257 251.969073 
L 73.341571 251.269293 
L 73.436886 251.370479 
L 73.5322 252.013046 
L 73.627515 252.057939 
L 73.722829 251.469355 
L 73.818144 251.524975 
L 73.913458 251.776908 
L 74.008773 251.211261 
L 74.104087 250.683128 
L 74.199402 251.017775 
L 74.294716 251.259519 
L 74.390031 251.117321 
L 74.485345 251.137367 
L 74.58066 251.311936 
L 74.675974 251.418202 
L 74.771288 251.523962 
L 74.866603 251.501988 
L 74.961917 251.383301 
L 75.057232 251.44079 
L 75.152546 251.727274 
L 75.247861 251.995849 
L 75.343175 252.269089 
L 75.43849 252.321866 
L 75.533804 252.175449 
L 75.629119 251.924716 
L 75.724433 251.852561 
L 75.819748 252.079204 
L 75.915062 252.339153 
L 76.010376 252.68059 
L 76.105691 252.970231 
L 76.201005 253.162476 
L 76.29632 253.313944 
L 76.391634 253.431755 
L 76.486949 253.610534 
L 76.582263 253.778393 
L 76.677578 253.933821 
L 76.772892 254.157518 
L 76.868207 254.33955 
L 76.963521 254.462767 
L 77.058836 254.437446 
L 77.15415 254.663066 
L 77.249464 254.973747 
L 77.344779 255.120684 
L 77.440093 255.350571 
L 77.535408 255.597816 
L 77.630722 255.697028 
L 77.726037 255.829094 
L 77.821351 256.197567 
L 77.916666 256.419179 
L 78.01198 256.207094 
L 78.107295 258.605505 
L 78.202609 261.216 
" clip-path="url(#pb9bf4687aa)" style="fill: none; stroke: #dd8452; stroke-width: 1.2; stroke-linecap: round"/>
   </g>
   <g id="patch_3">
    <path d="M 52.53375 273.312 
L 52.53375 7.2 
" style="fill: none; stroke: #cccccc; stroke-linejoin: miter; stroke-linecap: square"/>
   </g>
   <g id="patch_4">
    <path d="M 409.65375 273.312 
L 409.65375 7.2 
" style="fill: none; stroke: #cccccc; stroke-linejoin: miter; stroke-linecap: square"/>
   </g>
   <g id="patch_5">
    <path d="M 52.53375 273.312 
L 409.65375 273.312 
" style="fill: none; stroke: #cccccc; stroke-linejoin: miter; stroke-linecap: square"/>
   </g>
   <g id="patch_6">
    <path d="M 52.53375 7.2 
L 409.65375 7.2 
" style="fill: none; stroke: #cccccc; stroke-linejoin: miter; stroke-linecap: square"/>
   </g>
   <g id="legend_1">
    <g id="patch_7">
     <path d="M 316.81375 40.0735 
L 403.49375 40.0735 
Q 405.25375 40.0735 405.25375 38.3135 
L 405.25375 13.36 
Q 405.25375 11.6 403.49375 11.6 
L 316.81375 11.6 
Q 315.05375 11.6 315.05375 13.36 
L 315.05375 38.3135 
Q 315.05375 40.0735 316.81375 40.0735 
z
" style="fill: #ffffff; opacity: 0.8; stroke: #cccccc; stroke-width: 0.8; stroke-linejoin: miter"/>
    </g>
    <g id="line2d_14">
     <path d="M 318.57375 18.726625 
L 327.37375 18.726625 
L 336.17375 18.726625 
" style="fill: none; stroke: #4c72b0; stroke-width: 1.2; stroke-linecap: round"/>
    </g>
    <g id="text_14">
     <!-- $I_\mathrm{max} = 3$A -->
     <g style="fill: #262626" transform="translate(343.21375 21.806625) scale(0.088 -0.088)">
      <defs>
       <path id="DejaVuSans-Oblique-49" d="M 1081 4666 
L 1716 4666 
L 806 0 
L 172 0 
L 1081 4666 
z
" transform="scale(0.015625)"/>
       <path id="DejaVuSans-6d" d="M 3328 2828 
Q 3544 3216 3844 3400 
Q 4144 3584 4550 3584 
Q 5097 3584 5394 3201 
Q 5691 2819 5691 2113 
L 5691 0 
L 5113 0 
L 5113 2094 
Q 5113 2597 4934 2840 
Q 4756 3084 4391 3084 
Q 3944 3084 3684 2787 
Q 3425 2491 3425 1978 
L 3425 0 
L 2847 0 
L 2847 2094 
Q 2847 2600 2669 2842 
Q 2491 3084 2119 3084 
Q 1678 3084 1418 2786 
Q 1159 2488 1159 1978 
L 1159 0 
L 581 0 
L 581 3500 
L 1159 3500 
L 1159 2956 
Q 1356 3278 1631 3431 
Q 1906 3584 2284 3584 
Q 2666 3584 2933 3390 
Q 3200 3197 3328 2828 
z
" transform="scale(0.015625)"/>
       <path id="DejaVuSans-61" d="M 2194 1759 
Q 1497 1759 1228 1600 
Q 959 1441 959 1056 
Q 959 750 1161 570 
Q 1363 391 1709 391 
Q 2188 391 2477 730 
Q 2766 1069 2766 1631 
L 2766 1759 
L 2194 1759 
z
M 3341 1997 
L 3341 0 
L 2766 0 
L 2766 531 
Q 2569 213 2275 61 
Q 1981 -91 1556 -91 
Q 1019 -91 701 211 
Q 384 513 384 1019 
Q 384 1609 779 1909 
Q 1175 2209 1959 2209 
L 2766 2209 
L 2766 2266 
Q 2766 2663 2505 2880 
Q 2244 3097 1772 3097 
Q 1472 3097 1187 3025 
Q 903 2953 641 2809 
L 641 3341 
Q 956 3463 1253 3523 
Q 1550 3584 1831 3584 
Q 2591 3584 2966 3190 
Q 3341 2797 3341 1997 
z
" transform="scale(0.015625)"/>
       <path id="DejaVuSans-78" d="M 3513 3500 
L 2247 1797 
L 3578 0 
L 2900 0 
L 1881 1375 
L 863 0 
L 184 0 
L 1544 1831 
L 300 3500 
L 978 3500 
L 1906 2253 
L 2834 3500 
L 3513 3500 
z
" transform="scale(0.015625)"/>
       <path id="DejaVuSans-3d" d="M 678 2906 
L 4684 2906 
L 4684 2381 
L 678 2381 
L 678 2906 
z
M 678 1631 
L 4684 1631 
L 4684 1100 
L 678 1100 
L 678 1631 
z
" transform="scale(0.015625)"/>
       <path id="DejaVuSans-41" d="M 2188 4044 
L 1331 1722 
L 3047 1722 
L 2188 4044 
z
M 1831 4666 
L 2547 4666 
L 4325 0 
L 3669 0 
L 3244 1197 
L 1141 1197 
L 716 0 
L 50 0 
L 1831 4666 
z
" transform="scale(0.015625)"/>
      </defs>
      <use xlink:href="#DejaVuSans-Oblique-49" transform="translate(0 0.78125)"/>
      <use xlink:href="#DejaVuSans-6d" transform="translate(29.492188 -15.625) scale(0.7)"/>
      <use xlink:href="#DejaVuSans-61" transform="translate(97.680664 -15.625) scale(0.7)"/>
      <use xlink:href="#DejaVuSans-78" transform="translate(140.576172 -15.625) scale(0.7)"/>
      <use xlink:href="#DejaVuSans-3d" transform="translate(204.21875 0.78125)"/>
      <use xlink:href="#DejaVuSans-33" transform="translate(307.490234 0.78125)"/>
      <use xlink:href="#DejaVuSans-41" transform="translate(371.113281 0.78125)"/>
     </g>
    </g>
    <g id="line2d_15">
     <path d="M 318.57375 31.643375 
L 327.37375 31.643375 
L 336.17375 31.643375 
" style="fill: none; stroke: #dd8452; stroke-width: 1.2; stroke-linecap: round"/>
    </g>
    <g id="text_15">
     <!-- $I_\mathrm{max} = 100$mA -->
     <g style="fill: #262626" transform="translate(343.21375 34.723375) scale(0.088 -0.088)">
      <use xlink:href="#DejaVuSans-Oblique-49" transform="translate(0 0.78125)"/>
      <use xlink:href="#DejaVuSans-6d" transform="translate(29.492188 -15.625) scale(0.7)"/>
      <use xlink:href="#DejaVuSans-61" transform="translate(97.680664 -15.625) scale(0.7)"/>
      <use xlink:href="#DejaVuSans-78" transform="translate(140.576172 -15.625) scale(0.7)"/>
      <use xlink:href="#DejaVuSans-3d" transform="translate(204.21875 0.78125)"/>
      <use xlink:href="#DejaVuSans-31" transform="translate(307.490234 0.78125)"/>
      <use xlink:href="#DejaVuSans-30" transform="translate(371.113281 0.78125)"/>
      <use xlink:href="#DejaVuSans-30" transform="translate(434.736328 0.78125)"/>
      <use xlink:href="#DejaVuSans-6d" transform="translate(498.359375 0.78125)"/>
      <use xlink:href="#DejaVuSans-41" transform="translate(595.771484 0.78125)"/>
     </g>
    </g>
   </g>
  </g>
 </g>
 <defs>
  <clipPath id="pb9bf4687aa">
   <rect x="52.53375" y="7.2" width="357.12" height="266.112"/>
  </clipPath>
 </defs>
</svg>
