<?xml version="1.0" encoding="utf-8" standalone="no"?>
<!DOCTYPE svg PUBLIC "-//W3C//DTD SVG 1.1//EN"
  "http://www.w3.org/Graphics/SVG/1.1/DTD/svg11.dtd">
<svg xmlns:xlink="http://www.w3.org/1999/xlink" width="460.8pt" height="345.6pt" viewBox="0 0 460.8 345.6" xmlns="http://www.w3.org/2000/svg" version="1.1">
 <metadata>
  <rdf:RDF xmlns:dc="http://purl.org/dc/elements/1.1/" xmlns:cc="http://creativecommons.org/ns#" xmlns:rdf="http://www.w3.org/1999/02/22-rdf-syntax-ns#">
   <cc:Work>
    <dc:type rdf:resource="http://purl.org/dc/dcmitype/StillImage"/>
    <dc:date>2024-02-20T14:46:30.120304</dc:date>
    <dc:format>image/svg+xml</dc:format>
    <dc:creator>
     <cc:Agent>
      <dc:title>Matplotlib v3.8.2, https://matplotlib.org/</dc:title>
     </cc:Agent>
    </dc:creator>
   </cc:Work>
  </rdf:RDF>
 </metadata>
 <defs>
  <style type="text/css">*{stroke-linejoin: round; stroke-linecap: butt}</style>
 </defs>
 <g id="figure_1">
  <g id="patch_1">
   <path d="M 0 345.6 
L 460.8 345.6 
L 460.8 0 
L 0 0 
z
" style="fill: #ffffff"/>
  </g>
  <g id="axes_1">
   <g id="patch_2">
    <path d="M 57.6 307.584 
L 414.72 307.584 
L 414.72 41.472 
L 57.6 41.472 
z
" style="fill: #ffffff"/>
   </g>
   <g id="matplotlib.axis_1">
    <g id="xtick_1">
     <g id="line2d_1">
      <path d="M 73.832727 307.584 
L 73.832727 41.472 
" clip-path="url(#p49ac256d4f)" style="fill: none; stroke: #cccccc; stroke-width: 0.8; stroke-linecap: round"/>
     </g>
     <g id="text_1">
      <!-- 0.00 -->
      <g style="fill: #262626" transform="translate(61.586634 324.242281) scale(0.11 -0.11)">
       <defs>
        <path id="DejaVuSans-30" d="M 2034 4250 
Q 1547 4250 1301 3770 
Q 1056 3291 1056 2328 
Q 1056 1369 1301 889 
Q 1547 409 2034 409 
Q 2525 409 2770 889 
Q 3016 1369 3016 2328 
Q 3016 3291 2770 3770 
Q 2525 4250 2034 4250 
z
M 2034 4750 
Q 2819 4750 3233 4129 
Q 3647 3509 3647 2328 
Q 3647 1150 3233 529 
Q 2819 -91 2034 -91 
Q 1250 -91 836 529 
Q 422 1150 422 2328 
Q 422 3509 836 4129 
Q 1250 4750 2034 4750 
z
" transform="scale(0.015625)"/>
        <path id="DejaVuSans-2e" d="M 684 794 
L 1344 794 
L 1344 0 
L 684 0 
L 684 794 
z
" transform="scale(0.015625)"/>
       </defs>
       <use xlink:href="#DejaVuSans-30"/>
       <use xlink:href="#DejaVuSans-2e" x="63.623047"/>
       <use xlink:href="#DejaVuSans-30" x="95.410156"/>
       <use xlink:href="#DejaVuSans-30" x="159.033203"/>
      </g>
     </g>
    </g>
    <g id="xtick_2">
     <g id="line2d_2">
      <path d="M 127.941818 307.584 
L 127.941818 41.472 
" clip-path="url(#p49ac256d4f)" style="fill: none; stroke: #cccccc; stroke-width: 0.8; stroke-linecap: round"/>
     </g>
     <g id="text_2">
      <!-- 0.05 -->
      <g style="fill: #262626" transform="translate(115.695724 324.242281) scale(0.11 -0.11)">
       <defs>
        <path id="DejaVuSans-35" d="M 691 4666 
L 3169 4666 
L 3169 4134 
L 1269 4134 
L 1269 2991 
Q 1406 3038 1543 3061 
Q 1681 3084 1819 3084 
Q 2600 3084 3056 2656 
Q 3513 2228 3513 1497 
Q 3513 744 3044 326 
Q 2575 -91 1722 -91 
Q 1428 -91 1123 -41 
Q 819 9 494 109 
L 494 744 
Q 775 591 1075 516 
Q 1375 441 1709 441 
Q 2250 441 2565 725 
Q 2881 1009 2881 1497 
Q 2881 1984 2565 2268 
Q 2250 2553 1709 2553 
Q 1456 2553 1204 2497 
Q 953 2441 691 2322 
L 691 4666 
z
" transform="scale(0.015625)"/>
       </defs>
       <use xlink:href="#DejaVuSans-30"/>
       <use xlink:href="#DejaVuSans-2e" x="63.623047"/>
       <use xlink:href="#DejaVuSans-30" x="95.410156"/>
       <use xlink:href="#DejaVuSans-35" x="159.033203"/>
      </g>
     </g>
    </g>
    <g id="xtick_3">
     <g id="line2d_3">
      <path d="M 182.050909 307.584 
L 182.050909 41.472 
" clip-path="url(#p49ac256d4f)" style="fill: none; stroke: #cccccc; stroke-width: 0.8; stroke-linecap: round"/>
     </g>
     <g id="text_3">
      <!-- 0.10 -->
      <g style="fill: #262626" transform="translate(169.804815 324.242281) scale(0.11 -0.11)">
       <defs>
        <path id="DejaVuSans-31" d="M 794 531 
L 1825 531 
L 1825 4091 
L 703 3866 
L 703 4441 
L 1819 4666 
L 2450 4666 
L 2450 531 
L 3481 531 
L 3481 0 
L 794 0 
L 794 531 
z
" transform="scale(0.015625)"/>
       </defs>
       <use xlink:href="#DejaVuSans-30"/>
       <use xlink:href="#DejaVuSans-2e" x="63.623047"/>
       <use xlink:href="#DejaVuSans-31" x="95.410156"/>
       <use xlink:href="#DejaVuSans-30" x="159.033203"/>
      </g>
     </g>
    </g>
    <g id="xtick_4">
     <g id="line2d_4">
      <path d="M 236.16 307.584 
L 236.16 41.472 
" clip-path="url(#p49ac256d4f)" style="fill: none; stroke: #cccccc; stroke-width: 0.8; stroke-linecap: round"/>
     </g>
     <g id="text_4">
      <!-- 0.15 -->
      <g style="fill: #262626" transform="translate(223.913906 324.242281) scale(0.11 -0.11)">
       <use xlink:href="#DejaVuSans-30"/>
       <use xlink:href="#DejaVuSans-2e" x="63.623047"/>
       <use xlink:href="#DejaVuSans-31" x="95.410156"/>
       <use xlink:href="#DejaVuSans-35" x="159.033203"/>
      </g>
     </g>
    </g>
    <g id="xtick_5">
     <g id="line2d_5">
      <path d="M 290.269091 307.584 
L 290.269091 41.472 
" clip-path="url(#p49ac256d4f)" style="fill: none; stroke: #cccccc; stroke-width: 0.8; stroke-linecap: round"/>
     </g>
     <g id="text_5">
      <!-- 0.20 -->
      <g style="fill: #262626" transform="translate(278.022997 324.242281) scale(0.11 -0.11)">
       <defs>
        <path id="DejaVuSans-32" d="M 1228 531 
L 3431 531 
L 3431 0 
L 469 0 
L 469 531 
Q 828 903 1448 1529 
Q 2069 2156 2228 2338 
Q 2531 2678 2651 2914 
Q 2772 3150 2772 3378 
Q 2772 3750 2511 3984 
Q 2250 4219 1831 4219 
Q 1534 4219 1204 4116 
Q 875 4013 500 3803 
L 500 4441 
Q 881 4594 1212 4672 
Q 1544 4750 1819 4750 
Q 2544 4750 2975 4387 
Q 3406 4025 3406 3419 
Q 3406 3131 3298 2873 
Q 3191 2616 2906 2266 
Q 2828 2175 2409 1742 
Q 1991 1309 1228 531 
z
" transform="scale(0.015625)"/>
       </defs>
       <use xlink:href="#DejaVuSans-30"/>
       <use xlink:href="#DejaVuSans-2e" x="63.623047"/>
       <use xlink:href="#DejaVuSans-32" x="95.410156"/>
       <use xlink:href="#DejaVuSans-30" x="159.033203"/>
      </g>
     </g>
    </g>
    <g id="xtick_6">
     <g id="line2d_6">
      <path d="M 344.378182 307.584 
L 344.378182 41.472 
" clip-path="url(#p49ac256d4f)" style="fill: none; stroke: #cccccc; stroke-width: 0.8; stroke-linecap: round"/>
     </g>
     <g id="text_6">
      <!-- 0.25 -->
      <g style="fill: #262626" transform="translate(332.132088 324.242281) scale(0.11 -0.11)">
       <use xlink:href="#DejaVuSans-30"/>
       <use xlink:href="#DejaVuSans-2e" x="63.623047"/>
       <use xlink:href="#DejaVuSans-32" x="95.410156"/>
       <use xlink:href="#DejaVuSans-35" x="159.033203"/>
      </g>
     </g>
    </g>
    <g id="xtick_7">
     <g id="line2d_7">
      <path d="M 398.487273 307.584 
L 398.487273 41.472 
" clip-path="url(#p49ac256d4f)" style="fill: none; stroke: #cccccc; stroke-width: 0.8; stroke-linecap: round"/>
     </g>
     <g id="text_7">
      <!-- 0.30 -->
      <g style="fill: #262626" transform="translate(386.241179 324.242281) scale(0.11 -0.11)">
       <defs>
        <path id="DejaVuSans-33" d="M 2597 2516 
Q 3050 2419 3304 2112 
Q 3559 1806 3559 1356 
Q 3559 666 3084 287 
Q 2609 -91 1734 -91 
Q 1441 -91 1130 -33 
Q 819 25 488 141 
L 488 750 
Q 750 597 1062 519 
Q 1375 441 1716 441 
Q 2309 441 2620 675 
Q 2931 909 2931 1356 
Q 2931 1769 2642 2001 
Q 2353 2234 1838 2234 
L 1294 2234 
L 1294 2753 
L 1863 2753 
Q 2328 2753 2575 2939 
Q 2822 3125 2822 3475 
Q 2822 3834 2567 4026 
Q 2313 4219 1838 4219 
Q 1578 4219 1281 4162 
Q 984 4106 628 3988 
L 628 4550 
Q 988 4650 1302 4700 
Q 1616 4750 1894 4750 
Q 2613 4750 3031 4423 
Q 3450 4097 3450 3541 
Q 3450 3153 3228 2886 
Q 3006 2619 2597 2516 
z
" transform="scale(0.015625)"/>
       </defs>
       <use xlink:href="#DejaVuSans-30"/>
       <use xlink:href="#DejaVuSans-2e" x="63.623047"/>
       <use xlink:href="#DejaVuSans-33" x="95.410156"/>
       <use xlink:href="#DejaVuSans-30" x="159.033203"/>
      </g>
     </g>
    </g>
    <g id="text_8">
     <!-- $z_0\ [\AA]$ -->
     <g style="fill: #262626" transform="translate(218.025 342.256344) scale(0.13 -0.13)">
      <defs>
       <path id="DejaVuSans-Oblique-7a" d="M 744 3500 
L 3475 3500 
L 3372 2975 
L 738 459 
L 2913 459 
L 2822 0 
L -19 0 
L 84 525 
L 2719 3041 
L 653 3041 
L 744 3500 
z
" transform="scale(0.015625)"/>
       <path id="DejaVuSans-5b" d="M 550 4863 
L 1875 4863 
L 1875 4416 
L 1125 4416 
L 1125 -397 
L 1875 -397 
L 1875 -844 
L 550 -844 
L 550 4863 
z
" transform="scale(0.015625)"/>
       <path id="DejaVuSans-Oblique-c5" d="M 3188 5081 
Q 3188 5278 3048 5417 
Q 2909 5556 2713 5556 
Q 2513 5556 2377 5420 
Q 2241 5284 2241 5081 
Q 2241 4884 2377 4746 
Q 2513 4609 2713 4609 
Q 2909 4609 3048 4746 
Q 3188 4884 3188 5081 
z
M 2203 4397 
Q 2034 4513 1945 4689 
Q 1856 4866 1856 5081 
Q 1856 5438 2106 5689 
Q 2356 5941 2713 5941 
Q 3069 5941 3320 5689 
Q 3572 5438 3572 5081 
Q 3572 4834 3458 4643 
Q 3344 4453 3128 4341 
L 3938 0 
L 3278 0 
L 3084 1197 
L 984 1197 
L 325 0 
L -341 0 
L 2203 4397 
z
M 2584 4044 
L 1275 1722 
L 2988 1722 
L 2584 4044 
z
" transform="scale(0.015625)"/>
       <path id="DejaVuSans-5d" d="M 1947 4863 
L 1947 -844 
L 622 -844 
L 622 -397 
L 1369 -397 
L 1369 4416 
L 622 4416 
L 622 4863 
L 1947 4863 
z
" transform="scale(0.015625)"/>
      </defs>
      <use xlink:href="#DejaVuSans-Oblique-7a" transform="translate(0 0.171875)"/>
      <use xlink:href="#DejaVuSans-30" transform="translate(52.490234 -16.234375) scale(0.7)"/>
      <use xlink:href="#DejaVuSans-5b" transform="translate(132.231121 0.171875)"/>
      <use xlink:href="#DejaVuSans-Oblique-c5" transform="translate(171.244792 0.171875)"/>
      <use xlink:href="#DejaVuSans-5d" transform="translate(239.652996 0.171875)"/>
     </g>
    </g>
   </g>
   <g id="matplotlib.axis_2">
    <g id="ytick_1">
     <g id="line2d_8">
      <path d="M 57.6 300.349706 
L 414.72 300.349706 
" clip-path="url(#p49ac256d4f)" style="fill: none; stroke: #cccccc; stroke-width: 0.8; stroke-linecap: round"/>
     </g>
     <g id="text_9">
      <!-- 10.75 -->
      <g style="fill: #262626" transform="translate(17.809062 304.528847) scale(0.11 -0.11)">
       <defs>
        <path id="DejaVuSans-37" d="M 525 4666 
L 3525 4666 
L 3525 4397 
L 1831 0 
L 1172 0 
L 2766 4134 
L 525 4134 
L 525 4666 
z
" transform="scale(0.015625)"/>
       </defs>
       <use xlink:href="#DejaVuSans-31"/>
       <use xlink:href="#DejaVuSans-30" x="63.623047"/>
       <use xlink:href="#DejaVuSans-2e" x="127.246094"/>
       <use xlink:href="#DejaVuSans-37" x="159.033203"/>
       <use xlink:href="#DejaVuSans-35" x="222.65625"/>
      </g>
     </g>
    </g>
    <g id="ytick_2">
     <g id="line2d_9">
      <path d="M 57.6 266.847427 
L 414.72 266.847427 
" clip-path="url(#p49ac256d4f)" style="fill: none; stroke: #cccccc; stroke-width: 0.8; stroke-linecap: round"/>
     </g>
     <g id="text_10">
      <!-- 11.00 -->
      <g style="fill: #262626" transform="translate(17.809062 271.026567) scale(0.11 -0.11)">
       <use xlink:href="#DejaVuSans-31"/>
       <use xlink:href="#DejaVuSans-31" x="63.623047"/>
       <use xlink:href="#DejaVuSans-2e" x="127.246094"/>
       <use xlink:href="#DejaVuSans-30" x="159.033203"/>
       <use xlink:href="#DejaVuSans-30" x="222.65625"/>
      </g>
     </g>
    </g>
    <g id="ytick_3">
     <g id="line2d_10">
      <path d="M 57.6 233.345147 
L 414.72 233.345147 
" clip-path="url(#p49ac256d4f)" style="fill: none; stroke: #cccccc; stroke-width: 0.8; stroke-linecap: round"/>
     </g>
     <g id="text_11">
      <!-- 11.25 -->
      <g style="fill: #262626" transform="translate(17.809062 237.524288) scale(0.11 -0.11)">
       <use xlink:href="#DejaVuSans-31"/>
       <use xlink:href="#DejaVuSans-31" x="63.623047"/>
       <use xlink:href="#DejaVuSans-2e" x="127.246094"/>
       <use xlink:href="#DejaVuSans-32" x="159.033203"/>
       <use xlink:href="#DejaVuSans-35" x="222.65625"/>
      </g>
     </g>
    </g>
    <g id="ytick_4">
     <g id="line2d_11">
      <path d="M 57.6 199.842868 
L 414.72 199.842868 
" clip-path="url(#p49ac256d4f)" style="fill: none; stroke: #cccccc; stroke-width: 0.8; stroke-linecap: round"/>
     </g>
     <g id="text_12">
      <!-- 11.50 -->
      <g style="fill: #262626" transform="translate(17.809062 204.022009) scale(0.11 -0.11)">
       <use xlink:href="#DejaVuSans-31"/>
       <use xlink:href="#DejaVuSans-31" x="63.623047"/>
       <use xlink:href="#DejaVuSans-2e" x="127.246094"/>
       <use xlink:href="#DejaVuSans-35" x="159.033203"/>
       <use xlink:href="#DejaVuSans-30" x="222.65625"/>
      </g>
     </g>
    </g>
    <g id="ytick_5">
     <g id="line2d_12">
      <path d="M 57.6 166.340589 
L 414.72 166.340589 
" clip-path="url(#p49ac256d4f)" style="fill: none; stroke: #cccccc; stroke-width: 0.8; stroke-linecap: round"/>
     </g>
     <g id="text_13">
      <!-- 11.75 -->
      <g style="fill: #262626" transform="translate(17.809062 170.519729) scale(0.11 -0.11)">
       <use xlink:href="#DejaVuSans-31"/>
       <use xlink:href="#DejaVuSans-31" x="63.623047"/>
       <use xlink:href="#DejaVuSans-2e" x="127.246094"/>
       <use xlink:href="#DejaVuSans-37" x="159.033203"/>
       <use xlink:href="#DejaVuSans-35" x="222.65625"/>
      </g>
     </g>
    </g>
    <g id="ytick_6">
     <g id="line2d_13">
      <path d="M 57.6 132.838309 
L 414.72 132.838309 
" clip-path="url(#p49ac256d4f)" style="fill: none; stroke: #cccccc; stroke-width: 0.8; stroke-linecap: round"/>
     </g>
     <g id="text_14">
      <!-- 12.00 -->
      <g style="fill: #262626" transform="translate(17.809062 137.01745) scale(0.11 -0.11)">
       <use xlink:href="#DejaVuSans-31"/>
       <use xlink:href="#DejaVuSans-32" x="63.623047"/>
       <use xlink:href="#DejaVuSans-2e" x="127.246094"/>
       <use xlink:href="#DejaVuSans-30" x="159.033203"/>
       <use xlink:href="#DejaVuSans-30" x="222.65625"/>
      </g>
     </g>
    </g>
    <g id="ytick_7">
     <g id="line2d_14">
      <path d="M 57.6 99.33603 
L 414.72 99.33603 
" clip-path="url(#p49ac256d4f)" style="fill: none; stroke: #cccccc; stroke-width: 0.8; stroke-linecap: round"/>
     </g>
     <g id="text_15">
      <!-- 12.25 -->
      <g style="fill: #262626" transform="translate(17.809062 103.51517) scale(0.11 -0.11)">
       <use xlink:href="#DejaVuSans-31"/>
       <use xlink:href="#DejaVuSans-32" x="63.623047"/>
       <use xlink:href="#DejaVuSans-2e" x="127.246094"/>
       <use xlink:href="#DejaVuSans-32" x="159.033203"/>
       <use xlink:href="#DejaVuSans-35" x="222.65625"/>
      </g>
     </g>
    </g>
    <g id="ytick_8">
     <g id="line2d_15">
      <path d="M 57.6 65.83375 
L 414.72 65.83375 
" clip-path="url(#p49ac256d4f)" style="fill: none; stroke: #cccccc; stroke-width: 0.8; stroke-linecap: round"/>
     </g>
     <g id="text_16">
      <!-- 12.50 -->
      <g style="fill: #262626" transform="translate(17.809062 70.012891) scale(0.11 -0.11)">
       <use xlink:href="#DejaVuSans-31"/>
       <use xlink:href="#DejaVuSans-32" x="63.623047"/>
       <use xlink:href="#DejaVuSans-2e" x="127.246094"/>
       <use xlink:href="#DejaVuSans-35" x="159.033203"/>
       <use xlink:href="#DejaVuSans-30" x="222.65625"/>
      </g>
     </g>
    </g>
    <g id="text_17">
     <!-- $\ln(I(z_0))\ [\ln(\mathrm{A})]$ -->
     <g style="fill: #262626" transform="translate(11.105469 221.653) rotate(-90) scale(0.13 -0.13)">
      <defs>
       <path id="DejaVuSans-6c" d="M 603 4863 
L 1178 4863 
L 1178 0 
L 603 0 
L 603 4863 
z
" transform="scale(0.015625)"/>
       <path id="DejaVuSans-6e" d="M 3513 2113 
L 3513 0 
L 2938 0 
L 2938 2094 
Q 2938 2591 2744 2837 
Q 2550 3084 2163 3084 
Q 1697 3084 1428 2787 
Q 1159 2491 1159 1978 
L 1159 0 
L 581 0 
L 581 3500 
L 1159 3500 
L 1159 2956 
Q 1366 3272 1645 3428 
Q 1925 3584 2291 3584 
Q 2894 3584 3203 3211 
Q 3513 2838 3513 2113 
z
" transform="scale(0.015625)"/>
       <path id="DejaVuSans-28" d="M 1984 4856 
Q 1566 4138 1362 3434 
Q 1159 2731 1159 2009 
Q 1159 1288 1364 580 
Q 1569 -128 1984 -844 
L 1484 -844 
Q 1016 -109 783 600 
Q 550 1309 550 2009 
Q 550 2706 781 3412 
Q 1013 4119 1484 4856 
L 1984 4856 
z
" transform="scale(0.015625)"/>
       <path id="DejaVuSans-Oblique-49" d="M 1081 4666 
L 1716 4666 
L 806 0 
L 172 0 
L 1081 4666 
z
" transform="scale(0.015625)"/>
       <path id="DejaVuSans-29" d="M 513 4856 
L 1013 4856 
Q 1481 4119 1714 3412 
Q 1947 2706 1947 2009 
Q 1947 1309 1714 600 
Q 1481 -109 1013 -844 
L 513 -844 
Q 928 -128 1133 580 
Q 1338 1288 1338 2009 
Q 1338 2731 1133 3434 
Q 928 4138 513 4856 
z
" transform="scale(0.015625)"/>
       <path id="DejaVuSans-41" d="M 2188 4044 
L 1331 1722 
L 3047 1722 
L 2188 4044 
z
M 1831 4666 
L 2547 4666 
L 4325 0 
L 3669 0 
L 3244 1197 
L 1141 1197 
L 716 0 
L 50 0 
L 1831 4666 
z
" transform="scale(0.015625)"/>
      </defs>
      <use xlink:href="#DejaVuSans-6c" transform="translate(0 0.015625)"/>
      <use xlink:href="#DejaVuSans-6e" transform="translate(27.783203 0.015625)"/>
      <use xlink:href="#DejaVuSans-28" transform="translate(91.162109 0.015625)"/>
      <use xlink:href="#DejaVuSans-Oblique-49" transform="translate(130.175781 0.015625)"/>
      <use xlink:href="#DejaVuSans-28" transform="translate(159.667969 0.015625)"/>
      <use xlink:href="#DejaVuSans-Oblique-7a" transform="translate(198.681641 0.015625)"/>
      <use xlink:href="#DejaVuSans-30" transform="translate(251.171875 -16.390625) scale(0.7)"/>
      <use xlink:href="#DejaVuSans-29" transform="translate(298.442383 0.015625)"/>
      <use xlink:href="#DejaVuSans-29" transform="translate(337.456055 0.015625)"/>
      <use xlink:href="#DejaVuSans-5b" transform="translate(408.940105 0.015625)"/>
      <use xlink:href="#DejaVuSans-6c" transform="translate(447.953777 0.015625)"/>
      <use xlink:href="#DejaVuSans-6e" transform="translate(475.73698 0.015625)"/>
      <use xlink:href="#DejaVuSans-28" transform="translate(539.115886 0.015625)"/>
      <use xlink:href="#DejaVuSans-41" transform="translate(578.129558 0.015625)"/>
      <use xlink:href="#DejaVuSans-29" transform="translate(646.537761 0.015625)"/>
      <use xlink:href="#DejaVuSans-5d" transform="translate(685.551433 0.015625)"/>
     </g>
    </g>
   </g>
   <g id="LineCollection_1">
    <path d="M 73.832727 290.662759 
L 73.832727 289.695625 
" clip-path="url(#p49ac256d4f)" style="fill: none; stroke: #4c72b0; stroke-width: 1.2"/>
    <path d="M 80.45833 286.426537 
L 80.45833 285.426829 
" clip-path="url(#p49ac256d4f)" style="fill: none; stroke: #4c72b0; stroke-width: 1.2"/>
    <path d="M 87.083933 282.190314 
L 87.083933 281.158034 
" clip-path="url(#p49ac256d4f)" style="fill: none; stroke: #4c72b0; stroke-width: 1.2"/>
    <path d="M 93.709536 277.954091 
L 93.709536 276.889238 
" clip-path="url(#p49ac256d4f)" style="fill: none; stroke: #4c72b0; stroke-width: 1.2"/>
    <path d="M 100.335139 273.717869 
L 100.335139 272.620442 
" clip-path="url(#p49ac256d4f)" style="fill: none; stroke: #4c72b0; stroke-width: 1.2"/>
    <path d="M 106.960742 269.481646 
L 106.960742 268.351647 
" clip-path="url(#p49ac256d4f)" style="fill: none; stroke: #4c72b0; stroke-width: 1.2"/>
    <path d="M 113.586345 265.245424 
L 113.586345 264.082851 
" clip-path="url(#p49ac256d4f)" style="fill: none; stroke: #4c72b0; stroke-width: 1.2"/>
    <path d="M 120.211948 261.009201 
L 120.211948 259.814056 
" clip-path="url(#p49ac256d4f)" style="fill: none; stroke: #4c72b0; stroke-width: 1.2"/>
    <path d="M 126.837551 256.772979 
L 126.837551 255.54526 
" clip-path="url(#p49ac256d4f)" style="fill: none; stroke: #4c72b0; stroke-width: 1.2"/>
    <path d="M 133.463154 252.536756 
L 133.463154 251.276464 
" clip-path="url(#p49ac256d4f)" style="fill: none; stroke: #4c72b0; stroke-width: 1.2"/>
    <path d="M 140.088757 248.300534 
L 140.088757 247.007669 
" clip-path="url(#p49ac256d4f)" style="fill: none; stroke: #4c72b0; stroke-width: 1.2"/>
    <path d="M 146.71436 244.064311 
L 146.71436 242.738873 
" clip-path="url(#p49ac256d4f)" style="fill: none; stroke: #4c72b0; stroke-width: 1.2"/>
    <path d="M 153.339963 239.828089 
L 153.339963 238.470078 
" clip-path="url(#p49ac256d4f)" style="fill: none; stroke: #4c72b0; stroke-width: 1.2"/>
    <path d="M 159.965566 235.591866 
L 159.965566 234.201282 
" clip-path="url(#p49ac256d4f)" style="fill: none; stroke: #4c72b0; stroke-width: 1.2"/>
    <path d="M 166.591169 231.355643 
L 166.591169 229.932486 
" clip-path="url(#p49ac256d4f)" style="fill: none; stroke: #4c72b0; stroke-width: 1.2"/>
    <path d="M 173.216772 227.119421 
L 173.216772 225.663691 
" clip-path="url(#p49ac256d4f)" style="fill: none; stroke: #4c72b0; stroke-width: 1.2"/>
    <path d="M 179.842375 222.883198 
L 179.842375 221.394895 
" clip-path="url(#p49ac256d4f)" style="fill: none; stroke: #4c72b0; stroke-width: 1.2"/>
    <path d="M 186.467978 218.646976 
L 186.467978 217.126099 
" clip-path="url(#p49ac256d4f)" style="fill: none; stroke: #4c72b0; stroke-width: 1.2"/>
    <path d="M 193.093581 214.410753 
L 193.093581 212.857304 
" clip-path="url(#p49ac256d4f)" style="fill: none; stroke: #4c72b0; stroke-width: 1.2"/>
    <path d="M 199.719184 210.174531 
L 199.719184 208.588508 
" clip-path="url(#p49ac256d4f)" style="fill: none; stroke: #4c72b0; stroke-width: 1.2"/>
    <path d="M 206.344787 205.938308 
L 206.344787 204.319713 
" clip-path="url(#p49ac256d4f)" style="fill: none; stroke: #4c72b0; stroke-width: 1.2"/>
    <path d="M 212.97039 201.702086 
L 212.97039 200.050917 
" clip-path="url(#p49ac256d4f)" style="fill: none; stroke: #4c72b0; stroke-width: 1.2"/>
    <path d="M 219.595993 197.465863 
L 219.595993 195.782121 
" clip-path="url(#p49ac256d4f)" style="fill: none; stroke: #4c72b0; stroke-width: 1.2"/>
    <path d="M 226.221596 193.22964 
L 226.221596 191.513326 
" clip-path="url(#p49ac256d4f)" style="fill: none; stroke: #4c72b0; stroke-width: 1.2"/>
    <path d="M 232.847199 188.993418 
L 232.847199 187.24453 
" clip-path="url(#p49ac256d4f)" style="fill: none; stroke: #4c72b0; stroke-width: 1.2"/>
    <path d="M 239.472801 184.757195 
L 239.472801 182.975734 
" clip-path="url(#p49ac256d4f)" style="fill: none; stroke: #4c72b0; stroke-width: 1.2"/>
    <path d="M 246.098404 180.520973 
L 246.098404 178.706939 
" clip-path="url(#p49ac256d4f)" style="fill: none; stroke: #4c72b0; stroke-width: 1.2"/>
    <path d="M 252.724007 176.28475 
L 252.724007 174.438143 
" clip-path="url(#p49ac256d4f)" style="fill: none; stroke: #4c72b0; stroke-width: 1.2"/>
    <path d="M 259.34961 172.048528 
L 259.34961 170.169348 
" clip-path="url(#p49ac256d4f)" style="fill: none; stroke: #4c72b0; stroke-width: 1.2"/>
    <path d="M 265.975213 167.812305 
L 265.975213 165.900552 
" clip-path="url(#p49ac256d4f)" style="fill: none; stroke: #4c72b0; stroke-width: 1.2"/>
    <path d="M 272.600816 163.576083 
L 272.600816 161.631756 
" clip-path="url(#p49ac256d4f)" style="fill: none; stroke: #4c72b0; stroke-width: 1.2"/>
    <path d="M 279.226419 159.33986 
L 279.226419 157.362961 
" clip-path="url(#p49ac256d4f)" style="fill: none; stroke: #4c72b0; stroke-width: 1.2"/>
    <path d="M 285.852022 155.103638 
L 285.852022 153.094165 
" clip-path="url(#p49ac256d4f)" style="fill: none; stroke: #4c72b0; stroke-width: 1.2"/>
    <path d="M 292.477625 150.867415 
L 292.477625 148.82537 
" clip-path="url(#p49ac256d4f)" style="fill: none; stroke: #4c72b0; stroke-width: 1.2"/>
    <path d="M 299.103228 146.631192 
L 299.103228 144.556574 
" clip-path="url(#p49ac256d4f)" style="fill: none; stroke: #4c72b0; stroke-width: 1.2"/>
    <path d="M 305.728831 142.39497 
L 305.728831 140.287778 
" clip-path="url(#p49ac256d4f)" style="fill: none; stroke: #4c72b0; stroke-width: 1.2"/>
    <path d="M 312.354434 138.158747 
L 312.354434 136.018983 
" clip-path="url(#p49ac256d4f)" style="fill: none; stroke: #4c72b0; stroke-width: 1.2"/>
    <path d="M 318.980037 133.922525 
L 318.980037 131.750187 
" clip-path="url(#p49ac256d4f)" style="fill: none; stroke: #4c72b0; stroke-width: 1.2"/>
    <path d="M 325.60564 129.686302 
L 325.60564 127.481391 
" clip-path="url(#p49ac256d4f)" style="fill: none; stroke: #4c72b0; stroke-width: 1.2"/>
    <path d="M 332.231243 125.45008 
L 332.231243 123.212596 
" clip-path="url(#p49ac256d4f)" style="fill: none; stroke: #4c72b0; stroke-width: 1.2"/>
    <path d="M 338.856846 121.213857 
L 338.856846 118.9438 
" clip-path="url(#p49ac256d4f)" style="fill: none; stroke: #4c72b0; stroke-width: 1.2"/>
    <path d="M 345.482449 116.977635 
L 345.482449 114.675005 
" clip-path="url(#p49ac256d4f)" style="fill: none; stroke: #4c72b0; stroke-width: 1.2"/>
    <path d="M 352.108052 112.741412 
L 352.108052 110.406209 
" clip-path="url(#p49ac256d4f)" style="fill: none; stroke: #4c72b0; stroke-width: 1.2"/>
    <path d="M 358.733655 108.50519 
L 358.733655 106.137413 
" clip-path="url(#p49ac256d4f)" style="fill: none; stroke: #4c72b0; stroke-width: 1.2"/>
    <path d="M 365.359258 104.268967 
L 365.359258 101.868618 
" clip-path="url(#p49ac256d4f)" style="fill: none; stroke: #4c72b0; stroke-width: 1.2"/>
    <path d="M 371.984861 100.032744 
L 371.984861 97.599822 
" clip-path="url(#p49ac256d4f)" style="fill: none; stroke: #4c72b0; stroke-width: 1.2"/>
    <path d="M 378.610464 95.796522 
L 378.610464 93.331027 
" clip-path="url(#p49ac256d4f)" style="fill: none; stroke: #4c72b0; stroke-width: 1.2"/>
    <path d="M 385.236067 91.560299 
L 385.236067 89.062231 
" clip-path="url(#p49ac256d4f)" style="fill: none; stroke: #4c72b0; stroke-width: 1.2"/>
    <path d="M 391.86167 87.324077 
L 391.86167 84.793435 
" clip-path="url(#p49ac256d4f)" style="fill: none; stroke: #4c72b0; stroke-width: 1.2"/>
    <path d="M 398.487273 83.087854 
L 398.487273 80.52464 
" clip-path="url(#p49ac256d4f)" style="fill: none; stroke: #4c72b0; stroke-width: 1.2"/>
   </g>
   <g id="LineCollection_2">
    <path d="M 73.832727 290.536644 
L 73.832727 289.761517 
" clip-path="url(#p49ac256d4f)" style="fill: none; stroke: #dd8452; stroke-width: 1.2"/>
    <path d="M 80.45833 287.089005 
L 80.45833 286.287772 
" clip-path="url(#p49ac256d4f)" style="fill: none; stroke: #dd8452; stroke-width: 1.2"/>
    <path d="M 87.083933 283.641366 
L 87.083933 282.814026 
" clip-path="url(#p49ac256d4f)" style="fill: none; stroke: #dd8452; stroke-width: 1.2"/>
    <path d="M 93.709536 280.193726 
L 93.709536 279.340281 
" clip-path="url(#p49ac256d4f)" style="fill: none; stroke: #dd8452; stroke-width: 1.2"/>
    <path d="M 100.335139 276.746087 
L 100.335139 275.866536 
" clip-path="url(#p49ac256d4f)" style="fill: none; stroke: #dd8452; stroke-width: 1.2"/>
    <path d="M 106.960742 273.298448 
L 106.960742 272.39279 
" clip-path="url(#p49ac256d4f)" style="fill: none; stroke: #dd8452; stroke-width: 1.2"/>
    <path d="M 113.586345 269.850809 
L 113.586345 268.919045 
" clip-path="url(#p49ac256d4f)" style="fill: none; stroke: #dd8452; stroke-width: 1.2"/>
    <path d="M 120.211948 266.40317 
L 120.211948 265.445299 
" clip-path="url(#p49ac256d4f)" style="fill: none; stroke: #dd8452; stroke-width: 1.2"/>
    <path d="M 126.837551 262.955531 
L 126.837551 261.971554 
" clip-path="url(#p49ac256d4f)" style="fill: none; stroke: #dd8452; stroke-width: 1.2"/>
    <path d="M 133.463154 259.507892 
L 133.463154 258.497809 
" clip-path="url(#p49ac256d4f)" style="fill: none; stroke: #dd8452; stroke-width: 1.2"/>
    <path d="M 140.088757 256.060253 
L 140.088757 255.024063 
" clip-path="url(#p49ac256d4f)" style="fill: none; stroke: #dd8452; stroke-width: 1.2"/>
    <path d="M 146.71436 252.612614 
L 146.71436 251.550318 
" clip-path="url(#p49ac256d4f)" style="fill: none; stroke: #dd8452; stroke-width: 1.2"/>
    <path d="M 153.339963 249.164975 
L 153.339963 248.076573 
" clip-path="url(#p49ac256d4f)" style="fill: none; stroke: #dd8452; stroke-width: 1.2"/>
    <path d="M 159.965566 245.717335 
L 159.965566 244.602827 
" clip-path="url(#p49ac256d4f)" style="fill: none; stroke: #dd8452; stroke-width: 1.2"/>
    <path d="M 166.591169 242.269696 
L 166.591169 241.129082 
" clip-path="url(#p49ac256d4f)" style="fill: none; stroke: #dd8452; stroke-width: 1.2"/>
    <path d="M 173.216772 238.822057 
L 173.216772 237.655336 
" clip-path="url(#p49ac256d4f)" style="fill: none; stroke: #dd8452; stroke-width: 1.2"/>
    <path d="M 179.842375 235.374418 
L 179.842375 234.181591 
" clip-path="url(#p49ac256d4f)" style="fill: none; stroke: #dd8452; stroke-width: 1.2"/>
    <path d="M 186.467978 231.926779 
L 186.467978 230.707846 
" clip-path="url(#p49ac256d4f)" style="fill: none; stroke: #dd8452; stroke-width: 1.2"/>
    <path d="M 193.093581 228.47914 
L 193.093581 227.2341 
" clip-path="url(#p49ac256d4f)" style="fill: none; stroke: #dd8452; stroke-width: 1.2"/>
    <path d="M 199.719184 225.031501 
L 199.719184 223.760355 
" clip-path="url(#p49ac256d4f)" style="fill: none; stroke: #dd8452; stroke-width: 1.2"/>
    <path d="M 206.344787 221.583862 
L 206.344787 220.28661 
" clip-path="url(#p49ac256d4f)" style="fill: none; stroke: #dd8452; stroke-width: 1.2"/>
    <path d="M 212.97039 218.136223 
L 212.97039 216.812864 
" clip-path="url(#p49ac256d4f)" style="fill: none; stroke: #dd8452; stroke-width: 1.2"/>
    <path d="M 219.595993 214.688584 
L 219.595993 213.339119 
" clip-path="url(#p49ac256d4f)" style="fill: none; stroke: #dd8452; stroke-width: 1.2"/>
    <path d="M 226.221596 211.240944 
L 226.221596 209.865374 
" clip-path="url(#p49ac256d4f)" style="fill: none; stroke: #dd8452; stroke-width: 1.2"/>
    <path d="M 232.847199 207.793305 
L 232.847199 206.391628 
" clip-path="url(#p49ac256d4f)" style="fill: none; stroke: #dd8452; stroke-width: 1.2"/>
    <path d="M 239.472801 204.345666 
L 239.472801 202.917883 
" clip-path="url(#p49ac256d4f)" style="fill: none; stroke: #dd8452; stroke-width: 1.2"/>
    <path d="M 246.098404 200.898027 
L 246.098404 199.444137 
" clip-path="url(#p49ac256d4f)" style="fill: none; stroke: #dd8452; stroke-width: 1.2"/>
    <path d="M 252.724007 197.450388 
L 252.724007 195.970392 
" clip-path="url(#p49ac256d4f)" style="fill: none; stroke: #dd8452; stroke-width: 1.2"/>
    <path d="M 259.34961 194.002749 
L 259.34961 192.496647 
" clip-path="url(#p49ac256d4f)" style="fill: none; stroke: #dd8452; stroke-width: 1.2"/>
    <path d="M 265.975213 190.55511 
L 265.975213 189.022901 
" clip-path="url(#p49ac256d4f)" style="fill: none; stroke: #dd8452; stroke-width: 1.2"/>
    <path d="M 272.600816 187.107471 
L 272.600816 185.549156 
" clip-path="url(#p49ac256d4f)" style="fill: none; stroke: #dd8452; stroke-width: 1.2"/>
    <path d="M 279.226419 183.659832 
L 279.226419 182.075411 
" clip-path="url(#p49ac256d4f)" style="fill: none; stroke: #dd8452; stroke-width: 1.2"/>
    <path d="M 285.852022 180.212192 
L 285.852022 178.601665 
" clip-path="url(#p49ac256d4f)" style="fill: none; stroke: #dd8452; stroke-width: 1.2"/>
    <path d="M 292.477625 176.764553 
L 292.477625 175.12792 
" clip-path="url(#p49ac256d4f)" style="fill: none; stroke: #dd8452; stroke-width: 1.2"/>
    <path d="M 299.103228 173.316914 
L 299.103228 171.654174 
" clip-path="url(#p49ac256d4f)" style="fill: none; stroke: #dd8452; stroke-width: 1.2"/>
    <path d="M 305.728831 169.869275 
L 305.728831 168.180429 
" clip-path="url(#p49ac256d4f)" style="fill: none; stroke: #dd8452; stroke-width: 1.2"/>
    <path d="M 312.354434 166.421636 
L 312.354434 164.706684 
" clip-path="url(#p49ac256d4f)" style="fill: none; stroke: #dd8452; stroke-width: 1.2"/>
    <path d="M 318.980037 162.973997 
L 318.980037 161.232938 
" clip-path="url(#p49ac256d4f)" style="fill: none; stroke: #dd8452; stroke-width: 1.2"/>
    <path d="M 325.60564 159.526358 
L 325.60564 157.759193 
" clip-path="url(#p49ac256d4f)" style="fill: none; stroke: #dd8452; stroke-width: 1.2"/>
    <path d="M 332.231243 156.078719 
L 332.231243 154.285448 
" clip-path="url(#p49ac256d4f)" style="fill: none; stroke: #dd8452; stroke-width: 1.2"/>
    <path d="M 338.856846 152.63108 
L 338.856846 150.811702 
" clip-path="url(#p49ac256d4f)" style="fill: none; stroke: #dd8452; stroke-width: 1.2"/>
    <path d="M 345.482449 149.183441 
L 345.482449 147.337957 
" clip-path="url(#p49ac256d4f)" style="fill: none; stroke: #dd8452; stroke-width: 1.2"/>
    <path d="M 352.108052 145.735801 
L 352.108052 143.864212 
" clip-path="url(#p49ac256d4f)" style="fill: none; stroke: #dd8452; stroke-width: 1.2"/>
    <path d="M 358.733655 142.288162 
L 358.733655 140.390466 
" clip-path="url(#p49ac256d4f)" style="fill: none; stroke: #dd8452; stroke-width: 1.2"/>
    <path d="M 365.359258 138.840523 
L 365.359258 136.916721 
" clip-path="url(#p49ac256d4f)" style="fill: none; stroke: #dd8452; stroke-width: 1.2"/>
    <path d="M 371.984861 135.392884 
L 371.984861 133.442975 
" clip-path="url(#p49ac256d4f)" style="fill: none; stroke: #dd8452; stroke-width: 1.2"/>
    <path d="M 378.610464 131.945245 
L 378.610464 129.96923 
" clip-path="url(#p49ac256d4f)" style="fill: none; stroke: #dd8452; stroke-width: 1.2"/>
    <path d="M 385.236067 128.497606 
L 385.236067 126.495485 
" clip-path="url(#p49ac256d4f)" style="fill: none; stroke: #dd8452; stroke-width: 1.2"/>
    <path d="M 391.86167 125.049967 
L 391.86167 123.021739 
" clip-path="url(#p49ac256d4f)" style="fill: none; stroke: #dd8452; stroke-width: 1.2"/>
    <path d="M 398.487273 121.602328 
L 398.487273 119.547994 
" clip-path="url(#p49ac256d4f)" style="fill: none; stroke: #dd8452; stroke-width: 1.2"/>
   </g>
   <g id="LineCollection_3">
    <path d="M 73.832727 288.34236 
L 73.832727 287.474169 
" clip-path="url(#p49ac256d4f)" style="fill: none; stroke: #55a868; stroke-width: 1.2"/>
    <path d="M 80.45833 283.77033 
L 80.45833 282.872898 
" clip-path="url(#p49ac256d4f)" style="fill: none; stroke: #55a868; stroke-width: 1.2"/>
    <path d="M 87.083933 279.1983 
L 87.083933 278.271627 
" clip-path="url(#p49ac256d4f)" style="fill: none; stroke: #55a868; stroke-width: 1.2"/>
    <path d="M 93.709536 274.626269 
L 93.709536 273.670356 
" clip-path="url(#p49ac256d4f)" style="fill: none; stroke: #55a868; stroke-width: 1.2"/>
    <path d="M 100.335139 270.054239 
L 100.335139 269.069085 
" clip-path="url(#p49ac256d4f)" style="fill: none; stroke: #55a868; stroke-width: 1.2"/>
    <path d="M 106.960742 265.482208 
L 106.960742 264.467814 
" clip-path="url(#p49ac256d4f)" style="fill: none; stroke: #55a868; stroke-width: 1.2"/>
    <path d="M 113.586345 260.910178 
L 113.586345 259.866543 
" clip-path="url(#p49ac256d4f)" style="fill: none; stroke: #55a868; stroke-width: 1.2"/>
    <path d="M 120.211948 256.338148 
L 120.211948 255.265272 
" clip-path="url(#p49ac256d4f)" style="fill: none; stroke: #55a868; stroke-width: 1.2"/>
    <path d="M 126.837551 251.766117 
L 126.837551 250.664001 
" clip-path="url(#p49ac256d4f)" style="fill: none; stroke: #55a868; stroke-width: 1.2"/>
    <path d="M 133.463154 247.194087 
L 133.463154 246.06273 
" clip-path="url(#p49ac256d4f)" style="fill: none; stroke: #55a868; stroke-width: 1.2"/>
    <path d="M 140.088757 242.622056 
L 140.088757 241.461458 
" clip-path="url(#p49ac256d4f)" style="fill: none; stroke: #55a868; stroke-width: 1.2"/>
    <path d="M 146.71436 238.050026 
L 146.71436 236.860187 
" clip-path="url(#p49ac256d4f)" style="fill: none; stroke: #55a868; stroke-width: 1.2"/>
    <path d="M 153.339963 233.477996 
L 153.339963 232.258916 
" clip-path="url(#p49ac256d4f)" style="fill: none; stroke: #55a868; stroke-width: 1.2"/>
    <path d="M 159.965566 228.905965 
L 159.965566 227.657645 
" clip-path="url(#p49ac256d4f)" style="fill: none; stroke: #55a868; stroke-width: 1.2"/>
    <path d="M 166.591169 224.333935 
L 166.591169 223.056374 
" clip-path="url(#p49ac256d4f)" style="fill: none; stroke: #55a868; stroke-width: 1.2"/>
    <path d="M 173.216772 219.761904 
L 173.216772 218.455103 
" clip-path="url(#p49ac256d4f)" style="fill: none; stroke: #55a868; stroke-width: 1.2"/>
    <path d="M 179.842375 215.189874 
L 179.842375 213.853832 
" clip-path="url(#p49ac256d4f)" style="fill: none; stroke: #55a868; stroke-width: 1.2"/>
    <path d="M 186.467978 210.617844 
L 186.467978 209.252561 
" clip-path="url(#p49ac256d4f)" style="fill: none; stroke: #55a868; stroke-width: 1.2"/>
    <path d="M 193.093581 206.045813 
L 193.093581 204.65129 
" clip-path="url(#p49ac256d4f)" style="fill: none; stroke: #55a868; stroke-width: 1.2"/>
    <path d="M 199.719184 201.473783 
L 199.719184 200.050019 
" clip-path="url(#p49ac256d4f)" style="fill: none; stroke: #55a868; stroke-width: 1.2"/>
    <path d="M 206.344787 196.901753 
L 206.344787 195.448748 
" clip-path="url(#p49ac256d4f)" style="fill: none; stroke: #55a868; stroke-width: 1.2"/>
    <path d="M 212.97039 192.329722 
L 212.97039 190.847477 
" clip-path="url(#p49ac256d4f)" style="fill: none; stroke: #55a868; stroke-width: 1.2"/>
    <path d="M 219.595993 187.757692 
L 219.595993 186.246206 
" clip-path="url(#p49ac256d4f)" style="fill: none; stroke: #55a868; stroke-width: 1.2"/>
    <path d="M 226.221596 183.185661 
L 226.221596 181.644935 
" clip-path="url(#p49ac256d4f)" style="fill: none; stroke: #55a868; stroke-width: 1.2"/>
    <path d="M 232.847199 178.613631 
L 232.847199 177.043664 
" clip-path="url(#p49ac256d4f)" style="fill: none; stroke: #55a868; stroke-width: 1.2"/>
    <path d="M 239.472801 174.041601 
L 239.472801 172.442393 
" clip-path="url(#p49ac256d4f)" style="fill: none; stroke: #55a868; stroke-width: 1.2"/>
    <path d="M 246.098404 169.46957 
L 246.098404 167.841122 
" clip-path="url(#p49ac256d4f)" style="fill: none; stroke: #55a868; stroke-width: 1.2"/>
    <path d="M 252.724007 164.89754 
L 252.724007 163.23985 
" clip-path="url(#p49ac256d4f)" style="fill: none; stroke: #55a868; stroke-width: 1.2"/>
    <path d="M 259.34961 160.325509 
L 259.34961 158.638579 
" clip-path="url(#p49ac256d4f)" style="fill: none; stroke: #55a868; stroke-width: 1.2"/>
    <path d="M 265.975213 155.753479 
L 265.975213 154.037308 
" clip-path="url(#p49ac256d4f)" style="fill: none; stroke: #55a868; stroke-width: 1.2"/>
    <path d="M 272.600816 151.181449 
L 272.600816 149.436037 
" clip-path="url(#p49ac256d4f)" style="fill: none; stroke: #55a868; stroke-width: 1.2"/>
    <path d="M 279.226419 146.609418 
L 279.226419 144.834766 
" clip-path="url(#p49ac256d4f)" style="fill: none; stroke: #55a868; stroke-width: 1.2"/>
    <path d="M 285.852022 142.037388 
L 285.852022 140.233495 
" clip-path="url(#p49ac256d4f)" style="fill: none; stroke: #55a868; stroke-width: 1.2"/>
    <path d="M 292.477625 137.465357 
L 292.477625 135.632224 
" clip-path="url(#p49ac256d4f)" style="fill: none; stroke: #55a868; stroke-width: 1.2"/>
    <path d="M 299.103228 132.893327 
L 299.103228 131.030953 
" clip-path="url(#p49ac256d4f)" style="fill: none; stroke: #55a868; stroke-width: 1.2"/>
    <path d="M 305.728831 128.321297 
L 305.728831 126.429682 
" clip-path="url(#p49ac256d4f)" style="fill: none; stroke: #55a868; stroke-width: 1.2"/>
    <path d="M 312.354434 123.749266 
L 312.354434 121.828411 
" clip-path="url(#p49ac256d4f)" style="fill: none; stroke: #55a868; stroke-width: 1.2"/>
    <path d="M 318.980037 119.177236 
L 318.980037 117.22714 
" clip-path="url(#p49ac256d4f)" style="fill: none; stroke: #55a868; stroke-width: 1.2"/>
    <path d="M 325.60564 114.605205 
L 325.60564 112.625869 
" clip-path="url(#p49ac256d4f)" style="fill: none; stroke: #55a868; stroke-width: 1.2"/>
    <path d="M 332.231243 110.033175 
L 332.231243 108.024598 
" clip-path="url(#p49ac256d4f)" style="fill: none; stroke: #55a868; stroke-width: 1.2"/>
    <path d="M 338.856846 105.461145 
L 338.856846 103.423327 
" clip-path="url(#p49ac256d4f)" style="fill: none; stroke: #55a868; stroke-width: 1.2"/>
    <path d="M 345.482449 100.889114 
L 345.482449 98.822056 
" clip-path="url(#p49ac256d4f)" style="fill: none; stroke: #55a868; stroke-width: 1.2"/>
    <path d="M 352.108052 96.317084 
L 352.108052 94.220785 
" clip-path="url(#p49ac256d4f)" style="fill: none; stroke: #55a868; stroke-width: 1.2"/>
    <path d="M 358.733655 91.745054 
L 358.733655 89.619513 
" clip-path="url(#p49ac256d4f)" style="fill: none; stroke: #55a868; stroke-width: 1.2"/>
    <path d="M 365.359258 87.173023 
L 365.359258 85.018242 
" clip-path="url(#p49ac256d4f)" style="fill: none; stroke: #55a868; stroke-width: 1.2"/>
    <path d="M 371.984861 82.600993 
L 371.984861 80.416971 
" clip-path="url(#p49ac256d4f)" style="fill: none; stroke: #55a868; stroke-width: 1.2"/>
    <path d="M 378.610464 78.028962 
L 378.610464 75.8157 
" clip-path="url(#p49ac256d4f)" style="fill: none; stroke: #55a868; stroke-width: 1.2"/>
    <path d="M 385.236067 73.456932 
L 385.236067 71.214429 
" clip-path="url(#p49ac256d4f)" style="fill: none; stroke: #55a868; stroke-width: 1.2"/>
    <path d="M 391.86167 68.884902 
L 391.86167 66.613158 
" clip-path="url(#p49ac256d4f)" style="fill: none; stroke: #55a868; stroke-width: 1.2"/>
    <path d="M 398.487273 64.312871 
L 398.487273 62.011887 
" clip-path="url(#p49ac256d4f)" style="fill: none; stroke: #55a868; stroke-width: 1.2"/>
   </g>
   <g id="LineCollection_4">
    <path d="M 73.832727 295.488 
L 73.832727 294.711379 
" clip-path="url(#p49ac256d4f)" style="fill: none; stroke: #c44e52; stroke-width: 1.2"/>
    <path d="M 80.45833 290.733901 
L 80.45833 289.931123 
" clip-path="url(#p49ac256d4f)" style="fill: none; stroke: #c44e52; stroke-width: 1.2"/>
    <path d="M 87.083933 285.979802 
L 87.083933 285.150868 
" clip-path="url(#p49ac256d4f)" style="fill: none; stroke: #c44e52; stroke-width: 1.2"/>
    <path d="M 93.709536 281.225703 
L 93.709536 280.370612 
" clip-path="url(#p49ac256d4f)" style="fill: none; stroke: #c44e52; stroke-width: 1.2"/>
    <path d="M 100.335139 276.471605 
L 100.335139 275.590357 
" clip-path="url(#p49ac256d4f)" style="fill: none; stroke: #c44e52; stroke-width: 1.2"/>
    <path d="M 106.960742 271.717506 
L 106.960742 270.810101 
" clip-path="url(#p49ac256d4f)" style="fill: none; stroke: #c44e52; stroke-width: 1.2"/>
    <path d="M 113.586345 266.963407 
L 113.586345 266.029846 
" clip-path="url(#p49ac256d4f)" style="fill: none; stroke: #c44e52; stroke-width: 1.2"/>
    <path d="M 120.211948 262.209308 
L 120.211948 261.24959 
" clip-path="url(#p49ac256d4f)" style="fill: none; stroke: #c44e52; stroke-width: 1.2"/>
    <path d="M 126.837551 257.455209 
L 126.837551 256.469335 
" clip-path="url(#p49ac256d4f)" style="fill: none; stroke: #c44e52; stroke-width: 1.2"/>
    <path d="M 133.463154 252.70111 
L 133.463154 251.689079 
" clip-path="url(#p49ac256d4f)" style="fill: none; stroke: #c44e52; stroke-width: 1.2"/>
    <path d="M 140.088757 247.947011 
L 140.088757 246.908824 
" clip-path="url(#p49ac256d4f)" style="fill: none; stroke: #c44e52; stroke-width: 1.2"/>
    <path d="M 146.71436 243.192912 
L 146.71436 242.128568 
" clip-path="url(#p49ac256d4f)" style="fill: none; stroke: #c44e52; stroke-width: 1.2"/>
    <path d="M 153.339963 238.438814 
L 153.339963 237.348313 
" clip-path="url(#p49ac256d4f)" style="fill: none; stroke: #c44e52; stroke-width: 1.2"/>
    <path d="M 159.965566 233.684715 
L 159.965566 232.568057 
" clip-path="url(#p49ac256d4f)" style="fill: none; stroke: #c44e52; stroke-width: 1.2"/>
    <path d="M 166.591169 228.930616 
L 166.591169 227.787802 
" clip-path="url(#p49ac256d4f)" style="fill: none; stroke: #c44e52; stroke-width: 1.2"/>
    <path d="M 173.216772 224.176517 
L 173.216772 223.007547 
" clip-path="url(#p49ac256d4f)" style="fill: none; stroke: #c44e52; stroke-width: 1.2"/>
    <path d="M 179.842375 219.422418 
L 179.842375 218.227291 
" clip-path="url(#p49ac256d4f)" style="fill: none; stroke: #c44e52; stroke-width: 1.2"/>
    <path d="M 186.467978 214.668319 
L 186.467978 213.447036 
" clip-path="url(#p49ac256d4f)" style="fill: none; stroke: #c44e52; stroke-width: 1.2"/>
    <path d="M 193.093581 209.91422 
L 193.093581 208.66678 
" clip-path="url(#p49ac256d4f)" style="fill: none; stroke: #c44e52; stroke-width: 1.2"/>
    <path d="M 199.719184 205.160121 
L 199.719184 203.886525 
" clip-path="url(#p49ac256d4f)" style="fill: none; stroke: #c44e52; stroke-width: 1.2"/>
    <path d="M 206.344787 200.406023 
L 206.344787 199.106269 
" clip-path="url(#p49ac256d4f)" style="fill: none; stroke: #c44e52; stroke-width: 1.2"/>
    <path d="M 212.97039 195.651924 
L 212.97039 194.326014 
" clip-path="url(#p49ac256d4f)" style="fill: none; stroke: #c44e52; stroke-width: 1.2"/>
    <path d="M 219.595993 190.897825 
L 219.595993 189.545758 
" clip-path="url(#p49ac256d4f)" style="fill: none; stroke: #c44e52; stroke-width: 1.2"/>
    <path d="M 226.221596 186.143726 
L 226.221596 184.765503 
" clip-path="url(#p49ac256d4f)" style="fill: none; stroke: #c44e52; stroke-width: 1.2"/>
    <path d="M 232.847199 181.389627 
L 232.847199 179.985247 
" clip-path="url(#p49ac256d4f)" style="fill: none; stroke: #c44e52; stroke-width: 1.2"/>
    <path d="M 239.472801 176.635528 
L 239.472801 175.204992 
" clip-path="url(#p49ac256d4f)" style="fill: none; stroke: #c44e52; stroke-width: 1.2"/>
    <path d="M 246.098404 171.881429 
L 246.098404 170.424736 
" clip-path="url(#p49ac256d4f)" style="fill: none; stroke: #c44e52; stroke-width: 1.2"/>
    <path d="M 252.724007 167.127331 
L 252.724007 165.644481 
" clip-path="url(#p49ac256d4f)" style="fill: none; stroke: #c44e52; stroke-width: 1.2"/>
    <path d="M 259.34961 162.373232 
L 259.34961 160.864225 
" clip-path="url(#p49ac256d4f)" style="fill: none; stroke: #c44e52; stroke-width: 1.2"/>
    <path d="M 265.975213 157.619133 
L 265.975213 156.08397 
" clip-path="url(#p49ac256d4f)" style="fill: none; stroke: #c44e52; stroke-width: 1.2"/>
    <path d="M 272.600816 152.865034 
L 272.600816 151.303715 
" clip-path="url(#p49ac256d4f)" style="fill: none; stroke: #c44e52; stroke-width: 1.2"/>
    <path d="M 279.226419 148.110935 
L 279.226419 146.523459 
" clip-path="url(#p49ac256d4f)" style="fill: none; stroke: #c44e52; stroke-width: 1.2"/>
    <path d="M 285.852022 143.356836 
L 285.852022 141.743204 
" clip-path="url(#p49ac256d4f)" style="fill: none; stroke: #c44e52; stroke-width: 1.2"/>
    <path d="M 292.477625 138.602737 
L 292.477625 136.962948 
" clip-path="url(#p49ac256d4f)" style="fill: none; stroke: #c44e52; stroke-width: 1.2"/>
    <path d="M 299.103228 133.848638 
L 299.103228 132.182693 
" clip-path="url(#p49ac256d4f)" style="fill: none; stroke: #c44e52; stroke-width: 1.2"/>
    <path d="M 305.728831 129.09454 
L 305.728831 127.402437 
" clip-path="url(#p49ac256d4f)" style="fill: none; stroke: #c44e52; stroke-width: 1.2"/>
    <path d="M 312.354434 124.340441 
L 312.354434 122.622182 
" clip-path="url(#p49ac256d4f)" style="fill: none; stroke: #c44e52; stroke-width: 1.2"/>
    <path d="M 318.980037 119.586342 
L 318.980037 117.841926 
" clip-path="url(#p49ac256d4f)" style="fill: none; stroke: #c44e52; stroke-width: 1.2"/>
    <path d="M 325.60564 114.832243 
L 325.60564 113.061671 
" clip-path="url(#p49ac256d4f)" style="fill: none; stroke: #c44e52; stroke-width: 1.2"/>
    <path d="M 332.231243 110.078144 
L 332.231243 108.281415 
" clip-path="url(#p49ac256d4f)" style="fill: none; stroke: #c44e52; stroke-width: 1.2"/>
    <path d="M 338.856846 105.324045 
L 338.856846 103.50116 
" clip-path="url(#p49ac256d4f)" style="fill: none; stroke: #c44e52; stroke-width: 1.2"/>
    <path d="M 345.482449 100.569946 
L 345.482449 98.720904 
" clip-path="url(#p49ac256d4f)" style="fill: none; stroke: #c44e52; stroke-width: 1.2"/>
    <path d="M 352.108052 95.815847 
L 352.108052 93.940649 
" clip-path="url(#p49ac256d4f)" style="fill: none; stroke: #c44e52; stroke-width: 1.2"/>
    <path d="M 358.733655 91.061749 
L 358.733655 89.160393 
" clip-path="url(#p49ac256d4f)" style="fill: none; stroke: #c44e52; stroke-width: 1.2"/>
    <path d="M 365.359258 86.30765 
L 365.359258 84.380138 
" clip-path="url(#p49ac256d4f)" style="fill: none; stroke: #c44e52; stroke-width: 1.2"/>
    <path d="M 371.984861 81.553551 
L 371.984861 79.599882 
" clip-path="url(#p49ac256d4f)" style="fill: none; stroke: #c44e52; stroke-width: 1.2"/>
    <path d="M 378.610464 76.799452 
L 378.610464 74.819627 
" clip-path="url(#p49ac256d4f)" style="fill: none; stroke: #c44e52; stroke-width: 1.2"/>
    <path d="M 385.236067 72.045353 
L 385.236067 70.039372 
" clip-path="url(#p49ac256d4f)" style="fill: none; stroke: #c44e52; stroke-width: 1.2"/>
    <path d="M 391.86167 67.291254 
L 391.86167 65.259116 
" clip-path="url(#p49ac256d4f)" style="fill: none; stroke: #c44e52; stroke-width: 1.2"/>
    <path d="M 398.487273 62.537155 
L 398.487273 60.478861 
" clip-path="url(#p49ac256d4f)" style="fill: none; stroke: #c44e52; stroke-width: 1.2"/>
   </g>
   <g id="LineCollection_5">
    <path d="M 73.832727 282.267203 
L 73.832727 281.102669 
" clip-path="url(#p49ac256d4f)" style="fill: none; stroke: #8172b3; stroke-width: 1.2"/>
    <path d="M 80.45833 277.66286 
L 80.45833 276.459104 
" clip-path="url(#p49ac256d4f)" style="fill: none; stroke: #8172b3; stroke-width: 1.2"/>
    <path d="M 87.083933 273.058516 
L 87.083933 271.81554 
" clip-path="url(#p49ac256d4f)" style="fill: none; stroke: #8172b3; stroke-width: 1.2"/>
    <path d="M 93.709536 268.454173 
L 93.709536 267.171975 
" clip-path="url(#p49ac256d4f)" style="fill: none; stroke: #8172b3; stroke-width: 1.2"/>
    <path d="M 100.335139 263.84983 
L 100.335139 262.52841 
" clip-path="url(#p49ac256d4f)" style="fill: none; stroke: #8172b3; stroke-width: 1.2"/>
    <path d="M 106.960742 259.245487 
L 106.960742 257.884846 
" clip-path="url(#p49ac256d4f)" style="fill: none; stroke: #8172b3; stroke-width: 1.2"/>
    <path d="M 113.586345 254.641144 
L 113.586345 253.241281 
" clip-path="url(#p49ac256d4f)" style="fill: none; stroke: #8172b3; stroke-width: 1.2"/>
    <path d="M 120.211948 250.0368 
L 120.211948 248.597716 
" clip-path="url(#p49ac256d4f)" style="fill: none; stroke: #8172b3; stroke-width: 1.2"/>
    <path d="M 126.837551 245.432457 
L 126.837551 243.954152 
" clip-path="url(#p49ac256d4f)" style="fill: none; stroke: #8172b3; stroke-width: 1.2"/>
    <path d="M 133.463154 240.828114 
L 133.463154 239.310587 
" clip-path="url(#p49ac256d4f)" style="fill: none; stroke: #8172b3; stroke-width: 1.2"/>
    <path d="M 140.088757 236.223771 
L 140.088757 234.667022 
" clip-path="url(#p49ac256d4f)" style="fill: none; stroke: #8172b3; stroke-width: 1.2"/>
    <path d="M 146.71436 231.619428 
L 146.71436 230.023458 
" clip-path="url(#p49ac256d4f)" style="fill: none; stroke: #8172b3; stroke-width: 1.2"/>
    <path d="M 153.339963 227.015084 
L 153.339963 225.379893 
" clip-path="url(#p49ac256d4f)" style="fill: none; stroke: #8172b3; stroke-width: 1.2"/>
    <path d="M 159.965566 222.410741 
L 159.965566 220.736328 
" clip-path="url(#p49ac256d4f)" style="fill: none; stroke: #8172b3; stroke-width: 1.2"/>
    <path d="M 166.591169 217.806398 
L 166.591169 216.092764 
" clip-path="url(#p49ac256d4f)" style="fill: none; stroke: #8172b3; stroke-width: 1.2"/>
    <path d="M 173.216772 213.202055 
L 173.216772 211.449199 
" clip-path="url(#p49ac256d4f)" style="fill: none; stroke: #8172b3; stroke-width: 1.2"/>
    <path d="M 179.842375 208.597712 
L 179.842375 206.805634 
" clip-path="url(#p49ac256d4f)" style="fill: none; stroke: #8172b3; stroke-width: 1.2"/>
    <path d="M 186.467978 203.993369 
L 186.467978 202.16207 
" clip-path="url(#p49ac256d4f)" style="fill: none; stroke: #8172b3; stroke-width: 1.2"/>
    <path d="M 193.093581 199.389025 
L 193.093581 197.518505 
" clip-path="url(#p49ac256d4f)" style="fill: none; stroke: #8172b3; stroke-width: 1.2"/>
    <path d="M 199.719184 194.784682 
L 199.719184 192.87494 
" clip-path="url(#p49ac256d4f)" style="fill: none; stroke: #8172b3; stroke-width: 1.2"/>
    <path d="M 206.344787 190.180339 
L 206.344787 188.231375 
" clip-path="url(#p49ac256d4f)" style="fill: none; stroke: #8172b3; stroke-width: 1.2"/>
    <path d="M 212.97039 185.575996 
L 212.97039 183.587811 
" clip-path="url(#p49ac256d4f)" style="fill: none; stroke: #8172b3; stroke-width: 1.2"/>
    <path d="M 219.595993 180.971653 
L 219.595993 178.944246 
" clip-path="url(#p49ac256d4f)" style="fill: none; stroke: #8172b3; stroke-width: 1.2"/>
    <path d="M 226.221596 176.367309 
L 226.221596 174.300681 
" clip-path="url(#p49ac256d4f)" style="fill: none; stroke: #8172b3; stroke-width: 1.2"/>
    <path d="M 232.847199 171.762966 
L 232.847199 169.657117 
" clip-path="url(#p49ac256d4f)" style="fill: none; stroke: #8172b3; stroke-width: 1.2"/>
    <path d="M 239.472801 167.158623 
L 239.472801 165.013552 
" clip-path="url(#p49ac256d4f)" style="fill: none; stroke: #8172b3; stroke-width: 1.2"/>
    <path d="M 246.098404 162.55428 
L 246.098404 160.369987 
" clip-path="url(#p49ac256d4f)" style="fill: none; stroke: #8172b3; stroke-width: 1.2"/>
    <path d="M 252.724007 157.949937 
L 252.724007 155.726423 
" clip-path="url(#p49ac256d4f)" style="fill: none; stroke: #8172b3; stroke-width: 1.2"/>
    <path d="M 259.34961 153.345594 
L 259.34961 151.082858 
" clip-path="url(#p49ac256d4f)" style="fill: none; stroke: #8172b3; stroke-width: 1.2"/>
    <path d="M 265.975213 148.74125 
L 265.975213 146.439293 
" clip-path="url(#p49ac256d4f)" style="fill: none; stroke: #8172b3; stroke-width: 1.2"/>
    <path d="M 272.600816 144.136907 
L 272.600816 141.795729 
" clip-path="url(#p49ac256d4f)" style="fill: none; stroke: #8172b3; stroke-width: 1.2"/>
    <path d="M 279.226419 139.532564 
L 279.226419 137.152164 
" clip-path="url(#p49ac256d4f)" style="fill: none; stroke: #8172b3; stroke-width: 1.2"/>
    <path d="M 285.852022 134.928221 
L 285.852022 132.508599 
" clip-path="url(#p49ac256d4f)" style="fill: none; stroke: #8172b3; stroke-width: 1.2"/>
    <path d="M 292.477625 130.323878 
L 292.477625 127.865035 
" clip-path="url(#p49ac256d4f)" style="fill: none; stroke: #8172b3; stroke-width: 1.2"/>
    <path d="M 299.103228 125.719534 
L 299.103228 123.22147 
" clip-path="url(#p49ac256d4f)" style="fill: none; stroke: #8172b3; stroke-width: 1.2"/>
    <path d="M 305.728831 121.115191 
L 305.728831 118.577905 
" clip-path="url(#p49ac256d4f)" style="fill: none; stroke: #8172b3; stroke-width: 1.2"/>
    <path d="M 312.354434 116.510848 
L 312.354434 113.934341 
" clip-path="url(#p49ac256d4f)" style="fill: none; stroke: #8172b3; stroke-width: 1.2"/>
    <path d="M 318.980037 111.906505 
L 318.980037 109.290776 
" clip-path="url(#p49ac256d4f)" style="fill: none; stroke: #8172b3; stroke-width: 1.2"/>
    <path d="M 325.60564 107.302162 
L 325.60564 104.647211 
" clip-path="url(#p49ac256d4f)" style="fill: none; stroke: #8172b3; stroke-width: 1.2"/>
    <path d="M 332.231243 102.697818 
L 332.231243 100.003647 
" clip-path="url(#p49ac256d4f)" style="fill: none; stroke: #8172b3; stroke-width: 1.2"/>
    <path d="M 338.856846 98.093475 
L 338.856846 95.360082 
" clip-path="url(#p49ac256d4f)" style="fill: none; stroke: #8172b3; stroke-width: 1.2"/>
    <path d="M 345.482449 93.489132 
L 345.482449 90.716517 
" clip-path="url(#p49ac256d4f)" style="fill: none; stroke: #8172b3; stroke-width: 1.2"/>
    <path d="M 352.108052 88.884789 
L 352.108052 86.072953 
" clip-path="url(#p49ac256d4f)" style="fill: none; stroke: #8172b3; stroke-width: 1.2"/>
    <path d="M 358.733655 84.280446 
L 358.733655 81.429388 
" clip-path="url(#p49ac256d4f)" style="fill: none; stroke: #8172b3; stroke-width: 1.2"/>
    <path d="M 365.359258 79.676103 
L 365.359258 76.785823 
" clip-path="url(#p49ac256d4f)" style="fill: none; stroke: #8172b3; stroke-width: 1.2"/>
    <path d="M 371.984861 75.071759 
L 371.984861 72.142259 
" clip-path="url(#p49ac256d4f)" style="fill: none; stroke: #8172b3; stroke-width: 1.2"/>
    <path d="M 378.610464 70.467416 
L 378.610464 67.498694 
" clip-path="url(#p49ac256d4f)" style="fill: none; stroke: #8172b3; stroke-width: 1.2"/>
    <path d="M 385.236067 65.863073 
L 385.236067 62.855129 
" clip-path="url(#p49ac256d4f)" style="fill: none; stroke: #8172b3; stroke-width: 1.2"/>
    <path d="M 391.86167 61.25873 
L 391.86167 58.211565 
" clip-path="url(#p49ac256d4f)" style="fill: none; stroke: #8172b3; stroke-width: 1.2"/>
    <path d="M 398.487273 56.654387 
L 398.487273 53.568 
" clip-path="url(#p49ac256d4f)" style="fill: none; stroke: #8172b3; stroke-width: 1.2"/>
   </g>
   <g id="line2d_16">
    <path d="M 73.832727 290.179192 
L 80.45833 285.926683 
L 87.083933 281.674174 
L 93.709536 277.421665 
L 100.335139 273.169156 
L 106.960742 268.916647 
L 113.586345 264.664138 
L 120.211948 260.411628 
L 126.837551 256.159119 
L 133.463154 251.90661 
L 140.088757 247.654101 
L 146.71436 243.401592 
L 153.339963 239.149083 
L 159.965566 234.896574 
L 166.591169 230.644065 
L 173.216772 226.391556 
L 179.842375 222.139047 
L 186.467978 217.886538 
L 193.093581 213.634029 
L 199.719184 209.381519 
L 206.344787 205.12901 
L 212.97039 200.876501 
L 219.595993 196.623992 
L 226.221596 192.371483 
L 232.847199 188.118974 
L 239.472801 183.866465 
L 246.098404 179.613956 
L 252.724007 175.361447 
L 259.34961 171.108938 
L 265.975213 166.856429 
L 272.600816 162.60392 
L 279.226419 158.35141 
L 285.852022 154.098901 
L 292.477625 149.846392 
L 299.103228 145.593883 
L 305.728831 141.341374 
L 312.354434 137.088865 
L 318.980037 132.836356 
L 325.60564 128.583847 
L 332.231243 124.331338 
L 338.856846 120.078829 
L 345.482449 115.82632 
L 352.108052 111.573811 
L 358.733655 107.321301 
L 365.359258 103.068792 
L 371.984861 98.816283 
L 378.610464 94.563774 
L 385.236067 90.311265 
L 391.86167 86.058756 
L 398.487273 81.806247 
" clip-path="url(#p49ac256d4f)" style="fill: none; stroke: #4c72b0; stroke-width: 1.2; stroke-linecap: round"/>
   </g>
   <g id="line2d_17">
    <path d="M 73.832727 290.14908 
L 80.45833 286.688388 
L 87.083933 283.227696 
L 93.709536 279.767004 
L 100.335139 276.306311 
L 106.960742 272.845619 
L 113.586345 269.384927 
L 120.211948 265.924235 
L 126.837551 262.463543 
L 133.463154 259.00285 
L 140.088757 255.542158 
L 146.71436 252.081466 
L 153.339963 248.620774 
L 159.965566 245.160081 
L 166.591169 241.699389 
L 173.216772 238.238697 
L 179.842375 234.778005 
L 186.467978 231.317312 
L 193.093581 227.85662 
L 199.719184 224.395928 
L 206.344787 220.935236 
L 212.97039 217.474543 
L 219.595993 214.013851 
L 226.221596 210.553159 
L 232.847199 207.092467 
L 239.472801 203.631774 
L 246.098404 200.171082 
L 252.724007 196.71039 
L 259.34961 193.249698 
L 265.975213 189.789006 
L 272.600816 186.328313 
L 279.226419 182.867621 
L 285.852022 179.406929 
L 292.477625 175.946237 
L 299.103228 172.485544 
L 305.728831 169.024852 
L 312.354434 165.56416 
L 318.980037 162.103468 
L 325.60564 158.642775 
L 332.231243 155.182083 
L 338.856846 151.721391 
L 345.482449 148.260699 
L 352.108052 144.800006 
L 358.733655 141.339314 
L 365.359258 137.878622 
L 371.984861 134.41793 
L 378.610464 130.957238 
L 385.236067 127.496545 
L 391.86167 124.035853 
L 398.487273 120.575161 
" clip-path="url(#p49ac256d4f)" style="fill: none; stroke: #dd8452; stroke-width: 1.2; stroke-linecap: round"/>
   </g>
   <g id="line2d_18">
    <path d="M 73.832727 287.908265 
L 80.45833 283.321614 
L 87.083933 278.734963 
L 93.709536 274.148313 
L 100.335139 269.561662 
L 106.960742 264.975011 
L 113.586345 260.38836 
L 120.211948 255.80171 
L 126.837551 251.215059 
L 133.463154 246.628408 
L 140.088757 242.041757 
L 146.71436 237.455107 
L 153.339963 232.868456 
L 159.965566 228.281805 
L 166.591169 223.695155 
L 173.216772 219.108504 
L 179.842375 214.521853 
L 186.467978 209.935202 
L 193.093581 205.348552 
L 199.719184 200.761901 
L 206.344787 196.17525 
L 212.97039 191.588599 
L 219.595993 187.001949 
L 226.221596 182.415298 
L 232.847199 177.828647 
L 239.472801 173.241997 
L 246.098404 168.655346 
L 252.724007 164.068695 
L 259.34961 159.482044 
L 265.975213 154.895394 
L 272.600816 150.308743 
L 279.226419 145.722092 
L 285.852022 141.135441 
L 292.477625 136.548791 
L 299.103228 131.96214 
L 305.728831 127.375489 
L 312.354434 122.788839 
L 318.980037 118.202188 
L 325.60564 113.615537 
L 332.231243 109.028886 
L 338.856846 104.442236 
L 345.482449 99.855585 
L 352.108052 95.268934 
L 358.733655 90.682284 
L 365.359258 86.095633 
L 371.984861 81.508982 
L 378.610464 76.922331 
L 385.236067 72.335681 
L 391.86167 67.74903 
L 398.487273 63.162379 
" clip-path="url(#p49ac256d4f)" style="fill: none; stroke: #55a868; stroke-width: 1.2; stroke-linecap: round"/>
   </g>
   <g id="line2d_19">
    <path d="M 73.832727 295.099689 
L 80.45833 290.332512 
L 87.083933 285.565335 
L 93.709536 280.798158 
L 100.335139 276.030981 
L 106.960742 271.263803 
L 113.586345 266.496626 
L 120.211948 261.729449 
L 126.837551 256.962272 
L 133.463154 252.195095 
L 140.088757 247.427918 
L 146.71436 242.66074 
L 153.339963 237.893563 
L 159.965566 233.126386 
L 166.591169 228.359209 
L 173.216772 223.592032 
L 179.842375 218.824855 
L 186.467978 214.057677 
L 193.093581 209.2905 
L 199.719184 204.523323 
L 206.344787 199.756146 
L 212.97039 194.988969 
L 219.595993 190.221792 
L 226.221596 185.454614 
L 232.847199 180.687437 
L 239.472801 175.92026 
L 246.098404 171.153083 
L 252.724007 166.385906 
L 259.34961 161.618729 
L 265.975213 156.851551 
L 272.600816 152.084374 
L 279.226419 147.317197 
L 285.852022 142.55002 
L 292.477625 137.782843 
L 299.103228 133.015666 
L 305.728831 128.248488 
L 312.354434 123.481311 
L 318.980037 118.714134 
L 325.60564 113.946957 
L 332.231243 109.17978 
L 338.856846 104.412603 
L 345.482449 99.645425 
L 352.108052 94.878248 
L 358.733655 90.111071 
L 365.359258 85.343894 
L 371.984861 80.576717 
L 378.610464 75.80954 
L 385.236067 71.042362 
L 391.86167 66.275185 
L 398.487273 61.508008 
" clip-path="url(#p49ac256d4f)" style="fill: none; stroke: #c44e52; stroke-width: 1.2; stroke-linecap: round"/>
   </g>
   <g id="line2d_20">
    <path d="M 73.832727 281.684936 
L 80.45833 277.060982 
L 87.083933 272.437028 
L 93.709536 267.813074 
L 100.335139 263.18912 
L 106.960742 258.565166 
L 113.586345 253.941212 
L 120.211948 249.317258 
L 126.837551 244.693304 
L 133.463154 240.06935 
L 140.088757 235.445397 
L 146.71436 230.821443 
L 153.339963 226.197489 
L 159.965566 221.573535 
L 166.591169 216.949581 
L 173.216772 212.325627 
L 179.842375 207.701673 
L 186.467978 203.077719 
L 193.093581 198.453765 
L 199.719184 193.829811 
L 206.344787 189.205857 
L 212.97039 184.581903 
L 219.595993 179.957949 
L 226.221596 175.333995 
L 232.847199 170.710042 
L 239.472801 166.086088 
L 246.098404 161.462134 
L 252.724007 156.83818 
L 259.34961 152.214226 
L 265.975213 147.590272 
L 272.600816 142.966318 
L 279.226419 138.342364 
L 285.852022 133.71841 
L 292.477625 129.094456 
L 299.103228 124.470502 
L 305.728831 119.846548 
L 312.354434 115.222594 
L 318.980037 110.59864 
L 325.60564 105.974687 
L 332.231243 101.350733 
L 338.856846 96.726779 
L 345.482449 92.102825 
L 352.108052 87.478871 
L 358.733655 82.854917 
L 365.359258 78.230963 
L 371.984861 73.607009 
L 378.610464 68.983055 
L 385.236067 64.359101 
L 391.86167 59.735147 
L 398.487273 55.111193 
" clip-path="url(#p49ac256d4f)" style="fill: none; stroke: #8172b3; stroke-width: 1.2; stroke-linecap: round"/>
   </g>
   <g id="patch_3">
    <path d="M 57.6 307.584 
L 57.6 41.472 
" style="fill: none; stroke: #cccccc; stroke-linejoin: miter; stroke-linecap: square"/>
   </g>
   <g id="patch_4">
    <path d="M 414.72 307.584 
L 414.72 41.472 
" style="fill: none; stroke: #cccccc; stroke-linejoin: miter; stroke-linecap: square"/>
   </g>
   <g id="patch_5">
    <path d="M 57.6 307.584 
L 414.72 307.584 
" style="fill: none; stroke: #cccccc; stroke-linejoin: miter; stroke-linecap: square"/>
   </g>
   <g id="patch_6">
    <path d="M 57.6 41.472 
L 414.72 41.472 
" style="fill: none; stroke: #cccccc; stroke-linejoin: miter; stroke-linecap: square"/>
   </g>
   <g id="legend_1">
    <g id="patch_7">
     <path d="M 65.3 131.001688 
L 159.640469 131.001688 
Q 161.840469 131.001688 161.840469 128.801688 
L 161.840469 49.172 
Q 161.840469 46.972 159.640469 46.972 
L 65.3 46.972 
Q 63.1 46.972 63.1 49.172 
L 63.1 128.801688 
Q 63.1 131.001688 65.3 131.001688 
z
" style="fill: #ffffff; opacity: 0.8; stroke: #cccccc; stroke-width: 0.8; stroke-linejoin: miter"/>
    </g>
    <g id="LineCollection_6">
     <path d="M 78.5 61.380281 
L 78.5 50.380281 
" style="fill: none; stroke: #4c72b0; stroke-width: 1.2"/>
    </g>
    <g id="line2d_21">
     <path d="M 67.5 55.880281 
L 89.5 55.880281 
" style="fill: none; stroke: #4c72b0; stroke-width: 1.2; stroke-linecap: round"/>
    </g>
    <g id="line2d_22"/>
    <g id="text_18">
     <!-- Messung 1 -->
     <g style="fill: #262626" transform="translate(98.3 59.730281) scale(0.11 -0.11)">
      <defs>
       <path id="DejaVuSans-4d" d="M 628 4666 
L 1569 4666 
L 2759 1491 
L 3956 4666 
L 4897 4666 
L 4897 0 
L 4281 0 
L 4281 4097 
L 3078 897 
L 2444 897 
L 1241 4097 
L 1241 0 
L 628 0 
L 628 4666 
z
" transform="scale(0.015625)"/>
       <path id="DejaVuSans-65" d="M 3597 1894 
L 3597 1613 
L 953 1613 
Q 991 1019 1311 708 
Q 1631 397 2203 397 
Q 2534 397 2845 478 
Q 3156 559 3463 722 
L 3463 178 
Q 3153 47 2828 -22 
Q 2503 -91 2169 -91 
Q 1331 -91 842 396 
Q 353 884 353 1716 
Q 353 2575 817 3079 
Q 1281 3584 2069 3584 
Q 2775 3584 3186 3129 
Q 3597 2675 3597 1894 
z
M 3022 2063 
Q 3016 2534 2758 2815 
Q 2500 3097 2075 3097 
Q 1594 3097 1305 2825 
Q 1016 2553 972 2059 
L 3022 2063 
z
" transform="scale(0.015625)"/>
       <path id="DejaVuSans-73" d="M 2834 3397 
L 2834 2853 
Q 2591 2978 2328 3040 
Q 2066 3103 1784 3103 
Q 1356 3103 1142 2972 
Q 928 2841 928 2578 
Q 928 2378 1081 2264 
Q 1234 2150 1697 2047 
L 1894 2003 
Q 2506 1872 2764 1633 
Q 3022 1394 3022 966 
Q 3022 478 2636 193 
Q 2250 -91 1575 -91 
Q 1294 -91 989 -36 
Q 684 19 347 128 
L 347 722 
Q 666 556 975 473 
Q 1284 391 1588 391 
Q 1994 391 2212 530 
Q 2431 669 2431 922 
Q 2431 1156 2273 1281 
Q 2116 1406 1581 1522 
L 1381 1569 
Q 847 1681 609 1914 
Q 372 2147 372 2553 
Q 372 3047 722 3315 
Q 1072 3584 1716 3584 
Q 2034 3584 2315 3537 
Q 2597 3491 2834 3397 
z
" transform="scale(0.015625)"/>
       <path id="DejaVuSans-75" d="M 544 1381 
L 544 3500 
L 1119 3500 
L 1119 1403 
Q 1119 906 1312 657 
Q 1506 409 1894 409 
Q 2359 409 2629 706 
Q 2900 1003 2900 1516 
L 2900 3500 
L 3475 3500 
L 3475 0 
L 2900 0 
L 2900 538 
Q 2691 219 2414 64 
Q 2138 -91 1772 -91 
Q 1169 -91 856 284 
Q 544 659 544 1381 
z
M 1991 3584 
L 1991 3584 
z
" transform="scale(0.015625)"/>
       <path id="DejaVuSans-67" d="M 2906 1791 
Q 2906 2416 2648 2759 
Q 2391 3103 1925 3103 
Q 1463 3103 1205 2759 
Q 947 2416 947 1791 
Q 947 1169 1205 825 
Q 1463 481 1925 481 
Q 2391 481 2648 825 
Q 2906 1169 2906 1791 
z
M 3481 434 
Q 3481 -459 3084 -895 
Q 2688 -1331 1869 -1331 
Q 1566 -1331 1297 -1286 
Q 1028 -1241 775 -1147 
L 775 -588 
Q 1028 -725 1275 -790 
Q 1522 -856 1778 -856 
Q 2344 -856 2625 -561 
Q 2906 -266 2906 331 
L 2906 616 
Q 2728 306 2450 153 
Q 2172 0 1784 0 
Q 1141 0 747 490 
Q 353 981 353 1791 
Q 353 2603 747 3093 
Q 1141 3584 1784 3584 
Q 2172 3584 2450 3431 
Q 2728 3278 2906 2969 
L 2906 3500 
L 3481 3500 
L 3481 434 
z
" transform="scale(0.015625)"/>
       <path id="DejaVuSans-20" transform="scale(0.015625)"/>
      </defs>
      <use xlink:href="#DejaVuSans-4d"/>
      <use xlink:href="#DejaVuSans-65" x="86.279297"/>
      <use xlink:href="#DejaVuSans-73" x="147.802734"/>
      <use xlink:href="#DejaVuSans-73" x="199.902344"/>
      <use xlink:href="#DejaVuSans-75" x="252.001953"/>
      <use xlink:href="#DejaVuSans-6e" x="315.380859"/>
      <use xlink:href="#DejaVuSans-67" x="378.759766"/>
      <use xlink:href="#DejaVuSans-20" x="442.236328"/>
      <use xlink:href="#DejaVuSans-31" x="474.023438"/>
     </g>
    </g>
    <g id="LineCollection_7">
     <path d="M 78.5 77.526219 
L 78.5 66.526219 
" style="fill: none; stroke: #dd8452; stroke-width: 1.2"/>
    </g>
    <g id="line2d_23">
     <path d="M 67.5 72.026219 
L 89.5 72.026219 
" style="fill: none; stroke: #dd8452; stroke-width: 1.2; stroke-linecap: round"/>
    </g>
    <g id="line2d_24"/>
    <g id="text_19">
     <!-- Messung 2 -->
     <g style="fill: #262626" transform="translate(98.3 75.876219) scale(0.11 -0.11)">
      <use xlink:href="#DejaVuSans-4d"/>
      <use xlink:href="#DejaVuSans-65" x="86.279297"/>
      <use xlink:href="#DejaVuSans-73" x="147.802734"/>
      <use xlink:href="#DejaVuSans-73" x="199.902344"/>
      <use xlink:href="#DejaVuSans-75" x="252.001953"/>
      <use xlink:href="#DejaVuSans-6e" x="315.380859"/>
      <use xlink:href="#DejaVuSans-67" x="378.759766"/>
      <use xlink:href="#DejaVuSans-20" x="442.236328"/>
      <use xlink:href="#DejaVuSans-32" x="474.023438"/>
     </g>
    </g>
    <g id="LineCollection_8">
     <path d="M 78.5 93.672156 
L 78.5 82.672156 
" style="fill: none; stroke: #55a868; stroke-width: 1.2"/>
    </g>
    <g id="line2d_25">
     <path d="M 67.5 88.172156 
L 89.5 88.172156 
" style="fill: none; stroke: #55a868; stroke-width: 1.2; stroke-linecap: round"/>
    </g>
    <g id="line2d_26"/>
    <g id="text_20">
     <!-- Messung 3 -->
     <g style="fill: #262626" transform="translate(98.3 92.022156) scale(0.11 -0.11)">
      <use xlink:href="#DejaVuSans-4d"/>
      <use xlink:href="#DejaVuSans-65" x="86.279297"/>
      <use xlink:href="#DejaVuSans-73" x="147.802734"/>
      <use xlink:href="#DejaVuSans-73" x="199.902344"/>
      <use xlink:href="#DejaVuSans-75" x="252.001953"/>
      <use xlink:href="#DejaVuSans-6e" x="315.380859"/>
      <use xlink:href="#DejaVuSans-67" x="378.759766"/>
      <use xlink:href="#DejaVuSans-20" x="442.236328"/>
      <use xlink:href="#DejaVuSans-33" x="474.023438"/>
     </g>
    </g>
    <g id="LineCollection_9">
     <path d="M 78.5 109.818094 
L 78.5 98.818094 
" style="fill: none; stroke: #c44e52; stroke-width: 1.2"/>
    </g>
    <g id="line2d_27">
     <path d="M 67.5 104.318094 
L 89.5 104.318094 
" style="fill: none; stroke: #c44e52; stroke-width: 1.2; stroke-linecap: round"/>
    </g>
    <g id="line2d_28"/>
    <g id="text_21">
     <!-- Messung 4 -->
     <g style="fill: #262626" transform="translate(98.3 108.168094) scale(0.11 -0.11)">
      <defs>
       <path id="DejaVuSans-34" d="M 2419 4116 
L 825 1625 
L 2419 1625 
L 2419 4116 
z
M 2253 4666 
L 3047 4666 
L 3047 1625 
L 3713 1625 
L 3713 1100 
L 3047 1100 
L 3047 0 
L 2419 0 
L 2419 1100 
L 313 1100 
L 313 1709 
L 2253 4666 
z
" transform="scale(0.015625)"/>
      </defs>
      <use xlink:href="#DejaVuSans-4d"/>
      <use xlink:href="#DejaVuSans-65" x="86.279297"/>
      <use xlink:href="#DejaVuSans-73" x="147.802734"/>
      <use xlink:href="#DejaVuSans-73" x="199.902344"/>
      <use xlink:href="#DejaVuSans-75" x="252.001953"/>
      <use xlink:href="#DejaVuSans-6e" x="315.380859"/>
      <use xlink:href="#DejaVuSans-67" x="378.759766"/>
      <use xlink:href="#DejaVuSans-20" x="442.236328"/>
      <use xlink:href="#DejaVuSans-34" x="474.023438"/>
     </g>
    </g>
    <g id="LineCollection_10">
     <path d="M 78.5 125.964031 
L 78.5 114.964031 
" style="fill: none; stroke: #8172b3; stroke-width: 1.2"/>
    </g>
    <g id="line2d_29">
     <path d="M 67.5 120.464031 
L 89.5 120.464031 
" style="fill: none; stroke: #8172b3; stroke-width: 1.2; stroke-linecap: round"/>
    </g>
    <g id="line2d_30"/>
    <g id="text_22">
     <!-- Messung 5 -->
     <g style="fill: #262626" transform="translate(98.3 124.314031) scale(0.11 -0.11)">
      <use xlink:href="#DejaVuSans-4d"/>
      <use xlink:href="#DejaVuSans-65" x="86.279297"/>
      <use xlink:href="#DejaVuSans-73" x="147.802734"/>
      <use xlink:href="#DejaVuSans-73" x="199.902344"/>
      <use xlink:href="#DejaVuSans-75" x="252.001953"/>
      <use xlink:href="#DejaVuSans-6e" x="315.380859"/>
      <use xlink:href="#DejaVuSans-67" x="378.759766"/>
      <use xlink:href="#DejaVuSans-20" x="442.236328"/>
      <use xlink:href="#DejaVuSans-35" x="474.023438"/>
     </g>
    </g>
   </g>
  </g>
 </g>
 <defs>
  <clipPath id="p49ac256d4f">
   <rect x="57.6" y="41.472" width="357.12" height="266.112"/>
  </clipPath>
 </defs>
</svg>
