<?xml version="1.0" encoding="utf-8" standalone="no"?>
<!DOCTYPE svg PUBLIC "-//W3C//DTD SVG 1.1//EN"
  "http://www.w3.org/Graphics/SVG/1.1/DTD/svg11.dtd">
<svg xmlns:xlink="http://www.w3.org/1999/xlink" width="460.8pt" height="345.6pt" viewBox="0 0 460.8 345.6" xmlns="http://www.w3.org/2000/svg" version="1.1">
 <metadata>
  <rdf:RDF xmlns:dc="http://purl.org/dc/elements/1.1/" xmlns:cc="http://creativecommons.org/ns#" xmlns:rdf="http://www.w3.org/1999/02/22-rdf-syntax-ns#">
   <cc:Work>
    <dc:type rdf:resource="http://purl.org/dc/dcmitype/StillImage"/>
    <dc:date>2024-02-20T14:46:27.685320</dc:date>
    <dc:format>image/svg+xml</dc:format>
    <dc:creator>
     <cc:Agent>
      <dc:title>Matplotlib v3.8.2, https://matplotlib.org/</dc:title>
     </cc:Agent>
    </dc:creator>
   </cc:Work>
  </rdf:RDF>
 </metadata>
 <defs>
  <style type="text/css">*{stroke-linejoin: round; stroke-linecap: butt}</style>
 </defs>
 <g id="figure_1">
  <g id="patch_1">
   <path d="M 0 345.6 
L 460.8 345.6 
L 460.8 0 
L 0 0 
z
" style="fill: #ffffff"/>
  </g>
  <g id="axes_1">
   <g id="patch_2">
    <path d="M 57.6 307.584 
L 414.72 307.584 
L 414.72 41.472 
L 57.6 41.472 
z
" style="fill: #ffffff"/>
   </g>
   <g id="matplotlib.axis_1">
    <g id="xtick_1">
     <g id="line2d_1">
      <path d="M 73.832727 307.584 
L 73.832727 41.472 
" clip-path="url(#p136780406a)" style="fill: none; stroke: #cccccc; stroke-width: 0.8; stroke-linecap: round"/>
     </g>
     <g id="text_1">
      <!-- −0.30 -->
      <g style="fill: #262626" transform="translate(56.977805 324.242281) scale(0.11 -0.11)">
       <defs>
        <path id="DejaVuSans-2212" d="M 678 2272 
L 4684 2272 
L 4684 1741 
L 678 1741 
L 678 2272 
z
" transform="scale(0.015625)"/>
        <path id="DejaVuSans-30" d="M 2034 4250 
Q 1547 4250 1301 3770 
Q 1056 3291 1056 2328 
Q 1056 1369 1301 889 
Q 1547 409 2034 409 
Q 2525 409 2770 889 
Q 3016 1369 3016 2328 
Q 3016 3291 2770 3770 
Q 2525 4250 2034 4250 
z
M 2034 4750 
Q 2819 4750 3233 4129 
Q 3647 3509 3647 2328 
Q 3647 1150 3233 529 
Q 2819 -91 2034 -91 
Q 1250 -91 836 529 
Q 422 1150 422 2328 
Q 422 3509 836 4129 
Q 1250 4750 2034 4750 
z
" transform="scale(0.015625)"/>
        <path id="DejaVuSans-2e" d="M 684 794 
L 1344 794 
L 1344 0 
L 684 0 
L 684 794 
z
" transform="scale(0.015625)"/>
        <path id="DejaVuSans-33" d="M 2597 2516 
Q 3050 2419 3304 2112 
Q 3559 1806 3559 1356 
Q 3559 666 3084 287 
Q 2609 -91 1734 -91 
Q 1441 -91 1130 -33 
Q 819 25 488 141 
L 488 750 
Q 750 597 1062 519 
Q 1375 441 1716 441 
Q 2309 441 2620 675 
Q 2931 909 2931 1356 
Q 2931 1769 2642 2001 
Q 2353 2234 1838 2234 
L 1294 2234 
L 1294 2753 
L 1863 2753 
Q 2328 2753 2575 2939 
Q 2822 3125 2822 3475 
Q 2822 3834 2567 4026 
Q 2313 4219 1838 4219 
Q 1578 4219 1281 4162 
Q 984 4106 628 3988 
L 628 4550 
Q 988 4650 1302 4700 
Q 1616 4750 1894 4750 
Q 2613 4750 3031 4423 
Q 3450 4097 3450 3541 
Q 3450 3153 3228 2886 
Q 3006 2619 2597 2516 
z
" transform="scale(0.015625)"/>
       </defs>
       <use xlink:href="#DejaVuSans-2212"/>
       <use xlink:href="#DejaVuSans-30" x="83.789062"/>
       <use xlink:href="#DejaVuSans-2e" x="147.412109"/>
       <use xlink:href="#DejaVuSans-33" x="179.199219"/>
       <use xlink:href="#DejaVuSans-30" x="242.822266"/>
      </g>
     </g>
    </g>
    <g id="xtick_2">
     <g id="line2d_2">
      <path d="M 127.941818 307.584 
L 127.941818 41.472 
" clip-path="url(#p136780406a)" style="fill: none; stroke: #cccccc; stroke-width: 0.8; stroke-linecap: round"/>
     </g>
     <g id="text_2">
      <!-- −0.25 -->
      <g style="fill: #262626" transform="translate(111.086896 324.242281) scale(0.11 -0.11)">
       <defs>
        <path id="DejaVuSans-32" d="M 1228 531 
L 3431 531 
L 3431 0 
L 469 0 
L 469 531 
Q 828 903 1448 1529 
Q 2069 2156 2228 2338 
Q 2531 2678 2651 2914 
Q 2772 3150 2772 3378 
Q 2772 3750 2511 3984 
Q 2250 4219 1831 4219 
Q 1534 4219 1204 4116 
Q 875 4013 500 3803 
L 500 4441 
Q 881 4594 1212 4672 
Q 1544 4750 1819 4750 
Q 2544 4750 2975 4387 
Q 3406 4025 3406 3419 
Q 3406 3131 3298 2873 
Q 3191 2616 2906 2266 
Q 2828 2175 2409 1742 
Q 1991 1309 1228 531 
z
" transform="scale(0.015625)"/>
        <path id="DejaVuSans-35" d="M 691 4666 
L 3169 4666 
L 3169 4134 
L 1269 4134 
L 1269 2991 
Q 1406 3038 1543 3061 
Q 1681 3084 1819 3084 
Q 2600 3084 3056 2656 
Q 3513 2228 3513 1497 
Q 3513 744 3044 326 
Q 2575 -91 1722 -91 
Q 1428 -91 1123 -41 
Q 819 9 494 109 
L 494 744 
Q 775 591 1075 516 
Q 1375 441 1709 441 
Q 2250 441 2565 725 
Q 2881 1009 2881 1497 
Q 2881 1984 2565 2268 
Q 2250 2553 1709 2553 
Q 1456 2553 1204 2497 
Q 953 2441 691 2322 
L 691 4666 
z
" transform="scale(0.015625)"/>
       </defs>
       <use xlink:href="#DejaVuSans-2212"/>
       <use xlink:href="#DejaVuSans-30" x="83.789062"/>
       <use xlink:href="#DejaVuSans-2e" x="147.412109"/>
       <use xlink:href="#DejaVuSans-32" x="179.199219"/>
       <use xlink:href="#DejaVuSans-35" x="242.822266"/>
      </g>
     </g>
    </g>
    <g id="xtick_3">
     <g id="line2d_3">
      <path d="M 182.050909 307.584 
L 182.050909 41.472 
" clip-path="url(#p136780406a)" style="fill: none; stroke: #cccccc; stroke-width: 0.8; stroke-linecap: round"/>
     </g>
     <g id="text_3">
      <!-- −0.20 -->
      <g style="fill: #262626" transform="translate(165.195987 324.242281) scale(0.11 -0.11)">
       <use xlink:href="#DejaVuSans-2212"/>
       <use xlink:href="#DejaVuSans-30" x="83.789062"/>
       <use xlink:href="#DejaVuSans-2e" x="147.412109"/>
       <use xlink:href="#DejaVuSans-32" x="179.199219"/>
       <use xlink:href="#DejaVuSans-30" x="242.822266"/>
      </g>
     </g>
    </g>
    <g id="xtick_4">
     <g id="line2d_4">
      <path d="M 236.16 307.584 
L 236.16 41.472 
" clip-path="url(#p136780406a)" style="fill: none; stroke: #cccccc; stroke-width: 0.8; stroke-linecap: round"/>
     </g>
     <g id="text_4">
      <!-- −0.15 -->
      <g style="fill: #262626" transform="translate(219.305078 324.242281) scale(0.11 -0.11)">
       <defs>
        <path id="DejaVuSans-31" d="M 794 531 
L 1825 531 
L 1825 4091 
L 703 3866 
L 703 4441 
L 1819 4666 
L 2450 4666 
L 2450 531 
L 3481 531 
L 3481 0 
L 794 0 
L 794 531 
z
" transform="scale(0.015625)"/>
       </defs>
       <use xlink:href="#DejaVuSans-2212"/>
       <use xlink:href="#DejaVuSans-30" x="83.789062"/>
       <use xlink:href="#DejaVuSans-2e" x="147.412109"/>
       <use xlink:href="#DejaVuSans-31" x="179.199219"/>
       <use xlink:href="#DejaVuSans-35" x="242.822266"/>
      </g>
     </g>
    </g>
    <g id="xtick_5">
     <g id="line2d_5">
      <path d="M 290.269091 307.584 
L 290.269091 41.472 
" clip-path="url(#p136780406a)" style="fill: none; stroke: #cccccc; stroke-width: 0.8; stroke-linecap: round"/>
     </g>
     <g id="text_5">
      <!-- −0.10 -->
      <g style="fill: #262626" transform="translate(273.414169 324.242281) scale(0.11 -0.11)">
       <use xlink:href="#DejaVuSans-2212"/>
       <use xlink:href="#DejaVuSans-30" x="83.789062"/>
       <use xlink:href="#DejaVuSans-2e" x="147.412109"/>
       <use xlink:href="#DejaVuSans-31" x="179.199219"/>
       <use xlink:href="#DejaVuSans-30" x="242.822266"/>
      </g>
     </g>
    </g>
    <g id="xtick_6">
     <g id="line2d_6">
      <path d="M 344.378182 307.584 
L 344.378182 41.472 
" clip-path="url(#p136780406a)" style="fill: none; stroke: #cccccc; stroke-width: 0.8; stroke-linecap: round"/>
     </g>
     <g id="text_6">
      <!-- −0.05 -->
      <g style="fill: #262626" transform="translate(327.52326 324.242281) scale(0.11 -0.11)">
       <use xlink:href="#DejaVuSans-2212"/>
       <use xlink:href="#DejaVuSans-30" x="83.789062"/>
       <use xlink:href="#DejaVuSans-2e" x="147.412109"/>
       <use xlink:href="#DejaVuSans-30" x="179.199219"/>
       <use xlink:href="#DejaVuSans-35" x="242.822266"/>
      </g>
     </g>
    </g>
    <g id="xtick_7">
     <g id="line2d_7">
      <path d="M 398.487273 307.584 
L 398.487273 41.472 
" clip-path="url(#p136780406a)" style="fill: none; stroke: #cccccc; stroke-width: 0.8; stroke-linecap: round"/>
     </g>
     <g id="text_7">
      <!-- 0.00 -->
      <g style="fill: #262626" transform="translate(386.241179 324.242281) scale(0.11 -0.11)">
       <use xlink:href="#DejaVuSans-30"/>
       <use xlink:href="#DejaVuSans-2e" x="63.623047"/>
       <use xlink:href="#DejaVuSans-30" x="95.410156"/>
       <use xlink:href="#DejaVuSans-30" x="159.033203"/>
      </g>
     </g>
    </g>
    <g id="text_8">
     <!-- $z_0\ [\AA]$ -->
     <g style="fill: #262626" transform="translate(218.025 342.256344) scale(0.13 -0.13)">
      <defs>
       <path id="DejaVuSans-Oblique-7a" d="M 744 3500 
L 3475 3500 
L 3372 2975 
L 738 459 
L 2913 459 
L 2822 0 
L -19 0 
L 84 525 
L 2719 3041 
L 653 3041 
L 744 3500 
z
" transform="scale(0.015625)"/>
       <path id="DejaVuSans-5b" d="M 550 4863 
L 1875 4863 
L 1875 4416 
L 1125 4416 
L 1125 -397 
L 1875 -397 
L 1875 -844 
L 550 -844 
L 550 4863 
z
" transform="scale(0.015625)"/>
       <path id="DejaVuSans-Oblique-c5" d="M 3188 5081 
Q 3188 5278 3048 5417 
Q 2909 5556 2713 5556 
Q 2513 5556 2377 5420 
Q 2241 5284 2241 5081 
Q 2241 4884 2377 4746 
Q 2513 4609 2713 4609 
Q 2909 4609 3048 4746 
Q 3188 4884 3188 5081 
z
M 2203 4397 
Q 2034 4513 1945 4689 
Q 1856 4866 1856 5081 
Q 1856 5438 2106 5689 
Q 2356 5941 2713 5941 
Q 3069 5941 3320 5689 
Q 3572 5438 3572 5081 
Q 3572 4834 3458 4643 
Q 3344 4453 3128 4341 
L 3938 0 
L 3278 0 
L 3084 1197 
L 984 1197 
L 325 0 
L -341 0 
L 2203 4397 
z
M 2584 4044 
L 1275 1722 
L 2988 1722 
L 2584 4044 
z
" transform="scale(0.015625)"/>
       <path id="DejaVuSans-5d" d="M 1947 4863 
L 1947 -844 
L 622 -844 
L 622 -397 
L 1369 -397 
L 1369 4416 
L 622 4416 
L 622 4863 
L 1947 4863 
z
" transform="scale(0.015625)"/>
      </defs>
      <use xlink:href="#DejaVuSans-Oblique-7a" transform="translate(0 0.171875)"/>
      <use xlink:href="#DejaVuSans-30" transform="translate(52.490234 -16.234375) scale(0.7)"/>
      <use xlink:href="#DejaVuSans-5b" transform="translate(132.231121 0.171875)"/>
      <use xlink:href="#DejaVuSans-Oblique-c5" transform="translate(171.244792 0.171875)"/>
      <use xlink:href="#DejaVuSans-5d" transform="translate(239.652996 0.171875)"/>
     </g>
    </g>
   </g>
   <g id="matplotlib.axis_2">
    <g id="ytick_1">
     <g id="line2d_8">
      <path d="M 57.6 253.42836 
L 414.72 253.42836 
" clip-path="url(#p136780406a)" style="fill: none; stroke: #cccccc; stroke-width: 0.8; stroke-linecap: round"/>
     </g>
     <g id="text_9">
      <!-- 9.0 -->
      <g style="fill: #262626" transform="translate(31.806562 257.607501) scale(0.11 -0.11)">
       <defs>
        <path id="DejaVuSans-39" d="M 703 97 
L 703 672 
Q 941 559 1184 500 
Q 1428 441 1663 441 
Q 2288 441 2617 861 
Q 2947 1281 2994 2138 
Q 2813 1869 2534 1725 
Q 2256 1581 1919 1581 
Q 1219 1581 811 2004 
Q 403 2428 403 3163 
Q 403 3881 828 4315 
Q 1253 4750 1959 4750 
Q 2769 4750 3195 4129 
Q 3622 3509 3622 2328 
Q 3622 1225 3098 567 
Q 2575 -91 1691 -91 
Q 1453 -91 1209 -44 
Q 966 3 703 97 
z
M 1959 2075 
Q 2384 2075 2632 2365 
Q 2881 2656 2881 3163 
Q 2881 3666 2632 3958 
Q 2384 4250 1959 4250 
Q 1534 4250 1286 3958 
Q 1038 3666 1038 3163 
Q 1038 2656 1286 2365 
Q 1534 2075 1959 2075 
z
" transform="scale(0.015625)"/>
       </defs>
       <use xlink:href="#DejaVuSans-39"/>
       <use xlink:href="#DejaVuSans-2e" x="63.623047"/>
       <use xlink:href="#DejaVuSans-30" x="95.410156"/>
      </g>
     </g>
    </g>
    <g id="ytick_2">
     <g id="line2d_9">
      <path d="M 57.6 197.857858 
L 414.72 197.857858 
" clip-path="url(#p136780406a)" style="fill: none; stroke: #cccccc; stroke-width: 0.8; stroke-linecap: round"/>
     </g>
     <g id="text_10">
      <!-- 9.5 -->
      <g style="fill: #262626" transform="translate(31.806562 202.036999) scale(0.11 -0.11)">
       <use xlink:href="#DejaVuSans-39"/>
       <use xlink:href="#DejaVuSans-2e" x="63.623047"/>
       <use xlink:href="#DejaVuSans-35" x="95.410156"/>
      </g>
     </g>
    </g>
    <g id="ytick_3">
     <g id="line2d_10">
      <path d="M 57.6 142.287356 
L 414.72 142.287356 
" clip-path="url(#p136780406a)" style="fill: none; stroke: #cccccc; stroke-width: 0.8; stroke-linecap: round"/>
     </g>
     <g id="text_11">
      <!-- 10.0 -->
      <g style="fill: #262626" transform="translate(24.807812 146.466497) scale(0.11 -0.11)">
       <use xlink:href="#DejaVuSans-31"/>
       <use xlink:href="#DejaVuSans-30" x="63.623047"/>
       <use xlink:href="#DejaVuSans-2e" x="127.246094"/>
       <use xlink:href="#DejaVuSans-30" x="159.033203"/>
      </g>
     </g>
    </g>
    <g id="ytick_4">
     <g id="line2d_11">
      <path d="M 57.6 86.716854 
L 414.72 86.716854 
" clip-path="url(#p136780406a)" style="fill: none; stroke: #cccccc; stroke-width: 0.8; stroke-linecap: round"/>
     </g>
     <g id="text_12">
      <!-- 10.5 -->
      <g style="fill: #262626" transform="translate(24.807812 90.895995) scale(0.11 -0.11)">
       <use xlink:href="#DejaVuSans-31"/>
       <use xlink:href="#DejaVuSans-30" x="63.623047"/>
       <use xlink:href="#DejaVuSans-2e" x="127.246094"/>
       <use xlink:href="#DejaVuSans-35" x="159.033203"/>
      </g>
     </g>
    </g>
    <g id="text_13">
     <!-- $\ln(I(z_0))\ [\ln(\mathrm{A})]$ -->
     <g style="fill: #262626" transform="translate(18.104219 221.653) rotate(-90) scale(0.13 -0.13)">
      <defs>
       <path id="DejaVuSans-6c" d="M 603 4863 
L 1178 4863 
L 1178 0 
L 603 0 
L 603 4863 
z
" transform="scale(0.015625)"/>
       <path id="DejaVuSans-6e" d="M 3513 2113 
L 3513 0 
L 2938 0 
L 2938 2094 
Q 2938 2591 2744 2837 
Q 2550 3084 2163 3084 
Q 1697 3084 1428 2787 
Q 1159 2491 1159 1978 
L 1159 0 
L 581 0 
L 581 3500 
L 1159 3500 
L 1159 2956 
Q 1366 3272 1645 3428 
Q 1925 3584 2291 3584 
Q 2894 3584 3203 3211 
Q 3513 2838 3513 2113 
z
" transform="scale(0.015625)"/>
       <path id="DejaVuSans-28" d="M 1984 4856 
Q 1566 4138 1362 3434 
Q 1159 2731 1159 2009 
Q 1159 1288 1364 580 
Q 1569 -128 1984 -844 
L 1484 -844 
Q 1016 -109 783 600 
Q 550 1309 550 2009 
Q 550 2706 781 3412 
Q 1013 4119 1484 4856 
L 1984 4856 
z
" transform="scale(0.015625)"/>
       <path id="DejaVuSans-Oblique-49" d="M 1081 4666 
L 1716 4666 
L 806 0 
L 172 0 
L 1081 4666 
z
" transform="scale(0.015625)"/>
       <path id="DejaVuSans-29" d="M 513 4856 
L 1013 4856 
Q 1481 4119 1714 3412 
Q 1947 2706 1947 2009 
Q 1947 1309 1714 600 
Q 1481 -109 1013 -844 
L 513 -844 
Q 928 -128 1133 580 
Q 1338 1288 1338 2009 
Q 1338 2731 1133 3434 
Q 928 4138 513 4856 
z
" transform="scale(0.015625)"/>
       <path id="DejaVuSans-41" d="M 2188 4044 
L 1331 1722 
L 3047 1722 
L 2188 4044 
z
M 1831 4666 
L 2547 4666 
L 4325 0 
L 3669 0 
L 3244 1197 
L 1141 1197 
L 716 0 
L 50 0 
L 1831 4666 
z
" transform="scale(0.015625)"/>
      </defs>
      <use xlink:href="#DejaVuSans-6c" transform="translate(0 0.015625)"/>
      <use xlink:href="#DejaVuSans-6e" transform="translate(27.783203 0.015625)"/>
      <use xlink:href="#DejaVuSans-28" transform="translate(91.162109 0.015625)"/>
      <use xlink:href="#DejaVuSans-Oblique-49" transform="translate(130.175781 0.015625)"/>
      <use xlink:href="#DejaVuSans-28" transform="translate(159.667969 0.015625)"/>
      <use xlink:href="#DejaVuSans-Oblique-7a" transform="translate(198.681641 0.015625)"/>
      <use xlink:href="#DejaVuSans-30" transform="translate(251.171875 -16.390625) scale(0.7)"/>
      <use xlink:href="#DejaVuSans-29" transform="translate(298.442383 0.015625)"/>
      <use xlink:href="#DejaVuSans-29" transform="translate(337.456055 0.015625)"/>
      <use xlink:href="#DejaVuSans-5b" transform="translate(408.940105 0.015625)"/>
      <use xlink:href="#DejaVuSans-6c" transform="translate(447.953777 0.015625)"/>
      <use xlink:href="#DejaVuSans-6e" transform="translate(475.73698 0.015625)"/>
      <use xlink:href="#DejaVuSans-28" transform="translate(539.115886 0.015625)"/>
      <use xlink:href="#DejaVuSans-41" transform="translate(578.129558 0.015625)"/>
      <use xlink:href="#DejaVuSans-29" transform="translate(646.537761 0.015625)"/>
      <use xlink:href="#DejaVuSans-5d" transform="translate(685.551433 0.015625)"/>
     </g>
    </g>
   </g>
   <g id="LineCollection_1">
    <path d="M 73.832727 208.955568 
L 73.832727 208.424439 
" clip-path="url(#p136780406a)" style="fill: none; stroke: #4c72b0; stroke-width: 1.2"/>
    <path d="M 80.45833 205.950819 
L 80.45833 205.447198 
" clip-path="url(#p136780406a)" style="fill: none; stroke: #4c72b0; stroke-width: 1.2"/>
    <path d="M 87.083933 202.946071 
L 87.083933 202.469957 
" clip-path="url(#p136780406a)" style="fill: none; stroke: #4c72b0; stroke-width: 1.2"/>
    <path d="M 93.709536 199.941322 
L 93.709536 199.492715 
" clip-path="url(#p136780406a)" style="fill: none; stroke: #4c72b0; stroke-width: 1.2"/>
    <path d="M 100.335139 196.936574 
L 100.335139 196.515474 
" clip-path="url(#p136780406a)" style="fill: none; stroke: #4c72b0; stroke-width: 1.2"/>
    <path d="M 106.960742 193.931826 
L 106.960742 193.538233 
" clip-path="url(#p136780406a)" style="fill: none; stroke: #4c72b0; stroke-width: 1.2"/>
    <path d="M 113.586345 190.927077 
L 113.586345 190.560991 
" clip-path="url(#p136780406a)" style="fill: none; stroke: #4c72b0; stroke-width: 1.2"/>
    <path d="M 120.211948 187.922329 
L 120.211948 187.58375 
" clip-path="url(#p136780406a)" style="fill: none; stroke: #4c72b0; stroke-width: 1.2"/>
    <path d="M 126.837551 184.91758 
L 126.837551 184.606508 
" clip-path="url(#p136780406a)" style="fill: none; stroke: #4c72b0; stroke-width: 1.2"/>
    <path d="M 133.463154 181.912832 
L 133.463154 181.629267 
" clip-path="url(#p136780406a)" style="fill: none; stroke: #4c72b0; stroke-width: 1.2"/>
    <path d="M 140.088757 178.908083 
L 140.088757 178.652026 
" clip-path="url(#p136780406a)" style="fill: none; stroke: #4c72b0; stroke-width: 1.2"/>
    <path d="M 146.71436 175.903335 
L 146.71436 175.674784 
" clip-path="url(#p136780406a)" style="fill: none; stroke: #4c72b0; stroke-width: 1.2"/>
    <path d="M 153.339963 172.898586 
L 153.339963 172.697543 
" clip-path="url(#p136780406a)" style="fill: none; stroke: #4c72b0; stroke-width: 1.2"/>
    <path d="M 159.965566 169.893838 
L 159.965566 169.720302 
" clip-path="url(#p136780406a)" style="fill: none; stroke: #4c72b0; stroke-width: 1.2"/>
    <path d="M 166.591169 166.889089 
L 166.591169 166.74306 
" clip-path="url(#p136780406a)" style="fill: none; stroke: #4c72b0; stroke-width: 1.2"/>
    <path d="M 173.216772 163.884341 
L 173.216772 163.765819 
" clip-path="url(#p136780406a)" style="fill: none; stroke: #4c72b0; stroke-width: 1.2"/>
    <path d="M 179.842375 160.879593 
L 179.842375 160.788578 
" clip-path="url(#p136780406a)" style="fill: none; stroke: #4c72b0; stroke-width: 1.2"/>
    <path d="M 186.467978 157.874844 
L 186.467978 157.811336 
" clip-path="url(#p136780406a)" style="fill: none; stroke: #4c72b0; stroke-width: 1.2"/>
    <path d="M 193.093581 154.870096 
L 193.093581 154.834095 
" clip-path="url(#p136780406a)" style="fill: none; stroke: #4c72b0; stroke-width: 1.2"/>
    <path d="M 199.719184 151.865347 
L 199.719184 151.856854 
" clip-path="url(#p136780406a)" style="fill: none; stroke: #4c72b0; stroke-width: 1.2"/>
    <path d="M 206.344787 148.879612 
L 206.344787 148.860599 
" clip-path="url(#p136780406a)" style="fill: none; stroke: #4c72b0; stroke-width: 1.2"/>
    <path d="M 212.97039 145.902371 
L 212.97039 145.85585 
" clip-path="url(#p136780406a)" style="fill: none; stroke: #4c72b0; stroke-width: 1.2"/>
    <path d="M 219.595993 142.925129 
L 219.595993 142.851102 
" clip-path="url(#p136780406a)" style="fill: none; stroke: #4c72b0; stroke-width: 1.2"/>
    <path d="M 226.221596 139.947888 
L 226.221596 139.846353 
" clip-path="url(#p136780406a)" style="fill: none; stroke: #4c72b0; stroke-width: 1.2"/>
    <path d="M 232.847199 136.970647 
L 232.847199 136.841605 
" clip-path="url(#p136780406a)" style="fill: none; stroke: #4c72b0; stroke-width: 1.2"/>
    <path d="M 239.472801 133.993405 
L 239.472801 133.836856 
" clip-path="url(#p136780406a)" style="fill: none; stroke: #4c72b0; stroke-width: 1.2"/>
    <path d="M 246.098404 131.016164 
L 246.098404 130.832108 
" clip-path="url(#p136780406a)" style="fill: none; stroke: #4c72b0; stroke-width: 1.2"/>
    <path d="M 252.724007 128.038923 
L 252.724007 127.82736 
" clip-path="url(#p136780406a)" style="fill: none; stroke: #4c72b0; stroke-width: 1.2"/>
    <path d="M 259.34961 125.061681 
L 259.34961 124.822611 
" clip-path="url(#p136780406a)" style="fill: none; stroke: #4c72b0; stroke-width: 1.2"/>
    <path d="M 265.975213 122.08444 
L 265.975213 121.817863 
" clip-path="url(#p136780406a)" style="fill: none; stroke: #4c72b0; stroke-width: 1.2"/>
    <path d="M 272.600816 119.107199 
L 272.600816 118.813114 
" clip-path="url(#p136780406a)" style="fill: none; stroke: #4c72b0; stroke-width: 1.2"/>
    <path d="M 279.226419 116.129957 
L 279.226419 115.808366 
" clip-path="url(#p136780406a)" style="fill: none; stroke: #4c72b0; stroke-width: 1.2"/>
    <path d="M 285.852022 113.152716 
L 285.852022 112.803617 
" clip-path="url(#p136780406a)" style="fill: none; stroke: #4c72b0; stroke-width: 1.2"/>
    <path d="M 292.477625 110.175475 
L 292.477625 109.798869 
" clip-path="url(#p136780406a)" style="fill: none; stroke: #4c72b0; stroke-width: 1.2"/>
    <path d="M 299.103228 107.198233 
L 299.103228 106.79412 
" clip-path="url(#p136780406a)" style="fill: none; stroke: #4c72b0; stroke-width: 1.2"/>
    <path d="M 305.728831 104.220992 
L 305.728831 103.789372 
" clip-path="url(#p136780406a)" style="fill: none; stroke: #4c72b0; stroke-width: 1.2"/>
    <path d="M 312.354434 101.24375 
L 312.354434 100.784623 
" clip-path="url(#p136780406a)" style="fill: none; stroke: #4c72b0; stroke-width: 1.2"/>
    <path d="M 318.980037 98.266509 
L 318.980037 97.779875 
" clip-path="url(#p136780406a)" style="fill: none; stroke: #4c72b0; stroke-width: 1.2"/>
    <path d="M 325.60564 95.289268 
L 325.60564 94.775126 
" clip-path="url(#p136780406a)" style="fill: none; stroke: #4c72b0; stroke-width: 1.2"/>
    <path d="M 332.231243 92.312026 
L 332.231243 91.770378 
" clip-path="url(#p136780406a)" style="fill: none; stroke: #4c72b0; stroke-width: 1.2"/>
    <path d="M 338.856846 89.334785 
L 338.856846 88.76563 
" clip-path="url(#p136780406a)" style="fill: none; stroke: #4c72b0; stroke-width: 1.2"/>
    <path d="M 345.482449 86.357544 
L 345.482449 85.760881 
" clip-path="url(#p136780406a)" style="fill: none; stroke: #4c72b0; stroke-width: 1.2"/>
    <path d="M 352.108052 83.380302 
L 352.108052 82.756133 
" clip-path="url(#p136780406a)" style="fill: none; stroke: #4c72b0; stroke-width: 1.2"/>
    <path d="M 358.733655 80.403061 
L 358.733655 79.751384 
" clip-path="url(#p136780406a)" style="fill: none; stroke: #4c72b0; stroke-width: 1.2"/>
    <path d="M 365.359258 77.42582 
L 365.359258 76.746636 
" clip-path="url(#p136780406a)" style="fill: none; stroke: #4c72b0; stroke-width: 1.2"/>
    <path d="M 371.984861 74.448578 
L 371.984861 73.741887 
" clip-path="url(#p136780406a)" style="fill: none; stroke: #4c72b0; stroke-width: 1.2"/>
    <path d="M 378.610464 71.471337 
L 378.610464 70.737139 
" clip-path="url(#p136780406a)" style="fill: none; stroke: #4c72b0; stroke-width: 1.2"/>
    <path d="M 385.236067 68.494096 
L 385.236067 67.73239 
" clip-path="url(#p136780406a)" style="fill: none; stroke: #4c72b0; stroke-width: 1.2"/>
    <path d="M 391.86167 65.516854 
L 391.86167 64.727642 
" clip-path="url(#p136780406a)" style="fill: none; stroke: #4c72b0; stroke-width: 1.2"/>
    <path d="M 398.487273 62.539613 
L 398.487273 61.722893 
" clip-path="url(#p136780406a)" style="fill: none; stroke: #4c72b0; stroke-width: 1.2"/>
   </g>
   <g id="LineCollection_2">
    <path d="M 73.832727 295.488 
L 73.832727 294.621326 
" clip-path="url(#p136780406a)" style="fill: none; stroke: #dd8452; stroke-width: 1.2"/>
    <path d="M 80.45833 290.764957 
L 80.45833 289.943168 
" clip-path="url(#p136780406a)" style="fill: none; stroke: #dd8452; stroke-width: 1.2"/>
    <path d="M 87.083933 286.041914 
L 87.083933 285.26501 
" clip-path="url(#p136780406a)" style="fill: none; stroke: #dd8452; stroke-width: 1.2"/>
    <path d="M 93.709536 281.318872 
L 93.709536 280.586852 
" clip-path="url(#p136780406a)" style="fill: none; stroke: #dd8452; stroke-width: 1.2"/>
    <path d="M 100.335139 276.595829 
L 100.335139 275.908695 
" clip-path="url(#p136780406a)" style="fill: none; stroke: #dd8452; stroke-width: 1.2"/>
    <path d="M 106.960742 271.872786 
L 106.960742 271.230537 
" clip-path="url(#p136780406a)" style="fill: none; stroke: #dd8452; stroke-width: 1.2"/>
    <path d="M 113.586345 267.149743 
L 113.586345 266.552379 
" clip-path="url(#p136780406a)" style="fill: none; stroke: #dd8452; stroke-width: 1.2"/>
    <path d="M 120.211948 262.4267 
L 120.211948 261.874221 
" clip-path="url(#p136780406a)" style="fill: none; stroke: #dd8452; stroke-width: 1.2"/>
    <path d="M 126.837551 257.703658 
L 126.837551 257.196063 
" clip-path="url(#p136780406a)" style="fill: none; stroke: #dd8452; stroke-width: 1.2"/>
    <path d="M 133.463154 252.980615 
L 133.463154 252.517905 
" clip-path="url(#p136780406a)" style="fill: none; stroke: #dd8452; stroke-width: 1.2"/>
    <path d="M 140.088757 248.257572 
L 140.088757 247.839748 
" clip-path="url(#p136780406a)" style="fill: none; stroke: #dd8452; stroke-width: 1.2"/>
    <path d="M 146.71436 243.534529 
L 146.71436 243.16159 
" clip-path="url(#p136780406a)" style="fill: none; stroke: #dd8452; stroke-width: 1.2"/>
    <path d="M 153.339963 238.811486 
L 153.339963 238.483432 
" clip-path="url(#p136780406a)" style="fill: none; stroke: #dd8452; stroke-width: 1.2"/>
    <path d="M 159.965566 234.088443 
L 159.965566 233.805274 
" clip-path="url(#p136780406a)" style="fill: none; stroke: #dd8452; stroke-width: 1.2"/>
    <path d="M 166.591169 229.365401 
L 166.591169 229.127116 
" clip-path="url(#p136780406a)" style="fill: none; stroke: #dd8452; stroke-width: 1.2"/>
    <path d="M 173.216772 224.642358 
L 173.216772 224.448958 
" clip-path="url(#p136780406a)" style="fill: none; stroke: #dd8452; stroke-width: 1.2"/>
    <path d="M 179.842375 219.919315 
L 179.842375 219.770801 
" clip-path="url(#p136780406a)" style="fill: none; stroke: #dd8452; stroke-width: 1.2"/>
    <path d="M 186.467978 215.196272 
L 186.467978 215.092643 
" clip-path="url(#p136780406a)" style="fill: none; stroke: #dd8452; stroke-width: 1.2"/>
    <path d="M 193.093581 210.473229 
L 193.093581 210.414485 
" clip-path="url(#p136780406a)" style="fill: none; stroke: #dd8452; stroke-width: 1.2"/>
    <path d="M 199.719184 205.750187 
L 199.719184 205.736327 
" clip-path="url(#p136780406a)" style="fill: none; stroke: #dd8452; stroke-width: 1.2"/>
    <path d="M 206.344787 201.058169 
L 206.344787 201.027144 
" clip-path="url(#p136780406a)" style="fill: none; stroke: #dd8452; stroke-width: 1.2"/>
    <path d="M 212.97039 196.380011 
L 212.97039 196.304101 
" clip-path="url(#p136780406a)" style="fill: none; stroke: #dd8452; stroke-width: 1.2"/>
    <path d="M 219.595993 191.701854 
L 219.595993 191.581058 
" clip-path="url(#p136780406a)" style="fill: none; stroke: #dd8452; stroke-width: 1.2"/>
    <path d="M 226.221596 187.023696 
L 226.221596 186.858015 
" clip-path="url(#p136780406a)" style="fill: none; stroke: #dd8452; stroke-width: 1.2"/>
    <path d="M 232.847199 182.345538 
L 232.847199 182.134973 
" clip-path="url(#p136780406a)" style="fill: none; stroke: #dd8452; stroke-width: 1.2"/>
    <path d="M 239.472801 177.66738 
L 239.472801 177.41193 
" clip-path="url(#p136780406a)" style="fill: none; stroke: #dd8452; stroke-width: 1.2"/>
    <path d="M 246.098404 172.989222 
L 246.098404 172.688887 
" clip-path="url(#p136780406a)" style="fill: none; stroke: #dd8452; stroke-width: 1.2"/>
    <path d="M 252.724007 168.311064 
L 252.724007 167.965844 
" clip-path="url(#p136780406a)" style="fill: none; stroke: #dd8452; stroke-width: 1.2"/>
    <path d="M 259.34961 163.632907 
L 259.34961 163.242801 
" clip-path="url(#p136780406a)" style="fill: none; stroke: #dd8452; stroke-width: 1.2"/>
    <path d="M 265.975213 158.954749 
L 265.975213 158.519759 
" clip-path="url(#p136780406a)" style="fill: none; stroke: #dd8452; stroke-width: 1.2"/>
    <path d="M 272.600816 154.276591 
L 272.600816 153.796716 
" clip-path="url(#p136780406a)" style="fill: none; stroke: #dd8452; stroke-width: 1.2"/>
    <path d="M 279.226419 149.598433 
L 279.226419 149.073673 
" clip-path="url(#p136780406a)" style="fill: none; stroke: #dd8452; stroke-width: 1.2"/>
    <path d="M 285.852022 144.920275 
L 285.852022 144.35063 
" clip-path="url(#p136780406a)" style="fill: none; stroke: #dd8452; stroke-width: 1.2"/>
    <path d="M 292.477625 140.242117 
L 292.477625 139.627587 
" clip-path="url(#p136780406a)" style="fill: none; stroke: #dd8452; stroke-width: 1.2"/>
    <path d="M 299.103228 135.56396 
L 299.103228 134.904545 
" clip-path="url(#p136780406a)" style="fill: none; stroke: #dd8452; stroke-width: 1.2"/>
    <path d="M 305.728831 130.885802 
L 305.728831 130.181502 
" clip-path="url(#p136780406a)" style="fill: none; stroke: #dd8452; stroke-width: 1.2"/>
    <path d="M 312.354434 126.207644 
L 312.354434 125.458459 
" clip-path="url(#p136780406a)" style="fill: none; stroke: #dd8452; stroke-width: 1.2"/>
    <path d="M 318.980037 121.529486 
L 318.980037 120.735416 
" clip-path="url(#p136780406a)" style="fill: none; stroke: #dd8452; stroke-width: 1.2"/>
    <path d="M 325.60564 116.851328 
L 325.60564 116.012373 
" clip-path="url(#p136780406a)" style="fill: none; stroke: #dd8452; stroke-width: 1.2"/>
    <path d="M 332.231243 112.17317 
L 332.231243 111.28933 
" clip-path="url(#p136780406a)" style="fill: none; stroke: #dd8452; stroke-width: 1.2"/>
    <path d="M 338.856846 107.495013 
L 338.856846 106.566288 
" clip-path="url(#p136780406a)" style="fill: none; stroke: #dd8452; stroke-width: 1.2"/>
    <path d="M 345.482449 102.816855 
L 345.482449 101.843245 
" clip-path="url(#p136780406a)" style="fill: none; stroke: #dd8452; stroke-width: 1.2"/>
    <path d="M 352.108052 98.138697 
L 352.108052 97.120202 
" clip-path="url(#p136780406a)" style="fill: none; stroke: #dd8452; stroke-width: 1.2"/>
    <path d="M 358.733655 93.460539 
L 358.733655 92.397159 
" clip-path="url(#p136780406a)" style="fill: none; stroke: #dd8452; stroke-width: 1.2"/>
    <path d="M 365.359258 88.782381 
L 365.359258 87.674116 
" clip-path="url(#p136780406a)" style="fill: none; stroke: #dd8452; stroke-width: 1.2"/>
    <path d="M 371.984861 84.104223 
L 371.984861 82.951074 
" clip-path="url(#p136780406a)" style="fill: none; stroke: #dd8452; stroke-width: 1.2"/>
    <path d="M 378.610464 79.426066 
L 378.610464 78.228031 
" clip-path="url(#p136780406a)" style="fill: none; stroke: #dd8452; stroke-width: 1.2"/>
    <path d="M 385.236067 74.747908 
L 385.236067 73.504988 
" clip-path="url(#p136780406a)" style="fill: none; stroke: #dd8452; stroke-width: 1.2"/>
    <path d="M 391.86167 70.06975 
L 391.86167 68.781945 
" clip-path="url(#p136780406a)" style="fill: none; stroke: #dd8452; stroke-width: 1.2"/>
    <path d="M 398.487273 65.391592 
L 398.487273 64.058902 
" clip-path="url(#p136780406a)" style="fill: none; stroke: #dd8452; stroke-width: 1.2"/>
   </g>
   <g id="LineCollection_3">
    <path d="M 73.832727 291.373605 
L 73.832727 290.514548 
" clip-path="url(#p136780406a)" style="fill: none; stroke: #55a868; stroke-width: 1.2"/>
    <path d="M 80.45833 286.683494 
L 80.45833 285.868927 
" clip-path="url(#p136780406a)" style="fill: none; stroke: #55a868; stroke-width: 1.2"/>
    <path d="M 87.083933 281.993382 
L 87.083933 281.223306 
" clip-path="url(#p136780406a)" style="fill: none; stroke: #55a868; stroke-width: 1.2"/>
    <path d="M 93.709536 277.303271 
L 93.709536 276.577685 
" clip-path="url(#p136780406a)" style="fill: none; stroke: #55a868; stroke-width: 1.2"/>
    <path d="M 100.335139 272.613159 
L 100.335139 271.932064 
" clip-path="url(#p136780406a)" style="fill: none; stroke: #55a868; stroke-width: 1.2"/>
    <path d="M 106.960742 267.923048 
L 106.960742 267.286443 
" clip-path="url(#p136780406a)" style="fill: none; stroke: #55a868; stroke-width: 1.2"/>
    <path d="M 113.586345 263.232936 
L 113.586345 262.640822 
" clip-path="url(#p136780406a)" style="fill: none; stroke: #55a868; stroke-width: 1.2"/>
    <path d="M 120.211948 258.542825 
L 120.211948 257.995201 
" clip-path="url(#p136780406a)" style="fill: none; stroke: #55a868; stroke-width: 1.2"/>
    <path d="M 126.837551 253.852713 
L 126.837551 253.34958 
" clip-path="url(#p136780406a)" style="fill: none; stroke: #55a868; stroke-width: 1.2"/>
    <path d="M 133.463154 249.162602 
L 133.463154 248.703959 
" clip-path="url(#p136780406a)" style="fill: none; stroke: #55a868; stroke-width: 1.2"/>
    <path d="M 140.088757 244.47249 
L 140.088757 244.058338 
" clip-path="url(#p136780406a)" style="fill: none; stroke: #55a868; stroke-width: 1.2"/>
    <path d="M 146.71436 239.782379 
L 146.71436 239.412717 
" clip-path="url(#p136780406a)" style="fill: none; stroke: #55a868; stroke-width: 1.2"/>
    <path d="M 153.339963 235.092268 
L 153.339963 234.767096 
" clip-path="url(#p136780406a)" style="fill: none; stroke: #55a868; stroke-width: 1.2"/>
    <path d="M 159.965566 230.402156 
L 159.965566 230.121475 
" clip-path="url(#p136780406a)" style="fill: none; stroke: #55a868; stroke-width: 1.2"/>
    <path d="M 166.591169 225.712045 
L 166.591169 225.475854 
" clip-path="url(#p136780406a)" style="fill: none; stroke: #55a868; stroke-width: 1.2"/>
    <path d="M 173.216772 221.021933 
L 173.216772 220.830234 
" clip-path="url(#p136780406a)" style="fill: none; stroke: #55a868; stroke-width: 1.2"/>
    <path d="M 179.842375 216.331822 
L 179.842375 216.184613 
" clip-path="url(#p136780406a)" style="fill: none; stroke: #55a868; stroke-width: 1.2"/>
    <path d="M 186.467978 211.64171 
L 186.467978 211.538992 
" clip-path="url(#p136780406a)" style="fill: none; stroke: #55a868; stroke-width: 1.2"/>
    <path d="M 193.093581 206.951599 
L 193.093581 206.893371 
" clip-path="url(#p136780406a)" style="fill: none; stroke: #55a868; stroke-width: 1.2"/>
    <path d="M 199.719184 202.261487 
L 199.719184 202.24775 
" clip-path="url(#p136780406a)" style="fill: none; stroke: #55a868; stroke-width: 1.2"/>
    <path d="M 206.344787 197.602129 
L 206.344787 197.571376 
" clip-path="url(#p136780406a)" style="fill: none; stroke: #55a868; stroke-width: 1.2"/>
    <path d="M 212.97039 192.956508 
L 212.97039 192.881265 
" clip-path="url(#p136780406a)" style="fill: none; stroke: #55a868; stroke-width: 1.2"/>
    <path d="M 219.595993 188.310887 
L 219.595993 188.191153 
" clip-path="url(#p136780406a)" style="fill: none; stroke: #55a868; stroke-width: 1.2"/>
    <path d="M 226.221596 183.665266 
L 226.221596 183.501042 
" clip-path="url(#p136780406a)" style="fill: none; stroke: #55a868; stroke-width: 1.2"/>
    <path d="M 232.847199 179.019645 
L 232.847199 178.81093 
" clip-path="url(#p136780406a)" style="fill: none; stroke: #55a868; stroke-width: 1.2"/>
    <path d="M 239.472801 174.374024 
L 239.472801 174.120819 
" clip-path="url(#p136780406a)" style="fill: none; stroke: #55a868; stroke-width: 1.2"/>
    <path d="M 246.098404 169.728403 
L 246.098404 169.430707 
" clip-path="url(#p136780406a)" style="fill: none; stroke: #55a868; stroke-width: 1.2"/>
    <path d="M 252.724007 165.082782 
L 252.724007 164.740596 
" clip-path="url(#p136780406a)" style="fill: none; stroke: #55a868; stroke-width: 1.2"/>
    <path d="M 259.34961 160.437161 
L 259.34961 160.050484 
" clip-path="url(#p136780406a)" style="fill: none; stroke: #55a868; stroke-width: 1.2"/>
    <path d="M 265.975213 155.79154 
L 265.975213 155.360373 
" clip-path="url(#p136780406a)" style="fill: none; stroke: #55a868; stroke-width: 1.2"/>
    <path d="M 272.600816 151.145919 
L 272.600816 150.670262 
" clip-path="url(#p136780406a)" style="fill: none; stroke: #55a868; stroke-width: 1.2"/>
    <path d="M 279.226419 146.500298 
L 279.226419 145.98015 
" clip-path="url(#p136780406a)" style="fill: none; stroke: #55a868; stroke-width: 1.2"/>
    <path d="M 285.852022 141.854677 
L 285.852022 141.290039 
" clip-path="url(#p136780406a)" style="fill: none; stroke: #55a868; stroke-width: 1.2"/>
    <path d="M 292.477625 137.209056 
L 292.477625 136.599927 
" clip-path="url(#p136780406a)" style="fill: none; stroke: #55a868; stroke-width: 1.2"/>
    <path d="M 299.103228 132.563436 
L 299.103228 131.909816 
" clip-path="url(#p136780406a)" style="fill: none; stroke: #55a868; stroke-width: 1.2"/>
    <path d="M 305.728831 127.917815 
L 305.728831 127.219704 
" clip-path="url(#p136780406a)" style="fill: none; stroke: #55a868; stroke-width: 1.2"/>
    <path d="M 312.354434 123.272194 
L 312.354434 122.529593 
" clip-path="url(#p136780406a)" style="fill: none; stroke: #55a868; stroke-width: 1.2"/>
    <path d="M 318.980037 118.626573 
L 318.980037 117.839481 
" clip-path="url(#p136780406a)" style="fill: none; stroke: #55a868; stroke-width: 1.2"/>
    <path d="M 325.60564 113.980952 
L 325.60564 113.14937 
" clip-path="url(#p136780406a)" style="fill: none; stroke: #55a868; stroke-width: 1.2"/>
    <path d="M 332.231243 109.335331 
L 332.231243 108.459258 
" clip-path="url(#p136780406a)" style="fill: none; stroke: #55a868; stroke-width: 1.2"/>
    <path d="M 338.856846 104.68971 
L 338.856846 103.769147 
" clip-path="url(#p136780406a)" style="fill: none; stroke: #55a868; stroke-width: 1.2"/>
    <path d="M 345.482449 100.044089 
L 345.482449 99.079036 
" clip-path="url(#p136780406a)" style="fill: none; stroke: #55a868; stroke-width: 1.2"/>
    <path d="M 352.108052 95.398468 
L 352.108052 94.388924 
" clip-path="url(#p136780406a)" style="fill: none; stroke: #55a868; stroke-width: 1.2"/>
    <path d="M 358.733655 90.752847 
L 358.733655 89.698813 
" clip-path="url(#p136780406a)" style="fill: none; stroke: #55a868; stroke-width: 1.2"/>
    <path d="M 365.359258 86.107226 
L 365.359258 85.008701 
" clip-path="url(#p136780406a)" style="fill: none; stroke: #55a868; stroke-width: 1.2"/>
    <path d="M 371.984861 81.461605 
L 371.984861 80.31859 
" clip-path="url(#p136780406a)" style="fill: none; stroke: #55a868; stroke-width: 1.2"/>
    <path d="M 378.610464 76.815984 
L 378.610464 75.628478 
" clip-path="url(#p136780406a)" style="fill: none; stroke: #55a868; stroke-width: 1.2"/>
    <path d="M 385.236067 72.170363 
L 385.236067 70.938367 
" clip-path="url(#p136780406a)" style="fill: none; stroke: #55a868; stroke-width: 1.2"/>
    <path d="M 391.86167 67.524742 
L 391.86167 66.248255 
" clip-path="url(#p136780406a)" style="fill: none; stroke: #55a868; stroke-width: 1.2"/>
    <path d="M 398.487273 62.879121 
L 398.487273 61.558144 
" clip-path="url(#p136780406a)" style="fill: none; stroke: #55a868; stroke-width: 1.2"/>
   </g>
   <g id="LineCollection_4">
    <path d="M 73.832727 282.631044 
L 73.832727 281.917609 
" clip-path="url(#p136780406a)" style="fill: none; stroke: #c44e52; stroke-width: 1.2"/>
    <path d="M 80.45833 278.195626 
L 80.45833 277.51914 
" clip-path="url(#p136780406a)" style="fill: none; stroke: #c44e52; stroke-width: 1.2"/>
    <path d="M 87.083933 273.760207 
L 87.083933 273.12067 
" clip-path="url(#p136780406a)" style="fill: none; stroke: #c44e52; stroke-width: 1.2"/>
    <path d="M 93.709536 269.324789 
L 93.709536 268.7222 
" clip-path="url(#p136780406a)" style="fill: none; stroke: #c44e52; stroke-width: 1.2"/>
    <path d="M 100.335139 264.88937 
L 100.335139 264.32373 
" clip-path="url(#p136780406a)" style="fill: none; stroke: #c44e52; stroke-width: 1.2"/>
    <path d="M 106.960742 260.453951 
L 106.960742 259.92526 
" clip-path="url(#p136780406a)" style="fill: none; stroke: #c44e52; stroke-width: 1.2"/>
    <path d="M 113.586345 256.018533 
L 113.586345 255.52679 
" clip-path="url(#p136780406a)" style="fill: none; stroke: #c44e52; stroke-width: 1.2"/>
    <path d="M 120.211948 251.583114 
L 120.211948 251.12832 
" clip-path="url(#p136780406a)" style="fill: none; stroke: #c44e52; stroke-width: 1.2"/>
    <path d="M 126.837551 247.147696 
L 126.837551 246.729851 
" clip-path="url(#p136780406a)" style="fill: none; stroke: #c44e52; stroke-width: 1.2"/>
    <path d="M 133.463154 242.712277 
L 133.463154 242.331381 
" clip-path="url(#p136780406a)" style="fill: none; stroke: #c44e52; stroke-width: 1.2"/>
    <path d="M 140.088757 238.276858 
L 140.088757 237.932911 
" clip-path="url(#p136780406a)" style="fill: none; stroke: #c44e52; stroke-width: 1.2"/>
    <path d="M 146.71436 233.84144 
L 146.71436 233.534441 
" clip-path="url(#p136780406a)" style="fill: none; stroke: #c44e52; stroke-width: 1.2"/>
    <path d="M 153.339963 229.406021 
L 153.339963 229.135971 
" clip-path="url(#p136780406a)" style="fill: none; stroke: #c44e52; stroke-width: 1.2"/>
    <path d="M 159.965566 224.970603 
L 159.965566 224.737501 
" clip-path="url(#p136780406a)" style="fill: none; stroke: #c44e52; stroke-width: 1.2"/>
    <path d="M 166.591169 220.535184 
L 166.591169 220.339031 
" clip-path="url(#p136780406a)" style="fill: none; stroke: #c44e52; stroke-width: 1.2"/>
    <path d="M 173.216772 216.099766 
L 173.216772 215.940562 
" clip-path="url(#p136780406a)" style="fill: none; stroke: #c44e52; stroke-width: 1.2"/>
    <path d="M 179.842375 211.664347 
L 179.842375 211.542092 
" clip-path="url(#p136780406a)" style="fill: none; stroke: #c44e52; stroke-width: 1.2"/>
    <path d="M 186.467978 207.228928 
L 186.467978 207.143622 
" clip-path="url(#p136780406a)" style="fill: none; stroke: #c44e52; stroke-width: 1.2"/>
    <path d="M 193.093581 202.79351 
L 193.093581 202.745152 
" clip-path="url(#p136780406a)" style="fill: none; stroke: #c44e52; stroke-width: 1.2"/>
    <path d="M 199.719184 198.358091 
L 199.719184 198.346682 
" clip-path="url(#p136780406a)" style="fill: none; stroke: #c44e52; stroke-width: 1.2"/>
    <path d="M 206.344787 193.948212 
L 206.344787 193.922673 
" clip-path="url(#p136780406a)" style="fill: none; stroke: #c44e52; stroke-width: 1.2"/>
    <path d="M 212.97039 189.549742 
L 212.97039 189.487254 
" clip-path="url(#p136780406a)" style="fill: none; stroke: #c44e52; stroke-width: 1.2"/>
    <path d="M 219.595993 185.151273 
L 219.595993 185.051835 
" clip-path="url(#p136780406a)" style="fill: none; stroke: #c44e52; stroke-width: 1.2"/>
    <path d="M 226.221596 180.752803 
L 226.221596 180.616417 
" clip-path="url(#p136780406a)" style="fill: none; stroke: #c44e52; stroke-width: 1.2"/>
    <path d="M 232.847199 176.354333 
L 232.847199 176.180998 
" clip-path="url(#p136780406a)" style="fill: none; stroke: #c44e52; stroke-width: 1.2"/>
    <path d="M 239.472801 171.955863 
L 239.472801 171.74558 
" clip-path="url(#p136780406a)" style="fill: none; stroke: #c44e52; stroke-width: 1.2"/>
    <path d="M 246.098404 167.557393 
L 246.098404 167.310161 
" clip-path="url(#p136780406a)" style="fill: none; stroke: #c44e52; stroke-width: 1.2"/>
    <path d="M 252.724007 163.158923 
L 252.724007 162.874742 
" clip-path="url(#p136780406a)" style="fill: none; stroke: #c44e52; stroke-width: 1.2"/>
    <path d="M 259.34961 158.760453 
L 259.34961 158.439324 
" clip-path="url(#p136780406a)" style="fill: none; stroke: #c44e52; stroke-width: 1.2"/>
    <path d="M 265.975213 154.361984 
L 265.975213 154.003905 
" clip-path="url(#p136780406a)" style="fill: none; stroke: #c44e52; stroke-width: 1.2"/>
    <path d="M 272.600816 149.963514 
L 272.600816 149.568487 
" clip-path="url(#p136780406a)" style="fill: none; stroke: #c44e52; stroke-width: 1.2"/>
    <path d="M 279.226419 145.565044 
L 279.226419 145.133068 
" clip-path="url(#p136780406a)" style="fill: none; stroke: #c44e52; stroke-width: 1.2"/>
    <path d="M 285.852022 141.166574 
L 285.852022 140.697649 
" clip-path="url(#p136780406a)" style="fill: none; stroke: #c44e52; stroke-width: 1.2"/>
    <path d="M 292.477625 136.768104 
L 292.477625 136.262231 
" clip-path="url(#p136780406a)" style="fill: none; stroke: #c44e52; stroke-width: 1.2"/>
    <path d="M 299.103228 132.369634 
L 299.103228 131.826812 
" clip-path="url(#p136780406a)" style="fill: none; stroke: #c44e52; stroke-width: 1.2"/>
    <path d="M 305.728831 127.971164 
L 305.728831 127.391394 
" clip-path="url(#p136780406a)" style="fill: none; stroke: #c44e52; stroke-width: 1.2"/>
    <path d="M 312.354434 123.572695 
L 312.354434 122.955975 
" clip-path="url(#p136780406a)" style="fill: none; stroke: #c44e52; stroke-width: 1.2"/>
    <path d="M 318.980037 119.174225 
L 318.980037 118.520556 
" clip-path="url(#p136780406a)" style="fill: none; stroke: #c44e52; stroke-width: 1.2"/>
    <path d="M 325.60564 114.775755 
L 325.60564 114.085138 
" clip-path="url(#p136780406a)" style="fill: none; stroke: #c44e52; stroke-width: 1.2"/>
    <path d="M 332.231243 110.377285 
L 332.231243 109.649719 
" clip-path="url(#p136780406a)" style="fill: none; stroke: #c44e52; stroke-width: 1.2"/>
    <path d="M 338.856846 105.978815 
L 338.856846 105.214301 
" clip-path="url(#p136780406a)" style="fill: none; stroke: #c44e52; stroke-width: 1.2"/>
    <path d="M 345.482449 101.580345 
L 345.482449 100.778882 
" clip-path="url(#p136780406a)" style="fill: none; stroke: #c44e52; stroke-width: 1.2"/>
    <path d="M 352.108052 97.181875 
L 352.108052 96.343463 
" clip-path="url(#p136780406a)" style="fill: none; stroke: #c44e52; stroke-width: 1.2"/>
    <path d="M 358.733655 92.783405 
L 358.733655 91.908045 
" clip-path="url(#p136780406a)" style="fill: none; stroke: #c44e52; stroke-width: 1.2"/>
    <path d="M 365.359258 88.384936 
L 365.359258 87.472626 
" clip-path="url(#p136780406a)" style="fill: none; stroke: #c44e52; stroke-width: 1.2"/>
    <path d="M 371.984861 83.986466 
L 371.984861 83.037208 
" clip-path="url(#p136780406a)" style="fill: none; stroke: #c44e52; stroke-width: 1.2"/>
    <path d="M 378.610464 79.587996 
L 378.610464 78.601789 
" clip-path="url(#p136780406a)" style="fill: none; stroke: #c44e52; stroke-width: 1.2"/>
    <path d="M 385.236067 75.189526 
L 385.236067 74.16637 
" clip-path="url(#p136780406a)" style="fill: none; stroke: #c44e52; stroke-width: 1.2"/>
    <path d="M 391.86167 70.791056 
L 391.86167 69.730952 
" clip-path="url(#p136780406a)" style="fill: none; stroke: #c44e52; stroke-width: 1.2"/>
    <path d="M 398.487273 66.392586 
L 398.487273 65.295533 
" clip-path="url(#p136780406a)" style="fill: none; stroke: #c44e52; stroke-width: 1.2"/>
   </g>
   <g id="LineCollection_5">
    <path d="M 73.832727 292.94067 
L 73.832727 292.348161 
" clip-path="url(#p136780406a)" style="fill: none; stroke: #8172b3; stroke-width: 1.2"/>
    <path d="M 80.45833 288.055513 
L 80.45833 287.493691 
" clip-path="url(#p136780406a)" style="fill: none; stroke: #8172b3; stroke-width: 1.2"/>
    <path d="M 87.083933 283.170356 
L 87.083933 282.63922 
" clip-path="url(#p136780406a)" style="fill: none; stroke: #8172b3; stroke-width: 1.2"/>
    <path d="M 93.709536 278.2852 
L 93.709536 277.784749 
" clip-path="url(#p136780406a)" style="fill: none; stroke: #8172b3; stroke-width: 1.2"/>
    <path d="M 100.335139 273.400043 
L 100.335139 272.930279 
" clip-path="url(#p136780406a)" style="fill: none; stroke: #8172b3; stroke-width: 1.2"/>
    <path d="M 106.960742 268.514887 
L 106.960742 268.075808 
" clip-path="url(#p136780406a)" style="fill: none; stroke: #8172b3; stroke-width: 1.2"/>
    <path d="M 113.586345 263.62973 
L 113.586345 263.221338 
" clip-path="url(#p136780406a)" style="fill: none; stroke: #8172b3; stroke-width: 1.2"/>
    <path d="M 120.211948 258.744574 
L 120.211948 258.366867 
" clip-path="url(#p136780406a)" style="fill: none; stroke: #8172b3; stroke-width: 1.2"/>
    <path d="M 126.837551 253.859417 
L 126.837551 253.512397 
" clip-path="url(#p136780406a)" style="fill: none; stroke: #8172b3; stroke-width: 1.2"/>
    <path d="M 133.463154 248.974261 
L 133.463154 248.657926 
" clip-path="url(#p136780406a)" style="fill: none; stroke: #8172b3; stroke-width: 1.2"/>
    <path d="M 140.088757 244.089104 
L 140.088757 243.803455 
" clip-path="url(#p136780406a)" style="fill: none; stroke: #8172b3; stroke-width: 1.2"/>
    <path d="M 146.71436 239.203948 
L 146.71436 238.948985 
" clip-path="url(#p136780406a)" style="fill: none; stroke: #8172b3; stroke-width: 1.2"/>
    <path d="M 153.339963 234.318791 
L 153.339963 234.094514 
" clip-path="url(#p136780406a)" style="fill: none; stroke: #8172b3; stroke-width: 1.2"/>
    <path d="M 159.965566 229.433635 
L 159.965566 229.240044 
" clip-path="url(#p136780406a)" style="fill: none; stroke: #8172b3; stroke-width: 1.2"/>
    <path d="M 166.591169 224.548478 
L 166.591169 224.385573 
" clip-path="url(#p136780406a)" style="fill: none; stroke: #8172b3; stroke-width: 1.2"/>
    <path d="M 173.216772 219.663322 
L 173.216772 219.531103 
" clip-path="url(#p136780406a)" style="fill: none; stroke: #8172b3; stroke-width: 1.2"/>
    <path d="M 179.842375 214.778165 
L 179.842375 214.676632 
" clip-path="url(#p136780406a)" style="fill: none; stroke: #8172b3; stroke-width: 1.2"/>
    <path d="M 186.467978 209.893009 
L 186.467978 209.822162 
" clip-path="url(#p136780406a)" style="fill: none; stroke: #8172b3; stroke-width: 1.2"/>
    <path d="M 193.093581 205.007852 
L 193.093581 204.967691 
" clip-path="url(#p136780406a)" style="fill: none; stroke: #8172b3; stroke-width: 1.2"/>
    <path d="M 199.719184 200.122696 
L 199.719184 200.11322 
" clip-path="url(#p136780406a)" style="fill: none; stroke: #8172b3; stroke-width: 1.2"/>
    <path d="M 206.344787 195.25875 
L 206.344787 195.237539 
" clip-path="url(#p136780406a)" style="fill: none; stroke: #8172b3; stroke-width: 1.2"/>
    <path d="M 212.97039 190.404279 
L 212.97039 190.352383 
" clip-path="url(#p136780406a)" style="fill: none; stroke: #8172b3; stroke-width: 1.2"/>
    <path d="M 219.595993 185.549809 
L 219.595993 185.467226 
" clip-path="url(#p136780406a)" style="fill: none; stroke: #8172b3; stroke-width: 1.2"/>
    <path d="M 226.221596 180.695338 
L 226.221596 180.58207 
" clip-path="url(#p136780406a)" style="fill: none; stroke: #8172b3; stroke-width: 1.2"/>
    <path d="M 232.847199 175.840868 
L 232.847199 175.696913 
" clip-path="url(#p136780406a)" style="fill: none; stroke: #8172b3; stroke-width: 1.2"/>
    <path d="M 239.472801 170.986397 
L 239.472801 170.811757 
" clip-path="url(#p136780406a)" style="fill: none; stroke: #8172b3; stroke-width: 1.2"/>
    <path d="M 246.098404 166.131927 
L 246.098404 165.9266 
" clip-path="url(#p136780406a)" style="fill: none; stroke: #8172b3; stroke-width: 1.2"/>
    <path d="M 252.724007 161.277456 
L 252.724007 161.041443 
" clip-path="url(#p136780406a)" style="fill: none; stroke: #8172b3; stroke-width: 1.2"/>
    <path d="M 259.34961 156.422985 
L 259.34961 156.156287 
" clip-path="url(#p136780406a)" style="fill: none; stroke: #8172b3; stroke-width: 1.2"/>
    <path d="M 265.975213 151.568515 
L 265.975213 151.27113 
" clip-path="url(#p136780406a)" style="fill: none; stroke: #8172b3; stroke-width: 1.2"/>
    <path d="M 272.600816 146.714044 
L 272.600816 146.385974 
" clip-path="url(#p136780406a)" style="fill: none; stroke: #8172b3; stroke-width: 1.2"/>
    <path d="M 279.226419 141.859574 
L 279.226419 141.500817 
" clip-path="url(#p136780406a)" style="fill: none; stroke: #8172b3; stroke-width: 1.2"/>
    <path d="M 285.852022 137.005103 
L 285.852022 136.615661 
" clip-path="url(#p136780406a)" style="fill: none; stroke: #8172b3; stroke-width: 1.2"/>
    <path d="M 292.477625 132.150633 
L 292.477625 131.730504 
" clip-path="url(#p136780406a)" style="fill: none; stroke: #8172b3; stroke-width: 1.2"/>
    <path d="M 299.103228 127.296162 
L 299.103228 126.845348 
" clip-path="url(#p136780406a)" style="fill: none; stroke: #8172b3; stroke-width: 1.2"/>
    <path d="M 305.728831 122.441692 
L 305.728831 121.960191 
" clip-path="url(#p136780406a)" style="fill: none; stroke: #8172b3; stroke-width: 1.2"/>
    <path d="M 312.354434 117.587221 
L 312.354434 117.075035 
" clip-path="url(#p136780406a)" style="fill: none; stroke: #8172b3; stroke-width: 1.2"/>
    <path d="M 318.980037 112.73275 
L 318.980037 112.189878 
" clip-path="url(#p136780406a)" style="fill: none; stroke: #8172b3; stroke-width: 1.2"/>
    <path d="M 325.60564 107.87828 
L 325.60564 107.304722 
" clip-path="url(#p136780406a)" style="fill: none; stroke: #8172b3; stroke-width: 1.2"/>
    <path d="M 332.231243 103.023809 
L 332.231243 102.419565 
" clip-path="url(#p136780406a)" style="fill: none; stroke: #8172b3; stroke-width: 1.2"/>
    <path d="M 338.856846 98.169339 
L 338.856846 97.534409 
" clip-path="url(#p136780406a)" style="fill: none; stroke: #8172b3; stroke-width: 1.2"/>
    <path d="M 345.482449 93.314868 
L 345.482449 92.649252 
" clip-path="url(#p136780406a)" style="fill: none; stroke: #8172b3; stroke-width: 1.2"/>
    <path d="M 352.108052 88.460398 
L 352.108052 87.764096 
" clip-path="url(#p136780406a)" style="fill: none; stroke: #8172b3; stroke-width: 1.2"/>
    <path d="M 358.733655 83.605927 
L 358.733655 82.878939 
" clip-path="url(#p136780406a)" style="fill: none; stroke: #8172b3; stroke-width: 1.2"/>
    <path d="M 365.359258 78.751456 
L 365.359258 77.993783 
" clip-path="url(#p136780406a)" style="fill: none; stroke: #8172b3; stroke-width: 1.2"/>
    <path d="M 371.984861 73.896986 
L 371.984861 73.108626 
" clip-path="url(#p136780406a)" style="fill: none; stroke: #8172b3; stroke-width: 1.2"/>
    <path d="M 378.610464 69.042515 
L 378.610464 68.22347 
" clip-path="url(#p136780406a)" style="fill: none; stroke: #8172b3; stroke-width: 1.2"/>
    <path d="M 385.236067 64.188045 
L 385.236067 63.338313 
" clip-path="url(#p136780406a)" style="fill: none; stroke: #8172b3; stroke-width: 1.2"/>
    <path d="M 391.86167 59.333574 
L 391.86167 58.453157 
" clip-path="url(#p136780406a)" style="fill: none; stroke: #8172b3; stroke-width: 1.2"/>
    <path d="M 398.487273 54.479104 
L 398.487273 53.568 
" clip-path="url(#p136780406a)" style="fill: none; stroke: #8172b3; stroke-width: 1.2"/>
   </g>
   <g id="line2d_12">
    <path d="M 73.832727 208.690004 
L 80.45833 205.699009 
L 87.083933 202.708014 
L 93.709536 199.717019 
L 100.335139 196.726024 
L 106.960742 193.735029 
L 113.586345 190.744034 
L 120.211948 187.753039 
L 126.837551 184.762044 
L 133.463154 181.771049 
L 140.088757 178.780055 
L 146.71436 175.78906 
L 153.339963 172.798065 
L 159.965566 169.80707 
L 166.591169 166.816075 
L 173.216772 163.82508 
L 179.842375 160.834085 
L 186.467978 157.84309 
L 193.093581 154.852095 
L 199.719184 151.8611 
L 206.344787 148.870105 
L 212.97039 145.879111 
L 219.595993 142.888116 
L 226.221596 139.897121 
L 232.847199 136.906126 
L 239.472801 133.915131 
L 246.098404 130.924136 
L 252.724007 127.933141 
L 259.34961 124.942146 
L 265.975213 121.951151 
L 272.600816 118.960156 
L 279.226419 115.969161 
L 285.852022 112.978167 
L 292.477625 109.987172 
L 299.103228 106.996177 
L 305.728831 104.005182 
L 312.354434 101.014187 
L 318.980037 98.023192 
L 325.60564 95.032197 
L 332.231243 92.041202 
L 338.856846 89.050207 
L 345.482449 86.059212 
L 352.108052 83.068217 
L 358.733655 80.077223 
L 365.359258 77.086228 
L 371.984861 74.095233 
L 378.610464 71.104238 
L 385.236067 68.113243 
L 391.86167 65.122248 
L 398.487273 62.131253 
" clip-path="url(#p136780406a)" style="fill: none; stroke: #4c72b0; stroke-width: 1.2; stroke-linecap: round"/>
   </g>
   <g id="line2d_13">
    <path d="M 73.832727 295.054663 
L 80.45833 290.354063 
L 87.083933 285.653462 
L 93.709536 280.952862 
L 100.335139 276.252262 
L 106.960742 271.551661 
L 113.586345 266.851061 
L 120.211948 262.150461 
L 126.837551 257.44986 
L 133.463154 252.74926 
L 140.088757 248.04866 
L 146.71436 243.348059 
L 153.339963 238.647459 
L 159.965566 233.946859 
L 166.591169 229.246258 
L 173.216772 224.545658 
L 179.842375 219.845058 
L 186.467978 215.144458 
L 193.093581 210.443857 
L 199.719184 205.743257 
L 206.344787 201.042657 
L 212.97039 196.342056 
L 219.595993 191.641456 
L 226.221596 186.940856 
L 232.847199 182.240255 
L 239.472801 177.539655 
L 246.098404 172.839055 
L 252.724007 168.138454 
L 259.34961 163.437854 
L 265.975213 158.737254 
L 272.600816 154.036653 
L 279.226419 149.336053 
L 285.852022 144.635453 
L 292.477625 139.934852 
L 299.103228 135.234252 
L 305.728831 130.533652 
L 312.354434 125.833051 
L 318.980037 121.132451 
L 325.60564 116.431851 
L 332.231243 111.73125 
L 338.856846 107.03065 
L 345.482449 102.33005 
L 352.108052 97.629449 
L 358.733655 92.928849 
L 365.359258 88.228249 
L 371.984861 83.527649 
L 378.610464 78.827048 
L 385.236067 74.126448 
L 391.86167 69.425848 
L 398.487273 64.725247 
" clip-path="url(#p136780406a)" style="fill: none; stroke: #dd8452; stroke-width: 1.2; stroke-linecap: round"/>
   </g>
   <g id="line2d_14">
    <path d="M 73.832727 290.944076 
L 80.45833 286.27621 
L 87.083933 281.608344 
L 93.709536 276.940478 
L 100.335139 272.272612 
L 106.960742 267.604745 
L 113.586345 262.936879 
L 120.211948 258.269013 
L 126.837551 253.601147 
L 133.463154 248.933281 
L 140.088757 244.265414 
L 146.71436 239.597548 
L 153.339963 234.929682 
L 159.965566 230.261816 
L 166.591169 225.59395 
L 173.216772 220.926083 
L 179.842375 216.258217 
L 186.467978 211.590351 
L 193.093581 206.922485 
L 199.719184 202.254619 
L 206.344787 197.586752 
L 212.97039 192.918886 
L 219.595993 188.25102 
L 226.221596 183.583154 
L 232.847199 178.915288 
L 239.472801 174.247421 
L 246.098404 169.579555 
L 252.724007 164.911689 
L 259.34961 160.243823 
L 265.975213 155.575957 
L 272.600816 150.90809 
L 279.226419 146.240224 
L 285.852022 141.572358 
L 292.477625 136.904492 
L 299.103228 132.236626 
L 305.728831 127.568759 
L 312.354434 122.900893 
L 318.980037 118.233027 
L 325.60564 113.565161 
L 332.231243 108.897295 
L 338.856846 104.229428 
L 345.482449 99.561562 
L 352.108052 94.893696 
L 358.733655 90.22583 
L 365.359258 85.557964 
L 371.984861 80.890097 
L 378.610464 76.222231 
L 385.236067 71.554365 
L 391.86167 66.886499 
L 398.487273 62.218633 
" clip-path="url(#p136780406a)" style="fill: none; stroke: #55a868; stroke-width: 1.2; stroke-linecap: round"/>
   </g>
   <g id="line2d_15">
    <path d="M 73.832727 282.274327 
L 80.45833 277.857383 
L 87.083933 273.440438 
L 93.709536 269.023494 
L 100.335139 264.60655 
L 106.960742 260.189606 
L 113.586345 255.772662 
L 120.211948 251.355717 
L 126.837551 246.938773 
L 133.463154 242.521829 
L 140.088757 238.104885 
L 146.71436 233.68794 
L 153.339963 229.270996 
L 159.965566 224.854052 
L 166.591169 220.437108 
L 173.216772 216.020164 
L 179.842375 211.603219 
L 186.467978 207.186275 
L 193.093581 202.769331 
L 199.719184 198.352387 
L 206.344787 193.935442 
L 212.97039 189.518498 
L 219.595993 185.101554 
L 226.221596 180.68461 
L 232.847199 176.267665 
L 239.472801 171.850721 
L 246.098404 167.433777 
L 252.724007 163.016833 
L 259.34961 158.599889 
L 265.975213 154.182944 
L 272.600816 149.766 
L 279.226419 145.349056 
L 285.852022 140.932112 
L 292.477625 136.515167 
L 299.103228 132.098223 
L 305.728831 127.681279 
L 312.354434 123.264335 
L 318.980037 118.847391 
L 325.60564 114.430446 
L 332.231243 110.013502 
L 338.856846 105.596558 
L 345.482449 101.179614 
L 352.108052 96.762669 
L 358.733655 92.345725 
L 365.359258 87.928781 
L 371.984861 83.511837 
L 378.610464 79.094892 
L 385.236067 74.677948 
L 391.86167 70.261004 
L 398.487273 65.84406 
" clip-path="url(#p136780406a)" style="fill: none; stroke: #c44e52; stroke-width: 1.2; stroke-linecap: round"/>
   </g>
   <g id="line2d_16">
    <path d="M 73.832727 292.644415 
L 80.45833 287.774602 
L 87.083933 282.904788 
L 93.709536 278.034975 
L 100.335139 273.165161 
L 106.960742 268.295348 
L 113.586345 263.425534 
L 120.211948 258.555721 
L 126.837551 253.685907 
L 133.463154 248.816093 
L 140.088757 243.94628 
L 146.71436 239.076466 
L 153.339963 234.206653 
L 159.965566 229.336839 
L 166.591169 224.467026 
L 173.216772 219.597212 
L 179.842375 214.727399 
L 186.467978 209.857585 
L 193.093581 204.987772 
L 199.719184 200.117958 
L 206.344787 195.248144 
L 212.97039 190.378331 
L 219.595993 185.508517 
L 226.221596 180.638704 
L 232.847199 175.76889 
L 239.472801 170.899077 
L 246.098404 166.029263 
L 252.724007 161.15945 
L 259.34961 156.289636 
L 265.975213 151.419823 
L 272.600816 146.550009 
L 279.226419 141.680196 
L 285.852022 136.810382 
L 292.477625 131.940568 
L 299.103228 127.070755 
L 305.728831 122.200941 
L 312.354434 117.331128 
L 318.980037 112.461314 
L 325.60564 107.591501 
L 332.231243 102.721687 
L 338.856846 97.851874 
L 345.482449 92.98206 
L 352.108052 88.112247 
L 358.733655 83.242433 
L 365.359258 78.37262 
L 371.984861 73.502806 
L 378.610464 68.632992 
L 385.236067 63.763179 
L 391.86167 58.893365 
L 398.487273 54.023552 
" clip-path="url(#p136780406a)" style="fill: none; stroke: #8172b3; stroke-width: 1.2; stroke-linecap: round"/>
   </g>
   <g id="patch_3">
    <path d="M 57.6 307.584 
L 57.6 41.472 
" style="fill: none; stroke: #cccccc; stroke-linejoin: miter; stroke-linecap: square"/>
   </g>
   <g id="patch_4">
    <path d="M 414.72 307.584 
L 414.72 41.472 
" style="fill: none; stroke: #cccccc; stroke-linejoin: miter; stroke-linecap: square"/>
   </g>
   <g id="patch_5">
    <path d="M 57.6 307.584 
L 414.72 307.584 
" style="fill: none; stroke: #cccccc; stroke-linejoin: miter; stroke-linecap: square"/>
   </g>
   <g id="patch_6">
    <path d="M 57.6 41.472 
L 414.72 41.472 
" style="fill: none; stroke: #cccccc; stroke-linejoin: miter; stroke-linecap: square"/>
   </g>
   <g id="legend_1">
    <g id="patch_7">
     <path d="M 65.3 131.001688 
L 159.640469 131.001688 
Q 161.840469 131.001688 161.840469 128.801688 
L 161.840469 49.172 
Q 161.840469 46.972 159.640469 46.972 
L 65.3 46.972 
Q 63.1 46.972 63.1 49.172 
L 63.1 128.801688 
Q 63.1 131.001688 65.3 131.001688 
z
" style="fill: #ffffff; opacity: 0.8; stroke: #cccccc; stroke-width: 0.8; stroke-linejoin: miter"/>
    </g>
    <g id="LineCollection_6">
     <path d="M 78.5 61.380281 
L 78.5 50.380281 
" style="fill: none; stroke: #4c72b0; stroke-width: 1.2"/>
    </g>
    <g id="line2d_17">
     <path d="M 67.5 55.880281 
L 89.5 55.880281 
" style="fill: none; stroke: #4c72b0; stroke-width: 1.2; stroke-linecap: round"/>
    </g>
    <g id="line2d_18"/>
    <g id="text_14">
     <!-- Messung 1 -->
     <g style="fill: #262626" transform="translate(98.3 59.730281) scale(0.11 -0.11)">
      <defs>
       <path id="DejaVuSans-4d" d="M 628 4666 
L 1569 4666 
L 2759 1491 
L 3956 4666 
L 4897 4666 
L 4897 0 
L 4281 0 
L 4281 4097 
L 3078 897 
L 2444 897 
L 1241 4097 
L 1241 0 
L 628 0 
L 628 4666 
z
" transform="scale(0.015625)"/>
       <path id="DejaVuSans-65" d="M 3597 1894 
L 3597 1613 
L 953 1613 
Q 991 1019 1311 708 
Q 1631 397 2203 397 
Q 2534 397 2845 478 
Q 3156 559 3463 722 
L 3463 178 
Q 3153 47 2828 -22 
Q 2503 -91 2169 -91 
Q 1331 -91 842 396 
Q 353 884 353 1716 
Q 353 2575 817 3079 
Q 1281 3584 2069 3584 
Q 2775 3584 3186 3129 
Q 3597 2675 3597 1894 
z
M 3022 2063 
Q 3016 2534 2758 2815 
Q 2500 3097 2075 3097 
Q 1594 3097 1305 2825 
Q 1016 2553 972 2059 
L 3022 2063 
z
" transform="scale(0.015625)"/>
       <path id="DejaVuSans-73" d="M 2834 3397 
L 2834 2853 
Q 2591 2978 2328 3040 
Q 2066 3103 1784 3103 
Q 1356 3103 1142 2972 
Q 928 2841 928 2578 
Q 928 2378 1081 2264 
Q 1234 2150 1697 2047 
L 1894 2003 
Q 2506 1872 2764 1633 
Q 3022 1394 3022 966 
Q 3022 478 2636 193 
Q 2250 -91 1575 -91 
Q 1294 -91 989 -36 
Q 684 19 347 128 
L 347 722 
Q 666 556 975 473 
Q 1284 391 1588 391 
Q 1994 391 2212 530 
Q 2431 669 2431 922 
Q 2431 1156 2273 1281 
Q 2116 1406 1581 1522 
L 1381 1569 
Q 847 1681 609 1914 
Q 372 2147 372 2553 
Q 372 3047 722 3315 
Q 1072 3584 1716 3584 
Q 2034 3584 2315 3537 
Q 2597 3491 2834 3397 
z
" transform="scale(0.015625)"/>
       <path id="DejaVuSans-75" d="M 544 1381 
L 544 3500 
L 1119 3500 
L 1119 1403 
Q 1119 906 1312 657 
Q 1506 409 1894 409 
Q 2359 409 2629 706 
Q 2900 1003 2900 1516 
L 2900 3500 
L 3475 3500 
L 3475 0 
L 2900 0 
L 2900 538 
Q 2691 219 2414 64 
Q 2138 -91 1772 -91 
Q 1169 -91 856 284 
Q 544 659 544 1381 
z
M 1991 3584 
L 1991 3584 
z
" transform="scale(0.015625)"/>
       <path id="DejaVuSans-67" d="M 2906 1791 
Q 2906 2416 2648 2759 
Q 2391 3103 1925 3103 
Q 1463 3103 1205 2759 
Q 947 2416 947 1791 
Q 947 1169 1205 825 
Q 1463 481 1925 481 
Q 2391 481 2648 825 
Q 2906 1169 2906 1791 
z
M 3481 434 
Q 3481 -459 3084 -895 
Q 2688 -1331 1869 -1331 
Q 1566 -1331 1297 -1286 
Q 1028 -1241 775 -1147 
L 775 -588 
Q 1028 -725 1275 -790 
Q 1522 -856 1778 -856 
Q 2344 -856 2625 -561 
Q 2906 -266 2906 331 
L 2906 616 
Q 2728 306 2450 153 
Q 2172 0 1784 0 
Q 1141 0 747 490 
Q 353 981 353 1791 
Q 353 2603 747 3093 
Q 1141 3584 1784 3584 
Q 2172 3584 2450 3431 
Q 2728 3278 2906 2969 
L 2906 3500 
L 3481 3500 
L 3481 434 
z
" transform="scale(0.015625)"/>
       <path id="DejaVuSans-20" transform="scale(0.015625)"/>
      </defs>
      <use xlink:href="#DejaVuSans-4d"/>
      <use xlink:href="#DejaVuSans-65" x="86.279297"/>
      <use xlink:href="#DejaVuSans-73" x="147.802734"/>
      <use xlink:href="#DejaVuSans-73" x="199.902344"/>
      <use xlink:href="#DejaVuSans-75" x="252.001953"/>
      <use xlink:href="#DejaVuSans-6e" x="315.380859"/>
      <use xlink:href="#DejaVuSans-67" x="378.759766"/>
      <use xlink:href="#DejaVuSans-20" x="442.236328"/>
      <use xlink:href="#DejaVuSans-31" x="474.023438"/>
     </g>
    </g>
    <g id="LineCollection_7">
     <path d="M 78.5 77.526219 
L 78.5 66.526219 
" style="fill: none; stroke: #dd8452; stroke-width: 1.2"/>
    </g>
    <g id="line2d_19">
     <path d="M 67.5 72.026219 
L 89.5 72.026219 
" style="fill: none; stroke: #dd8452; stroke-width: 1.2; stroke-linecap: round"/>
    </g>
    <g id="line2d_20"/>
    <g id="text_15">
     <!-- Messung 2 -->
     <g style="fill: #262626" transform="translate(98.3 75.876219) scale(0.11 -0.11)">
      <use xlink:href="#DejaVuSans-4d"/>
      <use xlink:href="#DejaVuSans-65" x="86.279297"/>
      <use xlink:href="#DejaVuSans-73" x="147.802734"/>
      <use xlink:href="#DejaVuSans-73" x="199.902344"/>
      <use xlink:href="#DejaVuSans-75" x="252.001953"/>
      <use xlink:href="#DejaVuSans-6e" x="315.380859"/>
      <use xlink:href="#DejaVuSans-67" x="378.759766"/>
      <use xlink:href="#DejaVuSans-20" x="442.236328"/>
      <use xlink:href="#DejaVuSans-32" x="474.023438"/>
     </g>
    </g>
    <g id="LineCollection_8">
     <path d="M 78.5 93.672156 
L 78.5 82.672156 
" style="fill: none; stroke: #55a868; stroke-width: 1.2"/>
    </g>
    <g id="line2d_21">
     <path d="M 67.5 88.172156 
L 89.5 88.172156 
" style="fill: none; stroke: #55a868; stroke-width: 1.2; stroke-linecap: round"/>
    </g>
    <g id="line2d_22"/>
    <g id="text_16">
     <!-- Messung 3 -->
     <g style="fill: #262626" transform="translate(98.3 92.022156) scale(0.11 -0.11)">
      <use xlink:href="#DejaVuSans-4d"/>
      <use xlink:href="#DejaVuSans-65" x="86.279297"/>
      <use xlink:href="#DejaVuSans-73" x="147.802734"/>
      <use xlink:href="#DejaVuSans-73" x="199.902344"/>
      <use xlink:href="#DejaVuSans-75" x="252.001953"/>
      <use xlink:href="#DejaVuSans-6e" x="315.380859"/>
      <use xlink:href="#DejaVuSans-67" x="378.759766"/>
      <use xlink:href="#DejaVuSans-20" x="442.236328"/>
      <use xlink:href="#DejaVuSans-33" x="474.023438"/>
     </g>
    </g>
    <g id="LineCollection_9">
     <path d="M 78.5 109.818094 
L 78.5 98.818094 
" style="fill: none; stroke: #c44e52; stroke-width: 1.2"/>
    </g>
    <g id="line2d_23">
     <path d="M 67.5 104.318094 
L 89.5 104.318094 
" style="fill: none; stroke: #c44e52; stroke-width: 1.2; stroke-linecap: round"/>
    </g>
    <g id="line2d_24"/>
    <g id="text_17">
     <!-- Messung 4 -->
     <g style="fill: #262626" transform="translate(98.3 108.168094) scale(0.11 -0.11)">
      <defs>
       <path id="DejaVuSans-34" d="M 2419 4116 
L 825 1625 
L 2419 1625 
L 2419 4116 
z
M 2253 4666 
L 3047 4666 
L 3047 1625 
L 3713 1625 
L 3713 1100 
L 3047 1100 
L 3047 0 
L 2419 0 
L 2419 1100 
L 313 1100 
L 313 1709 
L 2253 4666 
z
" transform="scale(0.015625)"/>
      </defs>
      <use xlink:href="#DejaVuSans-4d"/>
      <use xlink:href="#DejaVuSans-65" x="86.279297"/>
      <use xlink:href="#DejaVuSans-73" x="147.802734"/>
      <use xlink:href="#DejaVuSans-73" x="199.902344"/>
      <use xlink:href="#DejaVuSans-75" x="252.001953"/>
      <use xlink:href="#DejaVuSans-6e" x="315.380859"/>
      <use xlink:href="#DejaVuSans-67" x="378.759766"/>
      <use xlink:href="#DejaVuSans-20" x="442.236328"/>
      <use xlink:href="#DejaVuSans-34" x="474.023438"/>
     </g>
    </g>
    <g id="LineCollection_10">
     <path d="M 78.5 125.964031 
L 78.5 114.964031 
" style="fill: none; stroke: #8172b3; stroke-width: 1.2"/>
    </g>
    <g id="line2d_25">
     <path d="M 67.5 120.464031 
L 89.5 120.464031 
" style="fill: none; stroke: #8172b3; stroke-width: 1.2; stroke-linecap: round"/>
    </g>
    <g id="line2d_26"/>
    <g id="text_18">
     <!-- Messung 5 -->
     <g style="fill: #262626" transform="translate(98.3 124.314031) scale(0.11 -0.11)">
      <use xlink:href="#DejaVuSans-4d"/>
      <use xlink:href="#DejaVuSans-65" x="86.279297"/>
      <use xlink:href="#DejaVuSans-73" x="147.802734"/>
      <use xlink:href="#DejaVuSans-73" x="199.902344"/>
      <use xlink:href="#DejaVuSans-75" x="252.001953"/>
      <use xlink:href="#DejaVuSans-6e" x="315.380859"/>
      <use xlink:href="#DejaVuSans-67" x="378.759766"/>
      <use xlink:href="#DejaVuSans-20" x="442.236328"/>
      <use xlink:href="#DejaVuSans-35" x="474.023438"/>
     </g>
    </g>
   </g>
  </g>
 </g>
 <defs>
  <clipPath id="p136780406a">
   <rect x="57.6" y="41.472" width="357.12" height="266.112"/>
  </clipPath>
 </defs>
</svg>
