<?xml version="1.0" encoding="utf-8"?>
<svg xmlns="http://www.w3.org/2000/svg" xmlns:xlink="http://www.w3.org/1999/xlink" width="600" height="400" viewBox="0 0 2400 1600">
<defs>
  <clipPath id="clip650">
    <rect x="0" y="0" width="2400" height="1600"/>
  </clipPath>
</defs>
<path clip-path="url(#clip650)" d="M0 1600 L2400 1600 L2400 0 L0 0  Z" fill="#ffffff" fill-rule="evenodd" fill-opacity="1"/>
<defs>
  <clipPath id="clip651">
    <rect x="480" y="0" width="1681" height="1600"/>
  </clipPath>
</defs>
<path clip-path="url(#clip650)" d="M205.121 1420.71 L2352.76 1420.71 L2352.76 47.2441 L205.121 47.2441  Z" fill="#ffffff" fill-rule="evenodd" fill-opacity="1"/>
<defs>
  <clipPath id="clip652">
    <rect x="205" y="47" width="2149" height="1374"/>
  </clipPath>
</defs>
<polyline clip-path="url(#clip652)" style="stroke:#000000; stroke-linecap:round; stroke-linejoin:round; stroke-width:2; stroke-opacity:0.1; fill:none" points="205.121,1420.71 205.121,47.2441 "/>
<polyline clip-path="url(#clip652)" style="stroke:#000000; stroke-linecap:round; stroke-linejoin:round; stroke-width:2; stroke-opacity:0.1; fill:none" points="742.03,1420.71 742.03,47.2441 "/>
<polyline clip-path="url(#clip652)" style="stroke:#000000; stroke-linecap:round; stroke-linejoin:round; stroke-width:2; stroke-opacity:0.1; fill:none" points="1278.94,1420.71 1278.94,47.2441 "/>
<polyline clip-path="url(#clip652)" style="stroke:#000000; stroke-linecap:round; stroke-linejoin:round; stroke-width:2; stroke-opacity:0.1; fill:none" points="1815.85,1420.71 1815.85,47.2441 "/>
<polyline clip-path="url(#clip652)" style="stroke:#000000; stroke-linecap:round; stroke-linejoin:round; stroke-width:2; stroke-opacity:0.1; fill:none" points="2352.76,1420.71 2352.76,47.2441 "/>
<polyline clip-path="url(#clip650)" style="stroke:#000000; stroke-linecap:round; stroke-linejoin:round; stroke-width:4; stroke-opacity:1; fill:none" points="205.121,1420.71 2352.76,1420.71 "/>
<polyline clip-path="url(#clip650)" style="stroke:#000000; stroke-linecap:round; stroke-linejoin:round; stroke-width:4; stroke-opacity:1; fill:none" points="205.121,1420.71 205.121,1401.81 "/>
<polyline clip-path="url(#clip650)" style="stroke:#000000; stroke-linecap:round; stroke-linejoin:round; stroke-width:4; stroke-opacity:1; fill:none" points="742.03,1420.71 742.03,1401.81 "/>
<polyline clip-path="url(#clip650)" style="stroke:#000000; stroke-linecap:round; stroke-linejoin:round; stroke-width:4; stroke-opacity:1; fill:none" points="1278.94,1420.71 1278.94,1401.81 "/>
<polyline clip-path="url(#clip650)" style="stroke:#000000; stroke-linecap:round; stroke-linejoin:round; stroke-width:4; stroke-opacity:1; fill:none" points="1815.85,1420.71 1815.85,1401.81 "/>
<polyline clip-path="url(#clip650)" style="stroke:#000000; stroke-linecap:round; stroke-linejoin:round; stroke-width:4; stroke-opacity:1; fill:none" points="2352.76,1420.71 2352.76,1401.81 "/>
<path clip-path="url(#clip650)" d="M182.505 1451.63 Q178.894 1451.63 177.066 1455.19 Q175.26 1458.73 175.26 1465.86 Q175.26 1472.97 177.066 1476.53 Q178.894 1480.08 182.505 1480.08 Q186.14 1480.08 187.945 1476.53 Q189.774 1472.97 189.774 1465.86 Q189.774 1458.73 187.945 1455.19 Q186.14 1451.63 182.505 1451.63 M182.505 1447.92 Q188.316 1447.92 191.371 1452.53 Q194.45 1457.11 194.45 1465.86 Q194.45 1474.59 191.371 1479.2 Q188.316 1483.78 182.505 1483.78 Q176.695 1483.78 173.617 1479.2 Q170.561 1474.59 170.561 1465.86 Q170.561 1457.11 173.617 1452.53 Q176.695 1447.92 182.505 1447.92 Z" fill="#000000" fill-rule="nonzero" fill-opacity="1" /><path clip-path="url(#clip650)" d="M202.667 1477.23 L207.552 1477.23 L207.552 1483.11 L202.667 1483.11 L202.667 1477.23 Z" fill="#000000" fill-rule="nonzero" fill-opacity="1" /><path clip-path="url(#clip650)" d="M227.737 1451.63 Q224.126 1451.63 222.297 1455.19 Q220.491 1458.73 220.491 1465.86 Q220.491 1472.97 222.297 1476.53 Q224.126 1480.08 227.737 1480.08 Q231.371 1480.08 233.176 1476.53 Q235.005 1472.97 235.005 1465.86 Q235.005 1458.73 233.176 1455.19 Q231.371 1451.63 227.737 1451.63 M227.737 1447.92 Q233.547 1447.92 236.602 1452.53 Q239.681 1457.11 239.681 1465.86 Q239.681 1474.59 236.602 1479.2 Q233.547 1483.78 227.737 1483.78 Q221.926 1483.78 218.848 1479.2 Q215.792 1474.59 215.792 1465.86 Q215.792 1457.11 218.848 1452.53 Q221.926 1447.92 227.737 1447.92 Z" fill="#000000" fill-rule="nonzero" fill-opacity="1" /><path clip-path="url(#clip650)" d="M719.912 1451.63 Q716.301 1451.63 714.472 1455.19 Q712.666 1458.73 712.666 1465.86 Q712.666 1472.97 714.472 1476.53 Q716.301 1480.08 719.912 1480.08 Q723.546 1480.08 725.352 1476.53 Q727.18 1472.97 727.18 1465.86 Q727.18 1458.73 725.352 1455.19 Q723.546 1451.63 719.912 1451.63 M719.912 1447.92 Q725.722 1447.92 728.777 1452.53 Q731.856 1457.11 731.856 1465.86 Q731.856 1474.59 728.777 1479.2 Q725.722 1483.78 719.912 1483.78 Q714.102 1483.78 711.023 1479.2 Q707.967 1474.59 707.967 1465.86 Q707.967 1457.11 711.023 1452.53 Q714.102 1447.92 719.912 1447.92 Z" fill="#000000" fill-rule="nonzero" fill-opacity="1" /><path clip-path="url(#clip650)" d="M740.074 1477.23 L744.958 1477.23 L744.958 1483.11 L740.074 1483.11 L740.074 1477.23 Z" fill="#000000" fill-rule="nonzero" fill-opacity="1" /><path clip-path="url(#clip650)" d="M755.189 1448.55 L773.546 1448.55 L773.546 1452.48 L759.472 1452.48 L759.472 1460.96 Q760.49 1460.61 761.509 1460.45 Q762.527 1460.26 763.546 1460.26 Q769.333 1460.26 772.712 1463.43 Q776.092 1466.6 776.092 1472.02 Q776.092 1477.6 772.62 1480.7 Q769.148 1483.78 762.828 1483.78 Q760.652 1483.78 758.384 1483.41 Q756.138 1483.04 753.731 1482.3 L753.731 1477.6 Q755.814 1478.73 758.037 1479.29 Q760.259 1479.84 762.736 1479.84 Q766.74 1479.84 769.078 1477.74 Q771.416 1475.63 771.416 1472.02 Q771.416 1468.41 769.078 1466.3 Q766.74 1464.2 762.736 1464.2 Q760.861 1464.2 758.986 1464.61 Q757.134 1465.03 755.189 1465.91 L755.189 1448.55 Z" fill="#000000" fill-rule="nonzero" fill-opacity="1" /><path clip-path="url(#clip650)" d="M1246.09 1479.17 L1253.73 1479.17 L1253.73 1452.81 L1245.42 1454.47 L1245.42 1450.21 L1253.68 1448.55 L1258.36 1448.55 L1258.36 1479.17 L1266 1479.17 L1266 1483.11 L1246.09 1483.11 L1246.09 1479.17 Z" fill="#000000" fill-rule="nonzero" fill-opacity="1" /><path clip-path="url(#clip650)" d="M1275.44 1477.23 L1280.33 1477.23 L1280.33 1483.11 L1275.44 1483.11 L1275.44 1477.23 Z" fill="#000000" fill-rule="nonzero" fill-opacity="1" /><path clip-path="url(#clip650)" d="M1300.51 1451.63 Q1296.9 1451.63 1295.07 1455.19 Q1293.27 1458.73 1293.27 1465.86 Q1293.27 1472.97 1295.07 1476.53 Q1296.9 1480.08 1300.51 1480.08 Q1304.15 1480.08 1305.95 1476.53 Q1307.78 1472.97 1307.78 1465.86 Q1307.78 1458.73 1305.95 1455.19 Q1304.15 1451.63 1300.51 1451.63 M1300.51 1447.92 Q1306.32 1447.92 1309.38 1452.53 Q1312.46 1457.11 1312.46 1465.86 Q1312.46 1474.59 1309.38 1479.2 Q1306.32 1483.78 1300.51 1483.78 Q1294.7 1483.78 1291.62 1479.2 Q1288.57 1474.59 1288.57 1465.86 Q1288.57 1457.11 1291.62 1452.53 Q1294.7 1447.92 1300.51 1447.92 Z" fill="#000000" fill-rule="nonzero" fill-opacity="1" /><path clip-path="url(#clip650)" d="M1783.5 1479.17 L1791.14 1479.17 L1791.14 1452.81 L1782.83 1454.47 L1782.83 1450.21 L1791.09 1448.55 L1795.77 1448.55 L1795.77 1479.17 L1803.41 1479.17 L1803.41 1483.11 L1783.5 1483.11 L1783.5 1479.17 Z" fill="#000000" fill-rule="nonzero" fill-opacity="1" /><path clip-path="url(#clip650)" d="M1812.85 1477.23 L1817.73 1477.23 L1817.73 1483.11 L1812.85 1483.11 L1812.85 1477.23 Z" fill="#000000" fill-rule="nonzero" fill-opacity="1" /><path clip-path="url(#clip650)" d="M1827.97 1448.55 L1846.32 1448.55 L1846.32 1452.48 L1832.25 1452.48 L1832.25 1460.96 Q1833.27 1460.61 1834.28 1460.45 Q1835.3 1460.26 1836.32 1460.26 Q1842.11 1460.26 1845.49 1463.43 Q1848.87 1466.6 1848.87 1472.02 Q1848.87 1477.6 1845.4 1480.7 Q1841.92 1483.78 1835.6 1483.78 Q1833.43 1483.78 1831.16 1483.41 Q1828.91 1483.04 1826.51 1482.3 L1826.51 1477.6 Q1828.59 1478.73 1830.81 1479.29 Q1833.03 1479.84 1835.51 1479.84 Q1839.52 1479.84 1841.85 1477.74 Q1844.19 1475.63 1844.19 1472.02 Q1844.19 1468.41 1841.85 1466.3 Q1839.52 1464.2 1835.51 1464.2 Q1833.64 1464.2 1831.76 1464.61 Q1829.91 1465.03 1827.97 1465.91 L1827.97 1448.55 Z" fill="#000000" fill-rule="nonzero" fill-opacity="1" /><path clip-path="url(#clip650)" d="M2323.99 1479.17 L2340.31 1479.17 L2340.31 1483.11 L2318.37 1483.11 L2318.37 1479.17 Q2321.03 1476.42 2325.61 1471.79 Q2330.22 1467.14 2331.4 1465.79 Q2333.65 1463.27 2334.53 1461.53 Q2335.43 1459.77 2335.43 1458.09 Q2335.43 1455.33 2333.49 1453.59 Q2331.56 1451.86 2328.46 1451.86 Q2326.26 1451.86 2323.81 1452.62 Q2321.38 1453.39 2318.6 1454.94 L2318.6 1450.21 Q2321.43 1449.08 2323.88 1448.5 Q2326.33 1447.92 2328.37 1447.92 Q2333.74 1447.92 2336.93 1450.61 Q2340.13 1453.29 2340.13 1457.78 Q2340.13 1459.91 2339.32 1461.84 Q2338.53 1463.73 2336.42 1466.33 Q2335.85 1467 2332.74 1470.21 Q2329.64 1473.41 2323.99 1479.17 Z" fill="#000000" fill-rule="nonzero" fill-opacity="1" /><path clip-path="url(#clip650)" d="M2350.13 1477.23 L2355.01 1477.23 L2355.01 1483.11 L2350.13 1483.11 L2350.13 1477.23 Z" fill="#000000" fill-rule="nonzero" fill-opacity="1" /><path clip-path="url(#clip650)" d="M2375.2 1451.63 Q2371.59 1451.63 2369.76 1455.19 Q2367.95 1458.73 2367.95 1465.86 Q2367.95 1472.97 2369.76 1476.53 Q2371.59 1480.08 2375.2 1480.08 Q2378.83 1480.08 2380.64 1476.53 Q2382.47 1472.97 2382.47 1465.86 Q2382.47 1458.73 2380.64 1455.19 Q2378.83 1451.63 2375.2 1451.63 M2375.2 1447.92 Q2381.01 1447.92 2384.06 1452.53 Q2387.14 1457.11 2387.14 1465.86 Q2387.14 1474.59 2384.06 1479.2 Q2381.01 1483.78 2375.2 1483.78 Q2369.39 1483.78 2366.31 1479.2 Q2363.25 1474.59 2363.25 1465.86 Q2363.25 1457.11 2366.31 1452.53 Q2369.39 1447.92 2375.2 1447.92 Z" fill="#000000" fill-rule="nonzero" fill-opacity="1" /><path clip-path="url(#clip650)" d="M1143.23 1523.53 L1126.57 1523.53 L1126.57 1522.09 L1143.23 1522.09 L1143.23 1523.53 Z" fill="#000000" fill-rule="nonzero" fill-opacity="1" /><path clip-path="url(#clip650)" d="M1147.31 1541.09 Q1147.31 1545.8 1144.93 1550.34 Q1142.58 1554.88 1138.87 1557.68 Q1135.17 1560.45 1131.4 1560.45 Q1129.15 1560.45 1127.63 1559.23 Q1126.15 1557.97 1125.35 1556.2 Q1124.73 1558.39 1123.41 1563.64 Q1122.09 1568.89 1122.09 1569.4 Q1122.09 1569.69 1122.16 1569.82 Q1122.22 1569.95 1122.51 1570.11 Q1122.8 1570.3 1123.51 1570.37 Q1124.22 1570.47 1125.41 1570.47 Q1126.02 1570.47 1126.25 1570.47 Q1126.51 1570.5 1126.73 1570.66 Q1126.99 1570.82 1126.99 1571.17 Q1126.99 1572.49 1125.8 1572.49 Q1124.73 1572.49 1122.54 1572.4 Q1120.35 1572.3 1119.26 1572.3 Q1118.33 1572.3 1116.46 1572.4 Q1114.59 1572.49 1113.72 1572.49 Q1112.85 1572.49 1112.85 1571.72 Q1112.85 1571.27 1112.98 1570.98 Q1113.08 1570.72 1113.33 1570.59 Q1113.59 1570.5 1113.82 1570.47 Q1114.01 1570.47 1114.4 1570.47 Q1115.88 1570.47 1116.52 1570.21 Q1117.17 1569.98 1117.39 1569.5 Q1117.65 1569.05 1117.94 1567.76 L1125.35 1538.39 Q1125.8 1536.42 1125.8 1535.04 Q1125.8 1533.3 1125.25 1532.66 Q1124.7 1532.01 1123.74 1532.01 Q1122.06 1532.01 1120.97 1534.01 Q1119.87 1536.01 1118.94 1539.87 Q1118.65 1540.93 1118.45 1541.16 Q1118.29 1541.38 1117.81 1541.38 Q1117 1541.35 1117 1540.71 Q1117 1540.55 1117.26 1539.52 Q1117.52 1538.45 1118 1536.91 Q1118.52 1535.33 1119.07 1534.33 Q1119.39 1533.65 1119.68 1533.2 Q1119.97 1532.75 1120.55 1532.04 Q1121.16 1531.34 1122.03 1530.95 Q1122.9 1530.56 1123.96 1530.56 Q1126.02 1530.56 1127.73 1531.79 Q1129.44 1533.01 1129.89 1535.49 Q1131.72 1533.33 1133.98 1531.95 Q1136.23 1530.56 1138.52 1530.56 Q1142.32 1530.56 1144.8 1533.53 Q1147.31 1536.46 1147.31 1541.09 M1142.54 1538.2 Q1142.54 1535.26 1141.42 1533.65 Q1140.32 1532.01 1138.33 1532.01 Q1135.85 1532.01 1132.98 1534.52 Q1130.14 1536.91 1129.57 1539.13 L1126.31 1552.04 L1126.12 1553.11 Q1126.12 1553.3 1126.22 1553.88 Q1126.34 1554.43 1126.7 1555.33 Q1127.09 1556.23 1127.6 1557.04 Q1128.15 1557.81 1129.11 1558.39 Q1130.11 1558.97 1131.34 1558.97 Q1133.3 1558.97 1135.43 1557.23 Q1137.58 1555.49 1139.19 1552.2 Q1140.19 1550.08 1141.35 1545.51 Q1142.54 1540.9 1142.54 1538.2 Z" fill="#000000" fill-rule="nonzero" fill-opacity="1" /><path clip-path="url(#clip650)" d="M1184.5 1519.31 Q1184.77 1519.58 1184.77 1519.97 Q1184.77 1520.35 1184.5 1520.62 Q1184.22 1520.89 1183.84 1520.89 L1154.94 1520.89 Q1154.56 1520.89 1154.29 1520.62 Q1154.02 1520.35 1154.02 1519.97 Q1154.02 1519.58 1154.29 1519.31 Q1154.56 1519.04 1154.94 1519.04 L1183.84 1519.04 Q1184.22 1519.04 1184.5 1519.31 Z" fill="#000000" fill-rule="nonzero" fill-opacity="1" /><path clip-path="url(#clip650)" d="M1189.59 1505.16 L1189.59 1503.71 Q1195.13 1503.71 1197.99 1500.76 Q1198.78 1500.76 1198.92 1500.94 Q1199.05 1501.12 1199.05 1501.95 L1199.05 1527.86 Q1199.05 1529.23 1199.73 1529.66 Q1200.41 1530.09 1203.36 1530.09 L1204.83 1530.09 L1204.83 1531.51 Q1203.2 1531.37 1197.34 1531.37 Q1191.48 1531.37 1189.88 1531.51 L1189.88 1530.09 L1191.34 1530.09 Q1194.25 1530.09 1194.95 1529.68 Q1195.65 1529.26 1195.65 1527.86 L1195.65 1503.94 Q1193.24 1505.16 1189.59 1505.16 Z" fill="#000000" fill-rule="nonzero" fill-opacity="1" /><path clip-path="url(#clip650)" d="M1245.64 1576.2 L1245.64 1510.24 L1255.59 1510.24 L1255.59 1511.75 L1250.05 1511.75 L1250.05 1574.68 L1255.59 1574.68 L1255.59 1576.2 L1245.64 1576.2 Z" fill="#000000" fill-rule="nonzero" fill-opacity="1" /><path clip-path="url(#clip650)" d="M1263.79 1516.71 L1263.79 1514.65 L1273.29 1513.94 L1273.29 1534.85 Q1277.12 1530.56 1282.34 1530.56 Q1288.01 1530.56 1292.16 1534.91 Q1296.32 1539.26 1296.32 1545.47 Q1296.32 1551.75 1291.97 1556.1 Q1287.62 1560.45 1281.6 1560.45 Q1276.12 1560.45 1272.97 1555.62 Q1270.65 1559.64 1270.58 1559.71 L1268.94 1559.71 L1268.94 1520.39 Q1268.94 1517.94 1268.07 1517.33 Q1267.2 1516.71 1263.79 1516.71 M1273.48 1552.2 Q1273.48 1553.59 1274.42 1554.97 Q1277.02 1558.97 1281.27 1558.97 Q1281.31 1558.97 1281.34 1558.97 Q1285.94 1558.97 1288.81 1554.75 Q1290.84 1551.59 1290.84 1545.41 Q1290.84 1539.29 1288.94 1536.23 Q1286.3 1532.01 1282.02 1532.01 Q1277.18 1532.01 1274.22 1536.23 Q1273.48 1537.29 1273.48 1538.61 L1273.48 1552.2 Z" fill="#000000" fill-rule="nonzero" fill-opacity="1" /><path clip-path="url(#clip650)" d="M1299.76 1553.43 Q1299.76 1547.82 1306.36 1544.86 Q1310.32 1542.96 1318.5 1542.48 L1318.5 1540.06 Q1318.5 1535.97 1316.35 1533.82 Q1314.22 1531.63 1311.51 1531.63 Q1306.68 1531.63 1304.37 1534.65 Q1306.33 1534.72 1307.04 1535.72 Q1307.75 1536.68 1307.75 1537.68 Q1307.75 1539 1306.91 1539.87 Q1306.1 1540.71 1304.72 1540.71 Q1303.4 1540.71 1302.53 1539.9 Q1301.66 1539.06 1301.66 1537.62 Q1301.66 1534.4 1304.56 1532.27 Q1307.49 1530.14 1311.64 1530.14 Q1317.05 1530.14 1320.66 1533.78 Q1321.79 1534.91 1322.34 1536.36 Q1322.92 1537.81 1322.98 1538.78 Q1323.04 1539.71 1323.04 1541.58 L1323.04 1554.75 Q1323.04 1555.14 1323.17 1555.78 Q1323.3 1556.42 1323.88 1557.26 Q1324.49 1558.07 1325.49 1558.07 Q1327.88 1558.07 1327.84 1553.85 L1327.84 1550.14 L1329.52 1550.14 L1329.52 1553.85 Q1329.52 1557.36 1327.65 1558.74 Q1325.81 1560.1 1324.11 1560.1 Q1321.92 1560.1 1320.53 1558.49 Q1319.15 1556.87 1318.95 1554.68 Q1317.96 1557.2 1315.67 1558.84 Q1313.42 1560.45 1310.32 1560.45 Q1307.94 1560.45 1305.69 1559.84 Q1303.46 1559.26 1301.6 1557.62 Q1299.76 1555.94 1299.76 1553.43 M1304.85 1553.36 Q1304.85 1555.81 1306.59 1557.39 Q1308.33 1558.97 1310.77 1558.97 Q1313.54 1558.97 1316.02 1556.84 Q1318.5 1554.68 1318.5 1550.47 L1318.5 1543.86 Q1311.19 1544.12 1308 1547.05 Q1304.85 1549.95 1304.85 1553.36 Z" fill="#000000" fill-rule="nonzero" fill-opacity="1" /><path clip-path="url(#clip650)" d="M1332.42 1559.71 L1332.42 1557.68 Q1335.93 1557.68 1336.74 1557.26 Q1337.58 1556.81 1337.58 1554.68 L1337.58 1537 Q1337.58 1534.56 1336.71 1533.94 Q1335.87 1533.33 1332.42 1533.33 L1332.42 1531.27 L1341.6 1530.56 L1341.6 1537.81 Q1342.54 1534.97 1344.5 1532.78 Q1346.5 1530.56 1349.72 1530.56 Q1351.84 1530.56 1353.2 1531.75 Q1354.58 1532.95 1354.58 1534.59 Q1354.58 1536.04 1353.68 1536.78 Q1352.81 1537.49 1351.75 1537.49 Q1350.56 1537.49 1349.72 1536.75 Q1348.91 1535.97 1348.91 1534.65 Q1348.91 1533.85 1349.27 1533.24 Q1349.65 1532.59 1349.94 1532.37 Q1350.23 1532.14 1350.43 1532.08 Q1350.3 1532.01 1349.72 1532.01 Q1346.08 1532.01 1343.99 1535.65 Q1341.92 1539.26 1341.92 1544.41 L1341.92 1554.56 Q1341.92 1556.46 1342.7 1557.07 Q1343.5 1557.68 1346.95 1557.68 L1348.33 1557.68 L1348.33 1559.71 Q1345.69 1559.52 1339.96 1559.52 Q1339.15 1559.52 1337.9 1559.55 Q1336.64 1559.58 1335 1559.64 Q1333.36 1559.71 1332.42 1559.71 Z" fill="#000000" fill-rule="nonzero" fill-opacity="1" /><path clip-path="url(#clip650)" d="M1391.88 1527.78 Q1392.15 1528.05 1392.15 1528.43 Q1392.15 1528.81 1391.88 1529.08 Q1391.61 1529.35 1391.23 1529.35 L1362.33 1529.35 Q1361.94 1529.35 1361.67 1529.08 Q1361.4 1528.81 1361.4 1528.43 Q1361.4 1528.05 1361.67 1527.78 Q1361.94 1527.51 1362.33 1527.51 L1391.23 1527.51 Q1391.61 1527.51 1391.88 1527.78 Z" fill="#000000" fill-rule="nonzero" fill-opacity="1" /><path clip-path="url(#clip650)" d="M1396.97 1513.62 L1396.97 1512.18 Q1402.52 1512.18 1405.38 1509.22 Q1406.17 1509.22 1406.3 1509.4 Q1406.44 1509.58 1406.44 1510.42 L1406.44 1536.32 Q1406.44 1537.7 1407.12 1538.12 Q1407.79 1538.55 1410.75 1538.55 L1412.21 1538.55 L1412.21 1539.97 Q1410.59 1539.84 1404.73 1539.84 Q1398.87 1539.84 1397.26 1539.97 L1397.26 1538.55 L1398.73 1538.55 Q1401.64 1538.55 1402.34 1538.15 Q1403.04 1537.72 1403.04 1536.32 L1403.04 1512.4 Q1400.62 1513.62 1396.97 1513.62 Z" fill="#000000" fill-rule="nonzero" fill-opacity="1" /><path clip-path="url(#clip650)" d="M1426.88 1574.68 L1432.42 1574.68 L1432.42 1511.75 L1426.88 1511.75 L1426.88 1510.24 L1436.83 1510.24 L1436.83 1576.2 L1426.88 1576.2 L1426.88 1574.68 Z" fill="#000000" fill-rule="nonzero" fill-opacity="1" /><polyline clip-path="url(#clip652)" style="stroke:#000000; stroke-linecap:round; stroke-linejoin:round; stroke-width:2; stroke-opacity:0.1; fill:none" points="205.121,1420.71 2352.76,1420.71 "/>
<polyline clip-path="url(#clip652)" style="stroke:#000000; stroke-linecap:round; stroke-linejoin:round; stroke-width:2; stroke-opacity:0.1; fill:none" points="205.121,1077.34 2352.76,1077.34 "/>
<polyline clip-path="url(#clip652)" style="stroke:#000000; stroke-linecap:round; stroke-linejoin:round; stroke-width:2; stroke-opacity:0.1; fill:none" points="205.121,733.976 2352.76,733.976 "/>
<polyline clip-path="url(#clip652)" style="stroke:#000000; stroke-linecap:round; stroke-linejoin:round; stroke-width:2; stroke-opacity:0.1; fill:none" points="205.121,390.61 2352.76,390.61 "/>
<polyline clip-path="url(#clip652)" style="stroke:#000000; stroke-linecap:round; stroke-linejoin:round; stroke-width:2; stroke-opacity:0.1; fill:none" points="205.121,47.2441 2352.76,47.2441 "/>
<polyline clip-path="url(#clip650)" style="stroke:#000000; stroke-linecap:round; stroke-linejoin:round; stroke-width:4; stroke-opacity:1; fill:none" points="205.121,1420.71 205.121,47.2441 "/>
<polyline clip-path="url(#clip650)" style="stroke:#000000; stroke-linecap:round; stroke-linejoin:round; stroke-width:4; stroke-opacity:1; fill:none" points="205.121,1420.71 224.019,1420.71 "/>
<polyline clip-path="url(#clip650)" style="stroke:#000000; stroke-linecap:round; stroke-linejoin:round; stroke-width:4; stroke-opacity:1; fill:none" points="205.121,1077.34 224.019,1077.34 "/>
<polyline clip-path="url(#clip650)" style="stroke:#000000; stroke-linecap:round; stroke-linejoin:round; stroke-width:4; stroke-opacity:1; fill:none" points="205.121,733.976 224.019,733.976 "/>
<polyline clip-path="url(#clip650)" style="stroke:#000000; stroke-linecap:round; stroke-linejoin:round; stroke-width:4; stroke-opacity:1; fill:none" points="205.121,390.61 224.019,390.61 "/>
<polyline clip-path="url(#clip650)" style="stroke:#000000; stroke-linecap:round; stroke-linejoin:round; stroke-width:4; stroke-opacity:1; fill:none" points="205.121,47.2441 224.019,47.2441 "/>
<path clip-path="url(#clip650)" d="M157.177 1406.51 Q153.566 1406.51 151.737 1410.07 Q149.931 1413.61 149.931 1420.74 Q149.931 1427.85 151.737 1431.41 Q153.566 1434.96 157.177 1434.96 Q160.811 1434.96 162.616 1431.41 Q164.445 1427.85 164.445 1420.74 Q164.445 1413.61 162.616 1410.07 Q160.811 1406.51 157.177 1406.51 M157.177 1402.8 Q162.987 1402.8 166.042 1407.41 Q169.121 1411.99 169.121 1420.74 Q169.121 1429.47 166.042 1434.08 Q162.987 1438.66 157.177 1438.66 Q151.366 1438.66 148.288 1434.08 Q145.232 1429.47 145.232 1420.74 Q145.232 1411.99 148.288 1407.41 Q151.366 1402.8 157.177 1402.8 Z" fill="#000000" fill-rule="nonzero" fill-opacity="1" /><path clip-path="url(#clip650)" d="M121.043 1090.69 L137.362 1090.69 L137.362 1094.62 L115.418 1094.62 L115.418 1090.69 Q118.08 1087.93 122.663 1083.3 Q127.269 1078.65 128.45 1077.31 Q130.695 1074.78 131.575 1073.05 Q132.478 1071.29 132.478 1069.6 Q132.478 1066.84 130.533 1065.11 Q128.612 1063.37 125.51 1063.37 Q123.311 1063.37 120.857 1064.14 Q118.427 1064.9 115.649 1066.45 L115.649 1061.73 Q118.473 1060.59 120.927 1060.02 Q123.38 1059.44 125.418 1059.44 Q130.788 1059.44 133.982 1062.12 Q137.177 1064.81 137.177 1069.3 Q137.177 1071.43 136.367 1073.35 Q135.579 1075.25 133.473 1077.84 Q132.894 1078.51 129.792 1081.73 Q126.691 1084.92 121.043 1090.69 Z" fill="#000000" fill-rule="nonzero" fill-opacity="1" /><path clip-path="url(#clip650)" d="M157.177 1063.14 Q153.566 1063.14 151.737 1066.71 Q149.931 1070.25 149.931 1077.38 Q149.931 1084.48 151.737 1088.05 Q153.566 1091.59 157.177 1091.59 Q160.811 1091.59 162.616 1088.05 Q164.445 1084.48 164.445 1077.38 Q164.445 1070.25 162.616 1066.71 Q160.811 1063.14 157.177 1063.14 M157.177 1059.44 Q162.987 1059.44 166.042 1064.04 Q169.121 1068.63 169.121 1077.38 Q169.121 1086.1 166.042 1090.71 Q162.987 1095.29 157.177 1095.29 Q151.366 1095.29 148.288 1090.71 Q145.232 1086.1 145.232 1077.38 Q145.232 1068.63 148.288 1064.04 Q151.366 1059.44 157.177 1059.44 Z" fill="#000000" fill-rule="nonzero" fill-opacity="1" /><path clip-path="url(#clip650)" d="M129.862 720.77 L118.056 739.219 L129.862 739.219 L129.862 720.77 M128.635 716.696 L134.515 716.696 L134.515 739.219 L139.445 739.219 L139.445 743.108 L134.515 743.108 L134.515 751.256 L129.862 751.256 L129.862 743.108 L114.26 743.108 L114.26 738.594 L128.635 716.696 Z" fill="#000000" fill-rule="nonzero" fill-opacity="1" /><path clip-path="url(#clip650)" d="M157.177 719.775 Q153.566 719.775 151.737 723.34 Q149.931 726.881 149.931 734.011 Q149.931 741.117 151.737 744.682 Q153.566 748.224 157.177 748.224 Q160.811 748.224 162.616 744.682 Q164.445 741.117 164.445 734.011 Q164.445 726.881 162.616 723.34 Q160.811 719.775 157.177 719.775 M157.177 716.071 Q162.987 716.071 166.042 720.678 Q169.121 725.261 169.121 734.011 Q169.121 742.738 166.042 747.344 Q162.987 751.927 157.177 751.927 Q151.366 751.927 148.288 747.344 Q145.232 742.738 145.232 734.011 Q145.232 725.261 148.288 720.678 Q151.366 716.071 157.177 716.071 Z" fill="#000000" fill-rule="nonzero" fill-opacity="1" /><path clip-path="url(#clip650)" d="M127.593 388.747 Q124.445 388.747 122.593 390.899 Q120.765 393.052 120.765 396.802 Q120.765 400.529 122.593 402.705 Q124.445 404.858 127.593 404.858 Q130.742 404.858 132.57 402.705 Q134.422 400.529 134.422 396.802 Q134.422 393.052 132.57 390.899 Q130.742 388.747 127.593 388.747 M136.876 374.094 L136.876 378.353 Q135.117 377.52 133.311 377.08 Q131.529 376.64 129.769 376.64 Q125.14 376.64 122.686 379.765 Q120.255 382.89 119.908 389.21 Q121.274 387.196 123.334 386.131 Q125.394 385.043 127.871 385.043 Q133.08 385.043 136.089 388.214 Q139.121 391.362 139.121 396.802 Q139.121 402.126 135.973 405.344 Q132.825 408.561 127.593 408.561 Q121.598 408.561 118.427 403.978 Q115.256 399.372 115.256 390.645 Q115.256 382.45 119.144 377.589 Q123.033 372.705 129.584 372.705 Q131.343 372.705 133.126 373.052 Q134.931 373.4 136.876 374.094 Z" fill="#000000" fill-rule="nonzero" fill-opacity="1" /><path clip-path="url(#clip650)" d="M157.177 376.409 Q153.566 376.409 151.737 379.974 Q149.931 383.515 149.931 390.645 Q149.931 397.751 151.737 401.316 Q153.566 404.858 157.177 404.858 Q160.811 404.858 162.616 401.316 Q164.445 397.751 164.445 390.645 Q164.445 383.515 162.616 379.974 Q160.811 376.409 157.177 376.409 M157.177 372.705 Q162.987 372.705 166.042 377.312 Q169.121 381.895 169.121 390.645 Q169.121 399.372 166.042 403.978 Q162.987 408.561 157.177 408.561 Q151.366 408.561 148.288 403.978 Q145.232 399.372 145.232 390.645 Q145.232 381.895 148.288 377.312 Q151.366 372.705 157.177 372.705 Z" fill="#000000" fill-rule="nonzero" fill-opacity="1" /><path clip-path="url(#clip650)" d="M127.015 48.1121 Q123.681 48.1121 121.76 49.8945 Q119.862 51.6769 119.862 54.8019 Q119.862 57.9269 121.76 59.7093 Q123.681 61.4917 127.015 61.4917 Q130.348 61.4917 132.269 59.7093 Q134.191 57.9038 134.191 54.8019 Q134.191 51.6769 132.269 49.8945 Q130.371 48.1121 127.015 48.1121 M122.339 46.1214 Q119.33 45.3807 117.64 43.3205 Q115.973 41.2603 115.973 38.2974 Q115.973 34.1539 118.913 31.7465 Q121.876 29.3391 127.015 29.3391 Q132.177 29.3391 135.117 31.7465 Q138.056 34.1539 138.056 38.2974 Q138.056 41.2603 136.367 43.3205 Q134.7 45.3807 131.714 46.1214 Q135.093 46.9084 136.968 49.2001 Q138.867 51.4918 138.867 54.8019 Q138.867 59.825 135.788 62.5102 Q132.732 65.1954 127.015 65.1954 Q121.297 65.1954 118.218 62.5102 Q115.163 59.825 115.163 54.8019 Q115.163 51.4918 117.061 49.2001 Q118.959 46.9084 122.339 46.1214 M120.626 38.7372 Q120.626 41.4224 122.293 42.927 Q123.982 44.4316 127.015 44.4316 Q130.024 44.4316 131.714 42.927 Q133.427 41.4224 133.427 38.7372 Q133.427 36.052 131.714 34.5474 Q130.024 33.0428 127.015 33.0428 Q123.982 33.0428 122.293 34.5474 Q120.626 36.052 120.626 38.7372 Z" fill="#000000" fill-rule="nonzero" fill-opacity="1" /><path clip-path="url(#clip650)" d="M157.177 33.0428 Q153.566 33.0428 151.737 36.6076 Q149.931 40.1492 149.931 47.2788 Q149.931 54.3853 151.737 57.9501 Q153.566 61.4917 157.177 61.4917 Q160.811 61.4917 162.616 57.9501 Q164.445 54.3853 164.445 47.2788 Q164.445 40.1492 162.616 36.6076 Q160.811 33.0428 157.177 33.0428 M157.177 29.3391 Q162.987 29.3391 166.042 33.9456 Q169.121 38.5289 169.121 47.2788 Q169.121 56.0056 166.042 60.6121 Q162.987 65.1954 157.177 65.1954 Q151.366 65.1954 148.288 60.6121 Q145.232 56.0056 145.232 47.2788 Q145.232 38.5289 148.288 33.9456 Q151.366 29.3391 157.177 29.3391 Z" fill="#000000" fill-rule="nonzero" fill-opacity="1" /><path clip-path="url(#clip650)" d="M16.1969 806.392 L16.1969 823.052 L14.7541 823.052 L14.7541 806.392 L16.1969 806.392 Z" fill="#000000" fill-rule="nonzero" fill-opacity="1" /><path clip-path="url(#clip650)" d="M31.6383 802.864 Q30.5755 802.864 29.7059 803.154 Q28.8042 803.411 28.1923 803.83 Q27.5481 804.217 27.0651 804.957 Q26.5498 805.698 26.2277 806.31 Q25.9056 806.922 25.7124 807.953 Q25.487 808.983 25.3904 809.659 Q25.2615 810.336 25.1971 811.495 Q25.1327 812.655 25.1327 813.234 Q25.1327 813.782 25.1327 814.877 Q25.1327 818.323 25.1971 818.903 Q25.3259 819.772 25.8412 820.094 Q26.3243 820.416 27.6448 820.738 L44.8427 825.022 L44.8427 817.646 Q44.8427 813.621 43.7155 810.851 Q42.5883 808.081 41.0102 806.503 Q39.2711 804.764 36.4692 803.83 Q33.6673 802.864 31.6383 802.864 M62.0084 795.682 Q62.3627 795.682 63.1678 795.972 Q63.973 796.23 65.1002 796.874 Q66.1952 797.518 67.1936 798.387 Q68.1919 799.257 68.8683 800.642 Q69.5768 802.027 69.5768 803.605 Q69.5768 803.991 69.5446 804.378 Q69.5446 804.764 69.3836 805.73 Q69.2547 806.664 68.9971 807.437 Q68.7716 808.21 68.2242 809.176 Q67.7089 810.143 67.0003 810.819 Q66.2596 811.463 65.1002 811.914 Q63.9086 812.365 62.4593 812.365 Q61.1711 812.365 56.8555 811.302 Q53.184 810.368 52.2822 810.368 Q51.2839 810.368 50.3499 810.69 Q49.4159 810.98 48.4498 811.721 Q47.4836 812.429 46.9039 813.943 Q46.292 815.456 46.292 817.582 L46.292 825.408 L63.7797 829.788 Q63.8119 829.788 64.2628 829.885 Q64.6815 829.981 64.9069 829.981 Q65.3256 829.981 65.5833 829.724 Q65.8409 829.434 65.9697 828.725 Q66.0664 828.017 66.0986 827.469 Q66.0986 826.89 66.0986 825.698 Q66.0986 824.216 66.3562 823.959 Q66.5172 823.83 66.8071 823.83 Q67.258 823.83 67.58 823.959 Q67.8699 824.055 67.9665 824.313 Q68.0631 824.539 68.0953 824.7 Q68.1275 824.861 68.1275 825.15 L67.9343 833.524 L68.1275 841.833 Q68.1275 842.767 67.3868 842.767 Q66.7427 842.767 66.485 842.542 Q66.1952 842.316 66.163 842.026 Q66.0986 841.736 66.0986 840.996 Q66.0986 839.385 66.0019 838.419 Q65.9053 837.453 65.7765 836.841 Q65.6155 836.197 65.1646 835.875 Q64.7137 835.521 64.3272 835.36 Q63.9086 835.199 62.9746 834.973 L27.5481 826.149 Q26.4854 825.891 26.3243 825.891 Q25.7124 825.891 25.5514 826.278 Q25.3581 826.632 25.2615 827.663 L25.1327 830.175 Q25.1327 830.947 25.1005 831.27 Q25.0683 831.559 24.9073 831.785 Q24.7462 832.01 24.392 832.01 Q23.4902 832.01 23.297 831.624 Q23.0715 831.237 23.0715 830.11 L23.0715 811.302 Q23.0715 804.893 25.8734 800.835 Q28.6754 796.745 32.9587 796.745 Q34.8911 796.745 36.6946 797.614 Q38.4981 798.484 39.9152 799.933 Q41.3323 801.35 42.5239 803.25 Q43.6833 805.151 44.4884 807.18 Q45.2614 809.176 45.7123 811.238 Q46.0343 810.336 46.5174 809.498 Q47.0005 808.629 47.9023 807.534 Q48.804 806.407 50.2533 805.73 Q51.7025 805.054 53.4739 805.054 Q54.7299 805.054 56.5978 805.312 Q61.9118 805.956 64.1018 805.956 Q66.1952 805.956 67.1614 805.408 Q68.1275 804.861 68.1275 803.315 Q68.1275 801.801 66.7749 800.126 Q65.39 798.42 62.1372 797.325 Q61.2033 797.067 61.2033 796.455 Q61.2033 796.423 61.2033 796.391 Q61.2033 796.326 61.2677 796.197 Q61.2999 796.069 61.3965 795.972 Q61.4609 795.843 61.6219 795.779 Q61.783 795.682 62.0084 795.682 Z" fill="#000000" fill-rule="nonzero" fill-opacity="1" /><path clip-path="url(#clip650)" d="M84.6169 769.995 L18.6593 769.995 L18.6593 760.044 L20.173 760.044 L20.173 765.583 L83.1033 765.583 L83.1033 760.044 L84.6169 760.044 L84.6169 769.995 Z" fill="#000000" fill-rule="nonzero" fill-opacity="1" /><path clip-path="url(#clip650)" d="M68.1275 751.845 L66.0986 751.845 Q66.0986 748.335 65.6799 747.53 Q65.229 746.724 63.1034 746.724 L45.4224 746.724 Q42.9748 746.724 42.3628 747.594 Q41.7509 748.431 41.7509 751.845 L39.6898 751.845 L38.9812 742.57 L45.9055 742.57 Q38.9812 739.478 38.9812 732.812 Q38.9812 725.082 45.4224 724.019 Q42.9103 722.892 40.9458 720.541 Q38.9812 718.158 38.9812 714.454 Q38.9812 709.495 41.4289 707.53 Q43.0714 706.081 44.9071 705.791 Q46.7428 705.501 51.5093 705.501 L64.1018 705.501 Q65.4867 705.437 65.8087 704.374 Q66.0986 703.311 66.0986 700.348 L68.1275 700.348 Q67.9343 707.079 67.9343 707.723 Q67.9343 708.238 68.1275 715.195 L66.0986 715.195 Q66.0986 711.685 65.6799 710.879 Q65.229 710.042 63.1034 710.042 L47.7412 710.042 Q44.3918 710.042 42.4273 711.073 Q40.4305 712.103 40.4305 714.937 Q40.4305 718.351 43.2968 721.089 Q46.1631 723.826 50.994 723.826 L63.1034 723.826 Q65.229 723.826 65.6799 723.021 Q66.0986 722.184 66.0986 718.673 L68.1275 718.673 Q67.9343 725.404 67.9343 726.081 Q67.9343 726.596 68.1275 733.52 L66.0986 733.52 Q66.0986 730.01 65.6799 729.204 Q65.229 728.367 63.1034 728.367 L47.7412 728.367 Q44.3918 728.367 42.4273 729.398 Q40.4305 730.428 40.4305 733.262 Q40.4305 736.676 43.2968 739.414 Q46.1631 742.151 50.994 742.151 L63.1034 742.151 Q65.229 742.151 65.6799 741.346 Q66.0986 740.509 66.0986 737.031 L68.1275 737.031 Q67.9343 743.762 67.9343 744.406 Q67.9343 744.921 68.1275 751.845 Z" fill="#000000" fill-rule="nonzero" fill-opacity="1" /><path clip-path="url(#clip650)" d="M68.1275 697.722 L66.0986 697.722 Q66.0986 694.212 65.6799 693.407 Q65.229 692.602 63.1034 692.602 L45.4224 692.602 Q42.9748 692.602 42.3628 693.471 Q41.7509 694.308 41.7509 697.722 L39.6898 697.722 L38.9812 688.447 L45.9055 688.447 Q38.9812 685.355 38.9812 678.689 Q38.9812 670.959 45.4224 669.896 Q42.9103 668.769 40.9458 666.418 Q38.9812 664.035 38.9812 660.331 Q38.9812 655.372 41.4289 653.407 Q43.0714 651.958 44.9071 651.668 Q46.7428 651.378 51.5093 651.378 L64.1018 651.378 Q65.4867 651.314 65.8087 650.251 Q66.0986 649.188 66.0986 646.225 L68.1275 646.225 Q67.9343 652.956 67.9343 653.6 Q67.9343 654.116 68.1275 661.072 L66.0986 661.072 Q66.0986 657.562 65.6799 656.756 Q65.229 655.919 63.1034 655.919 L47.7412 655.919 Q44.3918 655.919 42.4273 656.95 Q40.4305 657.98 40.4305 660.814 Q40.4305 664.228 43.2968 666.966 Q46.1631 669.703 50.994 669.703 L63.1034 669.703 Q65.229 669.703 65.6799 668.898 Q66.0986 668.061 66.0986 664.55 L68.1275 664.55 Q67.9343 671.281 67.9343 671.958 Q67.9343 672.473 68.1275 679.397 L66.0986 679.397 Q66.0986 675.887 65.6799 675.082 Q65.229 674.244 63.1034 674.244 L47.7412 674.244 Q44.3918 674.244 42.4273 675.275 Q40.4305 676.305 40.4305 679.14 Q40.4305 682.553 43.2968 685.291 Q46.1631 688.028 50.994 688.028 L63.1034 688.028 Q65.229 688.028 65.6799 687.223 Q66.0986 686.386 66.0986 682.908 L68.1275 682.908 Q67.9343 689.639 67.9343 690.283 Q67.9343 690.798 68.1275 697.722 Z" fill="#000000" fill-rule="nonzero" fill-opacity="1" /><path clip-path="url(#clip650)" d="M83.1033 643.335 L83.1033 637.796 L20.173 637.796 L20.173 643.335 L18.6593 643.335 L18.6593 633.384 L84.6169 633.384 L84.6169 643.335 L83.1033 643.335 Z" fill="#000000" fill-rule="nonzero" fill-opacity="1" /><polyline clip-path="url(#clip652)" style="stroke:#0000ff; stroke-linecap:round; stroke-linejoin:round; stroke-width:4; stroke-opacity:1; fill:none" points="205.121,1420.71 219.103,1416.39 348.39,1376.45 426.085,1352.45 491.776,1332.15 563.135,1310.11 628.921,1289.78 699.451,1268 781.166,1242.75 853.786,1220.32 917.466,1200.64 986.895,1179.19 1056.74,1157.62 1133.96,1133.76 1207.43,1111.07 1283.82,1087.47 1348.13,1067.6 1426.64,1043.34 1498.56,1021.13 1564.99,1000.61 1632.27,979.819 1707.68,956.522 1776.02,935.412 1854.25,911.243 1926.69,888.864 1998.11,866.801 2067.45,845.379 2138.53,823.42 2216.41,799.36 2329.55,764.41 2352.76,757.24 "/>
<polyline clip-path="url(#clip652)" style="stroke:#ffa500; stroke-linecap:round; stroke-linejoin:round; stroke-width:4; stroke-opacity:1; fill:none" points="205.121,1420.71 219.103,1415.54 348.39,1367.79 426.085,1339.1 491.776,1314.84 563.135,1288.48 628.921,1264.18 699.451,1238.14 781.166,1207.96 853.786,1181.13 917.466,1157.62 986.895,1131.97 1056.74,1106.18 1133.96,1077.66 1207.43,1050.52 1283.82,1022.31 1348.13,998.558 1426.64,969.561 1498.56,942.998 1564.99,918.465 1632.27,893.614 1707.68,865.763 1776.02,840.525 1854.25,811.63 1926.69,784.875 1998.11,758.498 2067.45,732.889 2138.53,706.635 2216.41,677.872 2329.55,636.088 2352.76,627.516 "/>
<polyline clip-path="url(#clip652)" style="stroke:#000000; stroke-linecap:round; stroke-linejoin:round; stroke-width:4; stroke-opacity:1; fill:none" points="1208.79,984.591 2024.87,984.591 "/>
<line clip-path="url(#clip652)" x1="1208.79" y1="1000.59" x2="1208.79" y2="968.591" style="stroke:#0000ff; stroke-width:4; stroke-opacity:1"/>
<line clip-path="url(#clip652)" x1="2024.87" y1="1000.59" x2="2024.87" y2="968.591" style="stroke:#0000ff; stroke-width:4; stroke-opacity:1"/>
<polyline clip-path="url(#clip652)" style="stroke:#000000; stroke-linecap:round; stroke-linejoin:round; stroke-width:4; stroke-opacity:1; fill:none" points="1616.83,1001.85 1616.83,967.329 "/>
<line clip-path="url(#clip652)" x1="1632.83" y1="1001.85" x2="1600.83" y2="1001.85" style="stroke:#0000ff; stroke-width:4; stroke-opacity:1"/>
<line clip-path="url(#clip652)" x1="1632.83" y1="967.329" x2="1600.83" y2="967.329" style="stroke:#0000ff; stroke-width:4; stroke-opacity:1"/>
<circle clip-path="url(#clip652)" cx="1616.83" cy="984.591" r="14.4" fill="#0000ff" fill-rule="evenodd" fill-opacity="1" stroke="#000000" stroke-opacity="1" stroke-width="3.2"/>
<polyline clip-path="url(#clip652)" style="stroke:#000000; stroke-linecap:round; stroke-linejoin:round; stroke-width:4; stroke-opacity:1; fill:none" points="1312.98,915.918 1830.79,915.918 "/>
<line clip-path="url(#clip652)" x1="1312.98" y1="931.918" x2="1312.98" y2="899.918" style="stroke:#ffa500; stroke-width:4; stroke-opacity:1"/>
<line clip-path="url(#clip652)" x1="1830.79" y1="931.918" x2="1830.79" y2="899.918" style="stroke:#ffa500; stroke-width:4; stroke-opacity:1"/>
<polyline clip-path="url(#clip652)" style="stroke:#000000; stroke-linecap:round; stroke-linejoin:round; stroke-width:4; stroke-opacity:1; fill:none" points="1571.88,933.179 1571.88,898.656 "/>
<line clip-path="url(#clip652)" x1="1587.88" y1="933.179" x2="1555.88" y2="933.179" style="stroke:#ffa500; stroke-width:4; stroke-opacity:1"/>
<line clip-path="url(#clip652)" x1="1587.88" y1="898.656" x2="1555.88" y2="898.656" style="stroke:#ffa500; stroke-width:4; stroke-opacity:1"/>
<circle clip-path="url(#clip652)" cx="1571.88" cy="915.918" r="14.4" fill="#ffa500" fill-rule="evenodd" fill-opacity="1" stroke="#000000" stroke-opacity="1" stroke-width="3.2"/>
<polyline clip-path="url(#clip652)" style="stroke:#008000; stroke-linecap:round; stroke-linejoin:round; stroke-width:4; stroke-opacity:1; fill:none" points="205.121,1420.71 219.103,1412.09 348.39,1332.41 426.085,1284.52 491.776,1244.04 563.135,1200.06 628.921,1159.51 699.451,1116.04 781.166,1065.68 853.786,1020.92 917.466,981.673 986.895,938.882 1056.74,895.837 1133.96,848.245 1207.43,802.963 1283.82,755.879 1348.13,716.245 1426.64,667.857 1498.56,623.53 1564.99,582.59 1632.27,541.12 1707.68,494.643 1776.02,452.528 1854.25,404.309 1926.69,359.662 1998.11,315.646 2067.45,272.909 2138.53,229.099 2216.41,181.1 2329.55,111.374 2352.76,97.069 "/>
<polyline clip-path="url(#clip652)" style="stroke:#0000ff; stroke-linecap:round; stroke-linejoin:round; stroke-width:4; stroke-opacity:1; fill:none" stroke-dasharray="16, 10" points="1616.83,1420.71 1616.83,550.641 "/>
<polyline clip-path="url(#clip652)" style="stroke:#ffa500; stroke-linecap:round; stroke-linejoin:round; stroke-width:4; stroke-opacity:1; fill:none" stroke-dasharray="16, 10" points="1571.88,1420.71 1571.88,578.339 "/>
<polyline clip-path="url(#clip652)" style="stroke:#40e0d0; stroke-linecap:round; stroke-linejoin:round; stroke-width:4; stroke-opacity:1; fill:none" stroke-dasharray="16, 10" points="912.731,1420.71 912.731,984.591 "/>
<polyline clip-path="url(#clip652)" style="stroke:#a52a2a; stroke-linecap:round; stroke-linejoin:round; stroke-width:4; stroke-opacity:1; fill:none" stroke-dasharray="16, 10" points="1024.16,1420.71 1024.16,915.918 "/>
<polyline clip-path="url(#clip652)" style="stroke:#0000ff; stroke-linecap:round; stroke-linejoin:round; stroke-width:4; stroke-opacity:1; fill:none" stroke-dasharray="16, 10" points="205.121,984.591 1616.83,984.591 "/>
<polyline clip-path="url(#clip652)" style="stroke:#ffa500; stroke-linecap:round; stroke-linejoin:round; stroke-width:4; stroke-opacity:1; fill:none" stroke-dasharray="16, 10" points="205.121,915.918 1571.88,915.918 "/>
<polyline clip-path="url(#clip652)" style="stroke:#40e0d0; stroke-linecap:round; stroke-linejoin:round; stroke-width:4; stroke-opacity:1; fill:none" stroke-dasharray="16, 10" points="205.121,550.641 1616.83,550.641 "/>
<polyline clip-path="url(#clip652)" style="stroke:#a52a2a; stroke-linecap:round; stroke-linejoin:round; stroke-width:4; stroke-opacity:1; fill:none" stroke-dasharray="16, 10" points="205.121,578.339 1571.88,578.339 "/>
<path clip-path="url(#clip650)" d="M276.709 196.706 L1571.17 196.706 L1571.17 93.0262 L276.709 93.0262  Z" fill="#ffffff" fill-rule="evenodd" fill-opacity="1"/>
<polyline clip-path="url(#clip650)" style="stroke:#000000; stroke-linecap:round; stroke-linejoin:round; stroke-width:4; stroke-opacity:1; fill:none" points="276.709,196.706 1571.17,196.706 1571.17,93.0262 276.709,93.0262 276.709,196.706 "/>
<polyline clip-path="url(#clip650)" style="stroke:#0000ff; stroke-linecap:round; stroke-linejoin:round; stroke-width:4; stroke-opacity:1; fill:none" points="300.571,144.866 443.747,144.866 "/>
<path clip-path="url(#clip650)" d="M467.61 161.601 L467.61 160.125 Q471.873 160.031 472.973 156.893 L482.905 128.224 Q483.092 127.638 483.303 127.451 Q483.514 127.263 484.052 127.263 Q484.333 127.263 484.497 127.31 Q484.685 127.357 484.802 127.521 Q484.919 127.685 484.966 127.779 Q485.013 127.872 485.153 128.224 L495.506 158.204 Q495.881 159.399 496.654 159.774 Q497.426 160.125 499.605 160.125 L500.448 160.125 L500.448 161.601 Q497.426 161.46 494.171 161.46 Q488.994 161.46 487.261 161.601 L487.261 160.125 Q491.243 160.125 491.243 158.673 Q491.243 158.579 491.102 157.994 L488.573 150.662 L476.721 150.662 L474.496 156.94 Q474.402 157.127 474.402 157.666 Q474.402 158.673 475.339 159.399 Q476.276 160.125 478.009 160.125 L478.009 161.601 Q473.395 161.46 472.482 161.46 Q470.912 161.46 467.61 161.601 M477.236 149.187 L488.034 149.187 L482.623 133.587 L477.236 149.187 Z" fill="#000000" fill-rule="nonzero" fill-opacity="1" /><path clip-path="url(#clip650)" d="M503.427 161.601 L503.427 160.125 Q505.98 160.125 506.565 159.82 Q507.151 159.493 507.151 157.947 L507.151 133.002 Q507.151 131.222 506.518 130.777 Q505.909 130.332 503.427 130.332 L503.427 128.833 L510.313 128.317 L510.313 157.947 Q510.313 159.493 510.922 159.82 Q511.531 160.125 514.06 160.125 L514.06 161.601 Q513.475 161.601 512.257 161.554 Q511.039 161.507 510.149 161.483 Q509.259 161.46 508.744 161.46 Q508.181 161.46 503.427 161.601 Z" fill="#000000" fill-rule="nonzero" fill-opacity="1" /><path clip-path="url(#clip650)" d="M516.193 142.418 L516.193 140.919 L523.243 140.403 L523.243 156.331 Q523.243 157.478 523.337 158.158 Q523.431 158.813 523.806 159.586 Q524.204 160.359 525.094 160.711 Q526.007 161.062 527.46 161.062 Q530.059 161.062 531.652 158.93 Q533.268 156.799 533.268 153.637 L533.268 145.088 Q533.268 143.308 532.636 142.863 Q532.003 142.418 529.521 142.418 L529.521 140.919 L536.571 140.403 L536.571 157.431 Q536.571 159.212 537.18 159.68 Q537.812 160.125 540.318 160.125 L540.318 161.601 L533.409 162.139 L533.409 157.806 Q531.394 162.116 527.225 162.139 Q525.117 162.139 523.665 161.601 Q522.236 161.062 521.51 160.406 Q520.784 159.727 520.386 158.439 Q520.011 157.15 519.964 156.354 Q519.917 155.558 519.917 154.012 L519.917 146.821 Q519.917 143.565 519.449 143.003 Q518.981 142.418 516.193 142.418 Z" fill="#000000" fill-rule="nonzero" fill-opacity="1" /><path clip-path="url(#clip650)" d="M541.965 161.601 L541.965 160.125 Q544.518 160.125 545.104 159.82 Q545.689 159.493 545.689 157.947 L545.689 145.088 Q545.689 143.308 545.057 142.863 Q544.448 142.418 541.965 142.418 L541.965 140.919 L548.711 140.403 L548.711 145.439 Q550.959 140.403 555.808 140.403 Q561.429 140.403 562.202 145.088 Q563.022 143.261 564.732 141.832 Q566.465 140.403 569.158 140.403 Q572.765 140.403 574.194 142.183 Q575.248 143.378 575.459 144.713 Q575.67 146.048 575.67 149.515 L575.67 158.673 Q575.717 159.68 576.49 159.914 Q577.263 160.125 579.417 160.125 L579.417 161.601 Q574.522 161.46 574.054 161.46 Q573.679 161.46 568.62 161.601 L568.62 160.125 Q571.173 160.125 571.758 159.82 Q572.367 159.493 572.367 157.947 L572.367 146.774 Q572.367 144.338 571.618 142.909 Q570.868 141.457 568.807 141.457 Q566.324 141.457 564.333 143.542 Q562.343 145.626 562.343 149.14 L562.343 157.947 Q562.343 159.493 562.928 159.82 Q563.537 160.125 566.09 160.125 L566.09 161.601 Q561.195 161.46 560.703 161.46 Q560.328 161.46 555.292 161.601 L555.292 160.125 Q557.845 160.125 558.431 159.82 Q559.04 159.493 559.04 157.947 L559.04 146.774 Q559.04 144.338 558.29 142.909 Q557.541 141.457 555.48 141.457 Q552.997 141.457 551.006 143.542 Q549.015 145.626 549.015 149.14 L549.015 157.947 Q549.015 159.493 549.601 159.82 Q550.21 160.125 552.739 160.125 L552.739 161.601 Q547.844 161.46 547.376 161.46 Q547.001 161.46 541.965 161.601 Z" fill="#000000" fill-rule="nonzero" fill-opacity="1" /><path clip-path="url(#clip650)" d="M581.318 161.601 L581.318 160.125 Q583.871 160.125 584.456 159.82 Q585.042 159.493 585.042 157.947 L585.042 145.041 Q585.042 143.261 584.433 142.839 Q583.847 142.418 581.505 142.418 L581.505 140.919 L588.204 140.403 L588.204 157.994 Q588.204 159.422 588.719 159.774 Q589.234 160.125 591.577 160.125 L591.577 161.601 Q586.681 161.46 586.588 161.46 Q585.932 161.46 581.318 161.601 M583.332 132.041 Q583.332 131.081 584.058 130.308 Q584.808 129.512 585.862 129.512 Q586.916 129.512 587.665 130.238 Q588.415 130.941 588.415 132.065 Q588.415 133.166 587.665 133.892 Q586.916 134.595 585.862 134.595 Q584.761 134.595 584.035 133.822 Q583.332 133.049 583.332 132.041 Z" fill="#000000" fill-rule="nonzero" fill-opacity="1" /><path clip-path="url(#clip650)" d="M594.852 161.601 L594.852 160.125 Q597.405 160.125 597.991 159.82 Q598.576 159.493 598.576 157.947 L598.576 145.088 Q598.576 143.308 597.944 142.863 Q597.335 142.418 594.852 142.418 L594.852 140.919 L601.598 140.403 L601.598 145.439 Q603.847 140.403 608.695 140.403 Q612.302 140.403 613.731 142.183 Q614.785 143.378 614.996 144.713 Q615.23 146.048 615.23 149.515 L615.23 158.673 Q615.277 159.68 616.05 159.914 Q616.823 160.125 618.977 160.125 L618.977 161.601 Q614.082 161.46 613.59 161.46 Q613.215 161.46 608.18 161.601 L608.18 160.125 Q610.733 160.125 611.318 159.82 Q611.927 159.493 611.927 157.947 L611.927 146.774 Q611.927 144.338 611.178 142.909 Q610.428 141.457 608.367 141.457 Q605.884 141.457 603.893 143.542 Q601.902 145.626 601.902 149.14 L601.902 157.947 Q601.902 159.493 602.488 159.82 Q603.097 160.125 605.627 160.125 L605.627 161.601 Q600.731 161.46 600.263 161.46 Q599.888 161.46 594.852 161.601 Z" fill="#000000" fill-rule="nonzero" fill-opacity="1" /><path clip-path="url(#clip650)" d="M621.392 161.601 L621.392 160.125 Q623.945 160.125 624.531 159.82 Q625.116 159.493 625.116 157.947 L625.116 145.041 Q625.116 143.261 624.507 142.839 Q623.922 142.418 621.579 142.418 L621.579 140.919 L628.278 140.403 L628.278 157.994 Q628.278 159.422 628.793 159.774 Q629.309 160.125 631.651 160.125 L631.651 161.601 Q626.756 161.46 626.662 161.46 Q626.006 161.46 621.392 161.601 M623.406 132.041 Q623.406 131.081 624.132 130.308 Q624.882 129.512 625.936 129.512 Q626.99 129.512 627.739 130.238 Q628.489 130.941 628.489 132.065 Q628.489 133.166 627.739 133.892 Q626.99 134.595 625.936 134.595 Q624.835 134.595 624.109 133.822 Q623.406 133.049 623.406 132.041 Z" fill="#000000" fill-rule="nonzero" fill-opacity="1" /><path clip-path="url(#clip650)" d="M634.927 142.418 L634.927 140.919 L641.977 140.403 L641.977 156.331 Q641.977 157.478 642.07 158.158 Q642.164 158.813 642.539 159.586 Q642.937 160.359 643.827 160.711 Q644.741 161.062 646.193 161.062 Q648.793 161.062 650.385 158.93 Q652.002 156.799 652.002 153.637 L652.002 145.088 Q652.002 143.308 651.369 142.863 Q650.737 142.418 648.254 142.418 L648.254 140.919 L655.304 140.403 L655.304 157.431 Q655.304 159.212 655.913 159.68 Q656.545 160.125 659.052 160.125 L659.052 161.601 L652.142 162.139 L652.142 157.806 Q650.128 162.116 645.959 162.139 Q643.851 162.139 642.398 161.601 Q640.97 161.062 640.243 160.406 Q639.517 159.727 639.119 158.439 Q638.744 157.15 638.698 156.354 Q638.651 155.558 638.651 154.012 L638.651 146.821 Q638.651 143.565 638.182 143.003 Q637.714 142.418 634.927 142.418 Z" fill="#000000" fill-rule="nonzero" fill-opacity="1" /><path clip-path="url(#clip650)" d="M660.698 161.601 L660.698 160.125 Q663.251 160.125 663.837 159.82 Q664.422 159.493 664.422 157.947 L664.422 145.088 Q664.422 143.308 663.79 142.863 Q663.181 142.418 660.698 142.418 L660.698 140.919 L667.444 140.403 L667.444 145.439 Q669.692 140.403 674.541 140.403 Q680.162 140.403 680.935 145.088 Q681.755 143.261 683.465 141.832 Q685.198 140.403 687.892 140.403 Q691.499 140.403 692.928 142.183 Q693.982 143.378 694.192 144.713 Q694.403 146.048 694.403 149.515 L694.403 158.673 Q694.45 159.68 695.223 159.914 Q695.996 160.125 698.151 160.125 L698.151 161.601 Q693.255 161.46 692.787 161.46 Q692.412 161.46 687.353 161.601 L687.353 160.125 Q689.906 160.125 690.492 159.82 Q691.101 159.493 691.101 157.947 L691.101 146.774 Q691.101 144.338 690.351 142.909 Q689.602 141.457 687.54 141.457 Q685.058 141.457 683.067 143.542 Q681.076 145.626 681.076 149.14 L681.076 157.947 Q681.076 159.493 681.661 159.82 Q682.27 160.125 684.823 160.125 L684.823 161.601 Q679.928 161.46 679.436 161.46 Q679.061 161.46 674.026 161.601 L674.026 160.125 Q676.579 160.125 677.164 159.82 Q677.773 159.493 677.773 157.947 L677.773 146.774 Q677.773 144.338 677.024 142.909 Q676.274 141.457 674.213 141.457 Q671.73 141.457 669.739 143.542 Q667.748 145.626 667.748 149.14 L667.748 157.947 Q667.748 159.493 668.334 159.82 Q668.943 160.125 671.473 160.125 L671.473 161.601 Q666.577 161.46 666.109 161.46 Q665.734 161.46 660.698 161.601 Z" fill="#000000" fill-rule="nonzero" fill-opacity="1" /><polyline clip-path="url(#clip650)" style="stroke:#ffa500; stroke-linecap:round; stroke-linejoin:round; stroke-width:4; stroke-opacity:1; fill:none" points="724.106,144.866 867.281,144.866 "/>
<path clip-path="url(#clip650)" d="M896.063 157.056 Q891.144 151.974 891.144 144.689 Q891.144 137.381 896.109 132.322 Q901.075 127.263 907.821 127.263 Q909.507 127.263 910.936 127.661 Q912.388 128.036 913.536 128.809 Q914.683 129.558 915.269 130.074 Q915.878 130.566 916.698 131.385 L919.11 127.849 Q919.485 127.263 919.86 127.263 Q920.258 127.263 920.328 127.497 Q920.398 127.708 920.398 128.411 L920.398 139.794 Q920.398 140.567 920.305 140.754 Q920.211 140.942 919.625 140.942 Q919.157 140.942 919.063 140.801 Q918.97 140.661 918.853 140.122 Q918.126 134.946 915.222 131.854 Q912.341 128.762 908.406 128.762 Q907.258 128.762 905.97 129.02 Q904.705 129.277 902.832 130.261 Q900.981 131.245 899.552 132.861 Q898.147 134.454 897.117 137.545 Q896.086 140.614 896.086 144.689 Q896.086 148.718 897.117 151.81 Q898.147 154.901 899.576 156.518 Q901.028 158.11 902.902 159.117 Q904.799 160.125 906.134 160.406 Q907.493 160.663 908.687 160.663 Q909.507 160.663 910.467 160.499 Q911.428 160.312 912.856 159.797 Q914.309 159.258 915.222 157.993 Q916.136 156.728 916.136 154.855 L916.136 151.786 Q916.136 150.357 915.433 149.912 Q914.73 149.467 911.662 149.467 L910.139 149.467 L910.139 147.992 Q911.873 148.132 917.845 148.132 Q918.384 148.132 923.701 147.992 L923.701 149.467 Q921.406 149.467 920.89 149.819 Q920.398 150.147 920.398 151.575 L920.398 159.937 Q920.398 161.038 919.977 161.038 Q919.602 161.038 918.478 159.961 Q917.377 158.883 916.885 158.063 Q915.737 160.078 913.231 161.108 Q910.748 162.139 907.914 162.139 Q901.005 162.139 896.063 157.056 Z" fill="#000000" fill-rule="nonzero" fill-opacity="1" /><path clip-path="url(#clip650)" d="M931.147 158.509 Q927.985 155.37 927.985 150.826 Q927.985 146.259 931.077 142.933 Q934.192 139.583 938.642 139.583 Q942.999 139.583 946.114 142.909 Q949.253 146.212 949.253 150.826 Q949.253 155.346 946.091 158.485 Q942.952 161.624 938.596 161.624 Q934.333 161.624 931.147 158.509 M931.967 150.428 Q931.967 155.089 933.185 157.197 Q935.059 160.406 938.642 160.406 Q940.422 160.406 941.898 159.445 Q943.397 158.485 944.217 156.869 Q945.271 154.761 945.271 150.428 Q945.271 145.814 944.006 143.776 Q942.132 140.661 938.596 140.661 Q937.05 140.661 935.527 141.48 Q934.028 142.277 933.115 143.869 Q931.967 145.978 931.967 150.428 Z" fill="#000000" fill-rule="nonzero" fill-opacity="1" /><path clip-path="url(#clip650)" d="M951.735 161.085 L951.735 159.609 Q954.288 159.609 954.874 159.305 Q955.459 158.977 955.459 157.431 L955.459 132.486 Q955.459 130.706 954.827 130.261 Q954.218 129.816 951.735 129.816 L951.735 128.317 L958.621 127.802 L958.621 157.431 Q958.621 158.977 959.23 159.305 Q959.839 159.609 962.369 159.609 L962.369 161.085 Q961.783 161.085 960.565 161.038 Q959.347 160.991 958.457 160.968 Q957.567 160.944 957.052 160.944 Q956.49 160.944 951.735 161.085 Z" fill="#000000" fill-rule="nonzero" fill-opacity="1" /><path clip-path="url(#clip650)" d="M966.422 150.779 Q966.422 146.212 969.607 143.05 Q972.793 139.888 977.102 139.888 Q980.756 139.888 983.145 142.862 L983.145 132.486 Q983.145 130.706 982.513 130.261 Q981.904 129.816 979.421 129.816 L979.421 128.317 L986.331 127.802 L986.331 156.916 Q986.331 158.696 986.94 159.164 Q987.572 159.609 990.055 159.609 L990.055 161.085 L983.005 161.624 L983.005 158.438 Q980.522 161.6 976.587 161.624 Q972.465 161.624 969.443 158.462 Q966.422 155.3 966.422 150.779 M970.404 150.826 Q970.404 155.276 971.786 157.478 Q973.706 160.546 976.821 160.546 Q980.382 160.546 982.49 157.197 Q983.028 156.377 983.005 155.417 L983.005 145.579 Q983.005 144.619 982.49 143.823 Q980.522 140.942 977.313 140.942 Q973.964 140.942 971.879 144.01 Q970.404 146.305 970.404 150.826 Z" fill="#000000" fill-rule="nonzero" fill-opacity="1" /><polyline clip-path="url(#clip650)" style="stroke:#008000; stroke-linecap:round; stroke-linejoin:round; stroke-width:4; stroke-opacity:1; fill:none" points="1147.64,144.866 1290.82,144.866 "/>
<path clip-path="url(#clip650)" d="M1317.84 158.501 Q1314.68 155.362 1314.68 150.818 Q1314.68 146.251 1317.77 142.925 Q1320.88 139.575 1325.34 139.575 Q1329.69 139.575 1332.81 142.901 Q1335.95 146.204 1335.95 150.818 Q1335.95 155.339 1332.78 158.477 Q1329.64 161.616 1325.29 161.616 Q1321.03 161.616 1317.84 158.501 M1318.66 150.42 Q1318.66 155.081 1319.88 157.189 Q1321.75 160.398 1325.34 160.398 Q1327.12 160.398 1328.59 159.438 Q1330.09 158.477 1330.91 156.861 Q1331.96 154.753 1331.96 150.42 Q1331.96 145.806 1330.7 143.768 Q1328.83 140.653 1325.29 140.653 Q1323.74 140.653 1322.22 141.473 Q1320.72 142.269 1319.81 143.862 Q1318.66 145.97 1318.66 150.42 Z" fill="#000000" fill-rule="nonzero" fill-opacity="1" /><path clip-path="url(#clip650)" d="M1338.43 161.077 L1338.43 159.602 Q1340.98 159.602 1341.57 159.297 Q1342.15 158.969 1342.15 157.423 L1342.15 132.478 Q1342.15 130.698 1341.52 130.253 Q1340.91 129.808 1338.43 129.808 L1338.43 128.309 L1345.31 127.794 L1345.31 144.471 L1345.36 144.471 Q1346.13 142.737 1347.87 141.309 Q1349.6 139.88 1352.27 139.88 Q1355.88 139.88 1357.31 141.66 Q1358.36 142.855 1358.57 144.19 Q1358.81 145.525 1358.81 148.991 L1358.81 158.149 Q1358.85 159.157 1359.63 159.391 Q1360.4 159.602 1362.55 159.602 L1362.55 161.077 Q1357.66 160.937 1357.17 160.937 Q1356.79 160.937 1351.76 161.077 L1351.76 159.602 Q1354.31 159.602 1354.89 159.297 Q1355.5 158.969 1355.5 157.423 L1355.5 146.251 Q1355.5 143.815 1354.75 142.386 Q1354 140.934 1351.94 140.934 Q1349.46 140.934 1347.47 143.018 Q1345.48 145.103 1345.48 148.616 L1345.48 157.423 Q1345.48 158.969 1346.06 159.297 Q1346.67 159.602 1349.2 159.602 L1349.2 161.077 Q1344.31 160.937 1343.84 160.937 Q1343.46 160.937 1338.43 161.077 Z" fill="#000000" fill-rule="nonzero" fill-opacity="1" /><path clip-path="url(#clip650)" d="M1363.24 161.077 L1363.24 159.602 Q1365.79 159.602 1366.38 159.297 Q1366.96 158.969 1366.96 157.423 L1366.96 144.564 Q1366.96 142.784 1366.33 142.339 Q1365.72 141.894 1363.24 141.894 L1363.24 140.395 L1369.99 139.88 L1369.99 144.916 Q1372.23 139.88 1377.08 139.88 Q1380.69 139.88 1382.12 141.66 Q1383.17 142.855 1383.38 144.19 Q1383.62 145.525 1383.62 148.991 L1383.62 158.149 Q1383.66 159.157 1384.44 159.391 Q1385.21 159.602 1387.36 159.602 L1387.36 161.077 Q1382.47 160.937 1381.98 160.937 Q1381.6 160.937 1376.57 161.077 L1376.57 159.602 Q1379.12 159.602 1379.71 159.297 Q1380.31 158.969 1380.31 157.423 L1380.31 146.251 Q1380.31 143.815 1379.57 142.386 Q1378.82 140.934 1376.75 140.934 Q1374.27 140.934 1372.28 143.018 Q1370.29 145.103 1370.29 148.616 L1370.29 157.423 Q1370.29 158.969 1370.88 159.297 Q1371.48 159.602 1374.01 159.602 L1374.01 161.077 Q1369.12 160.937 1368.65 160.937 Q1368.28 160.937 1363.24 161.077 Z" fill="#000000" fill-rule="nonzero" fill-opacity="1" /><path clip-path="url(#clip650)" d="M1390.93 150.514 Q1390.93 145.993 1393.84 142.784 Q1396.74 139.575 1400.91 139.575 Q1405.13 139.575 1407.3 142.316 Q1409.51 145.056 1409.51 148.991 Q1409.51 149.717 1409.32 149.858 Q1409.13 149.998 1408.31 149.998 L1394.91 149.998 Q1394.91 154.894 1396.37 157.189 Q1398.38 160.398 1401.78 160.398 Q1402.24 160.398 1402.81 160.304 Q1403.37 160.211 1404.52 159.812 Q1405.66 159.391 1406.67 158.29 Q1407.68 157.189 1408.26 155.456 Q1408.4 154.777 1408.87 154.8 Q1409.51 154.8 1409.51 155.362 Q1409.51 155.784 1409.04 156.744 Q1408.59 157.681 1407.73 158.805 Q1406.86 159.929 1405.17 160.773 Q1403.51 161.616 1401.49 161.616 Q1397.28 161.616 1394.09 158.43 Q1390.93 155.222 1390.93 150.514 M1394.96 148.991 L1406.34 148.991 Q1406.34 147.984 1406.16 146.86 Q1405.99 145.735 1405.48 144.19 Q1404.98 142.62 1403.81 141.637 Q1402.64 140.653 1400.91 140.653 Q1400.14 140.653 1399.29 140.981 Q1398.47 141.309 1397.47 142.105 Q1396.46 142.901 1395.76 144.705 Q1395.05 146.508 1394.96 148.991 Z" fill="#000000" fill-rule="nonzero" fill-opacity="1" /><path clip-path="url(#clip650)" d="M1424.69 161.077 L1424.69 159.602 L1425.83 159.602 Q1428.43 159.602 1429.02 159.18 Q1429.63 158.735 1429.63 157.33 L1429.63 132.197 Q1429.63 130.815 1429.02 130.394 Q1428.41 129.949 1425.83 129.949 L1424.69 129.949 L1424.69 128.45 L1451.01 128.45 L1452.35 139.247 L1451.15 139.247 Q1450.82 136.507 1450.38 134.961 Q1449.96 133.392 1448.97 132.15 Q1447.99 130.909 1446.33 130.441 Q1444.69 129.949 1441.99 129.949 L1436.23 129.949 Q1434.59 129.949 1434.24 130.3 Q1433.89 130.628 1433.89 131.869 L1433.89 144.002 L1438.01 144.002 Q1441.27 144.002 1442.18 142.831 Q1443.1 141.66 1443.1 138.381 L1444.29 138.381 L1444.29 151.099 L1443.1 151.099 Q1443.1 147.797 1442.18 146.649 Q1441.27 145.478 1438.01 145.478 L1433.89 145.478 L1433.89 157.283 Q1433.89 158.29 1434.05 158.688 Q1434.22 159.063 1435.23 159.344 Q1436.23 159.602 1438.43 159.602 L1440.03 159.602 L1440.03 161.077 Q1438.29 160.937 1431.97 160.937 Q1426.37 160.937 1424.69 161.077 Z" fill="#000000" fill-rule="nonzero" fill-opacity="1" /><path clip-path="url(#clip650)" d="M1463.48 158.501 Q1460.32 155.362 1460.32 150.818 Q1460.32 146.251 1463.41 142.925 Q1466.53 139.575 1470.98 139.575 Q1475.33 139.575 1478.45 142.901 Q1481.59 146.204 1481.59 150.818 Q1481.59 155.339 1478.42 158.477 Q1475.29 161.616 1470.93 161.616 Q1466.67 161.616 1463.48 158.501 M1464.3 150.42 Q1464.3 155.081 1465.52 157.189 Q1467.39 160.398 1470.98 160.398 Q1472.76 160.398 1474.23 159.438 Q1475.73 158.477 1476.55 156.861 Q1477.6 154.753 1477.6 150.42 Q1477.6 145.806 1476.34 143.768 Q1474.47 140.653 1470.93 140.653 Q1469.38 140.653 1467.86 141.473 Q1466.36 142.269 1465.45 143.862 Q1464.3 145.97 1464.3 150.42 Z" fill="#000000" fill-rule="nonzero" fill-opacity="1" /><path clip-path="url(#clip650)" d="M1484.07 161.077 L1484.07 159.602 Q1486.62 159.602 1487.21 159.297 Q1487.79 158.969 1487.79 157.423 L1487.79 132.478 Q1487.79 130.698 1487.16 130.253 Q1486.55 129.808 1484.07 129.808 L1484.07 128.309 L1490.96 127.794 L1490.96 157.423 Q1490.96 158.969 1491.56 159.297 Q1492.17 159.602 1494.7 159.602 L1494.7 161.077 Q1494.12 161.077 1492.9 161.03 Q1491.68 160.983 1490.79 160.96 Q1489.9 160.937 1489.39 160.937 Q1488.82 160.937 1484.07 161.077 Z" fill="#000000" fill-rule="nonzero" fill-opacity="1" /><path clip-path="url(#clip650)" d="M1496.84 161.077 L1496.84 159.602 Q1499.39 159.602 1499.97 159.297 Q1500.56 158.969 1500.56 157.423 L1500.56 144.517 Q1500.56 142.737 1499.95 142.316 Q1499.37 141.894 1497.02 141.894 L1497.02 140.395 L1503.72 139.88 L1503.72 157.47 Q1503.72 158.899 1504.24 159.25 Q1504.75 159.602 1507.09 159.602 L1507.09 161.077 Q1502.2 160.937 1502.11 160.937 Q1501.45 160.937 1496.84 161.077 M1498.85 131.518 Q1498.85 130.558 1499.58 129.785 Q1500.33 128.988 1501.38 128.988 Q1502.43 128.988 1503.18 129.715 Q1503.93 130.417 1503.93 131.541 Q1503.93 132.642 1503.18 133.368 Q1502.43 134.071 1501.38 134.071 Q1500.28 134.071 1499.55 133.298 Q1498.85 132.525 1498.85 131.518 Z" fill="#000000" fill-rule="nonzero" fill-opacity="1" /><path clip-path="url(#clip650)" d="M1511.33 150.514 Q1511.33 145.993 1514.23 142.784 Q1517.14 139.575 1521.31 139.575 Q1525.52 139.575 1527.7 142.316 Q1529.9 145.056 1529.9 148.991 Q1529.9 149.717 1529.72 149.858 Q1529.53 149.998 1528.71 149.998 L1515.31 149.998 Q1515.31 154.894 1516.76 157.189 Q1518.78 160.398 1522.18 160.398 Q1522.64 160.398 1523.21 160.304 Q1523.77 160.211 1524.92 159.812 Q1526.06 159.391 1527.07 158.29 Q1528.08 157.189 1528.66 155.456 Q1528.8 154.777 1529.27 154.8 Q1529.9 154.8 1529.9 155.362 Q1529.9 155.784 1529.44 156.744 Q1528.99 157.681 1528.12 158.805 Q1527.26 159.929 1525.57 160.773 Q1523.91 161.616 1521.89 161.616 Q1517.68 161.616 1514.49 158.43 Q1511.33 155.222 1511.33 150.514 M1515.36 148.991 L1526.74 148.991 Q1526.74 147.984 1526.55 146.86 Q1526.39 145.735 1525.88 144.19 Q1525.38 142.62 1524.21 141.637 Q1523.04 140.653 1521.31 140.653 Q1520.54 140.653 1519.69 140.981 Q1518.87 141.309 1517.87 142.105 Q1516.86 142.901 1516.16 144.705 Q1515.45 146.508 1515.36 148.991 Z" fill="#000000" fill-rule="nonzero" fill-opacity="1" /></svg>
