<?xml version="1.0" encoding="utf-8"?>
<svg xmlns="http://www.w3.org/2000/svg" xmlns:xlink="http://www.w3.org/1999/xlink" width="600" height="400" viewBox="0 0 2400 1600">
<defs>
  <clipPath id="clip510">
    <rect x="0" y="0" width="2400" height="1600"/>
  </clipPath>
</defs>
<path clip-path="url(#clip510)" d="M0 1600 L2400 1600 L2400 0 L0 0  Z" fill="#ffffff" fill-rule="evenodd" fill-opacity="1"/>
<defs>
  <clipPath id="clip511">
    <rect x="480" y="0" width="1681" height="1600"/>
  </clipPath>
</defs>
<path clip-path="url(#clip510)" d="M235.283 1423.18 L2352.76 1423.18 L2352.76 47.2441 L235.283 47.2441  Z" fill="#ffffff" fill-rule="evenodd" fill-opacity="1"/>
<defs>
  <clipPath id="clip512">
    <rect x="235" y="47" width="2118" height="1377"/>
  </clipPath>
</defs>
<polyline clip-path="url(#clip512)" style="stroke:#000000; stroke-linecap:round; stroke-linejoin:round; stroke-width:2; stroke-opacity:0.1; fill:none" points="235.283,1423.18 235.283,47.2441 "/>
<polyline clip-path="url(#clip512)" style="stroke:#000000; stroke-linecap:round; stroke-linejoin:round; stroke-width:2; stroke-opacity:0.1; fill:none" points="739.443,1423.18 739.443,47.2441 "/>
<polyline clip-path="url(#clip512)" style="stroke:#000000; stroke-linecap:round; stroke-linejoin:round; stroke-width:2; stroke-opacity:0.1; fill:none" points="1243.6,1423.18 1243.6,47.2441 "/>
<polyline clip-path="url(#clip512)" style="stroke:#000000; stroke-linecap:round; stroke-linejoin:round; stroke-width:2; stroke-opacity:0.1; fill:none" points="1747.76,1423.18 1747.76,47.2441 "/>
<polyline clip-path="url(#clip512)" style="stroke:#000000; stroke-linecap:round; stroke-linejoin:round; stroke-width:2; stroke-opacity:0.1; fill:none" points="2251.92,1423.18 2251.92,47.2441 "/>
<polyline clip-path="url(#clip510)" style="stroke:#000000; stroke-linecap:round; stroke-linejoin:round; stroke-width:4; stroke-opacity:1; fill:none" points="235.283,1423.18 2352.76,1423.18 "/>
<polyline clip-path="url(#clip510)" style="stroke:#000000; stroke-linecap:round; stroke-linejoin:round; stroke-width:4; stroke-opacity:1; fill:none" points="235.283,1423.18 235.283,1404.28 "/>
<polyline clip-path="url(#clip510)" style="stroke:#000000; stroke-linecap:round; stroke-linejoin:round; stroke-width:4; stroke-opacity:1; fill:none" points="739.443,1423.18 739.443,1404.28 "/>
<polyline clip-path="url(#clip510)" style="stroke:#000000; stroke-linecap:round; stroke-linejoin:round; stroke-width:4; stroke-opacity:1; fill:none" points="1243.6,1423.18 1243.6,1404.28 "/>
<polyline clip-path="url(#clip510)" style="stroke:#000000; stroke-linecap:round; stroke-linejoin:round; stroke-width:4; stroke-opacity:1; fill:none" points="1747.76,1423.18 1747.76,1404.28 "/>
<polyline clip-path="url(#clip510)" style="stroke:#000000; stroke-linecap:round; stroke-linejoin:round; stroke-width:4; stroke-opacity:1; fill:none" points="2251.92,1423.18 2251.92,1404.28 "/>
<path clip-path="url(#clip510)" d="M235.283 1454.1 Q231.672 1454.1 229.843 1457.66 Q228.038 1461.2 228.038 1468.33 Q228.038 1475.44 229.843 1479.01 Q231.672 1482.55 235.283 1482.55 Q238.917 1482.55 240.723 1479.01 Q242.551 1475.44 242.551 1468.33 Q242.551 1461.2 240.723 1457.66 Q238.917 1454.1 235.283 1454.1 M235.283 1450.39 Q241.093 1450.39 244.149 1455 Q247.227 1459.58 247.227 1468.33 Q247.227 1477.06 244.149 1481.67 Q241.093 1486.25 235.283 1486.25 Q229.473 1486.25 226.394 1481.67 Q223.338 1477.06 223.338 1468.33 Q223.338 1459.58 226.394 1455 Q229.473 1450.39 235.283 1450.39 Z" fill="#000000" fill-rule="nonzero" fill-opacity="1" /><path clip-path="url(#clip510)" d="M703.135 1481.64 L719.455 1481.64 L719.455 1485.58 L697.51 1485.58 L697.51 1481.64 Q700.172 1478.89 704.756 1474.26 Q709.362 1469.61 710.543 1468.27 Q712.788 1465.74 713.668 1464.01 Q714.571 1462.25 714.571 1460.56 Q714.571 1457.8 712.626 1456.07 Q710.705 1454.33 707.603 1454.33 Q705.404 1454.33 702.95 1455.09 Q700.52 1455.86 697.742 1457.41 L697.742 1452.69 Q700.566 1451.55 703.02 1450.97 Q705.473 1450.39 707.51 1450.39 Q712.881 1450.39 716.075 1453.08 Q719.27 1455.77 719.27 1460.26 Q719.27 1462.39 718.459 1464.31 Q717.672 1466.2 715.566 1468.8 Q714.987 1469.47 711.885 1472.69 Q708.784 1475.88 703.135 1481.64 Z" fill="#000000" fill-rule="nonzero" fill-opacity="1" /><path clip-path="url(#clip510)" d="M729.316 1451.02 L747.672 1451.02 L747.672 1454.96 L733.598 1454.96 L733.598 1463.43 Q734.617 1463.08 735.635 1462.92 Q736.654 1462.73 737.672 1462.73 Q743.459 1462.73 746.839 1465.9 Q750.219 1469.08 750.219 1474.49 Q750.219 1480.07 746.746 1483.17 Q743.274 1486.25 736.955 1486.25 Q734.779 1486.25 732.51 1485.88 Q730.265 1485.51 727.858 1484.77 L727.858 1480.07 Q729.941 1481.2 732.163 1481.76 Q734.385 1482.32 736.862 1482.32 Q740.867 1482.32 743.205 1480.21 Q745.543 1478.1 745.543 1474.49 Q745.543 1470.88 743.205 1468.77 Q740.867 1466.67 736.862 1466.67 Q734.987 1466.67 733.112 1467.08 Q731.26 1467.5 729.316 1468.38 L729.316 1451.02 Z" fill="#000000" fill-rule="nonzero" fill-opacity="1" /><path clip-path="url(#clip510)" d="M769.431 1454.1 Q765.82 1454.1 763.992 1457.66 Q762.186 1461.2 762.186 1468.33 Q762.186 1475.44 763.992 1479.01 Q765.82 1482.55 769.431 1482.55 Q773.066 1482.55 774.871 1479.01 Q776.7 1475.44 776.7 1468.33 Q776.7 1461.2 774.871 1457.66 Q773.066 1454.1 769.431 1454.1 M769.431 1450.39 Q775.242 1450.39 778.297 1455 Q781.376 1459.58 781.376 1468.33 Q781.376 1477.06 778.297 1481.67 Q775.242 1486.25 769.431 1486.25 Q763.621 1486.25 760.543 1481.67 Q757.487 1477.06 757.487 1468.33 Q757.487 1459.58 760.543 1455 Q763.621 1450.39 769.431 1450.39 Z" fill="#000000" fill-rule="nonzero" fill-opacity="1" /><path clip-path="url(#clip510)" d="M1203.22 1451.02 L1221.58 1451.02 L1221.58 1454.96 L1207.5 1454.96 L1207.5 1463.43 Q1208.52 1463.08 1209.54 1462.92 Q1210.56 1462.73 1211.58 1462.73 Q1217.37 1462.73 1220.74 1465.9 Q1224.12 1469.08 1224.12 1474.49 Q1224.12 1480.07 1220.65 1483.17 Q1217.18 1486.25 1210.86 1486.25 Q1208.68 1486.25 1206.42 1485.88 Q1204.17 1485.51 1201.76 1484.77 L1201.76 1480.07 Q1203.85 1481.2 1206.07 1481.76 Q1208.29 1482.32 1210.77 1482.32 Q1214.77 1482.32 1217.11 1480.21 Q1219.45 1478.1 1219.45 1474.49 Q1219.45 1470.88 1217.11 1468.77 Q1214.77 1466.67 1210.77 1466.67 Q1208.89 1466.67 1207.02 1467.08 Q1205.17 1467.5 1203.22 1468.38 L1203.22 1451.02 Z" fill="#000000" fill-rule="nonzero" fill-opacity="1" /><path clip-path="url(#clip510)" d="M1243.34 1454.1 Q1239.73 1454.1 1237.9 1457.66 Q1236.09 1461.2 1236.09 1468.33 Q1236.09 1475.44 1237.9 1479.01 Q1239.73 1482.55 1243.34 1482.55 Q1246.97 1482.55 1248.78 1479.01 Q1250.61 1475.44 1250.61 1468.33 Q1250.61 1461.2 1248.78 1457.66 Q1246.97 1454.1 1243.34 1454.1 M1243.34 1450.39 Q1249.15 1450.39 1252.2 1455 Q1255.28 1459.58 1255.28 1468.33 Q1255.28 1477.06 1252.2 1481.67 Q1249.15 1486.25 1243.34 1486.25 Q1237.53 1486.25 1234.45 1481.67 Q1231.39 1477.06 1231.39 1468.33 Q1231.39 1459.58 1234.45 1455 Q1237.53 1450.39 1243.34 1450.39 Z" fill="#000000" fill-rule="nonzero" fill-opacity="1" /><path clip-path="url(#clip510)" d="M1273.5 1454.1 Q1269.89 1454.1 1268.06 1457.66 Q1266.25 1461.2 1266.25 1468.33 Q1266.25 1475.44 1268.06 1479.01 Q1269.89 1482.55 1273.5 1482.55 Q1277.13 1482.55 1278.94 1479.01 Q1280.77 1475.44 1280.77 1468.33 Q1280.77 1461.2 1278.94 1457.66 Q1277.13 1454.1 1273.5 1454.1 M1273.5 1450.39 Q1279.31 1450.39 1282.36 1455 Q1285.44 1459.58 1285.44 1468.33 Q1285.44 1477.06 1282.36 1481.67 Q1279.31 1486.25 1273.5 1486.25 Q1267.69 1486.25 1264.61 1481.67 Q1261.55 1477.06 1261.55 1468.33 Q1261.55 1459.58 1264.61 1455 Q1267.69 1450.39 1273.5 1450.39 Z" fill="#000000" fill-rule="nonzero" fill-opacity="1" /><path clip-path="url(#clip510)" d="M1706.04 1451.02 L1728.26 1451.02 L1728.26 1453.01 L1715.72 1485.58 L1710.83 1485.58 L1722.64 1454.96 L1706.04 1454.96 L1706.04 1451.02 Z" fill="#000000" fill-rule="nonzero" fill-opacity="1" /><path clip-path="url(#clip510)" d="M1737.43 1451.02 L1755.78 1451.02 L1755.78 1454.96 L1741.71 1454.96 L1741.71 1463.43 Q1742.73 1463.08 1743.75 1462.92 Q1744.77 1462.73 1745.78 1462.73 Q1751.57 1462.73 1754.95 1465.9 Q1758.33 1469.08 1758.33 1474.49 Q1758.33 1480.07 1754.86 1483.17 Q1751.39 1486.25 1745.07 1486.25 Q1742.89 1486.25 1740.62 1485.88 Q1738.38 1485.51 1735.97 1484.77 L1735.97 1480.07 Q1738.05 1481.2 1740.28 1481.76 Q1742.5 1482.32 1744.97 1482.32 Q1748.98 1482.32 1751.32 1480.21 Q1753.65 1478.1 1753.65 1474.49 Q1753.65 1470.88 1751.32 1468.77 Q1748.98 1466.67 1744.97 1466.67 Q1743.1 1466.67 1741.22 1467.08 Q1739.37 1467.5 1737.43 1468.38 L1737.43 1451.02 Z" fill="#000000" fill-rule="nonzero" fill-opacity="1" /><path clip-path="url(#clip510)" d="M1777.54 1454.1 Q1773.93 1454.1 1772.1 1457.66 Q1770.3 1461.2 1770.3 1468.33 Q1770.3 1475.44 1772.1 1479.01 Q1773.93 1482.55 1777.54 1482.55 Q1781.18 1482.55 1782.98 1479.01 Q1784.81 1475.44 1784.81 1468.33 Q1784.81 1461.2 1782.98 1457.66 Q1781.18 1454.1 1777.54 1454.1 M1777.54 1450.39 Q1783.35 1450.39 1786.41 1455 Q1789.49 1459.58 1789.49 1468.33 Q1789.49 1477.06 1786.41 1481.67 Q1783.35 1486.25 1777.54 1486.25 Q1771.73 1486.25 1768.65 1481.67 Q1765.6 1477.06 1765.6 1468.33 Q1765.6 1459.58 1768.65 1455 Q1771.73 1450.39 1777.54 1450.39 Z" fill="#000000" fill-rule="nonzero" fill-opacity="1" /><path clip-path="url(#clip510)" d="M2196.45 1481.64 L2204.09 1481.64 L2204.09 1455.28 L2195.78 1456.95 L2195.78 1452.69 L2204.04 1451.02 L2208.72 1451.02 L2208.72 1481.64 L2216.36 1481.64 L2216.36 1485.58 L2196.45 1485.58 L2196.45 1481.64 Z" fill="#000000" fill-rule="nonzero" fill-opacity="1" /><path clip-path="url(#clip510)" d="M2235.8 1454.1 Q2232.19 1454.1 2230.36 1457.66 Q2228.56 1461.2 2228.56 1468.33 Q2228.56 1475.44 2230.36 1479.01 Q2232.19 1482.55 2235.8 1482.55 Q2239.44 1482.55 2241.24 1479.01 Q2243.07 1475.44 2243.07 1468.33 Q2243.07 1461.2 2241.24 1457.66 Q2239.44 1454.1 2235.8 1454.1 M2235.8 1450.39 Q2241.61 1450.39 2244.67 1455 Q2247.75 1459.58 2247.75 1468.33 Q2247.75 1477.06 2244.67 1481.67 Q2241.61 1486.25 2235.8 1486.25 Q2229.99 1486.25 2226.91 1481.67 Q2223.86 1477.06 2223.86 1468.33 Q2223.86 1459.58 2226.91 1455 Q2229.99 1450.39 2235.8 1450.39 Z" fill="#000000" fill-rule="nonzero" fill-opacity="1" /><path clip-path="url(#clip510)" d="M2265.96 1454.1 Q2262.35 1454.1 2260.52 1457.66 Q2258.72 1461.2 2258.72 1468.33 Q2258.72 1475.44 2260.52 1479.01 Q2262.35 1482.55 2265.96 1482.55 Q2269.6 1482.55 2271.4 1479.01 Q2273.23 1475.44 2273.23 1468.33 Q2273.23 1461.2 2271.4 1457.66 Q2269.6 1454.1 2265.96 1454.1 M2265.96 1450.39 Q2271.77 1450.39 2274.83 1455 Q2277.91 1459.58 2277.91 1468.33 Q2277.91 1477.06 2274.83 1481.67 Q2271.77 1486.25 2265.96 1486.25 Q2260.15 1486.25 2257.07 1481.67 Q2254.02 1477.06 2254.02 1468.33 Q2254.02 1459.58 2257.07 1455 Q2260.15 1450.39 2265.96 1450.39 Z" fill="#000000" fill-rule="nonzero" fill-opacity="1" /><path clip-path="url(#clip510)" d="M2296.13 1454.1 Q2292.51 1454.1 2290.69 1457.66 Q2288.88 1461.2 2288.88 1468.33 Q2288.88 1475.44 2290.69 1479.01 Q2292.51 1482.55 2296.13 1482.55 Q2299.76 1482.55 2301.56 1479.01 Q2303.39 1475.44 2303.39 1468.33 Q2303.39 1461.2 2301.56 1457.66 Q2299.76 1454.1 2296.13 1454.1 M2296.13 1450.39 Q2301.94 1450.39 2304.99 1455 Q2308.07 1459.58 2308.07 1468.33 Q2308.07 1477.06 2304.99 1481.67 Q2301.94 1486.25 2296.13 1486.25 Q2290.31 1486.25 2287.24 1481.67 Q2284.18 1477.06 2284.18 1468.33 Q2284.18 1459.58 2287.24 1455 Q2290.31 1450.39 2296.13 1450.39 Z" fill="#000000" fill-rule="nonzero" fill-opacity="1" /><path clip-path="url(#clip510)" d="M1104.21 1555.87 L1104.21 1553.84 L1105.79 1553.84 Q1109.36 1553.84 1110.17 1553.26 Q1111.01 1552.65 1111.01 1550.71 L1111.01 1515.96 Q1111.01 1514.06 1110.17 1513.48 Q1109.33 1512.87 1105.79 1512.87 L1104.21 1512.87 L1104.21 1510.81 L1128.33 1510.81 Q1136.77 1510.81 1142.63 1517.54 Q1148.53 1524.27 1148.53 1533.71 Q1148.53 1542.95 1142.6 1549.43 Q1136.71 1555.87 1128.33 1555.87 L1104.21 1555.87 M1116.67 1551.2 Q1116.67 1552.9 1117.16 1553.39 Q1117.64 1553.84 1119.9 1553.84 L1126.56 1553.84 Q1130.91 1553.84 1133.84 1552.07 Q1136.77 1550.26 1138.28 1548.2 Q1141.92 1543.24 1141.92 1533.71 Q1141.92 1523.69 1138.51 1518.99 Q1134.1 1512.87 1126.5 1512.87 L1119.9 1512.87 Q1117.64 1512.87 1117.16 1513.32 Q1116.67 1513.77 1116.67 1515.51 L1116.67 1551.2 Z" fill="#000000" fill-rule="nonzero" fill-opacity="1" /><path clip-path="url(#clip510)" d="M1154.3 1555.87 L1154.3 1553.84 Q1157.81 1553.84 1158.62 1553.42 Q1159.45 1552.97 1159.45 1550.84 L1159.45 1533.16 Q1159.45 1530.72 1158.58 1530.1 Q1157.75 1529.49 1154.3 1529.49 L1154.3 1527.43 L1163.48 1526.72 L1163.48 1533.97 Q1164.41 1531.13 1166.38 1528.94 Q1168.37 1526.72 1171.59 1526.72 Q1173.72 1526.72 1175.07 1527.91 Q1176.46 1529.1 1176.46 1530.75 Q1176.46 1532.2 1175.56 1532.94 Q1174.69 1533.65 1173.62 1533.65 Q1172.43 1533.65 1171.59 1532.91 Q1170.79 1532.13 1170.79 1530.81 Q1170.79 1530.01 1171.14 1529.39 Q1171.53 1528.75 1171.82 1528.53 Q1172.11 1528.3 1172.3 1528.24 Q1172.17 1528.17 1171.59 1528.17 Q1167.96 1528.17 1165.86 1531.81 Q1163.8 1535.42 1163.8 1540.57 L1163.8 1550.71 Q1163.8 1552.61 1164.57 1553.23 Q1165.38 1553.84 1168.83 1553.84 L1170.21 1553.84 L1170.21 1555.87 Q1167.57 1555.67 1161.84 1555.67 Q1161.03 1555.67 1159.78 1555.71 Q1158.52 1555.74 1156.88 1555.8 Q1155.23 1555.87 1154.3 1555.87 Z" fill="#000000" fill-rule="nonzero" fill-opacity="1" /><path clip-path="url(#clip510)" d="M1182.93 1529.49 L1182.93 1527.43 L1192.63 1526.72 L1192.63 1548.62 Q1192.63 1550.2 1192.75 1551.13 Q1192.88 1552.04 1193.4 1553.1 Q1193.95 1554.16 1195.17 1554.64 Q1196.43 1555.13 1198.42 1555.13 Q1202 1555.13 1204.19 1552.2 Q1206.41 1549.27 1206.41 1544.92 L1206.41 1533.16 Q1206.41 1530.72 1205.54 1530.1 Q1204.67 1529.49 1201.26 1529.49 L1201.26 1527.43 L1210.95 1526.72 L1210.95 1550.14 Q1210.95 1552.58 1211.79 1553.23 Q1212.66 1553.84 1216.1 1553.84 L1216.1 1555.87 L1206.6 1556.61 L1206.6 1550.65 Q1203.83 1556.58 1198.1 1556.61 Q1195.2 1556.61 1193.2 1555.87 Q1191.24 1555.13 1190.24 1554.23 Q1189.24 1553.29 1188.7 1551.52 Q1188.18 1549.75 1188.12 1548.65 Q1188.05 1547.56 1188.05 1545.43 L1188.05 1535.55 Q1188.05 1531.07 1187.41 1530.3 Q1186.76 1529.49 1182.93 1529.49 Z" fill="#000000" fill-rule="nonzero" fill-opacity="1" /><path clip-path="url(#clip510)" d="M1223.88 1552.26 Q1219.7 1547.88 1219.7 1541.63 Q1219.7 1535.35 1223.82 1530.84 Q1227.94 1526.3 1234 1526.3 Q1238.02 1526.3 1241.05 1528.24 Q1244.08 1530.14 1244.08 1533.39 Q1244.08 1534.84 1243.21 1535.67 Q1242.37 1536.48 1241.05 1536.48 Q1239.66 1536.48 1238.83 1535.64 Q1238.02 1534.77 1238.02 1533.45 Q1238.02 1532.87 1238.21 1532.29 Q1238.41 1531.71 1239.12 1531.1 Q1239.86 1530.49 1241.11 1530.39 Q1238.76 1527.98 1234.19 1527.98 Q1234.12 1527.98 1234.06 1527.98 Q1230.71 1527.98 1227.94 1531.13 Q1225.17 1534.29 1225.17 1541.5 Q1225.17 1545.27 1226.07 1548.04 Q1227.01 1550.78 1228.52 1552.2 Q1230.03 1553.61 1231.52 1554.29 Q1233 1554.93 1234.45 1554.93 Q1240.92 1554.93 1243.11 1548.01 Q1243.3 1547.37 1243.95 1547.37 Q1244.82 1547.37 1244.82 1548.01 Q1244.82 1548.33 1244.56 1549.17 Q1244.3 1550.01 1243.5 1551.33 Q1242.69 1552.65 1241.53 1553.81 Q1240.4 1554.93 1238.38 1555.77 Q1236.38 1556.61 1233.87 1556.61 Q1228.07 1556.61 1223.88 1552.26 Z" fill="#000000" fill-rule="nonzero" fill-opacity="1" /><path clip-path="url(#clip510)" d="M1247.66 1555.87 L1247.66 1553.84 Q1251.17 1553.84 1251.98 1553.42 Q1252.82 1552.97 1252.82 1550.84 L1252.82 1516.54 Q1252.82 1514.1 1251.95 1513.48 Q1251.11 1512.87 1247.66 1512.87 L1247.66 1510.81 L1257.16 1510.1 L1257.16 1541.76 L1266.47 1533.71 Q1267.92 1532.45 1267.92 1531.13 Q1267.92 1529.62 1266.02 1529.49 L1266.02 1527.43 Q1268.79 1527.62 1273.4 1527.62 Q1276.1 1527.62 1278 1527.43 L1278 1529.49 Q1273.85 1529.68 1269.69 1533.03 Q1268.76 1533.77 1266.54 1535.71 Q1264.35 1537.61 1264.35 1537.8 Q1264.35 1537.86 1264.41 1538.03 Q1264.51 1538.19 1264.64 1538.32 Q1264.76 1538.44 1264.76 1538.51 L1273.14 1550.33 Q1274.85 1552.71 1276.1 1553.29 Q1277.36 1553.84 1279.55 1553.84 L1279.55 1555.87 Q1276.71 1555.67 1273.78 1555.67 Q1272.2 1555.67 1266.67 1555.87 L1266.67 1553.84 Q1269.05 1553.84 1269.05 1552.29 Q1269.05 1551.23 1263.7 1543.85 Q1263.32 1543.34 1262.45 1542.21 Q1261.64 1541.02 1261.19 1540.44 L1256.97 1544.05 L1256.97 1550.84 Q1256.97 1552.97 1257.78 1553.42 Q1258.61 1553.84 1262.12 1553.84 L1262.12 1555.87 Q1258.16 1555.67 1254.88 1555.67 Q1254.2 1555.67 1247.66 1555.87 Z" fill="#000000" fill-rule="nonzero" fill-opacity="1" /><path clip-path="url(#clip510)" d="M1299.51 1572.36 L1299.51 1506.4 L1309.46 1506.4 L1309.46 1507.91 L1303.93 1507.91 L1303.93 1570.84 L1309.46 1570.84 L1309.46 1572.36 L1299.51 1572.36 Z" fill="#000000" fill-rule="nonzero" fill-opacity="1" /><path clip-path="url(#clip510)" d="M1317.66 1555.87 L1317.66 1553.84 Q1321.17 1553.84 1321.98 1553.42 Q1322.78 1552.97 1322.78 1550.84 L1322.78 1533.16 Q1322.78 1530.72 1321.91 1530.1 Q1321.08 1529.49 1317.66 1529.49 L1317.66 1527.43 L1326.94 1526.72 L1326.94 1533.65 Q1330.03 1526.72 1336.7 1526.72 Q1344.43 1526.72 1345.49 1533.16 Q1346.62 1530.65 1348.97 1528.69 Q1351.35 1526.72 1355.05 1526.72 Q1360.01 1526.72 1361.98 1529.17 Q1363.43 1530.81 1363.72 1532.65 Q1364.01 1534.48 1364.01 1539.25 L1364.01 1551.84 Q1364.07 1553.23 1365.13 1553.55 Q1366.2 1553.84 1369.16 1553.84 L1369.16 1555.87 Q1362.43 1555.67 1361.79 1555.67 Q1361.27 1555.67 1354.31 1555.87 L1354.31 1553.84 Q1357.82 1553.84 1358.63 1553.42 Q1359.47 1552.97 1359.47 1550.84 L1359.47 1535.48 Q1359.47 1532.13 1358.44 1530.17 Q1357.41 1528.17 1354.57 1528.17 Q1351.16 1528.17 1348.42 1531.04 Q1345.68 1533.9 1345.68 1538.73 L1345.68 1550.84 Q1345.68 1552.97 1346.49 1553.42 Q1347.32 1553.84 1350.84 1553.84 L1350.84 1555.87 Q1344.1 1555.67 1343.43 1555.67 Q1342.91 1555.67 1335.99 1555.87 L1335.99 1553.84 Q1339.5 1553.84 1340.3 1553.42 Q1341.14 1552.97 1341.14 1550.84 L1341.14 1535.48 Q1341.14 1532.13 1340.11 1530.17 Q1339.08 1528.17 1336.25 1528.17 Q1332.83 1528.17 1330.09 1531.04 Q1327.36 1533.9 1327.36 1538.73 L1327.36 1550.84 Q1327.36 1552.97 1328.16 1553.42 Q1329 1553.84 1332.48 1553.84 L1332.48 1555.87 Q1325.75 1555.67 1325.1 1555.67 Q1324.59 1555.67 1317.66 1555.87 Z" fill="#000000" fill-rule="nonzero" fill-opacity="1" /><path clip-path="url(#clip510)" d="M1373.11 1512.87 L1373.11 1510.81 L1382.61 1510.1 L1382.61 1531 Q1386.44 1526.72 1391.66 1526.72 Q1397.32 1526.72 1401.48 1531.07 Q1405.63 1535.42 1405.63 1541.63 Q1405.63 1547.91 1401.29 1552.26 Q1396.94 1556.61 1390.92 1556.61 Q1385.44 1556.61 1382.28 1551.78 Q1379.97 1555.8 1379.9 1555.87 L1378.26 1555.87 L1378.26 1516.54 Q1378.26 1514.1 1377.39 1513.48 Q1376.52 1512.87 1373.11 1512.87 M1382.8 1548.36 Q1382.8 1549.75 1383.73 1551.13 Q1386.34 1555.13 1390.59 1555.13 Q1390.63 1555.13 1390.66 1555.13 Q1395.26 1555.13 1398.13 1550.91 Q1400.16 1547.75 1400.16 1541.57 Q1400.16 1535.45 1398.26 1532.39 Q1395.62 1528.17 1391.33 1528.17 Q1386.5 1528.17 1383.54 1532.39 Q1382.8 1533.45 1382.8 1534.77 L1382.8 1548.36 Z" fill="#000000" fill-rule="nonzero" fill-opacity="1" /><path clip-path="url(#clip510)" d="M1409.08 1549.59 Q1409.08 1543.98 1415.68 1541.02 Q1419.64 1539.12 1427.82 1538.64 L1427.82 1536.22 Q1427.82 1532.13 1425.66 1529.97 Q1423.54 1527.78 1420.83 1527.78 Q1416 1527.78 1413.68 1530.81 Q1415.65 1530.88 1416.36 1531.87 Q1417.07 1532.84 1417.07 1533.84 Q1417.07 1535.16 1416.23 1536.03 Q1415.42 1536.87 1414.04 1536.87 Q1412.72 1536.87 1411.85 1536.06 Q1410.98 1535.22 1410.98 1533.77 Q1410.98 1530.55 1413.88 1528.43 Q1416.81 1526.3 1420.96 1526.3 Q1426.37 1526.3 1429.98 1529.94 Q1431.11 1531.07 1431.66 1532.52 Q1432.23 1533.97 1432.3 1534.93 Q1432.36 1535.87 1432.36 1537.74 L1432.36 1550.91 Q1432.36 1551.29 1432.49 1551.94 Q1432.62 1552.58 1433.2 1553.42 Q1433.81 1554.23 1434.81 1554.23 Q1437.19 1554.23 1437.16 1550.01 L1437.16 1546.3 L1438.84 1546.3 L1438.84 1550.01 Q1438.84 1553.52 1436.97 1554.9 Q1435.13 1556.25 1433.43 1556.25 Q1431.24 1556.25 1429.85 1554.64 Q1428.47 1553.03 1428.27 1550.84 Q1427.28 1553.36 1424.99 1555 Q1422.73 1556.61 1419.64 1556.61 Q1417.26 1556.61 1415 1556 Q1412.78 1555.42 1410.91 1553.77 Q1409.08 1552.1 1409.08 1549.59 M1414.17 1549.52 Q1414.17 1551.97 1415.91 1553.55 Q1417.65 1555.13 1420.09 1555.13 Q1422.86 1555.13 1425.34 1553 Q1427.82 1550.84 1427.82 1546.62 L1427.82 1540.02 Q1420.51 1540.28 1417.32 1543.21 Q1414.17 1546.11 1414.17 1549.52 Z" fill="#000000" fill-rule="nonzero" fill-opacity="1" /><path clip-path="url(#clip510)" d="M1440.16 1555.87 L1440.16 1553.84 Q1443.67 1553.84 1444.47 1553.42 Q1445.31 1552.97 1445.31 1550.84 L1445.31 1533.16 Q1445.31 1530.72 1444.44 1530.1 Q1443.6 1529.49 1440.16 1529.49 L1440.16 1527.43 L1449.34 1526.72 L1449.34 1533.97 Q1450.27 1531.13 1452.24 1528.94 Q1454.23 1526.72 1457.45 1526.72 Q1459.58 1526.72 1460.93 1527.91 Q1462.32 1529.1 1462.32 1530.75 Q1462.32 1532.2 1461.41 1532.94 Q1460.55 1533.65 1459.48 1533.65 Q1458.29 1533.65 1457.45 1532.91 Q1456.65 1532.13 1456.65 1530.81 Q1456.65 1530.01 1457 1529.39 Q1457.39 1528.75 1457.68 1528.53 Q1457.97 1528.3 1458.16 1528.24 Q1458.03 1528.17 1457.45 1528.17 Q1453.81 1528.17 1451.72 1531.81 Q1449.66 1535.42 1449.66 1540.57 L1449.66 1550.71 Q1449.66 1552.61 1450.43 1553.23 Q1451.24 1553.84 1454.68 1553.84 L1456.07 1553.84 L1456.07 1555.87 Q1453.43 1555.67 1447.7 1555.67 Q1446.89 1555.67 1445.63 1555.71 Q1444.38 1555.74 1442.74 1555.8 Q1441.09 1555.87 1440.16 1555.87 Z" fill="#000000" fill-rule="nonzero" fill-opacity="1" /><path clip-path="url(#clip510)" d="M1465.68 1570.84 L1471.22 1570.84 L1471.22 1507.91 L1465.68 1507.91 L1465.68 1506.4 L1475.63 1506.4 L1475.63 1572.36 L1465.68 1572.36 L1465.68 1570.84 Z" fill="#000000" fill-rule="nonzero" fill-opacity="1" /><polyline clip-path="url(#clip512)" style="stroke:#000000; stroke-linecap:round; stroke-linejoin:round; stroke-width:2; stroke-opacity:0.1; fill:none" points="235.283,1423.18 2352.76,1423.18 "/>
<polyline clip-path="url(#clip512)" style="stroke:#000000; stroke-linecap:round; stroke-linejoin:round; stroke-width:2; stroke-opacity:0.1; fill:none" points="235.283,1147.99 2352.76,1147.99 "/>
<polyline clip-path="url(#clip512)" style="stroke:#000000; stroke-linecap:round; stroke-linejoin:round; stroke-width:2; stroke-opacity:0.1; fill:none" points="235.283,872.806 2352.76,872.806 "/>
<polyline clip-path="url(#clip512)" style="stroke:#000000; stroke-linecap:round; stroke-linejoin:round; stroke-width:2; stroke-opacity:0.1; fill:none" points="235.283,597.618 2352.76,597.618 "/>
<polyline clip-path="url(#clip512)" style="stroke:#000000; stroke-linecap:round; stroke-linejoin:round; stroke-width:2; stroke-opacity:0.1; fill:none" points="235.283,322.431 2352.76,322.431 "/>
<polyline clip-path="url(#clip512)" style="stroke:#000000; stroke-linecap:round; stroke-linejoin:round; stroke-width:2; stroke-opacity:0.1; fill:none" points="235.283,47.2441 2352.76,47.2441 "/>
<polyline clip-path="url(#clip510)" style="stroke:#000000; stroke-linecap:round; stroke-linejoin:round; stroke-width:4; stroke-opacity:1; fill:none" points="235.283,1423.18 235.283,47.2441 "/>
<polyline clip-path="url(#clip510)" style="stroke:#000000; stroke-linecap:round; stroke-linejoin:round; stroke-width:4; stroke-opacity:1; fill:none" points="235.283,1423.18 254.18,1423.18 "/>
<polyline clip-path="url(#clip510)" style="stroke:#000000; stroke-linecap:round; stroke-linejoin:round; stroke-width:4; stroke-opacity:1; fill:none" points="235.283,1147.99 254.18,1147.99 "/>
<polyline clip-path="url(#clip510)" style="stroke:#000000; stroke-linecap:round; stroke-linejoin:round; stroke-width:4; stroke-opacity:1; fill:none" points="235.283,872.806 254.18,872.806 "/>
<polyline clip-path="url(#clip510)" style="stroke:#000000; stroke-linecap:round; stroke-linejoin:round; stroke-width:4; stroke-opacity:1; fill:none" points="235.283,597.618 254.18,597.618 "/>
<polyline clip-path="url(#clip510)" style="stroke:#000000; stroke-linecap:round; stroke-linejoin:round; stroke-width:4; stroke-opacity:1; fill:none" points="235.283,322.431 254.18,322.431 "/>
<polyline clip-path="url(#clip510)" style="stroke:#000000; stroke-linecap:round; stroke-linejoin:round; stroke-width:4; stroke-opacity:1; fill:none" points="235.283,47.2441 254.18,47.2441 "/>
<path clip-path="url(#clip510)" d="M187.338 1408.98 Q183.727 1408.98 181.899 1412.54 Q180.093 1416.08 180.093 1423.21 Q180.093 1430.32 181.899 1433.89 Q183.727 1437.43 187.338 1437.43 Q190.973 1437.43 192.778 1433.89 Q194.607 1430.32 194.607 1423.21 Q194.607 1416.08 192.778 1412.54 Q190.973 1408.98 187.338 1408.98 M187.338 1405.27 Q193.149 1405.27 196.204 1409.88 Q199.283 1414.46 199.283 1423.21 Q199.283 1431.94 196.204 1436.55 Q193.149 1441.13 187.338 1441.13 Q181.528 1441.13 178.45 1436.55 Q175.394 1431.94 175.394 1423.21 Q175.394 1414.46 178.45 1409.88 Q181.528 1405.27 187.338 1405.27 Z" fill="#000000" fill-rule="nonzero" fill-opacity="1" /><path clip-path="url(#clip510)" d="M117.825 1161.34 L125.464 1161.34 L125.464 1134.97 L117.154 1136.64 L117.154 1132.38 L125.418 1130.71 L130.093 1130.71 L130.093 1161.34 L137.732 1161.34 L137.732 1165.27 L117.825 1165.27 L117.825 1161.34 Z" fill="#000000" fill-rule="nonzero" fill-opacity="1" /><path clip-path="url(#clip510)" d="M157.177 1133.79 Q153.566 1133.79 151.737 1137.36 Q149.931 1140.9 149.931 1148.03 Q149.931 1155.13 151.737 1158.7 Q153.566 1162.24 157.177 1162.24 Q160.811 1162.24 162.616 1158.7 Q164.445 1155.13 164.445 1148.03 Q164.445 1140.9 162.616 1137.36 Q160.811 1133.79 157.177 1133.79 M157.177 1130.09 Q162.987 1130.09 166.042 1134.69 Q169.121 1139.28 169.121 1148.03 Q169.121 1156.75 166.042 1161.36 Q162.987 1165.94 157.177 1165.94 Q151.366 1165.94 148.288 1161.36 Q145.232 1156.75 145.232 1148.03 Q145.232 1139.28 148.288 1134.69 Q151.366 1130.09 157.177 1130.09 Z" fill="#000000" fill-rule="nonzero" fill-opacity="1" /><path clip-path="url(#clip510)" d="M187.338 1133.79 Q183.727 1133.79 181.899 1137.36 Q180.093 1140.9 180.093 1148.03 Q180.093 1155.13 181.899 1158.7 Q183.727 1162.24 187.338 1162.24 Q190.973 1162.24 192.778 1158.7 Q194.607 1155.13 194.607 1148.03 Q194.607 1140.9 192.778 1137.36 Q190.973 1133.79 187.338 1133.79 M187.338 1130.09 Q193.149 1130.09 196.204 1134.69 Q199.283 1139.28 199.283 1148.03 Q199.283 1156.75 196.204 1161.36 Q193.149 1165.94 187.338 1165.94 Q181.528 1165.94 178.45 1161.36 Q175.394 1156.75 175.394 1148.03 Q175.394 1139.28 178.45 1134.69 Q181.528 1130.09 187.338 1130.09 Z" fill="#000000" fill-rule="nonzero" fill-opacity="1" /><path clip-path="url(#clip510)" d="M121.043 886.15 L137.362 886.15 L137.362 890.086 L115.418 890.086 L115.418 886.15 Q118.08 883.396 122.663 878.766 Q127.269 874.113 128.45 872.771 Q130.695 870.248 131.575 868.512 Q132.478 866.752 132.478 865.063 Q132.478 862.308 130.533 860.572 Q128.612 858.836 125.51 858.836 Q123.311 858.836 120.857 859.6 Q118.427 860.363 115.649 861.914 L115.649 857.192 Q118.473 856.058 120.927 855.479 Q123.38 854.901 125.418 854.901 Q130.788 854.901 133.982 857.586 Q137.177 860.271 137.177 864.762 Q137.177 866.891 136.367 868.813 Q135.579 870.711 133.473 873.303 Q132.894 873.975 129.792 877.192 Q126.691 880.387 121.043 886.15 Z" fill="#000000" fill-rule="nonzero" fill-opacity="1" /><path clip-path="url(#clip510)" d="M157.177 858.604 Q153.566 858.604 151.737 862.169 Q149.931 865.711 149.931 872.84 Q149.931 879.947 151.737 883.512 Q153.566 887.053 157.177 887.053 Q160.811 887.053 162.616 883.512 Q164.445 879.947 164.445 872.84 Q164.445 865.711 162.616 862.169 Q160.811 858.604 157.177 858.604 M157.177 854.901 Q162.987 854.901 166.042 859.507 Q169.121 864.09 169.121 872.84 Q169.121 881.567 166.042 886.174 Q162.987 890.757 157.177 890.757 Q151.366 890.757 148.288 886.174 Q145.232 881.567 145.232 872.84 Q145.232 864.09 148.288 859.507 Q151.366 854.901 157.177 854.901 Z" fill="#000000" fill-rule="nonzero" fill-opacity="1" /><path clip-path="url(#clip510)" d="M187.338 858.604 Q183.727 858.604 181.899 862.169 Q180.093 865.711 180.093 872.84 Q180.093 879.947 181.899 883.512 Q183.727 887.053 187.338 887.053 Q190.973 887.053 192.778 883.512 Q194.607 879.947 194.607 872.84 Q194.607 865.711 192.778 862.169 Q190.973 858.604 187.338 858.604 M187.338 854.901 Q193.149 854.901 196.204 859.507 Q199.283 864.09 199.283 872.84 Q199.283 881.567 196.204 886.174 Q193.149 890.757 187.338 890.757 Q181.528 890.757 178.45 886.174 Q175.394 881.567 175.394 872.84 Q175.394 864.09 178.45 859.507 Q181.528 854.901 187.338 854.901 Z" fill="#000000" fill-rule="nonzero" fill-opacity="1" /><path clip-path="url(#clip510)" d="M131.181 596.264 Q134.538 596.982 136.413 599.25 Q138.311 601.519 138.311 604.852 Q138.311 609.968 134.792 612.769 Q131.274 615.57 124.793 615.57 Q122.617 615.57 120.302 615.13 Q118.01 614.713 115.556 613.857 L115.556 609.343 Q117.501 610.477 119.816 611.056 Q122.13 611.635 124.654 611.635 Q129.052 611.635 131.343 609.898 Q133.658 608.162 133.658 604.852 Q133.658 601.797 131.505 600.084 Q129.376 598.348 125.556 598.348 L121.529 598.348 L121.529 594.505 L125.742 594.505 Q129.191 594.505 131.019 593.139 Q132.848 591.75 132.848 589.158 Q132.848 586.496 130.95 585.084 Q129.075 583.649 125.556 583.649 Q123.635 583.649 121.436 584.065 Q119.237 584.482 116.598 585.362 L116.598 581.195 Q119.26 580.454 121.575 580.084 Q123.913 579.713 125.973 579.713 Q131.297 579.713 134.399 582.144 Q137.501 584.551 137.501 588.672 Q137.501 591.542 135.857 593.533 Q134.214 595.5 131.181 596.264 Z" fill="#000000" fill-rule="nonzero" fill-opacity="1" /><path clip-path="url(#clip510)" d="M157.177 583.417 Q153.566 583.417 151.737 586.982 Q149.931 590.524 149.931 597.653 Q149.931 604.76 151.737 608.324 Q153.566 611.866 157.177 611.866 Q160.811 611.866 162.616 608.324 Q164.445 604.76 164.445 597.653 Q164.445 590.524 162.616 586.982 Q160.811 583.417 157.177 583.417 M157.177 579.713 Q162.987 579.713 166.042 584.32 Q169.121 588.903 169.121 597.653 Q169.121 606.38 166.042 610.986 Q162.987 615.57 157.177 615.57 Q151.366 615.57 148.288 610.986 Q145.232 606.38 145.232 597.653 Q145.232 588.903 148.288 584.32 Q151.366 579.713 157.177 579.713 Z" fill="#000000" fill-rule="nonzero" fill-opacity="1" /><path clip-path="url(#clip510)" d="M187.338 583.417 Q183.727 583.417 181.899 586.982 Q180.093 590.524 180.093 597.653 Q180.093 604.76 181.899 608.324 Q183.727 611.866 187.338 611.866 Q190.973 611.866 192.778 608.324 Q194.607 604.76 194.607 597.653 Q194.607 590.524 192.778 586.982 Q190.973 583.417 187.338 583.417 M187.338 579.713 Q193.149 579.713 196.204 584.32 Q199.283 588.903 199.283 597.653 Q199.283 606.38 196.204 610.986 Q193.149 615.57 187.338 615.57 Q181.528 615.57 178.45 610.986 Q175.394 606.38 175.394 597.653 Q175.394 588.903 178.45 584.32 Q181.528 579.713 187.338 579.713 Z" fill="#000000" fill-rule="nonzero" fill-opacity="1" /><path clip-path="url(#clip510)" d="M129.862 309.225 L118.056 327.674 L129.862 327.674 L129.862 309.225 M128.635 305.151 L134.515 305.151 L134.515 327.674 L139.445 327.674 L139.445 331.563 L134.515 331.563 L134.515 339.711 L129.862 339.711 L129.862 331.563 L114.26 331.563 L114.26 327.049 L128.635 305.151 Z" fill="#000000" fill-rule="nonzero" fill-opacity="1" /><path clip-path="url(#clip510)" d="M157.177 308.23 Q153.566 308.23 151.737 311.795 Q149.931 315.336 149.931 322.466 Q149.931 329.572 151.737 333.137 Q153.566 336.679 157.177 336.679 Q160.811 336.679 162.616 333.137 Q164.445 329.572 164.445 322.466 Q164.445 315.336 162.616 311.795 Q160.811 308.23 157.177 308.23 M157.177 304.526 Q162.987 304.526 166.042 309.133 Q169.121 313.716 169.121 322.466 Q169.121 331.193 166.042 335.799 Q162.987 340.383 157.177 340.383 Q151.366 340.383 148.288 335.799 Q145.232 331.193 145.232 322.466 Q145.232 313.716 148.288 309.133 Q151.366 304.526 157.177 304.526 Z" fill="#000000" fill-rule="nonzero" fill-opacity="1" /><path clip-path="url(#clip510)" d="M187.338 308.23 Q183.727 308.23 181.899 311.795 Q180.093 315.336 180.093 322.466 Q180.093 329.572 181.899 333.137 Q183.727 336.679 187.338 336.679 Q190.973 336.679 192.778 333.137 Q194.607 329.572 194.607 322.466 Q194.607 315.336 192.778 311.795 Q190.973 308.23 187.338 308.23 M187.338 304.526 Q193.149 304.526 196.204 309.133 Q199.283 313.716 199.283 322.466 Q199.283 331.193 196.204 335.799 Q193.149 340.383 187.338 340.383 Q181.528 340.383 178.45 335.799 Q175.394 331.193 175.394 322.466 Q175.394 313.716 178.45 309.133 Q181.528 304.526 187.338 304.526 Z" fill="#000000" fill-rule="nonzero" fill-opacity="1" /><path clip-path="url(#clip510)" d="M117.061 29.9641 L135.417 29.9641 L135.417 33.8993 L121.343 33.8993 L121.343 42.3714 Q122.362 42.0242 123.38 41.8622 Q124.399 41.677 125.418 41.677 Q131.205 41.677 134.584 44.8483 Q137.964 48.0196 137.964 53.4362 Q137.964 59.0149 134.492 62.1167 Q131.019 65.1954 124.7 65.1954 Q122.524 65.1954 120.255 64.825 Q118.01 64.4547 115.603 63.7139 L115.603 59.0149 Q117.686 60.1491 119.908 60.7047 Q122.13 61.2602 124.607 61.2602 Q128.612 61.2602 130.95 59.1538 Q133.288 57.0473 133.288 53.4362 Q133.288 49.8251 130.95 47.7186 Q128.612 45.6122 124.607 45.6122 Q122.732 45.6122 120.857 46.0288 Q119.006 46.4455 117.061 47.3251 L117.061 29.9641 Z" fill="#000000" fill-rule="nonzero" fill-opacity="1" /><path clip-path="url(#clip510)" d="M157.177 33.0428 Q153.566 33.0428 151.737 36.6076 Q149.931 40.1492 149.931 47.2788 Q149.931 54.3853 151.737 57.9501 Q153.566 61.4917 157.177 61.4917 Q160.811 61.4917 162.616 57.9501 Q164.445 54.3853 164.445 47.2788 Q164.445 40.1492 162.616 36.6076 Q160.811 33.0428 157.177 33.0428 M157.177 29.3391 Q162.987 29.3391 166.042 33.9456 Q169.121 38.5289 169.121 47.2788 Q169.121 56.0056 166.042 60.6121 Q162.987 65.1954 157.177 65.1954 Q151.366 65.1954 148.288 60.6121 Q145.232 56.0056 145.232 47.2788 Q145.232 38.5289 148.288 33.9456 Q151.366 29.3391 157.177 29.3391 Z" fill="#000000" fill-rule="nonzero" fill-opacity="1" /><path clip-path="url(#clip510)" d="M187.338 33.0428 Q183.727 33.0428 181.899 36.6076 Q180.093 40.1492 180.093 47.2788 Q180.093 54.3853 181.899 57.9501 Q183.727 61.4917 187.338 61.4917 Q190.973 61.4917 192.778 57.9501 Q194.607 54.3853 194.607 47.2788 Q194.607 40.1492 192.778 36.6076 Q190.973 33.0428 187.338 33.0428 M187.338 29.3391 Q193.149 29.3391 196.204 33.9456 Q199.283 38.5289 199.283 47.2788 Q199.283 56.0056 196.204 60.6121 Q193.149 65.1954 187.338 65.1954 Q181.528 65.1954 178.45 60.6121 Q175.394 56.0056 175.394 47.2788 Q175.394 38.5289 178.45 33.9456 Q181.528 29.3391 187.338 29.3391 Z" fill="#000000" fill-rule="nonzero" fill-opacity="1" /><path clip-path="url(#clip510)" d="M65.7588 927.601 Q65.1791 927.601 64.4384 927.15 L23.8912 901.482 L23.8912 911.853 Q23.8912 915.814 24.793 918.423 Q25.6625 921.031 27.5627 922.416 Q29.4306 923.801 31.524 924.348 Q33.5852 924.896 36.677 925.089 L36.677 926.764 L21.83 926.023 L21.83 896.49 Q21.83 895.911 21.83 895.685 Q21.83 895.428 21.9589 895.17 Q22.0877 894.912 22.3131 894.848 Q22.5064 894.751 22.8928 894.751 Q23.4081 894.751 24.1489 895.234 L64.6316 920.806 L64.6316 909.985 Q64.6316 906.41 63.8909 903.93 Q63.118 901.418 61.9586 899.969 Q60.7669 898.519 58.6091 897.682 Q56.4513 896.812 54.4546 896.523 Q52.4256 896.201 49.2694 896.007 L49.2694 894.365 L66.886 895.492 L66.886 925.894 Q66.886 927.022 66.725 927.311 Q66.564 927.601 65.7588 927.601 Z" fill="#000000" fill-rule="nonzero" fill-opacity="1" /><path clip-path="url(#clip510)" d="M60.6059 887.696 Q55.0021 887.696 52.0391 881.094 Q50.139 877.133 49.6559 868.952 L47.2405 868.952 Q43.1503 868.952 40.9925 871.11 Q38.8025 873.236 38.8025 875.941 Q38.8025 880.772 41.8299 883.091 Q41.8943 881.126 42.8927 880.418 Q43.8589 879.709 44.8572 879.709 Q46.1777 879.709 47.0472 880.547 Q47.8846 881.352 47.8846 882.737 Q47.8846 884.057 47.0794 884.927 Q46.2421 885.796 44.7928 885.796 Q41.5722 885.796 39.4467 882.898 Q37.3211 879.967 37.3211 875.812 Q37.3211 870.402 40.9603 866.795 Q42.0875 865.667 43.5368 865.12 Q44.9861 864.54 45.9522 864.476 Q46.8862 864.411 48.7541 864.411 L61.9263 864.411 Q62.3128 864.411 62.9569 864.283 Q63.6011 864.154 64.4384 863.574 Q65.2435 862.962 65.2435 861.964 Q65.2435 859.581 61.0246 859.613 L57.3209 859.613 L57.3209 857.938 L61.0246 857.938 Q64.535 857.938 65.9199 859.806 Q67.2725 861.642 67.2725 863.349 Q67.2725 865.539 65.6622 866.923 Q64.0519 868.308 61.8619 868.502 Q64.374 869.5 66.0165 871.787 Q67.6268 874.041 67.6268 877.133 Q67.6268 879.516 67.0149 881.77 Q66.4352 883.993 64.7927 885.86 Q63.118 887.696 60.6059 887.696 M26.9186 883.864 Q25.4049 883.864 24.4065 882.865 Q23.4081 881.835 23.4081 880.45 Q23.4081 879.129 24.4387 878.034 Q25.4693 876.939 26.9186 876.939 Q28.3678 876.939 29.3662 878.034 Q30.3324 879.129 30.3324 880.45 Q30.3324 881.964 29.334 882.93 Q28.3034 883.864 26.9186 883.864 M60.5415 882.608 Q62.9891 882.608 64.5672 880.869 Q66.1453 879.129 66.1453 876.682 Q66.1453 873.912 64.0197 871.432 Q61.8619 868.952 57.643 868.952 L51.0408 868.952 Q51.2984 876.263 54.2291 879.452 Q57.1277 882.608 60.5415 882.608 M26.9186 871.078 Q25.4049 871.078 24.4065 870.015 Q23.4081 868.952 23.4081 867.568 Q23.4081 866.183 24.4065 865.184 Q25.4049 864.154 26.9186 864.154 Q28.3678 864.154 29.3662 865.217 Q30.3324 866.247 30.3324 867.568 Q30.3324 869.081 29.334 870.08 Q28.3034 871.078 26.9186 871.078 Z" fill="#000000" fill-rule="nonzero" fill-opacity="1" /><path clip-path="url(#clip510)" d="M66.886 855.032 L64.8571 855.032 Q64.8571 851.522 64.4384 850.717 Q63.9875 849.911 61.8619 849.911 L27.5627 849.911 Q25.115 849.911 24.5031 850.781 Q23.8912 851.618 23.8912 855.032 L21.83 855.032 L21.1215 845.564 L44.0521 845.564 L44.0521 845.499 Q41.6689 844.436 39.7043 842.053 Q37.7397 839.67 37.7397 835.999 Q37.7397 831.039 40.1874 829.074 Q41.8299 827.625 43.6656 827.335 Q45.5014 827.013 50.2678 827.013 L62.8603 827.013 Q64.2452 826.949 64.5672 825.886 Q64.8571 824.823 64.8571 821.86 L66.886 821.86 Q66.6928 828.591 66.6928 829.267 Q66.6928 829.783 66.886 836.707 L64.8571 836.707 Q64.8571 833.197 64.4384 832.391 Q63.9875 831.554 61.8619 831.554 L46.4997 831.554 Q43.1503 831.554 41.1858 832.585 Q39.189 833.615 39.189 836.449 Q39.189 839.863 42.0553 842.601 Q44.9217 845.338 49.7525 845.338 L61.8619 845.338 Q63.9875 845.338 64.4384 844.533 Q64.8571 843.696 64.8571 840.217 L66.886 840.217 Q66.6928 846.948 66.6928 847.593 Q66.6928 848.108 66.886 855.032 Z" fill="#000000" fill-rule="nonzero" fill-opacity="1" /><path clip-path="url(#clip510)" d="M66.886 819.587 L64.8571 819.587 Q64.8571 816.077 64.4384 815.272 Q63.9875 814.467 61.8619 814.467 L27.5627 814.467 Q25.115 814.467 24.5031 815.336 Q23.8912 816.174 23.8912 819.587 L21.83 819.587 L21.1215 810.119 L61.8619 810.119 Q63.9875 810.119 64.4384 809.282 Q64.8571 808.444 64.8571 804.966 L66.886 804.966 Q66.886 805.771 66.8216 807.446 Q66.7572 809.121 66.725 810.344 Q66.6928 811.568 66.6928 812.277 Q66.6928 813.05 66.886 819.587 Z" fill="#000000" fill-rule="nonzero" fill-opacity="1" /><path clip-path="url(#clip510)" d="M66.886 802.029 L64.8571 802.029 Q64.8571 798.519 64.4384 797.713 Q63.9875 796.876 61.8619 796.876 L44.1809 796.876 Q41.7333 796.876 41.1214 797.746 Q40.5094 798.583 40.5094 802.029 L38.4483 802.029 L37.7397 792.85 L44.9861 792.85 Q42.1519 791.916 39.9619 789.952 Q37.7397 787.955 37.7397 784.734 Q37.7397 782.609 38.9314 781.256 Q40.123 779.871 41.7655 779.871 Q43.2147 779.871 43.9555 780.773 Q44.664 781.643 44.664 782.706 Q44.664 783.897 43.9233 784.734 Q43.1503 785.54 41.8299 785.54 Q41.0247 785.54 40.4128 785.185 Q39.7687 784.799 39.5433 784.509 Q39.3178 784.219 39.2534 784.026 Q39.189 784.155 39.189 784.734 Q39.189 788.374 42.8283 790.467 Q46.4353 792.528 51.5883 792.528 L61.7331 792.528 Q63.6333 792.528 64.2452 791.755 Q64.8571 790.95 64.8571 787.504 L64.8571 786.119 L66.886 786.119 Q66.6928 788.76 66.6928 794.493 Q66.6928 795.298 66.725 796.554 Q66.7572 797.81 66.8216 799.453 Q66.886 801.095 66.886 802.029 Z" fill="#000000" fill-rule="nonzero" fill-opacity="1" /><path clip-path="url(#clip510)" d="M60.6059 774.467 Q55.0021 774.467 52.0391 767.865 Q50.139 763.904 49.6559 755.723 L47.2405 755.723 Q43.1503 755.723 40.9925 757.881 Q38.8025 760.007 38.8025 762.712 Q38.8025 767.543 41.8299 769.862 Q41.8943 767.897 42.8927 767.189 Q43.8589 766.48 44.8572 766.48 Q46.1777 766.48 47.0472 767.318 Q47.8846 768.123 47.8846 769.508 Q47.8846 770.828 47.0794 771.698 Q46.2421 772.567 44.7928 772.567 Q41.5722 772.567 39.4467 769.669 Q37.3211 766.738 37.3211 762.583 Q37.3211 757.173 40.9603 753.566 Q42.0875 752.438 43.5368 751.891 Q44.9861 751.311 45.9522 751.247 Q46.8862 751.182 48.7541 751.182 L61.9263 751.182 Q62.3128 751.182 62.9569 751.054 Q63.6011 750.925 64.4384 750.345 Q65.2435 749.733 65.2435 748.735 Q65.2435 746.352 61.0246 746.384 L57.3209 746.384 L57.3209 744.709 L61.0246 744.709 Q64.535 744.709 65.9199 746.577 Q67.2725 748.413 67.2725 750.12 Q67.2725 752.31 65.6622 753.694 Q64.0519 755.079 61.8619 755.273 Q64.374 756.271 66.0165 758.558 Q67.6268 760.812 67.6268 763.904 Q67.6268 766.287 67.0149 768.541 Q66.4352 770.764 64.7927 772.631 Q63.118 774.467 60.6059 774.467 M60.5415 769.379 Q62.9891 769.379 64.5672 767.64 Q66.1453 765.9 66.1453 763.453 Q66.1453 760.683 64.0197 758.203 Q61.8619 755.723 57.643 755.723 L51.0408 755.723 Q51.2984 763.034 54.2291 766.223 Q57.1277 769.379 60.5415 769.379 Z" fill="#000000" fill-rule="nonzero" fill-opacity="1" /><path clip-path="url(#clip510)" d="M40.5094 743.123 L39.0602 743.123 Q38.9314 740.096 36.8058 738.099 Q34.648 736.07 32.0071 735.394 Q29.3662 734.685 26.3067 734.621 L26.3067 732.978 L38.4483 732.978 L38.4483 723.542 L40.5094 723.542 L40.5094 732.978 L58.8346 732.978 Q65.9521 732.978 65.9521 728.534 Q65.9521 726.634 64.0197 725.378 Q62.0552 724.122 58.5769 724.122 L54.9377 724.122 L54.9377 722.479 L58.7058 722.479 Q62.2806 722.479 64.9537 724.122 Q67.6268 725.764 67.6268 729.017 Q67.6268 730.209 67.3047 731.4 Q67.0149 732.56 66.2419 734.106 Q65.4368 735.619 63.5044 736.585 Q61.5399 737.519 58.7058 737.519 L40.5094 737.519 L40.5094 743.123 Z" fill="#000000" fill-rule="nonzero" fill-opacity="1" /><path clip-path="url(#clip510)" d="M52.3612 719.393 Q46.1455 719.393 41.7333 715.399 Q37.3211 711.406 37.3211 705.673 Q37.3211 699.876 41.0892 696.881 Q44.8572 693.854 50.2678 693.854 Q51.2662 693.854 51.4594 694.111 Q51.6527 694.369 51.6527 695.496 L51.6527 713.918 Q58.3837 713.918 61.5399 711.921 Q65.9521 709.151 65.9521 704.481 Q65.9521 703.837 65.8233 703.064 Q65.6944 702.291 65.1469 700.713 Q64.5672 699.135 63.0536 697.75 Q61.5399 696.366 59.1566 695.56 Q58.2227 695.367 58.2549 694.723 Q58.2549 693.854 59.0278 693.854 Q59.6075 693.854 60.928 694.498 Q62.2162 695.11 63.7621 696.301 Q65.308 697.493 66.4674 699.812 Q67.6268 702.098 67.6268 704.868 Q67.6268 710.665 63.2468 715.045 Q58.8346 719.393 52.3612 719.393 M50.2678 713.853 L50.2678 698.201 Q48.883 698.201 47.3371 698.459 Q45.7912 698.684 43.6656 699.393 Q41.5078 700.069 40.1552 701.68 Q38.8025 703.29 38.8025 705.673 Q38.8025 706.736 39.2534 707.895 Q39.7043 709.022 40.7993 710.407 Q41.8943 711.792 44.3742 712.758 Q46.854 713.725 50.2678 713.853 Z" fill="#000000" fill-rule="nonzero" fill-opacity="1" /><path clip-path="url(#clip510)" d="M83.3754 672.966 L17.4178 672.966 L17.4178 663.015 L18.9315 663.015 L18.9315 668.554 L81.8618 668.554 L81.8618 663.015 L83.3754 663.015 L83.3754 672.966 Z" fill="#000000" fill-rule="nonzero" fill-opacity="1" /><path clip-path="url(#clip510)" d="M66.0165 654.816 L57.3209 654.816 Q56.5802 654.816 56.3225 654.784 Q56.0649 654.751 55.8716 654.558 Q55.6784 654.365 55.6784 653.979 Q55.6784 653.528 55.8716 653.367 Q56.0649 653.173 56.8056 653.045 Q61.3466 652.046 63.7621 649.921 Q66.1453 647.763 66.1453 643.866 Q66.1453 640.162 64.5028 638.294 Q62.8603 636.426 60.155 636.426 Q55.3241 636.426 54.1003 643.286 Q53.2952 647.248 52.7799 648.89 Q52.2324 650.533 51.0408 651.982 Q48.7219 654.816 45.4369 654.816 Q42.1519 654.816 39.7365 652.336 Q37.3211 649.824 37.3211 644.285 Q37.3211 640.581 39.189 638.069 Q38.6093 637.328 38.1262 636.942 Q37.3211 636.072 37.3211 635.621 Q37.3211 635.106 37.6753 635.009 Q37.9974 634.913 38.9314 634.913 L45.5658 634.913 Q46.3065 634.913 46.5641 634.945 Q46.8218 634.977 47.015 635.17 Q47.1761 635.364 47.1761 635.782 Q47.1761 636.523 46.5641 636.555 Q38.5771 637.07 38.5771 644.285 Q38.5771 648.182 40.0908 649.921 Q41.5722 651.66 43.6012 651.66 Q44.7284 651.66 45.598 651.144 Q46.4353 650.597 46.9506 649.921 Q47.4337 649.212 47.9168 647.924 Q48.3677 646.636 48.5287 645.863 Q48.6897 645.058 49.0118 643.544 Q50.0102 638.262 52.168 636.04 Q54.9377 633.27 58.4481 633.27 Q62.345 633.27 64.9859 635.911 Q67.6268 638.552 67.6268 643.866 Q67.6268 648.149 64.7605 651.144 Q65.1469 651.531 65.5012 651.821 Q65.8233 652.111 65.9521 652.239 Q66.0809 652.336 66.1775 652.368 Q66.2419 652.4 66.3063 652.465 Q67.6268 653.785 67.6268 654.107 Q67.6268 654.623 67.2725 654.719 Q66.9505 654.816 66.0165 654.816 Z" fill="#000000" fill-rule="nonzero" fill-opacity="1" /><path clip-path="url(#clip510)" d="M34.5467 595.968 Q34.8172 595.698 35.2005 595.698 Q35.5837 595.698 35.8543 595.968 Q36.1248 596.239 36.1248 596.622 L36.1248 625.523 Q36.1248 625.907 35.8543 626.177 Q35.5837 626.448 35.2005 626.448 Q34.8172 626.448 34.5467 626.177 Q34.2762 625.907 34.2762 625.523 L34.2762 596.622 Q34.2762 596.239 34.5467 595.968 Z" fill="#000000" fill-rule="nonzero" fill-opacity="1" /><path clip-path="url(#clip510)" d="M20.389 590.878 L18.9462 590.878 Q18.9462 585.332 15.9929 582.469 Q15.9929 581.68 16.1733 581.545 Q16.3536 581.409 17.1878 581.409 L43.0909 581.409 Q44.4661 581.409 44.8945 580.733 Q45.3228 580.057 45.3228 577.103 L45.3228 575.638 L46.7431 575.638 Q46.6078 577.261 46.6078 583.123 Q46.6078 588.984 46.7431 590.585 L45.3228 590.585 L45.3228 589.119 Q45.3228 586.211 44.917 585.512 Q44.4887 584.813 43.0909 584.813 L19.1716 584.813 Q20.389 587.226 20.389 590.878 Z" fill="#000000" fill-rule="nonzero" fill-opacity="1" /><path clip-path="url(#clip510)" d="M81.8618 560.973 L81.8618 555.434 L18.9315 555.434 L18.9315 560.973 L17.4178 560.973 L17.4178 551.021 L83.3754 551.021 L83.3754 560.973 L81.8618 560.973 Z" fill="#000000" fill-rule="nonzero" fill-opacity="1" /><polyline clip-path="url(#clip512)" style="stroke:#0000ff; stroke-linecap:round; stroke-linejoin:round; stroke-width:4; stroke-opacity:1; fill:none" points="436.947,214.191 638.611,202.083 840.275,158.832 1041.94,213.87 1243.6,191.855 1445.27,264.642 1646.93,476.536 1687.26,623.624 1727.6,732.093 1788.1,880.144 1848.6,1031.04 1888.93,1118.88 1929.26,1195.74 1969.59,1273.2 2009.93,1316.5 2090.59,1380.43 2171.26,1405.98 "/>
<circle clip-path="url(#clip512)" cx="436.947" cy="214.191" r="14.4" fill="#0000ff" fill-rule="evenodd" fill-opacity="1" stroke="#000000" stroke-opacity="1" stroke-width="3.2"/>
<circle clip-path="url(#clip512)" cx="638.611" cy="202.083" r="14.4" fill="#0000ff" fill-rule="evenodd" fill-opacity="1" stroke="#000000" stroke-opacity="1" stroke-width="3.2"/>
<circle clip-path="url(#clip512)" cx="840.275" cy="158.832" r="14.4" fill="#0000ff" fill-rule="evenodd" fill-opacity="1" stroke="#000000" stroke-opacity="1" stroke-width="3.2"/>
<circle clip-path="url(#clip512)" cx="1041.94" cy="213.87" r="14.4" fill="#0000ff" fill-rule="evenodd" fill-opacity="1" stroke="#000000" stroke-opacity="1" stroke-width="3.2"/>
<circle clip-path="url(#clip512)" cx="1243.6" cy="191.855" r="14.4" fill="#0000ff" fill-rule="evenodd" fill-opacity="1" stroke="#000000" stroke-opacity="1" stroke-width="3.2"/>
<circle clip-path="url(#clip512)" cx="1445.27" cy="264.642" r="14.4" fill="#0000ff" fill-rule="evenodd" fill-opacity="1" stroke="#000000" stroke-opacity="1" stroke-width="3.2"/>
<circle clip-path="url(#clip512)" cx="1646.93" cy="476.536" r="14.4" fill="#0000ff" fill-rule="evenodd" fill-opacity="1" stroke="#000000" stroke-opacity="1" stroke-width="3.2"/>
<circle clip-path="url(#clip512)" cx="1687.26" cy="623.624" r="14.4" fill="#0000ff" fill-rule="evenodd" fill-opacity="1" stroke="#000000" stroke-opacity="1" stroke-width="3.2"/>
<circle clip-path="url(#clip512)" cx="1727.6" cy="732.093" r="14.4" fill="#0000ff" fill-rule="evenodd" fill-opacity="1" stroke="#000000" stroke-opacity="1" stroke-width="3.2"/>
<circle clip-path="url(#clip512)" cx="1788.1" cy="880.144" r="14.4" fill="#0000ff" fill-rule="evenodd" fill-opacity="1" stroke="#000000" stroke-opacity="1" stroke-width="3.2"/>
<circle clip-path="url(#clip512)" cx="1848.6" cy="1031.04" r="14.4" fill="#0000ff" fill-rule="evenodd" fill-opacity="1" stroke="#000000" stroke-opacity="1" stroke-width="3.2"/>
<circle clip-path="url(#clip512)" cx="1888.93" cy="1118.88" r="14.4" fill="#0000ff" fill-rule="evenodd" fill-opacity="1" stroke="#000000" stroke-opacity="1" stroke-width="3.2"/>
<circle clip-path="url(#clip512)" cx="1929.26" cy="1195.74" r="14.4" fill="#0000ff" fill-rule="evenodd" fill-opacity="1" stroke="#000000" stroke-opacity="1" stroke-width="3.2"/>
<circle clip-path="url(#clip512)" cx="1969.59" cy="1273.2" r="14.4" fill="#0000ff" fill-rule="evenodd" fill-opacity="1" stroke="#000000" stroke-opacity="1" stroke-width="3.2"/>
<circle clip-path="url(#clip512)" cx="2009.93" cy="1316.5" r="14.4" fill="#0000ff" fill-rule="evenodd" fill-opacity="1" stroke="#000000" stroke-opacity="1" stroke-width="3.2"/>
<circle clip-path="url(#clip512)" cx="2090.59" cy="1380.43" r="14.4" fill="#0000ff" fill-rule="evenodd" fill-opacity="1" stroke="#000000" stroke-opacity="1" stroke-width="3.2"/>
<circle clip-path="url(#clip512)" cx="2171.26" cy="1405.98" r="14.4" fill="#0000ff" fill-rule="evenodd" fill-opacity="1" stroke="#000000" stroke-opacity="1" stroke-width="3.2"/>
<polyline clip-path="url(#clip512)" style="stroke:#000000; stroke-linecap:round; stroke-linejoin:round; stroke-width:4; stroke-opacity:1; fill:none" points="416.781,214.191 457.113,214.191 "/>
<polyline clip-path="url(#clip512)" style="stroke:#000000; stroke-linecap:round; stroke-linejoin:round; stroke-width:4; stroke-opacity:1; fill:none" points="618.445,202.083 658.777,202.083 "/>
<polyline clip-path="url(#clip512)" style="stroke:#000000; stroke-linecap:round; stroke-linejoin:round; stroke-width:4; stroke-opacity:1; fill:none" points="820.109,158.832 860.442,158.832 "/>
<polyline clip-path="url(#clip512)" style="stroke:#000000; stroke-linecap:round; stroke-linejoin:round; stroke-width:4; stroke-opacity:1; fill:none" points="1021.77,213.87 1062.11,213.87 "/>
<polyline clip-path="url(#clip512)" style="stroke:#000000; stroke-linecap:round; stroke-linejoin:round; stroke-width:4; stroke-opacity:1; fill:none" points="1223.44,191.855 1263.77,191.855 "/>
<polyline clip-path="url(#clip512)" style="stroke:#000000; stroke-linecap:round; stroke-linejoin:round; stroke-width:4; stroke-opacity:1; fill:none" points="1425.1,264.642 1465.43,264.642 "/>
<polyline clip-path="url(#clip512)" style="stroke:#000000; stroke-linecap:round; stroke-linejoin:round; stroke-width:4; stroke-opacity:1; fill:none" points="1626.77,476.536 1667.1,476.536 "/>
<polyline clip-path="url(#clip512)" style="stroke:#000000; stroke-linecap:round; stroke-linejoin:round; stroke-width:4; stroke-opacity:1; fill:none" points="1667.1,623.624 1707.43,623.624 "/>
<polyline clip-path="url(#clip512)" style="stroke:#000000; stroke-linecap:round; stroke-linejoin:round; stroke-width:4; stroke-opacity:1; fill:none" points="1707.43,732.093 1747.76,732.093 "/>
<polyline clip-path="url(#clip512)" style="stroke:#000000; stroke-linecap:round; stroke-linejoin:round; stroke-width:4; stroke-opacity:1; fill:none" points="1767.93,880.144 1808.26,880.144 "/>
<polyline clip-path="url(#clip512)" style="stroke:#000000; stroke-linecap:round; stroke-linejoin:round; stroke-width:4; stroke-opacity:1; fill:none" points="1828.43,1031.04 1868.76,1031.04 "/>
<polyline clip-path="url(#clip512)" style="stroke:#000000; stroke-linecap:round; stroke-linejoin:round; stroke-width:4; stroke-opacity:1; fill:none" points="1868.76,1118.88 1909.09,1118.88 "/>
<polyline clip-path="url(#clip512)" style="stroke:#000000; stroke-linecap:round; stroke-linejoin:round; stroke-width:4; stroke-opacity:1; fill:none" points="1909.09,1195.74 1949.43,1195.74 "/>
<polyline clip-path="url(#clip512)" style="stroke:#000000; stroke-linecap:round; stroke-linejoin:round; stroke-width:4; stroke-opacity:1; fill:none" points="1949.43,1273.2 1989.76,1273.2 "/>
<polyline clip-path="url(#clip512)" style="stroke:#000000; stroke-linecap:round; stroke-linejoin:round; stroke-width:4; stroke-opacity:1; fill:none" points="1989.76,1316.5 2030.09,1316.5 "/>
<polyline clip-path="url(#clip512)" style="stroke:#000000; stroke-linecap:round; stroke-linejoin:round; stroke-width:4; stroke-opacity:1; fill:none" points="2070.43,1380.43 2110.76,1380.43 "/>
<polyline clip-path="url(#clip512)" style="stroke:#000000; stroke-linecap:round; stroke-linejoin:round; stroke-width:4; stroke-opacity:1; fill:none" points="2151.09,1405.98 2191.42,1405.98 "/>
<line clip-path="url(#clip512)" x1="416.781" y1="230.191" x2="416.781" y2="198.191" style="stroke:#000000; stroke-width:4; stroke-opacity:1"/>
<line clip-path="url(#clip512)" x1="457.113" y1="230.191" x2="457.113" y2="198.191" style="stroke:#000000; stroke-width:4; stroke-opacity:1"/>
<line clip-path="url(#clip512)" x1="618.445" y1="218.083" x2="618.445" y2="186.083" style="stroke:#000000; stroke-width:4; stroke-opacity:1"/>
<line clip-path="url(#clip512)" x1="658.777" y1="218.083" x2="658.777" y2="186.083" style="stroke:#000000; stroke-width:4; stroke-opacity:1"/>
<line clip-path="url(#clip512)" x1="820.109" y1="174.832" x2="820.109" y2="142.832" style="stroke:#000000; stroke-width:4; stroke-opacity:1"/>
<line clip-path="url(#clip512)" x1="860.442" y1="174.832" x2="860.442" y2="142.832" style="stroke:#000000; stroke-width:4; stroke-opacity:1"/>
<line clip-path="url(#clip512)" x1="1021.77" y1="229.87" x2="1021.77" y2="197.87" style="stroke:#000000; stroke-width:4; stroke-opacity:1"/>
<line clip-path="url(#clip512)" x1="1062.11" y1="229.87" x2="1062.11" y2="197.87" style="stroke:#000000; stroke-width:4; stroke-opacity:1"/>
<line clip-path="url(#clip512)" x1="1223.44" y1="207.855" x2="1223.44" y2="175.855" style="stroke:#000000; stroke-width:4; stroke-opacity:1"/>
<line clip-path="url(#clip512)" x1="1263.77" y1="207.855" x2="1263.77" y2="175.855" style="stroke:#000000; stroke-width:4; stroke-opacity:1"/>
<line clip-path="url(#clip512)" x1="1425.1" y1="280.642" x2="1425.1" y2="248.642" style="stroke:#000000; stroke-width:4; stroke-opacity:1"/>
<line clip-path="url(#clip512)" x1="1465.43" y1="280.642" x2="1465.43" y2="248.642" style="stroke:#000000; stroke-width:4; stroke-opacity:1"/>
<line clip-path="url(#clip512)" x1="1626.77" y1="492.536" x2="1626.77" y2="460.536" style="stroke:#000000; stroke-width:4; stroke-opacity:1"/>
<line clip-path="url(#clip512)" x1="1667.1" y1="492.536" x2="1667.1" y2="460.536" style="stroke:#000000; stroke-width:4; stroke-opacity:1"/>
<line clip-path="url(#clip512)" x1="1667.1" y1="639.624" x2="1667.1" y2="607.624" style="stroke:#000000; stroke-width:4; stroke-opacity:1"/>
<line clip-path="url(#clip512)" x1="1707.43" y1="639.624" x2="1707.43" y2="607.624" style="stroke:#000000; stroke-width:4; stroke-opacity:1"/>
<line clip-path="url(#clip512)" x1="1707.43" y1="748.093" x2="1707.43" y2="716.093" style="stroke:#000000; stroke-width:4; stroke-opacity:1"/>
<line clip-path="url(#clip512)" x1="1747.76" y1="748.093" x2="1747.76" y2="716.093" style="stroke:#000000; stroke-width:4; stroke-opacity:1"/>
<line clip-path="url(#clip512)" x1="1767.93" y1="896.144" x2="1767.93" y2="864.144" style="stroke:#000000; stroke-width:4; stroke-opacity:1"/>
<line clip-path="url(#clip512)" x1="1808.26" y1="896.144" x2="1808.26" y2="864.144" style="stroke:#000000; stroke-width:4; stroke-opacity:1"/>
<line clip-path="url(#clip512)" x1="1828.43" y1="1047.04" x2="1828.43" y2="1015.04" style="stroke:#000000; stroke-width:4; stroke-opacity:1"/>
<line clip-path="url(#clip512)" x1="1868.76" y1="1047.04" x2="1868.76" y2="1015.04" style="stroke:#000000; stroke-width:4; stroke-opacity:1"/>
<line clip-path="url(#clip512)" x1="1868.76" y1="1134.88" x2="1868.76" y2="1102.88" style="stroke:#000000; stroke-width:4; stroke-opacity:1"/>
<line clip-path="url(#clip512)" x1="1909.09" y1="1134.88" x2="1909.09" y2="1102.88" style="stroke:#000000; stroke-width:4; stroke-opacity:1"/>
<line clip-path="url(#clip512)" x1="1909.09" y1="1211.74" x2="1909.09" y2="1179.74" style="stroke:#000000; stroke-width:4; stroke-opacity:1"/>
<line clip-path="url(#clip512)" x1="1949.43" y1="1211.74" x2="1949.43" y2="1179.74" style="stroke:#000000; stroke-width:4; stroke-opacity:1"/>
<line clip-path="url(#clip512)" x1="1949.43" y1="1289.2" x2="1949.43" y2="1257.2" style="stroke:#000000; stroke-width:4; stroke-opacity:1"/>
<line clip-path="url(#clip512)" x1="1989.76" y1="1289.2" x2="1989.76" y2="1257.2" style="stroke:#000000; stroke-width:4; stroke-opacity:1"/>
<line clip-path="url(#clip512)" x1="1989.76" y1="1332.5" x2="1989.76" y2="1300.5" style="stroke:#000000; stroke-width:4; stroke-opacity:1"/>
<line clip-path="url(#clip512)" x1="2030.09" y1="1332.5" x2="2030.09" y2="1300.5" style="stroke:#000000; stroke-width:4; stroke-opacity:1"/>
<line clip-path="url(#clip512)" x1="2070.43" y1="1396.43" x2="2070.43" y2="1364.43" style="stroke:#000000; stroke-width:4; stroke-opacity:1"/>
<line clip-path="url(#clip512)" x1="2110.76" y1="1396.43" x2="2110.76" y2="1364.43" style="stroke:#000000; stroke-width:4; stroke-opacity:1"/>
<line clip-path="url(#clip512)" x1="2151.09" y1="1421.98" x2="2151.09" y2="1389.98" style="stroke:#000000; stroke-width:4; stroke-opacity:1"/>
<line clip-path="url(#clip512)" x1="2191.42" y1="1421.98" x2="2191.42" y2="1389.98" style="stroke:#000000; stroke-width:4; stroke-opacity:1"/>
<polyline clip-path="url(#clip512)" style="stroke:#ffa500; stroke-linecap:round; stroke-linejoin:round; stroke-width:4; stroke-opacity:1; fill:none" points="436.947,533.913 638.611,510.659 840.275,501.853 1041.94,511.898 1243.6,528.959 1445.27,511.21 1646.93,593.628 1727.6,699.506 1808.26,941.602 1848.6,1062.63 1888.93,1185.97 1929.26,1297.21 2050.26,1395.78 2251.92,1422.95 "/>
<circle clip-path="url(#clip512)" cx="436.947" cy="533.913" r="14.4" fill="#ffa500" fill-rule="evenodd" fill-opacity="1" stroke="#000000" stroke-opacity="1" stroke-width="3.2"/>
<circle clip-path="url(#clip512)" cx="638.611" cy="510.659" r="14.4" fill="#ffa500" fill-rule="evenodd" fill-opacity="1" stroke="#000000" stroke-opacity="1" stroke-width="3.2"/>
<circle clip-path="url(#clip512)" cx="840.275" cy="501.853" r="14.4" fill="#ffa500" fill-rule="evenodd" fill-opacity="1" stroke="#000000" stroke-opacity="1" stroke-width="3.2"/>
<circle clip-path="url(#clip512)" cx="1041.94" cy="511.898" r="14.4" fill="#ffa500" fill-rule="evenodd" fill-opacity="1" stroke="#000000" stroke-opacity="1" stroke-width="3.2"/>
<circle clip-path="url(#clip512)" cx="1243.6" cy="528.959" r="14.4" fill="#ffa500" fill-rule="evenodd" fill-opacity="1" stroke="#000000" stroke-opacity="1" stroke-width="3.2"/>
<circle clip-path="url(#clip512)" cx="1445.27" cy="511.21" r="14.4" fill="#ffa500" fill-rule="evenodd" fill-opacity="1" stroke="#000000" stroke-opacity="1" stroke-width="3.2"/>
<circle clip-path="url(#clip512)" cx="1646.93" cy="593.628" r="14.4" fill="#ffa500" fill-rule="evenodd" fill-opacity="1" stroke="#000000" stroke-opacity="1" stroke-width="3.2"/>
<circle clip-path="url(#clip512)" cx="1727.6" cy="699.506" r="14.4" fill="#ffa500" fill-rule="evenodd" fill-opacity="1" stroke="#000000" stroke-opacity="1" stroke-width="3.2"/>
<circle clip-path="url(#clip512)" cx="1808.26" cy="941.602" r="14.4" fill="#ffa500" fill-rule="evenodd" fill-opacity="1" stroke="#000000" stroke-opacity="1" stroke-width="3.2"/>
<circle clip-path="url(#clip512)" cx="1848.6" cy="1062.63" r="14.4" fill="#ffa500" fill-rule="evenodd" fill-opacity="1" stroke="#000000" stroke-opacity="1" stroke-width="3.2"/>
<circle clip-path="url(#clip512)" cx="1888.93" cy="1185.97" r="14.4" fill="#ffa500" fill-rule="evenodd" fill-opacity="1" stroke="#000000" stroke-opacity="1" stroke-width="3.2"/>
<circle clip-path="url(#clip512)" cx="1929.26" cy="1297.21" r="14.4" fill="#ffa500" fill-rule="evenodd" fill-opacity="1" stroke="#000000" stroke-opacity="1" stroke-width="3.2"/>
<circle clip-path="url(#clip512)" cx="2050.26" cy="1395.78" r="14.4" fill="#ffa500" fill-rule="evenodd" fill-opacity="1" stroke="#000000" stroke-opacity="1" stroke-width="3.2"/>
<circle clip-path="url(#clip512)" cx="2251.92" cy="1422.95" r="14.4" fill="#ffa500" fill-rule="evenodd" fill-opacity="1" stroke="#000000" stroke-opacity="1" stroke-width="3.2"/>
<polyline clip-path="url(#clip512)" style="stroke:#000000; stroke-linecap:round; stroke-linejoin:round; stroke-width:4; stroke-opacity:1; fill:none" points="416.781,533.913 457.113,533.913 "/>
<polyline clip-path="url(#clip512)" style="stroke:#000000; stroke-linecap:round; stroke-linejoin:round; stroke-width:4; stroke-opacity:1; fill:none" points="618.445,510.659 658.777,510.659 "/>
<polyline clip-path="url(#clip512)" style="stroke:#000000; stroke-linecap:round; stroke-linejoin:round; stroke-width:4; stroke-opacity:1; fill:none" points="820.109,501.853 860.442,501.853 "/>
<polyline clip-path="url(#clip512)" style="stroke:#000000; stroke-linecap:round; stroke-linejoin:round; stroke-width:4; stroke-opacity:1; fill:none" points="1021.77,511.898 1062.11,511.898 "/>
<polyline clip-path="url(#clip512)" style="stroke:#000000; stroke-linecap:round; stroke-linejoin:round; stroke-width:4; stroke-opacity:1; fill:none" points="1223.44,528.959 1263.77,528.959 "/>
<polyline clip-path="url(#clip512)" style="stroke:#000000; stroke-linecap:round; stroke-linejoin:round; stroke-width:4; stroke-opacity:1; fill:none" points="1425.1,511.21 1465.43,511.21 "/>
<polyline clip-path="url(#clip512)" style="stroke:#000000; stroke-linecap:round; stroke-linejoin:round; stroke-width:4; stroke-opacity:1; fill:none" points="1626.77,593.628 1667.1,593.628 "/>
<polyline clip-path="url(#clip512)" style="stroke:#000000; stroke-linecap:round; stroke-linejoin:round; stroke-width:4; stroke-opacity:1; fill:none" points="1707.43,699.506 1747.76,699.506 "/>
<polyline clip-path="url(#clip512)" style="stroke:#000000; stroke-linecap:round; stroke-linejoin:round; stroke-width:4; stroke-opacity:1; fill:none" points="1788.1,941.602 1828.43,941.602 "/>
<polyline clip-path="url(#clip512)" style="stroke:#000000; stroke-linecap:round; stroke-linejoin:round; stroke-width:4; stroke-opacity:1; fill:none" points="1828.43,1062.63 1868.76,1062.63 "/>
<polyline clip-path="url(#clip512)" style="stroke:#000000; stroke-linecap:round; stroke-linejoin:round; stroke-width:4; stroke-opacity:1; fill:none" points="1868.76,1185.97 1909.09,1185.97 "/>
<polyline clip-path="url(#clip512)" style="stroke:#000000; stroke-linecap:round; stroke-linejoin:round; stroke-width:4; stroke-opacity:1; fill:none" points="1909.09,1297.21 1949.43,1297.21 "/>
<polyline clip-path="url(#clip512)" style="stroke:#000000; stroke-linecap:round; stroke-linejoin:round; stroke-width:4; stroke-opacity:1; fill:none" points="2030.09,1395.78 2070.43,1395.78 "/>
<polyline clip-path="url(#clip512)" style="stroke:#000000; stroke-linecap:round; stroke-linejoin:round; stroke-width:4; stroke-opacity:1; fill:none" points="2231.76,1422.95 2272.09,1422.95 "/>
<line clip-path="url(#clip512)" x1="416.781" y1="549.913" x2="416.781" y2="517.913" style="stroke:#000000; stroke-width:4; stroke-opacity:1"/>
<line clip-path="url(#clip512)" x1="457.113" y1="549.913" x2="457.113" y2="517.913" style="stroke:#000000; stroke-width:4; stroke-opacity:1"/>
<line clip-path="url(#clip512)" x1="618.445" y1="526.659" x2="618.445" y2="494.659" style="stroke:#000000; stroke-width:4; stroke-opacity:1"/>
<line clip-path="url(#clip512)" x1="658.777" y1="526.659" x2="658.777" y2="494.659" style="stroke:#000000; stroke-width:4; stroke-opacity:1"/>
<line clip-path="url(#clip512)" x1="820.109" y1="517.853" x2="820.109" y2="485.853" style="stroke:#000000; stroke-width:4; stroke-opacity:1"/>
<line clip-path="url(#clip512)" x1="860.442" y1="517.853" x2="860.442" y2="485.853" style="stroke:#000000; stroke-width:4; stroke-opacity:1"/>
<line clip-path="url(#clip512)" x1="1021.77" y1="527.898" x2="1021.77" y2="495.898" style="stroke:#000000; stroke-width:4; stroke-opacity:1"/>
<line clip-path="url(#clip512)" x1="1062.11" y1="527.898" x2="1062.11" y2="495.898" style="stroke:#000000; stroke-width:4; stroke-opacity:1"/>
<line clip-path="url(#clip512)" x1="1223.44" y1="544.959" x2="1223.44" y2="512.959" style="stroke:#000000; stroke-width:4; stroke-opacity:1"/>
<line clip-path="url(#clip512)" x1="1263.77" y1="544.959" x2="1263.77" y2="512.959" style="stroke:#000000; stroke-width:4; stroke-opacity:1"/>
<line clip-path="url(#clip512)" x1="1425.1" y1="527.21" x2="1425.1" y2="495.21" style="stroke:#000000; stroke-width:4; stroke-opacity:1"/>
<line clip-path="url(#clip512)" x1="1465.43" y1="527.21" x2="1465.43" y2="495.21" style="stroke:#000000; stroke-width:4; stroke-opacity:1"/>
<line clip-path="url(#clip512)" x1="1626.77" y1="609.628" x2="1626.77" y2="577.628" style="stroke:#000000; stroke-width:4; stroke-opacity:1"/>
<line clip-path="url(#clip512)" x1="1667.1" y1="609.628" x2="1667.1" y2="577.628" style="stroke:#000000; stroke-width:4; stroke-opacity:1"/>
<line clip-path="url(#clip512)" x1="1707.43" y1="715.506" x2="1707.43" y2="683.506" style="stroke:#000000; stroke-width:4; stroke-opacity:1"/>
<line clip-path="url(#clip512)" x1="1747.76" y1="715.506" x2="1747.76" y2="683.506" style="stroke:#000000; stroke-width:4; stroke-opacity:1"/>
<line clip-path="url(#clip512)" x1="1788.1" y1="957.602" x2="1788.1" y2="925.602" style="stroke:#000000; stroke-width:4; stroke-opacity:1"/>
<line clip-path="url(#clip512)" x1="1828.43" y1="957.602" x2="1828.43" y2="925.602" style="stroke:#000000; stroke-width:4; stroke-opacity:1"/>
<line clip-path="url(#clip512)" x1="1828.43" y1="1078.63" x2="1828.43" y2="1046.63" style="stroke:#000000; stroke-width:4; stroke-opacity:1"/>
<line clip-path="url(#clip512)" x1="1868.76" y1="1078.63" x2="1868.76" y2="1046.63" style="stroke:#000000; stroke-width:4; stroke-opacity:1"/>
<line clip-path="url(#clip512)" x1="1868.76" y1="1201.97" x2="1868.76" y2="1169.97" style="stroke:#000000; stroke-width:4; stroke-opacity:1"/>
<line clip-path="url(#clip512)" x1="1909.09" y1="1201.97" x2="1909.09" y2="1169.97" style="stroke:#000000; stroke-width:4; stroke-opacity:1"/>
<line clip-path="url(#clip512)" x1="1909.09" y1="1313.21" x2="1909.09" y2="1281.21" style="stroke:#000000; stroke-width:4; stroke-opacity:1"/>
<line clip-path="url(#clip512)" x1="1949.43" y1="1313.21" x2="1949.43" y2="1281.21" style="stroke:#000000; stroke-width:4; stroke-opacity:1"/>
<line clip-path="url(#clip512)" x1="2030.09" y1="1411.78" x2="2030.09" y2="1379.78" style="stroke:#000000; stroke-width:4; stroke-opacity:1"/>
<line clip-path="url(#clip512)" x1="2070.43" y1="1411.78" x2="2070.43" y2="1379.78" style="stroke:#000000; stroke-width:4; stroke-opacity:1"/>
<line clip-path="url(#clip512)" x1="2231.76" y1="1438.95" x2="2231.76" y2="1406.95" style="stroke:#000000; stroke-width:4; stroke-opacity:1"/>
<line clip-path="url(#clip512)" x1="2272.09" y1="1438.95" x2="2272.09" y2="1406.95" style="stroke:#000000; stroke-width:4; stroke-opacity:1"/>
<polyline clip-path="url(#clip512)" style="stroke:#0000ff; stroke-linecap:round; stroke-linejoin:round; stroke-width:4; stroke-opacity:1; fill:none" stroke-dasharray="2, 4" points="235.283,-2915.61 249.069,-2882.08 376.539,-2572.04 453.144,-2385.72 517.912,-2228.19 588.268,-2057.06 653.131,-1899.3 722.67,-1730.16 803.238,-1534.2 874.838,-1360.05 937.624,-1207.34 1006.08,-1040.84 1074.94,-873.357 1151.07,-688.179 1223.51,-511.987 1298.83,-328.788 1362.24,-174.573 1439.65,13.7052 1510.56,186.18 1576.05,345.474 1642.39,506.834 1716.74,687.673 1784.12,851.543 1861.25,1039.16 1932.68,1212.88 2003.09,1384.15 2071.46,1550.43 2141.54,1720.9 2218.33,1907.66 2329.87,2178.96 2352.76,2234.62 "/>
<polyline clip-path="url(#clip512)" style="stroke:#ffa500; stroke-linecap:round; stroke-linejoin:round; stroke-width:4; stroke-opacity:1; fill:none" stroke-dasharray="2, 4" points="235.283,-3743.07 249.069,-3702.02 376.539,-3322.41 453.144,-3094.28 517.912,-2901.4 588.268,-2691.87 653.131,-2498.71 722.67,-2291.62 803.238,-2051.69 874.838,-1838.46 937.624,-1651.49 1006.08,-1447.63 1074.94,-1242.56 1151.07,-1015.83 1223.51,-800.104 1298.83,-575.798 1362.24,-386.98 1439.65,-156.454 1510.56,54.7221 1576.05,249.759 1642.39,447.326 1716.74,668.743 1784.12,869.383 1861.25,1099.1 1932.68,1311.8 2003.09,1521.5 2071.46,1725.09 2141.54,1933.81 2218.33,2162.48 2329.87,2494.66 2352.76,2562.81 "/>
<polyline clip-path="url(#clip512)" style="stroke:#0000ff; stroke-linecap:round; stroke-linejoin:round; stroke-width:4; stroke-opacity:1; fill:none" stroke-dasharray="16, 10" points="235.283,815.379 1769.25,815.379 "/>
<polyline clip-path="url(#clip512)" style="stroke:#ffa500; stroke-linecap:round; stroke-linejoin:round; stroke-width:4; stroke-opacity:1; fill:none" stroke-dasharray="16, 10" points="235.283,975.313 1819.69,975.313 "/>
<polyline clip-path="url(#clip512)" style="stroke:#0000ff; stroke-linecap:round; stroke-linejoin:round; stroke-width:4; stroke-opacity:1; fill:none" stroke-dasharray="16, 10" points="1769.25,1423.18 1769.25,815.379 "/>
<polyline clip-path="url(#clip512)" style="stroke:#ffa500; stroke-linecap:round; stroke-linejoin:round; stroke-width:4; stroke-opacity:1; fill:none" stroke-dasharray="16, 10" points="1819.69,1423.18 1819.69,975.313 "/>
<path clip-path="url(#clip510)" d="M305.865 1377.32 L968.216 1377.32 L968.216 1221.8 L305.865 1221.8  Z" fill="#ffffff" fill-rule="evenodd" fill-opacity="1"/>
<polyline clip-path="url(#clip510)" style="stroke:#000000; stroke-linecap:round; stroke-linejoin:round; stroke-width:4; stroke-opacity:1; fill:none" points="305.865,1377.32 968.216,1377.32 968.216,1221.8 305.865,1221.8 305.865,1377.32 "/>
<polyline clip-path="url(#clip510)" style="stroke:#0000ff; stroke-linecap:round; stroke-linejoin:round; stroke-width:4; stroke-opacity:1; fill:none" points="329.393,1273.64 470.558,1273.64 "/>
<circle clip-path="url(#clip510)" cx="399.975" cy="1273.64" r="19.6062" fill="#0000ff" fill-rule="evenodd" fill-opacity="1" stroke="#000000" stroke-opacity="1" stroke-width="4.55111"/>
<path clip-path="url(#clip510)" d="M494.085 1286.06 L494.085 1284.58 Q498.348 1284.49 499.449 1281.35 L509.38 1252.68 Q509.567 1252.09 509.778 1251.91 Q509.989 1251.72 510.528 1251.72 Q510.809 1251.72 510.973 1251.77 Q511.16 1251.81 511.277 1251.98 Q511.394 1252.14 511.441 1252.24 Q511.488 1252.33 511.629 1252.68 L521.981 1282.66 Q522.356 1283.86 523.129 1284.23 Q523.902 1284.58 526.08 1284.58 L526.923 1284.58 L526.923 1286.06 Q523.902 1285.92 520.646 1285.92 Q515.47 1285.92 513.737 1286.06 L513.737 1284.58 Q517.718 1284.58 517.718 1283.13 Q517.718 1283.04 517.578 1282.45 L515.048 1275.12 L503.196 1275.12 L500.971 1281.4 Q500.878 1281.58 500.878 1282.12 Q500.878 1283.13 501.815 1283.86 Q502.751 1284.58 504.485 1284.58 L504.485 1286.06 Q499.87 1285.92 498.957 1285.92 Q497.388 1285.92 494.085 1286.06 M503.712 1273.64 L514.509 1273.64 L509.099 1258.04 L503.712 1273.64 Z" fill="#000000" fill-rule="nonzero" fill-opacity="1" /><path clip-path="url(#clip510)" d="M529.902 1286.06 L529.902 1284.58 Q532.455 1284.58 533.041 1284.28 Q533.626 1283.95 533.626 1282.4 L533.626 1257.46 Q533.626 1255.68 532.994 1255.23 Q532.385 1254.79 529.902 1254.79 L529.902 1253.29 L536.788 1252.77 L536.788 1282.4 Q536.788 1283.95 537.397 1284.28 Q538.006 1284.58 540.536 1284.58 L540.536 1286.06 Q539.95 1286.06 538.732 1286.01 Q537.514 1285.96 536.624 1285.94 Q535.734 1285.92 535.219 1285.92 Q534.657 1285.92 529.902 1286.06 Z" fill="#000000" fill-rule="nonzero" fill-opacity="1" /><path clip-path="url(#clip510)" d="M542.669 1266.87 L542.669 1265.38 L549.719 1264.86 L549.719 1280.79 Q549.719 1281.93 549.813 1282.61 Q549.906 1283.27 550.281 1284.04 Q550.679 1284.82 551.569 1285.17 Q552.483 1285.52 553.935 1285.52 Q556.535 1285.52 558.128 1283.39 Q559.744 1281.26 559.744 1278.09 L559.744 1269.54 Q559.744 1267.76 559.111 1267.32 Q558.479 1266.87 555.996 1266.87 L555.996 1265.38 L563.046 1264.86 L563.046 1281.89 Q563.046 1283.67 563.655 1284.14 Q564.288 1284.58 566.794 1284.58 L566.794 1286.06 L559.884 1286.6 L559.884 1282.26 Q557.87 1286.57 553.701 1286.6 Q551.593 1286.6 550.141 1286.06 Q548.712 1285.52 547.986 1284.86 Q547.26 1284.18 546.861 1282.9 Q546.487 1281.61 546.44 1280.81 Q546.393 1280.01 546.393 1278.47 L546.393 1271.28 Q546.393 1268.02 545.924 1267.46 Q545.456 1266.87 542.669 1266.87 Z" fill="#000000" fill-rule="nonzero" fill-opacity="1" /><path clip-path="url(#clip510)" d="M568.44 1286.06 L568.44 1284.58 Q570.993 1284.58 571.579 1284.28 Q572.165 1283.95 572.165 1282.4 L572.165 1269.54 Q572.165 1267.76 571.532 1267.32 Q570.923 1266.87 568.44 1266.87 L568.44 1265.38 L575.186 1264.86 L575.186 1269.9 Q577.435 1264.86 582.283 1264.86 Q587.904 1264.86 588.677 1269.54 Q589.497 1267.72 591.207 1266.29 Q592.94 1264.86 595.634 1264.86 Q599.241 1264.86 600.67 1266.64 Q601.724 1267.83 601.934 1269.17 Q602.145 1270.5 602.145 1273.97 L602.145 1283.13 Q602.192 1284.14 602.965 1284.37 Q603.738 1284.58 605.893 1284.58 L605.893 1286.06 Q600.998 1285.92 600.529 1285.92 Q600.154 1285.92 595.095 1286.06 L595.095 1284.58 Q597.648 1284.58 598.234 1284.28 Q598.843 1283.95 598.843 1282.4 L598.843 1271.23 Q598.843 1268.79 598.093 1267.37 Q597.344 1265.91 595.283 1265.91 Q592.8 1265.91 590.809 1268 Q588.818 1270.08 588.818 1273.6 L588.818 1282.4 Q588.818 1283.95 589.403 1284.28 Q590.012 1284.58 592.566 1284.58 L592.566 1286.06 Q587.67 1285.92 587.178 1285.92 Q586.804 1285.92 581.768 1286.06 L581.768 1284.58 Q584.321 1284.58 584.906 1284.28 Q585.515 1283.95 585.515 1282.4 L585.515 1271.23 Q585.515 1268.79 584.766 1267.37 Q584.016 1265.91 581.955 1265.91 Q579.472 1265.91 577.481 1268 Q575.491 1270.08 575.491 1273.6 L575.491 1282.4 Q575.491 1283.95 576.076 1284.28 Q576.685 1284.58 579.215 1284.58 L579.215 1286.06 Q574.319 1285.92 573.851 1285.92 Q573.476 1285.92 568.44 1286.06 Z" fill="#000000" fill-rule="nonzero" fill-opacity="1" /><path clip-path="url(#clip510)" d="M607.793 1286.06 L607.793 1284.58 Q610.346 1284.58 610.932 1284.28 Q611.517 1283.95 611.517 1282.4 L611.517 1269.5 Q611.517 1267.72 610.908 1267.3 Q610.323 1266.87 607.98 1266.87 L607.98 1265.38 L614.679 1264.86 L614.679 1282.45 Q614.679 1283.88 615.195 1284.23 Q615.71 1284.58 618.052 1284.58 L618.052 1286.06 Q613.157 1285.92 613.063 1285.92 Q612.407 1285.92 607.793 1286.06 M609.807 1256.5 Q609.807 1255.54 610.534 1254.76 Q611.283 1253.97 612.337 1253.97 Q613.391 1253.97 614.141 1254.69 Q614.89 1255.4 614.89 1256.52 Q614.89 1257.62 614.141 1258.35 Q613.391 1259.05 612.337 1259.05 Q611.236 1259.05 610.51 1258.28 Q609.807 1257.51 609.807 1256.5 Z" fill="#000000" fill-rule="nonzero" fill-opacity="1" /><path clip-path="url(#clip510)" d="M621.328 1286.06 L621.328 1284.58 Q623.881 1284.58 624.466 1284.28 Q625.052 1283.95 625.052 1282.4 L625.052 1269.54 Q625.052 1267.76 624.419 1267.32 Q623.81 1266.87 621.328 1266.87 L621.328 1265.38 L628.073 1264.86 L628.073 1269.9 Q630.322 1264.86 635.17 1264.86 Q638.777 1264.86 640.206 1266.64 Q641.26 1267.83 641.471 1269.17 Q641.705 1270.5 641.705 1273.97 L641.705 1283.13 Q641.752 1284.14 642.525 1284.37 Q643.298 1284.58 645.453 1284.58 L645.453 1286.06 Q640.558 1285.92 640.066 1285.92 Q639.691 1285.92 634.655 1286.06 L634.655 1284.58 Q637.208 1284.58 637.794 1284.28 Q638.403 1283.95 638.403 1282.4 L638.403 1271.23 Q638.403 1268.79 637.653 1267.37 Q636.904 1265.91 634.842 1265.91 Q632.36 1265.91 630.369 1268 Q628.378 1270.08 628.378 1273.6 L628.378 1282.4 Q628.378 1283.95 628.963 1284.28 Q629.572 1284.58 632.102 1284.58 L632.102 1286.06 Q627.207 1285.92 626.738 1285.92 Q626.364 1285.92 621.328 1286.06 Z" fill="#000000" fill-rule="nonzero" fill-opacity="1" /><path clip-path="url(#clip510)" d="M647.867 1286.06 L647.867 1284.58 Q650.42 1284.58 651.006 1284.28 Q651.592 1283.95 651.592 1282.4 L651.592 1269.5 Q651.592 1267.72 650.983 1267.3 Q650.397 1266.87 648.055 1266.87 L648.055 1265.38 L654.754 1264.86 L654.754 1282.45 Q654.754 1283.88 655.269 1284.23 Q655.784 1284.58 658.126 1284.58 L658.126 1286.06 Q653.231 1285.92 653.137 1285.92 Q652.482 1285.92 647.867 1286.06 M649.882 1256.5 Q649.882 1255.54 650.608 1254.76 Q651.357 1253.97 652.411 1253.97 Q653.465 1253.97 654.215 1254.69 Q654.964 1255.4 654.964 1256.52 Q654.964 1257.62 654.215 1258.35 Q653.465 1259.05 652.411 1259.05 Q651.31 1259.05 650.584 1258.28 Q649.882 1257.51 649.882 1256.5 Z" fill="#000000" fill-rule="nonzero" fill-opacity="1" /><path clip-path="url(#clip510)" d="M661.402 1266.87 L661.402 1265.38 L668.452 1264.86 L668.452 1280.79 Q668.452 1281.93 668.546 1282.61 Q668.64 1283.27 669.014 1284.04 Q669.412 1284.82 670.303 1285.17 Q671.216 1285.52 672.668 1285.52 Q675.268 1285.52 676.861 1283.39 Q678.477 1281.26 678.477 1278.09 L678.477 1269.54 Q678.477 1267.76 677.845 1267.32 Q677.212 1266.87 674.729 1266.87 L674.729 1265.38 L681.78 1264.86 L681.78 1281.89 Q681.78 1283.67 682.389 1284.14 Q683.021 1284.58 685.527 1284.58 L685.527 1286.06 L678.618 1286.6 L678.618 1282.26 Q676.603 1286.57 672.434 1286.6 Q670.326 1286.6 668.874 1286.06 Q667.445 1285.52 666.719 1284.86 Q665.993 1284.18 665.595 1282.9 Q665.22 1281.61 665.173 1280.81 Q665.126 1280.01 665.126 1278.47 L665.126 1271.28 Q665.126 1268.02 664.658 1267.46 Q664.189 1266.87 661.402 1266.87 Z" fill="#000000" fill-rule="nonzero" fill-opacity="1" /><path clip-path="url(#clip510)" d="M687.174 1286.06 L687.174 1284.58 Q689.727 1284.58 690.312 1284.28 Q690.898 1283.95 690.898 1282.4 L690.898 1269.54 Q690.898 1267.76 690.265 1267.32 Q689.656 1266.87 687.174 1266.87 L687.174 1265.38 L693.919 1264.86 L693.919 1269.9 Q696.168 1264.86 701.016 1264.86 Q706.638 1264.86 707.411 1269.54 Q708.23 1267.72 709.94 1266.29 Q711.674 1264.86 714.367 1264.86 Q717.974 1264.86 719.403 1266.64 Q720.457 1267.83 720.668 1269.17 Q720.879 1270.5 720.879 1273.97 L720.879 1283.13 Q720.925 1284.14 721.698 1284.37 Q722.471 1284.58 724.626 1284.58 L724.626 1286.06 Q719.731 1285.92 719.262 1285.92 Q718.888 1285.92 713.828 1286.06 L713.828 1284.58 Q716.381 1284.58 716.967 1284.28 Q717.576 1283.95 717.576 1282.4 L717.576 1271.23 Q717.576 1268.79 716.826 1267.37 Q716.077 1265.91 714.016 1265.91 Q711.533 1265.91 709.542 1268 Q707.551 1270.08 707.551 1273.6 L707.551 1282.4 Q707.551 1283.95 708.137 1284.28 Q708.746 1284.58 711.299 1284.58 L711.299 1286.06 Q706.403 1285.92 705.912 1285.92 Q705.537 1285.92 700.501 1286.06 L700.501 1284.58 Q703.054 1284.58 703.64 1284.28 Q704.249 1283.95 704.249 1282.4 L704.249 1271.23 Q704.249 1268.79 703.499 1267.37 Q702.75 1265.91 700.688 1265.91 Q698.206 1265.91 696.215 1268 Q694.224 1270.08 694.224 1273.6 L694.224 1282.4 Q694.224 1283.95 694.809 1284.28 Q695.418 1284.58 697.948 1284.58 L697.948 1286.06 Q693.053 1285.92 692.584 1285.92 Q692.209 1285.92 687.174 1286.06 Z" fill="#000000" fill-rule="nonzero" fill-opacity="1" /><path clip-path="url(#clip510)" d="M727.398 1285.28 Q726.718 1284.51 726.718 1283.5 Q726.718 1282.5 727.374 1281.75 Q728.053 1280.97 729.271 1280.97 Q730.7 1280.97 731.52 1282.36 Q732.34 1283.71 732.34 1286.01 Q732.34 1288.49 731.333 1290.79 Q730.325 1293.11 729.342 1294.21 Q728.358 1295.31 727.96 1295.31 Q727.491 1295.31 727.491 1294.79 Q727.491 1294.61 727.819 1294.26 Q731.262 1290.55 731.286 1286.01 Q731.286 1285.28 731.192 1285.28 L731.075 1285.38 Q730.255 1286.06 729.271 1286.06 Q728.077 1286.06 727.398 1285.28 Z" fill="#000000" fill-rule="nonzero" fill-opacity="1" /><path clip-path="url(#clip510)" d="M770.309 1253.29 L763.399 1281.02 Q763.118 1282.26 763.118 1283.32 Q763.118 1285.52 764.547 1285.52 Q765.249 1285.52 765.811 1285.07 Q766.374 1284.63 766.819 1283.69 Q767.264 1282.75 767.545 1281.89 Q767.826 1281 768.201 1279.59 Q768.318 1279.03 768.411 1278.89 Q768.528 1278.73 768.856 1278.73 Q769.442 1278.73 769.442 1279.19 Q768.81 1282.22 767.99 1283.95 Q766.678 1286.6 764.453 1286.6 Q762.767 1286.6 761.572 1285.57 Q760.377 1284.53 760.096 1282.99 Q757.028 1286.6 753.843 1286.6 Q751.032 1286.6 749.252 1284.46 Q747.472 1282.31 747.472 1278.91 Q747.472 1275.49 749.158 1272.21 Q750.868 1268.94 753.561 1266.9 Q756.255 1264.86 759.019 1264.86 Q761.947 1264.86 763.446 1267.93 L766.327 1256.54 L766.467 1255.61 Q766.467 1255.33 766.35 1255.19 Q766.256 1255.02 765.694 1254.91 Q765.156 1254.79 764.078 1254.79 Q763.633 1254.79 763.422 1254.76 Q763.235 1254.74 763.071 1254.62 Q762.907 1254.48 762.907 1254.2 Q762.907 1253.38 763.586 1253.29 Q768.083 1252.77 769.676 1252.77 Q769.957 1252.77 770.121 1252.91 Q770.285 1253.03 770.285 1253.17 L770.309 1253.29 M762.86 1270.13 Q762.86 1269.92 762.696 1269.33 Q762.532 1268.75 762.158 1267.93 Q761.783 1267.11 760.963 1266.52 Q760.167 1265.91 759.089 1265.91 Q757.637 1265.91 756.115 1267.16 Q754.616 1268.4 753.515 1270.5 Q752.671 1272.19 751.758 1275.73 Q750.868 1279.26 750.868 1281.02 Q750.868 1282.1 751.102 1283.06 Q751.36 1284 752.086 1284.77 Q752.812 1285.52 753.936 1285.52 Q756.677 1285.52 759.37 1282.12 Q759.886 1281.54 760.003 1281.3 Q760.143 1281.04 760.331 1280.34 L762.72 1270.95 Q762.86 1270.25 762.86 1270.13 Z" fill="#000000" fill-rule="nonzero" fill-opacity="1" /><path clip-path="url(#clip510)" d="M785.454 1278.77 Q785.501 1278.19 786.414 1278.19 L815.81 1278.19 Q817.192 1278.19 817.215 1278.73 Q817.215 1279.31 815.903 1279.29 L786.742 1279.29 Q785.454 1279.31 785.454 1278.77 M785.454 1269.4 Q785.454 1268.82 786.461 1268.84 L815.763 1268.84 Q817.192 1268.84 817.215 1269.4 Q817.215 1269.94 815.997 1269.94 L786.414 1269.94 Q785.454 1269.94 785.454 1269.4 Z" fill="#000000" fill-rule="nonzero" fill-opacity="1" /><path clip-path="url(#clip510)" d="M835.706 1278.14 L835.706 1276.66 L850.439 1254.16 Q850.813 1253.57 851.399 1253.59 Q851.938 1253.59 852.055 1253.8 Q852.172 1254.02 852.172 1254.84 L852.172 1276.66 L856.973 1276.66 L856.973 1278.14 L852.172 1278.14 L852.172 1282.31 Q852.172 1283.69 852.734 1284.14 Q853.319 1284.58 855.802 1284.58 L856.809 1284.58 L856.809 1286.06 Q854.842 1285.92 850.298 1285.92 Q845.777 1285.92 843.81 1286.06 L843.81 1284.58 L844.817 1284.58 Q847.3 1284.58 847.885 1284.16 Q848.471 1283.71 848.471 1282.31 L848.471 1278.14 L835.706 1278.14 M837.064 1276.66 L848.752 1276.66 L848.752 1258.77 L837.064 1276.66 Z" fill="#000000" fill-rule="nonzero" fill-opacity="1" /><path clip-path="url(#clip510)" d="M865.792 1286.06 L865.792 1284.58 Q868.345 1284.58 868.93 1284.28 Q869.516 1283.95 869.516 1282.4 L869.516 1269.54 Q869.516 1267.76 868.883 1267.32 Q868.274 1266.87 865.792 1266.87 L865.792 1265.38 L872.537 1264.86 L872.537 1269.9 Q874.786 1264.86 879.634 1264.86 Q885.256 1264.86 886.029 1269.54 Q886.848 1267.72 888.558 1266.29 Q890.291 1264.86 892.985 1264.86 Q896.592 1264.86 898.021 1266.64 Q899.075 1267.83 899.286 1269.17 Q899.496 1270.5 899.496 1273.97 L899.496 1283.13 Q899.543 1284.14 900.316 1284.37 Q901.089 1284.58 903.244 1284.58 L903.244 1286.06 Q898.349 1285.92 897.88 1285.92 Q897.506 1285.92 892.446 1286.06 L892.446 1284.58 Q894.999 1284.58 895.585 1284.28 Q896.194 1283.95 896.194 1282.4 L896.194 1271.23 Q896.194 1268.79 895.444 1267.37 Q894.695 1265.91 892.634 1265.91 Q890.151 1265.91 888.16 1268 Q886.169 1270.08 886.169 1273.6 L886.169 1282.4 Q886.169 1283.95 886.755 1284.28 Q887.364 1284.58 889.917 1284.58 L889.917 1286.06 Q885.021 1285.92 884.529 1285.92 Q884.155 1285.92 879.119 1286.06 L879.119 1284.58 Q881.672 1284.58 882.257 1284.28 Q882.866 1283.95 882.866 1282.4 L882.866 1271.23 Q882.866 1268.79 882.117 1267.37 Q881.367 1265.91 879.306 1265.91 Q876.823 1265.91 874.833 1268 Q872.842 1270.08 872.842 1273.6 L872.842 1282.4 Q872.842 1283.95 873.427 1284.28 Q874.036 1284.58 876.566 1284.58 L876.566 1286.06 Q871.671 1285.92 871.202 1285.92 Q870.827 1285.92 865.792 1286.06 Z" fill="#000000" fill-rule="nonzero" fill-opacity="1" /><path clip-path="url(#clip510)" d="M905.144 1286.06 L905.144 1284.58 Q907.697 1284.58 908.283 1284.28 Q908.868 1283.95 908.868 1282.4 L908.868 1269.54 Q908.868 1267.76 908.236 1267.32 Q907.627 1266.87 905.144 1266.87 L905.144 1265.38 L911.89 1264.86 L911.89 1269.9 Q914.138 1264.86 918.987 1264.86 Q924.608 1264.86 925.381 1269.54 Q926.201 1267.72 927.911 1266.29 Q929.644 1264.86 932.338 1264.86 Q935.945 1264.86 937.373 1266.64 Q938.427 1267.83 938.638 1269.17 Q938.849 1270.5 938.849 1273.97 L938.849 1283.13 Q938.896 1284.14 939.669 1284.37 Q940.442 1284.58 942.597 1284.58 L942.597 1286.06 Q937.701 1285.92 937.233 1285.92 Q936.858 1285.92 931.799 1286.06 L931.799 1284.58 Q934.352 1284.58 934.938 1284.28 Q935.547 1283.95 935.547 1282.4 L935.547 1271.23 Q935.547 1268.79 934.797 1267.37 Q934.047 1265.91 931.986 1265.91 Q929.504 1265.91 927.513 1268 Q925.522 1270.08 925.522 1273.6 L925.522 1282.4 Q925.522 1283.95 926.107 1284.28 Q926.716 1284.58 929.269 1284.58 L929.269 1286.06 Q924.374 1285.92 923.882 1285.92 Q923.507 1285.92 918.472 1286.06 L918.472 1284.58 Q921.025 1284.58 921.61 1284.28 Q922.219 1283.95 922.219 1282.4 L922.219 1271.23 Q922.219 1268.79 921.47 1267.37 Q920.72 1265.91 918.659 1265.91 Q916.176 1265.91 914.185 1268 Q912.194 1270.08 912.194 1273.6 L912.194 1282.4 Q912.194 1283.95 912.78 1284.28 Q913.389 1284.58 915.919 1284.58 L915.919 1286.06 Q911.023 1285.92 910.555 1285.92 Q910.18 1285.92 905.144 1286.06 Z" fill="#000000" fill-rule="nonzero" fill-opacity="1" /><polyline clip-path="url(#clip510)" style="stroke:#ffa500; stroke-linecap:round; stroke-linejoin:round; stroke-width:4; stroke-opacity:1; fill:none" points="329.393,1325.48 470.558,1325.48 "/>
<circle clip-path="url(#clip510)" cx="399.975" cy="1325.48" r="19.6062" fill="#ffa500" fill-rule="evenodd" fill-opacity="1" stroke="#000000" stroke-opacity="1" stroke-width="4.55111"/>
<path clip-path="url(#clip510)" d="M499.004 1333.61 Q494.085 1328.53 494.085 1321.24 Q494.085 1313.94 499.051 1308.88 Q504.016 1303.82 510.762 1303.82 Q512.448 1303.82 513.877 1304.22 Q515.329 1304.59 516.477 1305.36 Q517.625 1306.11 518.21 1306.63 Q518.819 1307.12 519.639 1307.94 L522.052 1304.4 Q522.426 1303.82 522.801 1303.82 Q523.199 1303.82 523.269 1304.05 Q523.34 1304.26 523.34 1304.97 L523.34 1316.35 Q523.34 1317.12 523.246 1317.31 Q523.152 1317.5 522.567 1317.5 Q522.098 1317.5 522.005 1317.36 Q521.911 1317.22 521.794 1316.68 Q521.068 1311.5 518.163 1308.41 Q515.282 1305.32 511.347 1305.32 Q510.2 1305.32 508.912 1305.57 Q507.647 1305.83 505.773 1306.82 Q503.923 1307.8 502.494 1309.42 Q501.088 1311.01 500.058 1314.1 Q499.027 1317.17 499.027 1321.24 Q499.027 1325.27 500.058 1328.36 Q501.088 1331.46 502.517 1333.07 Q503.969 1334.66 505.843 1335.67 Q507.74 1336.68 509.075 1336.96 Q510.434 1337.22 511.629 1337.22 Q512.448 1337.22 513.409 1337.05 Q514.369 1336.87 515.798 1336.35 Q517.25 1335.81 518.163 1334.55 Q519.077 1333.28 519.077 1331.41 L519.077 1328.34 Q519.077 1326.91 518.374 1326.47 Q517.672 1326.02 514.603 1326.02 L513.081 1326.02 L513.081 1324.55 Q514.814 1324.69 520.787 1324.69 Q521.325 1324.69 526.642 1324.55 L526.642 1326.02 Q524.347 1326.02 523.832 1326.37 Q523.34 1326.7 523.34 1328.13 L523.34 1336.49 Q523.34 1337.59 522.918 1337.59 Q522.543 1337.59 521.419 1336.52 Q520.318 1335.44 519.826 1334.62 Q518.679 1336.63 516.172 1337.66 Q513.69 1338.69 510.856 1338.69 Q503.946 1338.69 499.004 1333.61 Z" fill="#000000" fill-rule="nonzero" fill-opacity="1" /><path clip-path="url(#clip510)" d="M534.088 1335.06 Q530.926 1331.92 530.926 1327.38 Q530.926 1322.81 534.018 1319.49 Q537.133 1316.14 541.584 1316.14 Q545.94 1316.14 549.055 1319.46 Q552.194 1322.77 552.194 1327.38 Q552.194 1331.9 549.032 1335.04 Q545.893 1338.18 541.537 1338.18 Q537.274 1338.18 534.088 1335.06 M534.908 1326.98 Q534.908 1331.64 536.126 1333.75 Q538 1336.96 541.584 1336.96 Q543.364 1336.96 544.839 1336 Q546.338 1335.04 547.158 1333.42 Q548.212 1331.32 548.212 1326.98 Q548.212 1322.37 546.947 1320.33 Q545.074 1317.22 541.537 1317.22 Q539.991 1317.22 538.468 1318.03 Q536.969 1318.83 536.056 1320.42 Q534.908 1322.53 534.908 1326.98 Z" fill="#000000" fill-rule="nonzero" fill-opacity="1" /><path clip-path="url(#clip510)" d="M554.676 1337.64 L554.676 1336.16 Q557.23 1336.16 557.815 1335.86 Q558.401 1335.53 558.401 1333.99 L558.401 1309.04 Q558.401 1307.26 557.768 1306.82 Q557.159 1306.37 554.676 1306.37 L554.676 1304.87 L561.563 1304.36 L561.563 1333.99 Q561.563 1335.53 562.172 1335.86 Q562.781 1336.16 565.31 1336.16 L565.31 1337.64 Q564.725 1337.64 563.507 1337.59 Q562.289 1337.55 561.399 1337.52 Q560.509 1337.5 559.993 1337.5 Q559.431 1337.5 554.676 1337.64 Z" fill="#000000" fill-rule="nonzero" fill-opacity="1" /><path clip-path="url(#clip510)" d="M569.363 1327.33 Q569.363 1322.77 572.549 1319.6 Q575.734 1316.44 580.044 1316.44 Q583.698 1316.44 586.087 1319.42 L586.087 1309.04 Q586.087 1307.26 585.454 1306.82 Q584.845 1306.37 582.363 1306.37 L582.363 1304.87 L589.272 1304.36 L589.272 1333.47 Q589.272 1335.25 589.881 1335.72 Q590.514 1336.16 592.996 1336.16 L592.996 1337.64 L585.946 1338.18 L585.946 1334.99 Q583.463 1338.15 579.528 1338.18 Q575.406 1338.18 572.385 1335.02 Q569.363 1331.85 569.363 1327.33 M573.345 1327.38 Q573.345 1331.83 574.727 1334.03 Q576.647 1337.1 579.763 1337.1 Q583.323 1337.1 585.431 1333.75 Q585.97 1332.93 585.946 1331.97 L585.946 1322.13 Q585.946 1321.17 585.431 1320.38 Q583.463 1317.5 580.255 1317.5 Q576.905 1317.5 574.821 1320.56 Q573.345 1322.86 573.345 1327.38 Z" fill="#000000" fill-rule="nonzero" fill-opacity="1" /><path clip-path="url(#clip510)" d="M596.39 1336.87 Q595.711 1336.09 595.711 1335.09 Q595.711 1334.08 596.367 1333.33 Q597.046 1332.56 598.264 1332.56 Q599.693 1332.56 600.512 1333.94 Q601.332 1335.3 601.332 1337.59 Q601.332 1340.08 600.325 1342.37 Q599.318 1344.69 598.334 1345.79 Q597.35 1346.89 596.952 1346.89 Q596.484 1346.89 596.484 1346.38 Q596.484 1346.19 596.812 1345.84 Q600.255 1342.14 600.278 1337.59 Q600.278 1336.87 600.184 1336.87 L600.067 1336.96 Q599.248 1337.64 598.264 1337.64 Q597.069 1337.64 596.39 1336.87 Z" fill="#000000" fill-rule="nonzero" fill-opacity="1" /><path clip-path="url(#clip510)" d="M639.301 1304.87 L632.391 1332.6 Q632.11 1333.84 632.11 1334.9 Q632.11 1337.1 633.539 1337.1 Q634.242 1337.1 634.804 1336.66 Q635.366 1336.21 635.811 1335.27 Q636.256 1334.34 636.537 1333.47 Q636.818 1332.58 637.193 1331.17 Q637.31 1330.61 637.404 1330.47 Q637.521 1330.31 637.849 1330.31 Q638.434 1330.31 638.434 1330.78 Q637.802 1333.8 636.982 1335.53 Q635.67 1338.18 633.445 1338.18 Q631.759 1338.18 630.564 1337.15 Q629.37 1336.12 629.089 1334.57 Q626.02 1338.18 622.835 1338.18 Q620.024 1338.18 618.244 1336.05 Q616.464 1333.89 616.464 1330.5 Q616.464 1327.08 618.15 1323.8 Q619.86 1320.52 622.554 1318.48 Q625.247 1316.44 628.011 1316.44 Q630.939 1316.44 632.438 1319.51 L635.319 1308.13 L635.46 1307.19 Q635.46 1306.91 635.343 1306.77 Q635.249 1306.6 634.687 1306.49 Q634.148 1306.37 633.071 1306.37 Q632.626 1306.37 632.415 1306.35 Q632.227 1306.32 632.063 1306.21 Q631.899 1306.07 631.899 1305.78 Q631.899 1304.97 632.579 1304.87 Q637.076 1304.36 638.669 1304.36 Q638.95 1304.36 639.114 1304.5 Q639.278 1304.61 639.278 1304.75 L639.301 1304.87 M631.853 1321.71 Q631.853 1321.5 631.689 1320.92 Q631.525 1320.33 631.15 1319.51 Q630.775 1318.69 629.955 1318.11 Q629.159 1317.5 628.082 1317.5 Q626.629 1317.5 625.107 1318.74 Q623.608 1319.98 622.507 1322.09 Q621.664 1323.77 620.75 1327.31 Q619.86 1330.85 619.86 1332.6 Q619.86 1333.68 620.095 1334.64 Q620.352 1335.58 621.078 1336.35 Q621.804 1337.1 622.929 1337.1 Q625.669 1337.1 628.363 1333.7 Q628.878 1333.12 628.995 1332.88 Q629.136 1332.63 629.323 1331.92 L631.712 1322.53 Q631.853 1321.83 631.853 1321.71 Z" fill="#000000" fill-rule="nonzero" fill-opacity="1" /><path clip-path="url(#clip510)" d="M654.446 1330.35 Q654.493 1329.77 655.407 1329.77 L684.802 1329.77 Q686.184 1329.77 686.207 1330.31 Q686.207 1330.89 684.896 1330.87 L655.735 1330.87 Q654.446 1330.89 654.446 1330.35 M654.446 1320.99 Q654.446 1320.4 655.454 1320.42 L684.755 1320.42 Q686.184 1320.42 686.207 1320.99 Q686.207 1321.52 684.989 1321.52 L655.407 1321.52 Q654.446 1321.52 654.446 1320.99 Z" fill="#000000" fill-rule="nonzero" fill-opacity="1" /><path clip-path="url(#clip510)" d="M704.698 1330.4 Q704.698 1325.04 711.608 1321.57 Q708.633 1319.56 708.094 1318.97 Q705.986 1316.63 705.986 1313.7 Q705.986 1310.35 708.516 1308.03 Q711.069 1305.69 714.676 1305.69 Q718.119 1305.69 720.719 1307.68 Q723.319 1309.67 723.319 1312.84 Q723.319 1317.29 717.51 1320.28 Q721.352 1322.67 722.265 1323.68 Q724.607 1326.28 724.607 1329.58 Q724.607 1333.42 721.656 1336.07 Q718.705 1338.69 714.629 1338.69 Q710.648 1338.69 707.673 1336.37 Q704.698 1334.06 704.698 1330.4 M707.087 1330.4 Q707.087 1333.38 709.312 1335.37 Q711.561 1337.36 714.676 1337.36 Q717.698 1337.36 719.946 1335.63 Q722.218 1333.89 722.218 1331.32 Q722.218 1330.31 721.867 1329.44 Q721.539 1328.57 720.86 1327.9 Q720.204 1327.19 719.782 1326.89 Q719.384 1326.56 718.611 1326.02 L712.709 1322.3 Q707.087 1325.41 707.087 1330.4 M708.094 1311.83 Q708.094 1314.12 710.507 1315.72 L716.456 1319.56 Q721.211 1316.77 721.211 1312.84 Q721.211 1310.28 719.267 1308.6 Q717.323 1306.89 714.629 1306.89 Q711.983 1306.89 710.039 1308.29 Q708.094 1309.67 708.094 1311.83 Z" fill="#000000" fill-rule="nonzero" fill-opacity="1" /><path clip-path="url(#clip510)" d="M734.784 1337.64 L734.784 1336.16 Q737.337 1336.16 737.923 1335.86 Q738.508 1335.53 738.508 1333.99 L738.508 1321.13 Q738.508 1319.35 737.876 1318.9 Q737.267 1318.46 734.784 1318.46 L734.784 1316.96 L741.53 1316.44 L741.53 1321.48 Q743.778 1316.44 748.627 1316.44 Q754.248 1316.44 755.021 1321.13 Q755.841 1319.3 757.551 1317.87 Q759.284 1316.44 761.977 1316.44 Q765.584 1316.44 767.013 1318.22 Q768.067 1319.42 768.278 1320.75 Q768.489 1322.09 768.489 1325.55 L768.489 1334.71 Q768.536 1335.72 769.309 1335.95 Q770.082 1336.16 772.236 1336.16 L772.236 1337.64 Q767.341 1337.5 766.873 1337.5 Q766.498 1337.5 761.439 1337.64 L761.439 1336.16 Q763.992 1336.16 764.577 1335.86 Q765.186 1335.53 765.186 1333.99 L765.186 1322.81 Q765.186 1320.38 764.437 1318.95 Q763.687 1317.5 761.626 1317.5 Q759.143 1317.5 757.152 1319.58 Q755.161 1321.67 755.161 1325.18 L755.161 1333.99 Q755.161 1335.53 755.747 1335.86 Q756.356 1336.16 758.909 1336.16 L758.909 1337.64 Q754.014 1337.5 753.522 1337.5 Q753.147 1337.5 748.111 1337.64 L748.111 1336.16 Q750.664 1336.16 751.25 1335.86 Q751.859 1335.53 751.859 1333.99 L751.859 1322.81 Q751.859 1320.38 751.109 1318.95 Q750.36 1317.5 748.299 1317.5 Q745.816 1317.5 743.825 1319.58 Q741.834 1321.67 741.834 1325.18 L741.834 1333.99 Q741.834 1335.53 742.42 1335.86 Q743.029 1336.16 745.558 1336.16 L745.558 1337.64 Q740.663 1337.5 740.195 1337.5 Q739.82 1337.5 734.784 1337.64 Z" fill="#000000" fill-rule="nonzero" fill-opacity="1" /><path clip-path="url(#clip510)" d="M774.137 1337.64 L774.137 1336.16 Q776.69 1336.16 777.275 1335.86 Q777.861 1335.53 777.861 1333.99 L777.861 1321.13 Q777.861 1319.35 777.228 1318.9 Q776.619 1318.46 774.137 1318.46 L774.137 1316.96 L780.882 1316.44 L780.882 1321.48 Q783.131 1316.44 787.979 1316.44 Q793.601 1316.44 794.374 1321.13 Q795.193 1319.3 796.903 1317.87 Q798.636 1316.44 801.33 1316.44 Q804.937 1316.44 806.366 1318.22 Q807.42 1319.42 807.631 1320.75 Q807.841 1322.09 807.841 1325.55 L807.841 1334.71 Q807.888 1335.72 808.661 1335.95 Q809.434 1336.16 811.589 1336.16 L811.589 1337.64 Q806.694 1337.5 806.225 1337.5 Q805.851 1337.5 800.791 1337.64 L800.791 1336.16 Q803.344 1336.16 803.93 1335.86 Q804.539 1335.53 804.539 1333.99 L804.539 1322.81 Q804.539 1320.38 803.789 1318.95 Q803.04 1317.5 800.979 1317.5 Q798.496 1317.5 796.505 1319.58 Q794.514 1321.67 794.514 1325.18 L794.514 1333.99 Q794.514 1335.53 795.1 1335.86 Q795.709 1336.16 798.262 1336.16 L798.262 1337.64 Q793.366 1337.5 792.875 1337.5 Q792.5 1337.5 787.464 1337.64 L787.464 1336.16 Q790.017 1336.16 790.603 1335.86 Q791.212 1335.53 791.212 1333.99 L791.212 1322.81 Q791.212 1320.38 790.462 1318.95 Q789.713 1317.5 787.651 1317.5 Q785.169 1317.5 783.178 1319.58 Q781.187 1321.67 781.187 1325.18 L781.187 1333.99 Q781.187 1335.53 781.772 1335.86 Q782.381 1336.16 784.911 1336.16 L784.911 1337.64 Q780.016 1337.5 779.547 1337.5 Q779.172 1337.5 774.137 1337.64 Z" fill="#000000" fill-rule="nonzero" fill-opacity="1" /></svg>
